<?xml version="1.0" encoding="utf-8"?>
<!-- Generator: Adobe Illustrator 27.8.1, SVG Export Plug-In . SVG Version: 6.00 Build 0)  -->
<svg version="1.1" id="Layer_1" xmlns="http://www.w3.org/2000/svg" xmlns:xlink="http://www.w3.org/1999/xlink" x="0px" y="0px"
	 viewBox="0 0 212 44.5" style="enable-background:new 0 0 212 44.5;" xml:space="preserve">
<style type="text/css">
	.st0{fill:#FFFFFF;}
	.st1{fill:#008AAC;}
</style>
<path class="st0" d="M203.1,4.7H7.8v19.3h195.2V4.7z"/>
<path class="st1" d="M199.2,14H196v3.8c0,0.2-0.2,1.5,1.1,1.5c0.7,0,1.5,0,2.1-0.1v2.2c-1.3,0.2-2.2,0.2-3,0.2c-3.7,0-6-0.4-5.7-3.3
	V14h-2.8v-2.3h2.8v-1.5l5.5-1.4v2.8h3.2V14z M185.3,21.3h-5.5v-5.6c-0.1-0.9-0.4-2-2.1-2c-2.7,0-2.4,2-2.4,2.1v5.5h-5.5v-7.1
	c0-0.9,0-1.4-0.2-2.5h5.6l0.1,1.1c1.3-1,2.7-1.3,4.6-1.3c3.1,0,5.5,1.3,5.5,3.5L185.3,21.3L185.3,21.3z M160.5,21.3l-0.1-1.1
	c-1.3,1-2.7,1.3-4.6,1.3c-3.1,0-5.5-1.3-5.5-3.5v-6.4h5.5v5.6c0.1,0.9,0.4,2,2.1,2c2.7,0,2.4-2,2.4-2.1v-5.5h5.5v7.1
	c0,0.9,0,1.4,0.2,2.5H160.5z M146.5,21.3h-5.8v-5.7h-7.1v5.7h-5.8V7.4h5.8v5.5h7.1V7.4h5.8V21.3z M115.3,10.1h-9v3.2h8.4V16h-8.4
	v5.2h-5.8V7.4h14.9V10.1z M86.7,21.3h-5.5v-5.6c-0.1-0.9-0.4-2-2.1-2c-2.7,0-2.4,2-2.4,2.1v5.5h-5.5v-7.1c0-0.9,0-1.4-0.2-2.5h5.6
	l0.1,1.1c1.3-1,2.7-1.3,4.6-1.3c3.1,0,5.5,1.3,5.5,3.5L86.7,21.3L86.7,21.3z M67.3,21.3h-5.5v-5.6c-0.1-0.9-0.4-2-2.1-2
	c-2.7,0-2.4,2-2.4,2.1v5.5h-5.5V7.4h5.5v5.3c1.3-1,2.7-1.3,4.6-1.3c3.1,0,5.5,1.3,5.5,3.5V21.3z M40.2,21.6c-4.6,0-8.5-1.6-8.5-5.1
	s3.9-5.1,8.5-5.1c4.6,0,8.5,1.6,8.5,5.1S44.7,21.6,40.2,21.6z M28.5,17.1c0,3.3-4.1,4.4-8,4.4c-4.7,0-8-1.3-7.7-4.7h5.8
	c-0.1,0.8,0.3,2,1.9,2c2.3,0,2.2-1.8,2.2-2.1V7.4h5.8V17.1z M205.7,1H6.3C3.4,1,1.1,3.3,1.1,6.2v16.7c0,2.9,2.3,5.2,5.2,5.2h199.5
	c2.9,0,5.2-2.3,5.2-5.2V6.2C211,3.3,208.6,1,205.7,1z"/>
<path class="st1" d="M40.2,13.5c-2.3,0-2.8,1.6-2.8,3c0,1.4,0.5,3,2.8,3c2.3,0,2.8-1.6,2.8-3C43,15.1,42.5,13.5,40.2,13.5z"/>
<g>
	<path class="st1" d="M3.2,39.7c0,0.1,0,0.1,0,0.2c0,0.2,0,0.5,0,0.7c0,1,0,2.1,0,3.1c0,0,0,0.1,0,0.1c0,0.2-0.1,0.4-0.3,0.5
		c-0.1,0.1-0.3,0.1-0.4,0.2c-0.3,0-0.5,0-0.8,0c-0.1,0-0.3-0.1-0.4-0.2c-0.1-0.1-0.2-0.2-0.2-0.4c0-0.1,0-0.1,0-0.2
		c0-3.5,0-7.1,0-10.6c0-0.1,0-0.1,0-0.2c0-0.2,0.1-0.3,0.2-0.4c0.2-0.1,0.3-0.2,0.5-0.2c0.1,0,0.2,0,0.3,0c3.4,0,6.8,0,10.2,0
		c0.1,0,0.3,0,0.4,0c0.2,0,0.4,0,0.5,0c0.4,0,0.8,0.1,1.2,0.2c0.6,0.2,1.1,0.4,1.6,0.8c0.2,0.1,0.3,0.3,0.4,0.4
		c0.3,0.3,0.4,0.7,0.4,1.1c0,0.8,0,1.5,0,2.3c0,0.5-0.2,0.9-0.5,1.2c-0.2,0.3-0.5,0.5-0.8,0.6c-0.1,0-0.2,0.1-0.2,0.1
		c0,0.1,0.1,0.1,0.1,0.1c0.1,0.1,0.3,0.2,0.4,0.3c0.2,0.1,0.4,0.3,0.6,0.5c0.2,0.3,0.4,0.6,0.4,1c0,0.9,0,1.9,0,2.8c0,0,0,0.1,0,0.1
		c0,0.2-0.1,0.3-0.2,0.4c-0.2,0.1-0.4,0.2-0.6,0.2c-0.2,0-0.3,0-0.5,0c-0.2,0-0.3,0-0.4-0.1c-0.2-0.1-0.3-0.2-0.3-0.4
		c0-0.1,0-0.1,0-0.2c0-0.9,0-1.7,0-2.6c0-0.1,0-0.2,0-0.2c0-0.3-0.2-0.5-0.3-0.6c-0.3-0.2-0.6-0.4-0.9-0.5c-0.3-0.1-0.7-0.2-1.1-0.2
		c-1.7,0-3.4,0-5.1,0c-1.3,0-2.7,0-4,0C3.3,39.7,3.2,39.7,3.2,39.7z M8,38.5c1.4,0,2.8,0,4.2,0c0.2,0,0.5,0,0.7,0
		c0.3,0,0.6-0.1,0.9-0.2c0.3-0.1,0.5-0.2,0.7-0.4c0.2-0.2,0.3-0.4,0.3-0.7c0-0.1,0-0.1,0-0.2c0-0.6,0-1.2,0-1.8c0-0.1,0-0.2,0-0.2
		c0-0.3-0.1-0.5-0.3-0.7c-0.1-0.1-0.1-0.1-0.2-0.2c-0.2-0.2-0.5-0.3-0.8-0.4c-0.4-0.1-0.8-0.1-1.2-0.1c-3,0-5.9,0-8.9,0
		c0,0-0.1,0-0.1,0c-0.2,0-0.2,0-0.2,0.2c0,0,0,0.1,0,0.1c0,1.5,0,3,0,4.5c0,0,0,0.1,0,0.1c0,0.1,0,0.1,0.1,0.1c0.1,0,0.1,0,0.2,0
		C5,38.5,6.5,38.5,8,38.5z"/>
	<path class="st1" d="M117.1,39.7c0,0.1,0,0.2,0,0.3c0,0.6,0,1.1,0,1.7c0,0.6,0,1.3,0,1.9c0,0.1,0,0.2,0,0.3c0,0.2-0.1,0.3-0.2,0.4
		c-0.2,0.1-0.4,0.2-0.6,0.2c-0.2,0-0.3,0-0.5,0c-0.2,0-0.4-0.1-0.6-0.2c-0.1-0.1-0.2-0.2-0.2-0.4c0-0.1,0-0.1,0-0.2
		c0-3.5,0-7.1,0-10.6c0-0.1,0-0.1,0-0.2c0-0.1,0.1-0.3,0.2-0.3c0.2-0.1,0.4-0.2,0.6-0.2c0.1,0,0.2,0,0.3,0c3.4,0,6.8,0,10.1,0
		c0.1,0,0.3,0,0.4,0c0.1,0,0.2,0,0.3,0c0.3,0,0.7,0.1,1,0.1c0.8,0.2,1.5,0.5,2.1,0.9c0.2,0.1,0.3,0.3,0.4,0.4c0.2,0.3,0.4,0.6,0.3,1
		c0,0.7,0,1.5,0,2.2c0,0.4-0.1,0.8-0.4,1.1c-0.2,0.3-0.5,0.5-0.8,0.7c-0.1,0-0.2,0.1-0.2,0.1c0,0,0,0-0.1,0.1c0,0.1,0.1,0.1,0.1,0.1
		c0.2,0.1,0.4,0.2,0.6,0.3c0.2,0.1,0.3,0.2,0.4,0.4c0.3,0.3,0.4,0.7,0.4,1.1c0,0.9,0,1.8,0,2.7c0,0,0,0.1,0,0.1c0,0.1,0,0.2-0.1,0.3
		c-0.1,0-0.1,0.1-0.2,0.1c-0.2,0.1-0.4,0.2-0.6,0.2c-0.1,0-0.3,0-0.4,0c-0.2,0-0.3,0-0.4-0.1c-0.2-0.1-0.3-0.2-0.3-0.4
		c0-0.1,0-0.1,0-0.2c0-0.9,0-1.8,0-2.7c0-0.3-0.1-0.6-0.3-0.8c-0.2-0.2-0.4-0.3-0.7-0.4c-0.2-0.1-0.5-0.2-0.8-0.2
		c-0.2,0-0.4,0-0.7,0c-3,0-5.9,0-8.9,0C117.3,39.7,117.2,39.7,117.1,39.7z M117.1,38.5c0.1,0,0.2,0,0.3,0c2.8,0,5.7,0,8.5,0
		c0.3,0,0.6,0,0.9,0c0.4,0,0.9-0.2,1.2-0.4c0.1-0.1,0.3-0.2,0.4-0.3c0.1-0.2,0.2-0.4,0.2-0.6c0-0.8,0-1.6,0-2.3
		c0-0.2-0.1-0.3-0.1-0.5c-0.1-0.1-0.2-0.2-0.3-0.3c-0.2-0.2-0.4-0.3-0.7-0.4c-0.4-0.1-0.8-0.2-1.3-0.2c-3,0-6,0-9,0
		c-0.1,0-0.1,0-0.2,0c-0.1,0-0.1,0-0.1,0.1c0,0.1,0,0.2,0,0.2c0,1.4,0,2.9,0,4.3c0,0.1,0,0.1,0,0.2
		C117.1,38.4,117.1,38.5,117.1,38.5z"/>
	<path class="st1" d="M136.3,39.4c0,0,0,0.1,0,0.1c0,0.1,0,0.1,0,0.2c0,1.4,0,2.7,0,4.1c0,0.1,0,0.1,0,0.2c0,0.1,0,0.2-0.1,0.3
		c-0.1,0-0.1,0.1-0.2,0.1c-0.2,0.1-0.4,0.2-0.6,0.2c-0.2,0-0.4,0-0.6,0c-0.1,0-0.3-0.1-0.4-0.2c-0.1-0.1-0.2-0.2-0.2-0.4
		c0,0,0-0.1,0-0.1c0-2.9,0-5.8,0-8.7c0-0.1,0-0.3,0-0.4c0-0.3,0.2-0.5,0.3-0.7c0.2-0.2,0.4-0.4,0.6-0.6c0.6-0.4,1.2-0.6,1.8-0.8
		c0.4-0.1,0.8-0.1,1.2-0.2c0.2,0,0.4,0,0.6,0c2.3,0,4.6,0,6.9,0c0.3,0,0.5,0,0.8,0c0.4,0,0.7,0.1,1,0.2c0.5,0.1,1,0.3,1.5,0.6
		c0.2,0.1,0.4,0.3,0.6,0.5c0.2,0.2,0.4,0.5,0.5,0.8c0,0.1,0,0.2,0,0.2c0,0.1,0,0.2,0,0.2c0,2.9,0,5.8,0,8.7c0,0.1,0,0.1,0,0.2
		c0,0.1,0,0.2-0.1,0.3c-0.1,0.1-0.1,0.1-0.2,0.1c-0.2,0.1-0.3,0.1-0.5,0.1c-0.2,0-0.3,0-0.5,0c-0.1,0-0.3,0-0.4-0.1
		c-0.2-0.1-0.3-0.2-0.3-0.4c0-0.1,0-0.1,0-0.2c0-1.4,0-2.7,0-4.1c0-0.1,0-0.1,0-0.2c0-0.1,0-0.1-0.1-0.1c0,0-0.1,0-0.1,0
		c-0.1,0-0.1,0-0.2,0c-3.7,0-7.3,0-11,0C136.5,39.4,136.4,39.3,136.3,39.4z M147.9,38.2c0-0.1,0-0.1,0-0.2c0-1,0-2,0-3.1
		c0-0.2-0.1-0.4-0.2-0.6c-0.1-0.1-0.2-0.2-0.3-0.2c-0.3-0.2-0.6-0.3-0.9-0.4c-0.4-0.1-0.7-0.1-1.1-0.1c-2.2,0-4.4,0-6.6,0
		c-0.3,0-0.6,0-0.9,0.1c-0.3,0.1-0.6,0.2-0.9,0.3c-0.2,0.1-0.3,0.2-0.5,0.4c-0.1,0.1-0.2,0.3-0.2,0.4c0,0.1,0,0.2,0,0.3
		c0,1,0,1.9,0,2.9c0,0,0,0.1,0,0.1c0,0.2,0,0.2,0.2,0.2c0.1,0,0.1,0,0.2,0c3.6,0,7.3,0,10.9,0c0.1,0,0.1,0,0.2,0
		C147.8,38.2,147.8,38.2,147.9,38.2z"/>
	<path class="st1" d="M208.9,42c0-0.1,0-0.2,0-0.3c0-2.1,0-4.2,0-6.3c0-0.8,0-1.7,0-2.5c0-0.3,0.2-0.5,0.4-0.6
		c0.2-0.1,0.3-0.1,0.5-0.1c0.2,0,0.4,0,0.5,0.1c0.1,0,0.3,0.1,0.4,0.2c0.1,0.1,0.2,0.2,0.2,0.4c0,0.1,0,0.1,0,0.2
		c0,3.5,0,7.1,0,10.6c0,0,0,0.1,0,0.1c0,0.2-0.1,0.3-0.2,0.4c-0.2,0.1-0.4,0.2-0.6,0.2c-0.1,0-0.3,0-0.4,0c-0.3,0-0.5-0.1-0.7-0.3
		c-1-0.8-1.9-1.5-2.9-2.3c-1-0.8-2.1-1.7-3.1-2.5c-1.2-0.9-2.4-1.9-3.5-2.8c-0.7-0.6-1.4-1.1-2.1-1.7c0,0-0.1-0.1-0.1-0.1
		c0,0,0,0-0.1,0c0,0,0,0.1,0,0.1c0,0.1,0,0.1,0,0.2c0,2.9,0,5.7,0,8.6c0,0.1,0,0.1,0,0.2c0,0.2-0.1,0.3-0.2,0.4
		c-0.2,0.1-0.3,0.2-0.5,0.2c-0.3,0-0.5,0-0.8,0c-0.1,0-0.3-0.1-0.4-0.2c-0.1-0.1-0.2-0.2-0.2-0.4c0-0.1,0-0.1,0-0.2
		c0-3.5,0-7.1,0-10.6c0-0.1,0-0.1,0-0.2c0-0.1,0-0.2,0.1-0.3c0,0,0.1-0.1,0.1-0.1c0.2-0.1,0.3-0.1,0.5-0.2c0.2,0,0.4,0,0.6,0
		c0.2,0,0.4,0.1,0.6,0.3c0.5,0.4,1,0.8,1.5,1.2c1.7,1.4,3.5,2.8,5.2,4.2c1.6,1.3,3.2,2.6,4.8,3.9C208.7,42,208.8,42,208.9,42z"/>
	<path class="st1" d="M90.4,42c0,0,0-0.1,0-0.1c0-0.1,0-0.2,0-0.2c0-2.9,0-5.7,0-8.6c0-0.1,0-0.2,0-0.3c0-0.1,0.1-0.3,0.2-0.3
		c0.1,0,0.2-0.1,0.2-0.1c0.3-0.1,0.5-0.1,0.8,0c0.2,0,0.4,0.1,0.5,0.2c0.1,0,0.1,0.1,0.2,0.1c0.1,0.1,0.1,0.1,0.1,0.2
		c0,0.1,0,0.1,0,0.2c0,3.6,0,7.1,0,10.7c0,0,0,0.1,0,0.1c0,0.2-0.1,0.3-0.2,0.4c-0.2,0.1-0.4,0.2-0.6,0.2c-0.2,0-0.5,0-0.7,0
		c-0.2,0-0.3-0.1-0.4-0.2c-0.5-0.4-1-0.8-1.5-1.2c-1.5-1.2-3-2.4-4.5-3.6c-1.5-1.2-3.1-2.5-4.6-3.7c-0.4-0.3-0.7-0.6-1.1-0.9
		c0,0-0.1-0.1-0.2-0.1c0,0,0,0,0,0.1c0,0.1,0,0.2,0,0.2c0,2.9,0,5.7,0,8.6c0,0.1,0,0.1,0,0.2c0,0.1,0,0.2-0.1,0.3
		c-0.1,0.1-0.2,0.1-0.3,0.2c-0.1,0.1-0.3,0.1-0.4,0.1c-0.2,0-0.4,0-0.6,0c-0.1,0-0.3-0.1-0.4-0.2c-0.1-0.1-0.2-0.2-0.2-0.4
		c0,0,0-0.1,0-0.1c0-3.5,0-7.1,0-10.6c0-0.1,0-0.1,0-0.2c0-0.2,0.1-0.3,0.2-0.4c0.1-0.1,0.3-0.2,0.5-0.2c0.3,0,0.5,0,0.8,0
		c0.2,0,0.3,0.1,0.5,0.2c0.8,0.6,1.6,1.3,2.4,1.9c1.4,1.1,2.8,2.3,4.2,3.4c1.6,1.3,3.2,2.6,4.9,3.9c0.1,0.1,0.1,0.1,0.2,0.2
		C90.4,42,90.4,42,90.4,42z"/>
	<path class="st1" d="M183.7,44.5c-1.2,0-2.5,0-3.7,0c-0.8,0-1.6-0.1-2.4-0.5c-0.5-0.2-0.9-0.4-1.2-0.8c-0.3-0.3-0.5-0.6-0.6-0.9
		c0-0.1,0-0.1,0-0.2c0-0.1,0-0.2,0-0.2c0-2.3,0-4.7,0-7c0-0.5,0.2-0.9,0.5-1.2c0.2-0.2,0.4-0.4,0.6-0.5c0.5-0.3,1.1-0.5,1.7-0.7
		c0.4-0.1,0.8-0.1,1.1-0.2c0.2,0,0.4,0,0.6,0c2.3,0,4.5,0,6.8,0c0.3,0,0.6,0,0.9,0c0.5,0,1,0.2,1.5,0.3c0.4,0.1,0.8,0.3,1.1,0.6
		c0.3,0.2,0.5,0.4,0.7,0.7c0.2,0.3,0.3,0.5,0.3,0.8c0,1,0,2.1,0,3.1c0,1.3,0,2.6,0,3.9c0,0.6-0.2,1.1-0.7,1.5
		c-0.3,0.3-0.7,0.5-1.2,0.7c-0.4,0.2-0.9,0.3-1.4,0.4c-0.4,0.1-0.8,0.1-1.1,0.1C186,44.5,184.9,44.5,183.7,44.5
		C183.7,44.5,183.7,44.5,183.7,44.5z M183.7,33.5c-1.1,0-2.2,0-3.3,0c-0.3,0-0.6,0-0.9,0.1c-0.3,0.1-0.6,0.1-0.9,0.3
		c-0.2,0.1-0.4,0.2-0.5,0.4c-0.1,0.1-0.2,0.3-0.2,0.5c0,0.1,0,0.2,0,0.3c0,1.7,0,3.3,0,5c0,0.6,0,1.3,0,1.9c0,0.3,0.1,0.6,0.4,0.8
		c0.1,0.1,0.1,0.1,0.2,0.2c0.3,0.2,0.6,0.3,0.9,0.4c0.3,0.1,0.7,0.1,1.1,0.1c2,0,4,0,6.1,0c0.3,0,0.7,0,1,0c0.2,0,0.4,0,0.6-0.1
		c0.3-0.1,0.6-0.2,0.9-0.4c0.1-0.1,0.2-0.1,0.2-0.2c0.2-0.2,0.4-0.5,0.4-0.8c0-2.3,0-4.6,0-6.9c0,0,0-0.1,0-0.1
		c0-0.2-0.1-0.4-0.2-0.5c-0.1-0.1-0.2-0.2-0.3-0.3c-0.3-0.2-0.6-0.3-0.9-0.4c-0.3-0.1-0.7-0.1-1.1-0.1
		C185.9,33.5,184.8,33.5,183.7,33.5z"/>
	<path class="st1" d="M52.4,40.2c-0.1,0-0.2,0-0.2,0c-1.7,0-3.4,0-5.2,0c-0.2,0-0.5,0-0.7-0.1c-0.1,0-0.2-0.1-0.2-0.1
		c-0.2-0.1-0.2-0.4,0-0.6c0,0,0.1-0.1,0.1-0.1c0.2-0.1,0.4-0.2,0.6-0.2c0.1,0,0.1,0,0.2,0c2.1,0,4.3,0,6.4,0c0.2,0,0.4,0,0.6,0.1
		c0.1,0,0.2,0.1,0.3,0.2c0.1,0.1,0.2,0.2,0.2,0.4c0,0.2,0,0.4,0,0.6c0,0.6,0,1.1,0,1.7c0,0.5-0.2,0.9-0.5,1.2
		c-0.2,0.2-0.5,0.4-0.8,0.6c-0.5,0.3-1.1,0.5-1.7,0.6c-0.4,0.1-0.9,0.1-1.3,0.1c-2.4,0-4.8,0-7.2,0c-0.8,0-1.6-0.1-2.4-0.5
		c-0.4-0.2-0.8-0.4-1.1-0.7c-0.1-0.1-0.3-0.3-0.4-0.4c-0.2-0.3-0.3-0.6-0.3-1c0-0.5,0-0.9,0-1.4c0-1.9,0-3.8,0-5.7
		c0-0.5,0.2-1,0.6-1.3c0.3-0.3,0.7-0.5,1.2-0.7c0.5-0.2,1-0.4,1.6-0.4c0.2,0,0.4,0,0.5,0c0.2,0,0.5,0,0.7,0c2.2,0,4.5,0,6.7,0
		c0.1,0,0.2,0,0.3,0c0.1,0,0.1,0,0.2,0c0.1,0,0.2,0,0.2,0c0.9,0.1,1.8,0.3,2.6,0.8c0.2,0.1,0.5,0.3,0.7,0.5c0.2,0.3,0.4,0.6,0.5,0.9
		c0,0.1,0,0.2,0,0.2c0,0.1-0.1,0.2-0.2,0.3c-0.1,0.1-0.2,0.1-0.3,0.2c-0.4,0.1-0.7,0.1-1.1,0c-0.1,0-0.2-0.1-0.3-0.1
		c-0.1-0.1-0.2-0.2-0.2-0.4c0-0.3-0.1-0.5-0.4-0.7C52,34.1,51.9,34,51.9,34c-0.3-0.2-0.6-0.3-0.9-0.4c-0.4-0.1-0.7-0.1-1.1-0.1
		c-1.6,0-3.2,0-4.9,0c-0.5,0-0.9,0-1.4,0c-0.3,0-0.7,0-1,0c-0.5,0.1-0.9,0.2-1.3,0.5c-0.1,0.1-0.2,0.2-0.3,0.3
		c-0.2,0.2-0.2,0.4-0.2,0.6c0,0,0,0.1,0,0.1c0,2.3,0,4.6,0,6.9c0,0.1,0,0.2,0,0.3c0,0.3,0.2,0.5,0.4,0.6c0.2,0.2,0.4,0.3,0.6,0.4
		c0.3,0.1,0.7,0.2,1,0.2c0.5,0,0.9,0,1.4,0c1.9,0,3.8,0,5.7,0c0.4,0,0.8,0,1.2-0.1c0.3-0.1,0.6-0.2,0.8-0.4c0.1,0,0.1-0.1,0.2-0.2
		c0.2-0.2,0.3-0.4,0.3-0.7c0-0.5,0-1,0-1.6C52.5,40.4,52.5,40.3,52.4,40.2z"/>
	<path class="st1" d="M59.8,38.2c0.1,0,0.1,0,0.2,0c0.1,0,0.1,0,0.2,0c3.7,0,7.4,0,11.1,0c0.3,0,0.5,0,0.7,0.2
		c0.1,0,0.2,0.1,0.2,0.2c0,0.1,0.1,0.1,0.1,0.2c0,0.1,0,0.2-0.1,0.3c-0.1,0.1-0.3,0.2-0.5,0.3c-0.1,0-0.3,0-0.4,0
		c-3.7,0-7.4,0-11.2,0c-0.1,0-0.2,0-0.2,0c-0.1,0-0.1,0-0.1,0.1c0,0.1,0,0.1,0,0.2c0,0.8,0,1.6,0,2.3c0,0.3,0.1,0.6,0.4,0.8
		c0.2,0.2,0.4,0.3,0.6,0.4c0.3,0.1,0.7,0.2,1,0.2c0.4,0,0.8,0,1.2,0c3.2,0,6.3,0,9.5,0c0.2,0,0.3,0,0.5,0c0.1,0,0.3,0.1,0.4,0.2
		c0.3,0.2,0.3,0.5,0,0.7c-0.2,0.1-0.4,0.2-0.6,0.2c-0.1,0-0.2,0-0.2,0c-3.5,0-7,0-10.5,0c-0.9,0-1.7-0.2-2.6-0.5
		c-0.4-0.2-0.8-0.4-1.1-0.7c-0.3-0.2-0.5-0.5-0.5-0.9c0-0.1-0.1-0.3-0.1-0.5c0-0.1,0-0.2,0-0.2c0-2.2,0-4.4,0-6.6c0-0.1,0-0.1,0-0.2
		c0-0.4,0.1-0.8,0.4-1.1c0.2-0.2,0.4-0.4,0.7-0.6c0.6-0.4,1.2-0.6,1.8-0.7c0.3-0.1,0.7-0.1,1-0.1c0.2,0,0.4,0,0.6,0
		c3.4,0,6.7,0,10.1,0c0.2,0,0.3,0,0.5,0c0.2,0,0.4,0.1,0.5,0.2c0.3,0.2,0.3,0.5,0,0.7c-0.2,0.1-0.4,0.2-0.6,0.2c-0.1,0-0.2,0-0.3,0
		c-3.3,0-6.7,0-10,0c-0.3,0-0.6,0-0.9,0.1c-0.5,0.1-0.9,0.2-1.2,0.5c-0.1,0.1-0.2,0.2-0.2,0.3c-0.1,0.1-0.1,0.3-0.1,0.4
		c0,1,0,2.1,0,3.1C59.8,38.1,59.8,38.1,59.8,38.2z"/>
	<path class="st1" d="M98.1,38.2c0.1,0,0.1,0,0.2,0c0.1,0,0.1,0,0.2,0c3.7,0,7.4,0,11.1,0c0.3,0,0.5,0,0.7,0.2
		c0.1,0,0.2,0.1,0.2,0.2c0,0.1,0.1,0.1,0.1,0.2c0,0.1,0,0.2-0.1,0.3c-0.1,0.1-0.3,0.2-0.5,0.3c-0.1,0-0.3,0-0.4,0
		c-3.7,0-7.4,0-11.2,0c-0.1,0-0.2,0-0.2,0c-0.1,0-0.1,0-0.1,0.1c0,0.1,0,0.1,0,0.2c0,0.8,0,1.6,0,2.3c0,0.3,0.1,0.6,0.4,0.8
		c0.2,0.2,0.4,0.3,0.6,0.4c0.3,0.1,0.7,0.2,1,0.2c0.4,0,0.8,0,1.2,0c3.2,0,6.3,0,9.5,0c0.2,0,0.3,0,0.5,0c0.1,0,0.3,0.1,0.4,0.2
		c0.3,0.2,0.3,0.5,0,0.7c-0.2,0.1-0.4,0.2-0.6,0.2c-0.1,0-0.2,0-0.2,0c-3.5,0-7,0-10.5,0c-0.9,0-1.7-0.2-2.6-0.5
		c-0.4-0.2-0.8-0.4-1.1-0.7c-0.2-0.2-0.3-0.4-0.4-0.6C96.1,42.5,96,42.2,96,42c0-0.1,0-0.1,0-0.2c0-2.2,0-4.4,0-6.6
		c0-0.1,0-0.1,0-0.2c0-0.4,0.1-0.8,0.4-1.1c0.2-0.2,0.4-0.4,0.7-0.6c0.6-0.4,1.2-0.6,1.8-0.7c0.3-0.1,0.7-0.1,1-0.1
		c0.2,0,0.4,0,0.6,0c3.4,0,6.7,0,10.1,0c0.2,0,0.3,0,0.5,0c0.2,0,0.4,0.1,0.5,0.2c0.3,0.2,0.3,0.5,0,0.7c-0.2,0.1-0.4,0.2-0.6,0.2
		c-0.1,0-0.2,0-0.3,0c-3.3,0-6.7,0-10,0c-0.3,0-0.6,0-0.9,0.1c-0.5,0.1-0.9,0.2-1.2,0.5c-0.1,0.1-0.2,0.2-0.2,0.3
		c-0.1,0.1-0.1,0.3-0.1,0.4c0,1,0,2.1,0,3.1C98.1,38.1,98.1,38.1,98.1,38.2z"/>
	<path class="st1" d="M28.1,38.2c1.8,0,3.7,0,5.5,0c0.2,0,0.4,0,0.6,0.1c0.1,0.1,0.2,0.1,0.3,0.2c0.1,0.1,0.1,0.4,0,0.5
		c-0.1,0.1-0.1,0.1-0.2,0.2c-0.2,0.1-0.4,0.2-0.6,0.2c-0.1,0-0.1,0-0.2,0c-3.7,0-7.4,0-11.1,0c-0.1,0-0.1,0-0.2,0
		c-0.1,0-0.1,0-0.1,0.1c0,0,0,0.1,0,0.1c0,0.8,0,1.6,0,2.3c0,0.3,0.1,0.6,0.3,0.8c0.1,0.1,0.3,0.2,0.5,0.3c0.4,0.2,0.8,0.3,1.2,0.3
		c0.5,0,1,0,1.5,0c3,0,6.1,0,9.1,0c0.2,0,0.3,0,0.5,0c0.1,0,0.2,0.1,0.3,0.1c0.1,0,0.1,0.1,0.2,0.1c0.2,0.2,0.2,0.4,0,0.5
		c-0.1,0.1-0.2,0.1-0.3,0.2c-0.2,0.1-0.3,0.1-0.5,0.1c-0.1,0-0.1,0-0.2,0c-3.5,0-7,0-10.5,0c-0.9,0-1.8-0.2-2.6-0.5
		c-0.3-0.2-0.7-0.3-0.9-0.6c-0.1-0.1-0.3-0.3-0.4-0.4c-0.2-0.3-0.3-0.6-0.3-1c0-1,0-2,0-3c0-1.4,0-2.7,0-4.1c0-0.5,0.2-0.9,0.6-1.3
		c0.2-0.2,0.5-0.4,0.8-0.6c0.5-0.3,1-0.4,1.6-0.6c0.3-0.1,0.7-0.1,1-0.1c0.2,0,0.4,0,0.6,0c3.4,0,6.8,0,10.1,0c0.2,0,0.4,0,0.5,0.1
		c0.1,0,0.2,0.1,0.3,0.2c0,0,0.1,0.1,0.1,0.1c0.1,0.1,0.1,0.3,0,0.4c-0.1,0.1-0.1,0.1-0.2,0.2c-0.2,0.1-0.4,0.2-0.6,0.2
		c-0.1,0-0.2,0-0.2,0c-3.3,0-6.7,0-10,0c-0.3,0-0.6,0-0.9,0.1c-0.5,0.1-0.9,0.2-1.3,0.6c-0.2,0.2-0.4,0.5-0.4,0.8c0,1,0,2,0,3
		c0,0.3,0,0.3,0.3,0.3C24.3,38.2,26.2,38.2,28.1,38.2z"/>
	<path class="st1" d="M158.9,33.6c0,0-0.1,0-0.1,0c-0.1,0-0.1,0-0.2,0c-1.8,0-3.6,0-5.5,0c-0.2,0-0.3,0-0.5,0
		c-0.2-0.1-0.3-0.1-0.4-0.2c-0.2-0.2-0.2-0.4,0-0.6c0.2-0.1,0.4-0.2,0.6-0.2c0.1,0,0.2,0,0.3,0c4.6,0,9.2,0,13.8,0
		c0.2,0,0.4,0,0.6,0.1c0.1,0,0.2,0.1,0.3,0.2c0.2,0.2,0.2,0.4,0,0.6c0,0-0.1,0.1-0.2,0.1c-0.2,0.1-0.4,0.2-0.6,0.2
		c-0.1,0-0.1,0-0.2,0c-1.8,0-3.6,0-5.5,0c-0.1,0-0.2,0-0.2,0c0,0-0.1,0-0.1,0.1c0,0,0,0.1,0,0.1c0,0.1,0,0.1,0,0.2
		c0,3.3,0,6.5,0,9.8c0,0.1,0,0.2,0,0.2c0,0.1,0,0.2-0.1,0.3c-0.1,0-0.1,0.1-0.2,0.1c-0.2,0.1-0.4,0.2-0.6,0.2c-0.1,0-0.2,0-0.4,0
		c-0.2,0-0.4-0.1-0.6-0.2c-0.2-0.1-0.3-0.3-0.3-0.5c0-0.1,0-0.1,0-0.2c0-3.3,0-6.6,0-9.9C159,33.7,159,33.7,158.9,33.6z"/>
	<path class="st1" d="M172.3,38.5c0,1.8,0,3.5,0,5.3c0,0.1,0,0.1,0,0.2c0,0.1,0,0.2-0.2,0.3c-0.1,0.1-0.2,0.1-0.3,0.2
		c-0.1,0.1-0.3,0.1-0.4,0.1c-0.2,0-0.4,0-0.6,0c-0.1,0-0.2-0.1-0.3-0.2c-0.2-0.1-0.3-0.2-0.2-0.4c0,0,0-0.1,0-0.1c0-3.5,0-7,0-10.6
		c0-0.1,0-0.1,0-0.2c0-0.2,0.1-0.3,0.2-0.4c0.1-0.1,0.3-0.2,0.5-0.2c0.3-0.1,0.6-0.1,0.9,0c0.1,0,0.3,0.1,0.4,0.2
		c0.1,0.1,0.2,0.2,0.2,0.4c0,0.1,0,0.1,0,0.2C172.3,34.9,172.3,36.7,172.3,38.5z"/>
</g>
</svg>
