<svg width="194" height="195" viewBox="0 0 194 195" fill="none" xmlns="http://www.w3.org/2000/svg">
<g clip-path="url(#clip0_1_393)">
<circle cx="97.1928" cy="97.4422" r="94.314" stroke="#F1F1F1" stroke-width="5"/>
<path d="M97.4027 130.792C95.612 130.792 93.8845 130.07 92.782 128.859C92.1489 128.164 91.0689 128.111 90.3696 128.741C89.6707 129.371 89.6177 130.446 90.2509 131.141C91.5373 132.554 93.3351 133.543 95.292 133.964V136.493C95.292 137.431 96.0567 138.192 96.9999 138.192C97.9431 138.192 98.7077 137.431 98.7077 136.493V134.076C101.444 133.595 103.666 131.637 104.113 129.148C104.505 126.965 103.488 124.105 99.4606 122.627L98.7091 122.352C96.7107 121.62 95.7076 121.253 94.7724 120.746C94.1068 120.386 94.102 119.7 94.1309 119.422C94.2006 118.753 94.6793 117.917 95.8149 117.577C98.4122 116.798 100.778 118.674 100.835 118.72C101.558 119.318 102.63 119.223 103.235 118.507C103.842 117.788 103.748 116.717 103.026 116.113C102.922 116.026 101.195 114.61 98.708 114.138V111.685C98.708 110.747 97.9433 109.986 97.0001 109.986C96.0569 109.986 95.2923 110.747 95.2923 111.685V114.2C95.139 114.236 94.9849 114.276 94.8296 114.323C92.5709 115 90.963 116.865 90.7335 119.073C90.5299 121.032 91.4517 122.817 93.1388 123.731C94.2935 124.357 95.3752 124.753 97.5298 125.542L98.2787 125.816C100.045 126.464 100.946 127.461 100.751 128.551C100.553 129.652 99.2465 130.792 97.4027 130.792Z" fill="white"/>
<path d="M142.69 129.546L139.239 127.405C138.439 126.908 137.386 127.151 136.886 127.947C136.387 128.744 136.631 129.792 137.432 130.288L140.883 132.429C141.581 132.863 141.795 133.781 141.36 134.476C141.085 134.914 140.61 135.176 140.09 135.176C139.812 135.176 139.54 135.098 139.302 134.95L127.498 127.625C126.158 126.793 124.425 126.793 123.085 127.625L111.281 134.95C110.583 135.383 109.659 135.171 109.224 134.476C109.013 134.14 108.946 133.741 109.036 133.355C109.126 132.968 109.362 132.639 109.7 132.429L122.897 124.24C124.361 123.332 126.248 123.347 127.686 124.24L130.67 126.092C131.47 126.588 132.524 126.346 133.023 125.549C133.522 124.753 133.278 123.705 132.478 123.208L129.493 121.356C128.878 120.975 128.219 120.687 127.539 120.49C124.181 111.568 116.167 103.775 109.342 98.4012C110.313 97.2942 110.903 95.8485 110.903 94.2676C110.903 91.9016 109.584 89.8371 107.64 88.7612L113.163 83.2666C114.416 82.02 114.864 80.2021 114.332 78.5226C113.799 76.8369 112.379 75.5981 110.629 75.29C108.413 74.8957 106.108 75.2931 104.139 76.4076C102.234 77.4851 100.879 77.2907 98.9603 75.6667C94.9211 72.2447 89.3494 71.1873 84.4199 72.9076C82.5629 73.5552 81.136 75.0747 80.6029 76.9722C80.0621 78.8975 80.4998 80.9667 81.7743 82.5083L86.7763 88.5518C84.608 89.5521 83.0996 91.7371 83.0996 94.2674C83.0996 95.8476 83.6889 97.2927 84.6588 98.3994C82.866 99.8107 81.1688 101.247 79.5958 102.686C78.9015 103.322 78.8562 104.397 79.4947 105.088C80.1323 105.777 81.2123 105.824 81.9077 105.188C83.6919 103.556 85.6457 101.925 87.7233 100.331C88.2664 100.482 88.8382 100.565 89.4291 100.565H104.573C105.164 100.565 105.735 100.482 106.278 100.331C112.582 105.165 120.236 112.267 123.779 120.314C122.838 120.494 121.924 120.839 121.09 121.356L107.893 129.546C106.78 130.236 106.005 131.316 105.709 132.587C105.413 133.858 105.632 135.168 106.326 136.275C107.081 137.478 108.281 138.237 109.582 138.481V149.165C105.883 150.202 101.658 150.729 97.001 150.729C87.2813 150.729 79.6026 148.478 74.6558 144.204C75.0219 143.561 75.2337 142.82 75.2337 142.03V138.979C75.2337 137.951 74.8764 137.007 74.283 136.255C74.8764 135.503 75.2337 134.558 75.2337 133.53V130.479C75.2337 128.04 73.2389 126.056 70.7871 126.056H68.4907C69.2574 121.167 71.9346 116.03 76.472 110.756C77.0852 110.043 77.0017 108.971 76.2853 108.361C75.5687 107.75 74.4907 107.833 73.8772 108.546C68.7644 114.489 65.7982 120.37 65.0394 126.056H53.4466C50.9948 126.056 49 128.04 49 130.479V133.53C49 134.558 49.3573 135.503 49.9507 136.255C49.3573 137.007 49 137.951 49 138.979V142.03C49 143.058 49.3573 144.003 49.9507 144.755C49.3573 145.507 49 146.452 49 147.48V150.53C49 152.97 50.9948 154.954 53.4466 154.954H70.7871C73.2389 154.954 75.2337 152.969 75.2337 150.53V148.858C80.684 152.32 88.0915 154.127 97.0008 154.127C101.644 154.127 105.908 153.63 109.712 152.65C110.159 154.385 111.739 155.673 113.619 155.673H136.964C139.189 155.673 141 153.871 141 151.656V138.49C142.339 138.242 143.518 137.453 144.257 136.274C145.69 133.989 144.987 130.971 142.69 129.546ZM83.892 77.8873C84.1286 77.0456 84.7325 76.3997 85.5498 76.1146C89.3376 74.7933 93.6277 75.6126 96.746 78.2548C98.6438 79.8611 101.65 81.7241 105.827 79.3618C107.104 78.6392 108.596 78.3819 110.031 78.6358C110.753 78.7632 111 79.3128 111.073 79.5435C111.145 79.7709 111.258 80.3552 110.747 80.8634L103.604 87.97H90.7187L84.4108 80.3487C83.8369 79.6543 83.6477 78.7571 83.892 77.8873ZM89.4289 97.1667C87.8221 97.1667 86.5151 95.8662 86.5151 94.2676C86.5151 92.669 87.8221 91.3685 89.4289 91.3685H104.573C106.18 91.3685 107.487 92.669 107.487 94.2676C107.487 95.8662 106.18 97.1667 104.573 97.1667H89.4289ZM53.4468 143.056C52.8784 143.056 52.4159 142.596 52.4159 142.031V138.98C52.4159 138.414 52.8784 137.954 53.4468 137.954H70.7874C71.3557 137.954 71.8182 138.414 71.8182 138.98V142.031C71.8182 142.596 71.3557 143.056 70.7874 143.056H53.4468ZM52.4159 130.48C52.4159 129.914 52.8784 129.454 53.4468 129.454C53.4468 129.454 66.577 129.455 66.5893 129.455C66.597 129.455 66.6045 129.454 66.6123 129.454H70.7874C71.3557 129.454 71.8182 129.914 71.8182 130.48V133.53C71.8182 134.096 71.3557 134.556 70.7874 134.556H53.4468C52.8784 134.556 52.4159 134.096 52.4159 133.53V130.48ZM71.818 150.531C71.818 151.096 71.3555 151.556 70.7871 151.556H53.4468C52.8784 151.556 52.4159 151.096 52.4159 150.531V147.48C52.4159 146.915 52.8784 146.455 53.4468 146.455H70.7874C71.3557 146.455 71.8182 146.915 71.8182 147.48V150.531H71.818ZM136.965 152.275H113.62C113.277 152.275 112.998 151.997 112.998 151.656V137.884C113.028 137.866 113.059 137.852 113.088 137.834L124.892 130.508C125.135 130.358 125.448 130.358 125.691 130.508C125.691 130.508 137.554 137.867 137.584 137.885V151.656C137.584 151.997 137.306 152.275 136.965 152.275Z" fill="white"/>
<path d="M51.4534 103.211L61.4855 105.122C63.3496 105.477 65.2132 104.46 65.9038 102.685L69.5919 93.208C69.9325 92.333 69.4956 91.3488 68.6159 91.0098C67.7362 90.6709 66.7471 91.1059 66.4066 91.9809L63.2901 99.9892C60.1311 94.3254 58.4649 87.9469 58.4649 81.4128C58.4647 60.2711 75.752 43.0711 97.001 43.0711C118.25 43.0711 135.537 60.2711 135.537 81.4126C135.537 88.633 133.509 95.6662 129.673 101.751C129.171 102.546 129.413 103.595 130.212 104.094C131.006 104.589 132.062 104.357 132.566 103.557C136.744 96.9302 138.953 89.2725 138.953 81.4126C138.953 58.3972 120.133 39.6726 97.001 39.6726C73.8688 39.6726 55.049 58.3972 55.049 81.4126C55.049 88.4379 56.8147 95.3009 60.173 101.412L52.0953 99.8735C51.1694 99.6979 50.2741 100.301 50.0969 101.223C49.9197 102.145 50.527 103.035 51.4534 103.211Z" fill="white"/>
</g>
<defs>
<clipPath id="clip0_1_393">
<rect width="193.628" height="193.628" fill="white" transform="translate(0.378815 0.628174)"/>
</clipPath>
</defs>
</svg>
