<svg width="233" height="233" viewBox="0 0 233 233" fill="none" xmlns="http://www.w3.org/2000/svg">
<rect x="2.5" y="2.5" width="228" height="228" rx="114" stroke="#555555" stroke-width="4"/>
<path d="M77.8608 141.317C77.8608 140.335 77.0648 139.539 76.083 139.539H65.5534C64.5716 139.539 63.7756 140.335 63.7756 141.317V150.976C63.7756 151.958 64.5716 152.754 65.5534 152.754H76.083C77.0648 152.754 77.8608 151.958 77.8608 150.976V141.317ZM74.3051 149.198H67.3313V143.095H74.3054L74.3051 149.198ZM112.566 85.0623C112.566 84.0804 113.362 83.2847 114.344 83.2847H123.679C129.033 83.2847 133.389 87.6402 133.389 92.9939V109.764C133.389 110.746 132.593 111.541 131.611 111.541C130.629 111.541 129.833 110.745 129.833 109.764V92.9936C129.833 89.6004 127.073 86.8399 123.679 86.8399H114.344C113.362 86.8399 112.566 86.0439 112.566 85.0623ZM118.389 150.918V143.095H111.415V162.751C111.415 163.733 110.619 164.529 109.637 164.529C108.655 164.529 107.859 163.733 107.859 162.751V141.317C107.859 140.335 108.655 139.539 109.637 139.539H120.167C121.149 139.539 121.945 140.335 121.945 141.317V150.918C121.945 151.9 121.149 152.696 120.167 152.696C119.185 152.696 118.389 151.9 118.389 150.918ZM121.945 112.347C121.945 113.329 121.149 114.125 120.167 114.125H65.5534C64.5716 114.125 63.7756 113.329 63.7756 112.347V94.9228C63.7756 93.9409 64.5716 93.1452 65.5534 93.1452H71.6713V96.7007H67.3313V110.57H118.389V96.7007H114.424V93.1452H120.167C121.149 93.1452 121.945 93.9412 121.945 94.9228V112.347ZM121.945 122.287C121.945 121.305 121.149 120.509 120.167 120.509H109.637C108.655 120.509 107.859 121.305 107.859 122.287V131.939C107.859 132.921 108.655 133.717 109.637 133.717H120.167C121.149 133.717 121.945 132.921 121.945 131.939V122.287ZM118.389 130.161H111.415V124.065H118.389V130.161ZM98.1214 139.539H87.599C86.6171 139.539 85.8211 140.335 85.8211 141.317V150.976C85.8211 151.958 86.6171 152.754 87.599 152.754H98.1214C99.1033 152.754 99.8993 151.958 99.8993 150.976V141.317C99.8993 140.335 99.1033 139.539 98.1214 139.539ZM96.3435 149.198H89.3768V143.095H96.3435V149.198ZM98.1214 158.569H87.599C86.6171 158.569 85.8211 159.365 85.8211 160.347V170.006C85.8211 170.988 86.6171 171.784 87.599 171.784H98.1214C99.1033 171.784 99.8993 170.988 99.8993 170.006V160.347C99.8993 159.365 99.1033 158.569 98.1214 158.569ZM96.3435 168.228H89.3768V162.125H96.3435V168.228ZM98.1214 120.509H87.599C86.6171 120.509 85.8211 121.305 85.8211 122.287V131.939C85.8211 132.921 86.6171 133.717 87.599 133.717H98.1214C99.1033 133.717 99.8993 132.921 99.8993 131.939V122.287C99.8993 121.305 99.1033 120.509 98.1214 120.509ZM96.3435 130.161H89.3768V124.065H96.3435V130.161ZM76.083 158.569H65.5534C64.5716 158.569 63.7756 159.365 63.7756 160.347V170.006C63.7756 170.988 64.5716 171.784 65.5534 171.784H76.083C77.0648 171.784 77.8608 170.988 77.8608 170.006V160.347C77.8608 159.365 77.0651 158.569 76.083 158.569ZM74.3051 168.228H67.3313V162.125H74.3054L74.3051 168.228ZM77.8608 122.287C77.8608 121.305 77.0648 120.509 76.083 120.509H65.5534C64.5716 120.509 63.7756 121.305 63.7756 122.287V131.939C63.7756 132.921 64.5716 133.717 65.5534 133.717H76.083C77.0648 133.717 77.8608 132.921 77.8608 131.939V122.287ZM74.3051 130.161H67.3313V124.065H74.3054L74.3051 130.161ZM96.6317 179.722C96.6317 180.704 95.8357 181.5 94.8539 181.5H62.0411C56.6872 181.5 52.3317 177.144 52.3317 171.791V92.9936C52.3317 87.64 56.6872 83.2844 62.0411 83.2844H71.3763C72.3581 83.2844 73.1541 84.0804 73.1541 85.062C73.1541 86.0436 72.3581 86.8396 71.3763 86.8396H62.0411C58.6479 86.8396 55.8874 89.6004 55.8874 92.9934V171.79C55.8874 175.183 58.6479 177.944 62.0411 177.944H94.8539C95.8357 177.944 96.6317 178.74 96.6317 179.722ZM138.981 130.682V134.055H136.023C135.041 134.055 134.245 134.851 134.245 135.833C134.245 136.815 135.041 137.611 136.023 137.611H138.981V138.69C138.981 139.672 139.777 140.468 140.759 140.468C141.741 140.468 142.537 139.672 142.537 138.69V137.526C145.259 137.086 147.33 134.962 147.33 132.414C147.33 129.862 145.259 127.735 142.537 127.295V123.928H145.552C146.534 123.928 147.33 123.132 147.33 122.15C147.33 121.168 146.534 120.372 145.552 120.372H142.537V119.293C142.537 118.311 141.741 117.515 140.759 117.515C139.777 117.515 138.981 118.311 138.981 119.293V120.456C136.256 120.893 134.18 123.019 134.18 125.569C134.18 128.119 136.256 130.245 138.981 130.682ZM142.537 130.956C143.265 131.235 143.775 131.79 143.775 132.414C143.775 133.021 143.259 133.576 142.537 133.859V130.956ZM138.981 124.121V127.016C138.255 126.735 137.736 126.179 137.736 125.569C137.736 124.96 138.255 124.403 138.981 124.121ZM177.358 166.306H173.953V157.972C173.953 156.146 172.471 154.661 170.65 154.661H165.863V146.326C165.863 144.505 164.378 143.023 162.553 143.023H151.519C155.729 139.784 158.45 134.699 158.45 128.988C158.45 119.233 150.514 111.297 140.759 111.297C131 111.297 123.06 119.233 123.06 128.988C123.06 134.699 125.782 139.784 129.994 143.023H128.825C127 143.023 125.515 144.505 125.515 146.326V154.661H117.051C115.225 154.661 113.74 156.146 113.74 157.972V166.306H106.838C105.012 166.306 103.527 167.788 103.527 169.61V178.196C103.527 180.018 105.012 181.5 106.838 181.5H140.571C141.123 181.5 141.642 181.362 142.099 181.123C142.558 181.362 143.078 181.5 143.63 181.5H177.357C179.183 181.5 180.668 180.018 180.668 178.196V169.61C180.669 167.788 179.183 166.306 177.358 166.306ZM170.397 158.217V166.306H154.088V158.217H170.397ZM126.616 128.988C126.616 121.194 132.96 114.852 140.759 114.852C148.553 114.852 154.894 121.194 154.894 128.988C154.894 136.204 149.463 142.172 142.476 143.023H139.041C132.05 142.171 126.616 136.204 126.616 128.988ZM129.07 146.578H138.822C139.458 146.648 140.104 146.686 140.759 146.686C141.413 146.686 142.059 146.648 142.695 146.578H162.307V154.661H129.07V146.578ZM140.32 177.944H107.082V169.862H140.32V177.944ZM117.295 166.306V158.217H150.533V166.306H117.295ZM177.113 177.944H143.875V169.862H177.113V177.944Z" fill="#555555"/>
<path d="M92.8612 70.8478H79.0258C78.0457 70.8478 77.2484 71.6425 77.2484 72.6251C77.2484 73.6077 78.0457 74.4025 79.0258 74.4025H92.8612C93.8413 74.4025 94.6385 73.6077 94.6385 72.6251C94.6385 71.6425 93.8413 70.8478 92.8612 70.8478ZM106.694 95.2458H79.0258C78.0457 95.2458 77.2484 96.043 77.2484 97.0231C77.2484 98.0057 78.0457 98.803 79.0258 98.803H106.694C107.677 98.803 108.471 98.0057 108.471 97.0231C108.471 96.043 107.677 95.2458 106.694 95.2458ZM106.694 87.1131H79.0258C78.0457 87.1131 77.2484 87.9104 77.2484 88.8905C77.2484 89.8731 78.0457 90.6678 79.0258 90.6678H106.694C107.677 90.6678 108.471 89.8731 108.471 88.8905C108.471 87.9104 107.677 87.1131 106.694 87.1131ZM106.694 78.9804H79.0258C78.0457 78.9804 77.2484 79.7752 77.2484 80.7578C77.2484 81.7404 78.0457 82.5351 79.0258 82.5351H106.694C107.677 82.5351 108.471 81.7404 108.471 80.7578C108.471 79.7752 107.677 78.9804 106.694 78.9804ZM106.42 51.5H63.4587C58.1139 51.5 53.7645 55.8494 53.7645 61.1967V69.2989C53.7645 70.2816 54.5592 71.0788 55.5418 71.0788H69.5982V110.569H73.1529V61.1967C73.1529 58.8684 72.3277 56.7305 70.9566 55.0572H106.42C109.81 55.0572 112.567 57.8096 112.567 61.1967V110.569H116.122V61.1967C116.122 55.8494 111.77 51.5 106.42 51.5ZM57.3192 67.5216V61.1967C57.3192 57.8096 60.0741 55.0572 63.4587 55.0572C66.8433 55.0572 69.5982 57.8096 69.5982 61.1967V67.5216H57.3192ZM106.694 78.9804H79.0258C78.0457 78.9804 77.2484 79.7752 77.2484 80.7578C77.2484 81.7404 78.0457 82.5351 79.0258 82.5351H106.694C107.677 82.5351 108.471 81.7404 108.471 80.7578C108.471 79.7752 107.677 78.9804 106.694 78.9804ZM106.694 87.1131H79.0258C78.0457 87.1131 77.2484 87.9104 77.2484 88.8905C77.2484 89.8731 78.0457 90.6678 79.0258 90.6678H106.694C107.677 90.6678 108.471 89.8731 108.471 88.8905C108.471 87.9104 107.677 87.1131 106.694 87.1131ZM106.694 95.2458H79.0258C78.0457 95.2458 77.2484 96.043 77.2484 97.0231C77.2484 98.0057 78.0457 98.803 79.0258 98.803H106.694C107.677 98.803 108.471 98.0057 108.471 97.0231C108.471 96.043 107.677 95.2458 106.694 95.2458ZM79.0258 74.4025H92.8612C93.8413 74.4025 94.6385 73.6077 94.6385 72.6251C94.6385 71.6425 93.8413 70.8478 92.8612 70.8478H79.0258C78.0457 70.8478 77.2484 71.6425 77.2484 72.6251C77.2484 73.6077 78.0457 74.4025 79.0258 74.4025ZM106.694 87.1131H79.0258C78.0457 87.1131 77.2484 87.9104 77.2484 88.8905C77.2484 89.8731 78.0457 90.6678 79.0258 90.6678H106.694C107.677 90.6678 108.471 89.8731 108.471 88.8905C108.471 87.9104 107.677 87.1131 106.694 87.1131ZM106.694 95.2458H79.0258C78.0457 95.2458 77.2484 96.043 77.2484 97.0231C77.2484 98.0057 78.0457 98.803 79.0258 98.803H106.694C107.677 98.803 108.471 98.0057 108.471 97.0231C108.471 96.043 107.677 95.2458 106.694 95.2458ZM92.8612 70.8478H79.0258C78.0457 70.8478 77.2484 71.6425 77.2484 72.6251C77.2484 73.6077 78.0457 74.4025 79.0258 74.4025H92.8612C93.8413 74.4025 94.6385 73.6077 94.6385 72.6251C94.6385 71.6425 93.8413 70.8478 92.8612 70.8478ZM106.694 78.9804H79.0258C78.0457 78.9804 77.2484 79.7752 77.2484 80.7578C77.2484 81.7404 78.0457 82.5351 79.0258 82.5351H106.694C107.677 82.5351 108.471 81.7404 108.471 80.7578C108.471 79.7752 107.677 78.9804 106.694 78.9804Z" fill="#555555"/>
</svg>
