<svg width="194" height="194" viewBox="0 0 194 194" fill="none" xmlns="http://www.w3.org/2000/svg">
<g clip-path="url(#clip0_1_331)">
<circle cx="97" cy="96.814" r="94.314" stroke="white" stroke-width="5"/>
<path d="M148.329 142.147C149.286 142.147 150.063 141.374 150.063 140.421V110.833C150.063 109.88 149.286 109.107 148.329 109.107H146.47C146.471 109.101 146.473 109.096 146.475 109.09L149.889 107.781C150.558 107.525 151 106.885 151 106.171V99.267C151 98.5529 150.558 97.9129 149.889 97.6564L146.476 96.3486C145.967 94.5368 145.242 92.7959 144.313 91.1537L145.799 87.824C146.09 87.1717 145.947 86.408 145.44 85.9032L140.536 81.0213C140.029 80.5165 139.262 80.3746 138.607 80.6645L135.261 82.1437C133.612 81.2189 131.864 80.4973 130.045 79.9906L128.731 76.5918C128.473 75.9254 127.83 75.486 127.113 75.486H120.178C119.461 75.486 118.818 75.9257 118.56 76.5918L117.585 79.115V57.2048C117.585 56.2517 116.808 55.479 115.851 55.479H110.859V49.8414C110.859 48.8883 110.083 48.1156 109.126 48.1156H100.593V44.3984C100.593 43.4453 99.8172 42.6726 98.8598 42.6726C97.9025 42.6726 97.1263 43.4453 97.1263 44.3984V48.1156H88.5941C87.6367 48.1156 86.8606 48.8883 86.8606 49.8414V55.479H81.8686C80.9113 55.479 80.1351 56.2517 80.1351 57.2048V88.1549C79.7531 87.9709 79.3631 87.7992 78.9643 87.6415C78.8068 86.9969 78.49 86.4061 78.0215 85.8933C76.3385 84.0505 73.3445 83.9064 72.4623 83.9064C72.4599 83.9064 72.4573 83.9064 72.4549 83.9064C71.5711 83.9064 68.577 84.0508 66.8942 85.8933C66.4259 86.4061 66.1089 86.9971 65.9514 87.6415C59.3696 90.2449 54.997 96.5145 54.8934 103.631C53.3976 104.177 52.3272 105.608 52.3272 107.285C52.3272 109.43 54.0802 111.175 56.235 111.175H56.7591C57.2107 114.669 58.8151 117.897 61.3788 120.397C62.2523 121.249 63.2103 121.985 64.2304 122.605C59.9462 123.837 55.9669 126.026 52.5991 129.058C47.1883 133.929 43.7826 140.572 43.0099 147.763C42.9574 148.25 43.1152 148.736 43.4441 149.1C43.7731 149.464 44.2418 149.673 44.7334 149.673H100.182C100.674 149.673 101.142 149.465 101.471 149.1C101.8 148.736 101.958 148.25 101.905 147.763C101.698 145.84 101.302 143.957 100.731 142.136L148.329 142.147ZM131.777 109.107H117.585V94.3549C119.341 93.0933 121.464 92.4043 123.645 92.4043C129.358 92.4043 134.006 97.0314 134.006 102.719C134.006 105.052 133.218 107.292 131.777 109.107ZM117.585 130.371H140.046V132.986H117.585V130.371ZM117.585 118.268H140.046V120.883H117.585V118.268ZM90.3276 51.5672H107.392V55.479H90.3276V51.5672ZM69.4596 88.2151C69.9134 87.7183 71.1721 87.3581 72.4556 87.3581H72.4619C73.7434 87.3581 75.0026 87.7183 75.4561 88.2151C75.5681 88.3377 75.6325 88.466 75.6074 88.726C75.6058 88.7411 75.6061 88.756 75.605 88.7711L75.6026 88.7706L74.8195 94.7747C74.7599 95.2325 74.38 95.5647 73.9163 95.5647H70.9994C70.5357 95.5647 70.1558 95.2325 70.0963 94.7747L69.3131 88.7708L69.3105 88.7713C69.3095 88.7562 69.3097 88.7413 69.3082 88.7262C69.283 88.4658 69.3476 88.3377 69.4596 88.2151ZM66.151 91.3321L66.658 95.2189C66.9404 97.3837 68.8067 99.0161 70.9994 99.0161H73.9163C76.109 99.0161 77.9754 97.3837 78.2577 95.2189L78.7648 91.3321C83.3532 93.6068 86.3667 98.2004 86.5472 103.394H58.3685C58.549 98.2004 61.5625 93.6068 66.151 91.3321ZM90.2451 101.322V96.9156H94.6707V101.322H90.2451ZM55.7942 107.285C55.7942 107.047 55.9962 106.846 56.235 106.846H88.6805C88.9196 106.846 89.1213 107.047 89.1213 107.285C89.1213 107.523 88.9193 107.723 88.6805 107.723H56.2352C55.9962 107.723 55.7942 107.523 55.7942 107.285ZM60.2654 111.175H84.6503C83.6633 116.976 78.5316 121.443 72.4662 121.447H72.4495C66.3841 121.443 61.2525 116.976 60.2654 111.175ZM72.4549 124.899H72.4608C72.7022 124.899 72.9427 124.903 73.1826 124.91L77.3212 137.864L72.4578 143.331L67.5943 137.864L71.7329 124.91C71.9728 124.903 72.2133 124.899 72.4549 124.899ZM67.9766 125.279L63.9921 137.752C63.807 138.331 63.9418 138.964 64.3464 139.419L70.397 146.221H46.7337C48.7056 135.409 57.2614 127.112 67.9766 125.279ZM74.5183 146.221L80.5692 139.419C80.9737 138.964 81.1083 138.331 80.9234 137.752L76.9389 125.279C87.6539 127.112 96.2099 135.408 98.182 146.221L74.5183 146.221ZM92.3158 129.057C92.168 128.925 92.0187 128.794 91.8687 128.664V117.116C91.8687 115.924 93.0785 114.916 94.5106 114.916H103.209C104.641 114.916 105.85 115.923 105.85 117.116V138.684H99.4044C97.7423 135.063 95.3434 131.783 92.3158 129.057ZM114.117 138.684H109.318V117.116C109.318 114 106.577 111.464 103.209 111.464H94.5108C91.1424 111.464 88.4019 114 88.4019 117.116V126.083C86.0051 124.557 83.4067 123.388 80.6853 122.605C81.7055 121.985 82.6635 121.249 83.5372 120.397C86.1008 117.896 87.7052 114.669 88.1566 111.175H88.681C90.8358 111.175 92.5888 109.43 92.5888 107.284C92.5888 106.328 92.239 105.451 91.6613 104.773H96.4043C97.3616 104.773 98.1378 104 98.1378 103.047V95.1895C98.1378 94.2365 97.3616 93.4637 96.4043 93.4637H88.5115C87.9247 93.4637 87.4068 93.755 87.0931 94.1992C86.1316 92.7588 84.9569 91.4631 83.6022 90.3594V58.9306H114.117L114.117 138.684ZM146.596 138.695H117.585V136.438H141.78C142.737 136.438 143.513 135.665 143.513 134.712V128.645C143.513 127.692 142.737 126.919 141.78 126.919H117.585V124.335H141.78C142.737 124.335 143.513 123.562 143.513 122.609V116.542C143.513 115.589 142.737 114.816 141.78 114.816H117.585V112.559H146.596L146.596 138.695ZM147.533 104.986L144.398 106.187C143.865 106.392 143.467 106.845 143.335 107.398C143.197 107.973 143.03 108.544 142.841 109.107H135.893C136.922 107.153 137.473 104.968 137.473 102.719C137.473 95.1283 131.27 88.9529 123.645 88.9529C121.532 88.9529 119.46 89.4394 117.585 90.3491V83.4927C118.034 83.3522 118.489 83.2258 118.945 83.1177C119.501 82.9859 119.956 82.5899 120.161 82.059L121.368 78.9378H125.922L127.129 82.059C127.334 82.5901 127.79 82.9862 128.345 83.118C130.428 83.6115 132.412 84.4302 134.241 85.5511C134.728 85.8497 135.331 85.8898 135.853 85.6588L138.926 84.3001L142.147 87.5063L140.782 90.5642C140.551 91.0843 140.591 91.6849 140.891 92.1696C142.017 93.9903 142.839 95.9655 143.335 98.0401C143.467 98.5937 143.865 99.0469 144.399 99.2512L147.533 100.452L147.533 104.986ZM88.5115 74.3914H109.208C110.165 74.3914 110.942 73.6187 110.942 72.6656V65.1008C110.942 64.1477 110.165 63.375 109.208 63.375H88.5115C87.5542 63.375 86.778 64.1477 86.778 65.1008V72.6656C86.778 73.6187 87.5542 74.3914 88.5115 74.3914ZM90.2451 66.8266H107.475V70.9398H90.2451V66.8266ZM88.5115 92.0266H96.4043C97.3616 92.0266 98.1378 91.2538 98.1378 90.3008V82.4432C98.1378 81.4901 97.3616 80.7174 96.4043 80.7174H88.5115C87.5542 80.7174 86.778 81.4901 86.778 82.4432V90.3008C86.778 91.2538 87.5542 92.0266 88.5115 92.0266ZM90.2451 84.169H94.6707V88.575H90.2451V84.169ZM109.208 80.7174H101.315C100.358 80.7174 99.5814 81.4901 99.5814 82.4432V90.3008C99.5814 91.2538 100.358 92.0266 101.315 92.0266H109.208C110.165 92.0266 110.941 91.2538 110.941 90.3008V82.4432C110.941 81.4899 110.165 80.7174 109.208 80.7174ZM107.474 88.575H103.048V84.169H107.474V88.575ZM109.208 93.464H101.315C100.358 93.464 99.5814 94.2367 99.5814 95.1898V103.047C99.5814 104 100.358 104.773 101.315 104.773H109.208C110.165 104.773 110.941 104 110.941 103.047V95.1898C110.941 94.2367 110.165 93.464 109.208 93.464ZM107.474 101.322H103.048V96.9156H107.474V101.322Z" fill="white"/>
</g>
<defs>
<clipPath id="clip0_1_331">
<rect width="193.628" height="193.628" fill="white" transform="translate(0.185974)"/>
</clipPath>
</defs>
</svg>
