<svg width="120" height="121" viewBox="0 0 120 121" fill="none" xmlns="http://www.w3.org/2000/svg">
<circle cx="60" cy="60.2563" r="58.5" stroke="white" stroke-width="3"/>
<path d="M57.6651 39.8128L62.8085 40.737C62.8993 40.7533 62.9902 40.7614 63.0804 40.7614C63.3951 40.7614 63.7017 40.6634 63.9648 40.4757C64.3034 40.234 64.5293 39.8725 64.6012 39.4577L65.5081 34.2164C65.5798 33.8016 65.4888 33.3831 65.2517 33.0381C65.0147 32.6929 64.6598 32.4627 64.2527 32.3896L59.1094 31.4654C58.7018 31.392 58.2916 31.4852 57.9529 31.7267C57.6144 31.9684 57.3884 32.3299 57.3165 32.7447L56.4095 37.986C56.3378 38.4009 56.4288 38.8195 56.6659 39.1645C56.9032 39.5095 57.2581 39.7397 57.6651 39.8128ZM59.3111 33.7029L63.3123 34.422L62.6067 38.4996L58.6055 37.7806L59.3111 33.7029Z" fill="white"/>
<path d="M69.1462 41.8757L74.2895 42.7999C74.3803 42.8162 74.4712 42.8243 74.5614 42.8243C74.8761 42.8243 75.1827 42.7263 75.4458 42.5386C75.7844 42.2969 76.0103 41.9354 76.0822 41.5206L76.9892 36.2793C77.1373 35.4228 76.5742 34.6032 75.7338 34.4523L70.5904 33.5282C70.1834 33.4548 69.7728 33.5476 69.4342 33.7894C69.0955 34.0309 68.8695 34.3925 68.7977 34.8073L67.8907 40.0486C67.7428 40.9054 68.3058 41.725 69.1462 41.8757ZM70.7922 35.766L74.7936 36.4849L74.088 40.5625L70.0868 39.8435L70.7922 35.766Z" fill="white"/>
<path d="M55.1292 45.3857L54.2224 50.627C54.1506 51.0419 54.2416 51.4605 54.4788 51.8055C54.7159 52.1505 55.0706 52.3807 55.4777 52.4538L60.621 53.378C60.7115 53.3943 60.8016 53.4021 60.8905 53.4021C61.627 53.4021 62.2816 52.863 62.4139 52.0987L63.3209 46.8574C63.3927 46.4426 63.3016 46.0241 63.0645 45.6791C62.8275 45.3339 62.4726 45.1037 62.0656 45.0306L56.9222 44.1064C56.515 44.0326 56.1044 44.1259 55.766 44.3676C55.4272 44.6093 55.2011 44.9709 55.1292 45.3857ZM57.1236 46.3442L61.125 47.0631L60.4193 51.1408L56.4182 50.4217L57.1236 46.3442Z" fill="white"/>
<path d="M66.6105 47.4489L65.7037 52.69C65.6319 53.105 65.723 53.5235 65.9601 53.8685C66.1972 54.2135 66.5519 54.4438 66.959 54.5169L72.1023 55.441C72.1931 55.4574 72.284 55.4654 72.3742 55.4654C72.6889 55.4654 72.9956 55.3675 73.2587 55.1797C73.5972 54.938 73.8232 54.5766 73.8951 54.1618L74.8019 48.9206C74.95 48.0641 74.3869 47.2445 73.5465 47.0936L68.4031 46.1695C67.9956 46.0958 67.5853 46.1891 67.2466 46.4308C66.9082 46.6726 66.6823 47.0341 66.6105 47.4489ZM68.6049 48.4073L72.6061 49.1263L71.9005 53.2038L67.8993 52.4848L68.6049 48.4073Z" fill="white"/>
<path d="M93.1562 90.5441L83.6521 86.4161L86.1767 80.7781C86.3864 80.3101 86.3296 79.7629 86.0288 79.3497C85.728 78.9366 85.2304 78.7221 84.7303 78.7917L78.2962 79.6752L79.5619 69.0696C79.624 68.548 79.3995 68.0376 78.9759 67.7382C78.6288 67.4931 78.1991 67.4279 77.8033 67.5444L84.0043 31.7082C84.1815 30.6751 83.501 29.6854 82.4859 29.5017L78.2924 28.7482L79.0506 24.3666C79.2296 23.3316 78.549 22.3413 77.5336 22.1591L61.5443 19.2859C60.529 19.1018 59.5572 19.797 59.378 20.8317L58.6198 25.2139L54.4274 24.4607C53.9347 24.3717 53.4375 24.4837 53.0277 24.7764C52.6181 25.0686 52.3452 25.5061 52.2594 26.0062L49.3703 42.6993C49.2684 43.2888 49.6546 43.8512 50.2331 43.955C50.8116 44.06 51.3633 43.6653 51.4655 43.0758L54.3099 26.6408L81.8642 31.5913L75.4321 68.7638L66.3443 73.5687L65.1083 69.6208C64.9297 69.0505 64.3313 68.7362 63.7715 68.9176C63.2118 69.0995 62.9029 69.7093 63.0815 70.2798L64.5848 75.0812C64.7093 75.4786 64.9976 75.798 65.376 75.9572C65.7544 76.117 66.1798 76.0982 66.5439 75.9058L77.2806 70.229L76.0686 80.3841C76.0164 80.8217 76.1631 81.2504 76.471 81.5602C76.7789 81.87 77.202 82.0138 77.6299 81.9546L83.6839 81.1232L81.4012 86.221C81.247 86.5654 81.2356 86.9652 81.3698 87.3183C81.5041 87.6711 81.7771 87.9587 82.1187 88.107L88.9834 91.0884H79.8894C79.7705 90.995 79.6328 90.921 79.4791 90.874L74.6846 89.4095L75.6562 87.8838C75.9014 87.4984 75.9089 87.0152 75.6756 86.6231C75.431 86.2119 74.9561 85.9776 74.4664 86.0243L71.285 86.3316L71.8863 82.7877C71.9581 82.365 71.8052 81.9465 71.4776 81.6675C71.1267 81.3692 70.6365 81.2851 70.1991 81.448L63.9082 83.7871L61.356 78.054C61.1152 77.5131 60.5827 77.1634 60 77.1632C59.4173 77.1632 58.8849 77.5126 58.6441 78.0531L56.0057 83.9702L49.2539 81.4492C48.8158 81.2854 48.3252 81.3689 47.974 81.6675C47.6461 81.9463 47.4929 82.365 47.5647 82.7881L48.1661 86.3314L44.9848 86.0241C44.4934 85.9778 44.0196 86.2119 43.7751 86.6232C43.5418 87.0155 43.5495 87.4987 43.7948 87.8838L44.8555 89.5498L40.5206 90.8739C40.367 90.9209 40.2294 90.9947 40.1107 91.0881H31.0165L37.0958 88.4476C37.4376 88.2994 37.7106 88.0117 37.8449 87.6589C37.9792 87.306 37.9679 86.9059 37.8136 86.5615L35.3782 81.1229L41.432 81.9543C41.8608 82.0137 42.2832 81.8696 42.5911 81.5599C42.899 81.2501 43.0458 80.8216 42.9935 80.3838L41.782 70.2329L53.3051 76.3511C53.6685 76.544 54.0943 76.5633 54.4733 76.4043C54.8522 76.2453 55.1411 75.9259 55.2659 75.5281L59.9991 60.4343L61.5706 65.4536C61.7491 66.024 62.3474 66.3385 62.9073 66.1569C63.467 65.9748 63.7759 65.365 63.5973 64.7947L61.3203 57.5218C61.1362 56.9337 60.6054 56.5384 59.9997 56.5384C59.3941 56.5384 58.8633 56.9335 58.6792 57.5211L53.5074 74.0139L46.7347 70.4179L50.5905 48.1344C50.6925 47.5448 50.3061 46.9825 49.7276 46.8787C49.1492 46.774 48.5974 47.1685 48.4954 47.7579L44.7562 69.3676L41.5171 67.6478C41.0592 67.4046 40.5112 67.4397 40.0871 67.7395C39.6628 68.039 39.438 68.5493 39.5004 69.0712L40.7659 79.6756L34.3319 78.7921C33.8318 78.7246 33.3342 78.9373 33.0333 79.3501C32.7325 79.7632 32.6759 80.3104 32.8854 80.7785L35.5626 86.7572L26.8437 90.5442C26.2307 90.8106 25.8957 91.4611 26.029 92.1264C26.1624 92.7917 26.7209 93.2563 27.3873 93.2563H59.3026C59.89 93.2563 60.3663 92.7712 60.3663 92.1724C60.3663 91.5736 59.89 91.0884 59.3026 91.0884H47.0083C47.2096 90.9462 47.364 90.7477 47.4495 90.5104C47.5768 90.1573 47.5339 89.7729 47.3322 89.4569L46.6349 88.3615L49.1087 88.6004C49.5106 88.6379 49.9087 88.4885 50.1735 88.1972C50.4244 87.9211 50.5324 87.5524 50.4701 87.186L49.9313 84.0111L56.001 86.2777C56.6326 86.5138 57.3358 86.2284 57.6027 85.6294L59.9994 80.2545L62.3101 85.4453C62.5769 86.0441 63.2802 86.329 63.9102 86.0945L69.5202 84.0084L68.9811 87.1856C68.9187 87.5524 69.0267 87.9211 69.2775 88.1972C69.5422 88.4887 69.9406 88.6381 70.3422 88.6004L72.816 88.3615L72.208 89.3163C72.0062 89.6332 71.9636 90.0175 72.091 90.3705C72.2104 90.7016 72.4636 90.9576 72.7918 91.0884H64.2665C63.679 91.0884 63.2028 91.5736 63.2028 92.1724C63.2028 92.7712 63.679 93.2563 64.2665 93.2563H92.6127C93.279 93.2563 93.8376 92.7917 93.971 92.1264C94.1042 91.461 93.7692 90.8104 93.1562 90.5441ZM61.4285 21.4665L76.9108 24.2484L76.1973 28.3717L60.7149 25.5902L61.4285 21.4665Z" fill="white"/>
</svg>
