<svg width="232" height="232" viewBox="0 0 232 232" fill="none" xmlns="http://www.w3.org/2000/svg">
<rect x="2" y="2" width="228" height="228" rx="114" stroke="white" stroke-width="4"/>
<path d="M180.048 161.757C180.579 161.757 181.109 161.333 181.109 160.698V155.508C181.109 154.978 180.685 154.449 180.048 154.449C179.518 154.449 178.988 154.872 178.988 155.508V160.698C179.094 161.333 179.518 161.757 180.048 161.757Z" fill="white"/>
<path d="M153.962 173.514C152.16 173.514 150.781 174.997 150.781 176.692C150.781 178.492 152.266 179.869 153.962 179.869C155.659 179.869 157.144 178.386 157.144 176.692C157.144 174.997 155.765 173.514 153.962 173.514ZM153.962 177.857C153.326 177.857 152.796 177.327 152.796 176.692C152.796 176.056 153.326 175.526 153.962 175.526C154.599 175.526 155.129 176.056 155.129 176.692C155.129 177.327 154.599 177.857 153.962 177.857Z" fill="white"/>
<path d="M143.358 173.514C141.556 173.514 140.177 174.997 140.177 176.692C140.177 178.492 141.662 179.869 143.358 179.869C145.055 179.869 146.54 178.386 146.54 176.692C146.54 174.997 145.161 173.514 143.358 173.514ZM143.358 177.963C142.722 177.963 142.192 177.433 142.192 176.798C142.192 176.162 142.722 175.632 143.358 175.632C143.995 175.632 144.525 176.162 144.525 176.798C144.525 177.327 143.995 177.963 143.358 177.963Z" fill="white"/>
<path d="M185.881 173.514C184.078 173.514 182.699 174.997 182.699 176.692C182.699 178.386 184.184 179.869 185.881 179.869C187.577 179.869 189.062 178.386 189.062 176.692C189.062 174.997 187.683 173.514 185.881 173.514ZM185.881 177.963C185.244 177.963 184.714 177.433 184.714 176.798C184.714 176.162 185.244 175.632 185.881 175.632C186.517 175.632 187.047 176.162 187.047 176.798C187.047 177.433 186.517 177.963 185.881 177.963Z" fill="white"/>
<path d="M191.607 166.523C193.515 166.523 195 165.04 195 163.134V153.072C195 151.165 193.515 149.682 191.607 149.682H191.501V148.305C191.501 146.399 190.016 144.916 188.107 144.916H184.82V140.255C184.82 139.302 185.138 138.349 185.881 137.607L188.638 134.854C189.062 134.43 189.062 133.794 188.638 133.371C188.213 132.947 187.577 132.947 187.153 133.371L184.29 136.125C183.23 137.184 182.593 138.667 182.593 140.15V144.916H179.306C177.397 144.916 175.913 146.399 175.913 148.305V149.682H169.762V132.629C169.656 134.748 168.596 134.218 167.536 135.065C167.536 135.065 167.642 135.065 167.642 134.96V149.894C166.581 150.318 165.627 151.165 165.203 152.224L164.036 155.084C163.718 155.931 162.976 156.461 162.021 156.461H160.325C159.795 156.461 159.37 156.567 158.946 156.779V135.065C158.31 134.536 157.674 133.9 156.932 133.053V140.044C156.507 139.832 156.083 139.726 155.553 139.726H148.236C146.858 139.726 145.479 140.679 145.055 141.95L142.51 149.153C141.768 151.059 141.45 153.072 141.45 155.19V163.028C141.45 164.511 142.404 165.782 143.783 166.206V169.277H141.344C139.965 169.277 138.799 169.595 137.632 170.231C136.996 170.548 136.572 170.972 136.042 171.502C135.617 171.925 135.299 172.349 134.981 172.879C134.451 173.938 134.239 174.361 134.027 175.209C133.921 175.632 133.921 176.162 133.921 176.586C133.921 178.704 134.875 180.505 136.254 181.988C137.42 183.259 139.435 184 140.919 184C152.054 184 187.259 184 187.259 184C191.289 184 194.682 180.717 194.682 176.586C194.682 172.879 191.925 169.701 188.319 169.277V166.312H191.607V166.523ZM178.034 148.411C178.034 147.67 178.67 147.034 179.412 147.034H188.107C188.85 147.034 189.486 147.67 189.486 148.411V149.788H178.034V148.411ZM143.783 155.296C143.783 153.495 144.101 151.695 144.737 150L147.282 142.798C147.494 142.268 148.024 141.95 148.554 141.95H152.266V155.19C152.266 155.508 152.054 155.72 151.736 155.72H143.889V155.296H143.783ZM143.783 163.134V157.732H151.63C153.114 157.732 154.174 156.567 154.174 155.19V141.95H155.659C156.401 141.95 157.038 142.586 157.038 143.327V164.511H145.161C144.419 164.405 143.783 163.875 143.783 163.134ZM186.517 166.523V169.383H146.115V166.523H186.517ZM192.985 176.798C192.985 179.763 190.546 182.093 187.577 182.093H141.662C138.693 182.093 136.254 179.657 136.254 176.798C136.254 173.832 138.693 171.396 141.662 171.396H187.577C190.546 171.396 192.985 173.832 192.985 176.798ZM159.158 160.062C159.158 159.321 159.795 158.685 160.537 158.685H162.234C163.93 158.685 165.521 157.626 166.157 156.037L167.323 153.178C167.642 152.33 168.384 151.801 169.338 151.801H191.713C192.455 151.801 193.091 152.436 193.091 153.178V163.24C193.091 163.981 192.455 164.617 191.713 164.617H159.158V160.062Z" fill="white"/>
<path d="M175.276 173.514C173.474 173.514 172.095 174.997 172.095 176.692C172.095 178.386 173.58 179.869 175.276 179.869C176.973 179.869 178.458 178.386 178.458 176.692C178.458 174.997 177.079 173.514 175.276 173.514ZM175.276 177.963C174.64 177.963 174.11 177.433 174.11 176.798C174.11 176.162 174.64 175.632 175.276 175.632C175.913 175.632 176.443 176.162 176.443 176.798C176.443 177.327 175.913 177.963 175.276 177.963Z" fill="white"/>
<path d="M164.672 173.514C162.87 173.514 161.491 174.997 161.491 176.692C161.491 178.386 162.976 179.869 164.672 179.869C166.369 179.869 167.854 178.386 167.854 176.692C167.854 174.997 166.475 173.514 164.672 173.514ZM164.672 177.963C164.036 177.963 163.506 177.433 163.506 176.798C163.506 176.162 164.036 175.632 164.672 175.632C165.309 175.632 165.839 176.162 165.839 176.798C165.839 177.327 165.309 177.963 164.672 177.963Z" fill="white"/>
<path d="M189.168 161.757C189.698 161.757 190.228 161.333 190.228 160.698V155.508C190.228 154.978 189.804 154.449 189.168 154.449C188.638 154.449 188.107 154.872 188.107 155.508V160.698C188.107 161.333 188.638 161.757 189.168 161.757Z" fill="white"/>
<path d="M184.608 161.757C185.138 161.757 185.668 161.333 185.668 160.698V155.508C185.668 154.978 185.244 154.449 184.608 154.449C184.078 154.449 183.548 154.872 183.548 155.508V160.698C183.654 161.333 184.078 161.757 184.608 161.757Z" fill="white"/>
<path d="M162.446 140.573V148.835C162.446 149.364 162.87 149.894 163.506 149.894C164.142 149.894 164.566 149.47 164.566 148.835V140.573C164.566 140.044 164.142 139.514 163.506 139.514C162.87 139.514 162.446 140.044 162.446 140.573Z" fill="white"/>
<path d="M160.855 124.791L151.736 106.573C151.523 106.044 150.887 105.832 150.357 106.044C149.827 106.255 149.615 106.891 149.827 107.421L158.946 125.639C159.052 125.85 159.264 126.062 159.477 126.168C159.689 126.274 160.007 126.274 160.219 126.168C160.855 125.956 161.067 125.321 160.855 124.791Z" fill="white"/>
<path d="M162.658 135.065C164.036 135.595 165.521 134.854 165.945 133.583C166.475 132.206 165.733 130.829 164.354 130.299C162.976 129.769 161.491 130.511 161.067 131.782C160.643 133.053 161.279 134.642 162.658 135.065Z" fill="white"/>
<path d="M128.831 51.4953C127.877 51.1776 126.922 51.6012 126.604 52.5545C126.286 53.5078 126.71 54.4611 127.664 54.7788C128.619 55.0966 129.573 54.6729 129.891 53.7196C130.209 52.7664 129.785 51.8131 128.831 51.4953Z" fill="white"/>
<path d="M99.5638 86.9782C101.685 87.7196 103.911 87.8255 106.35 87.19C106.881 87.0841 107.199 86.4486 107.093 85.919C106.987 85.3894 106.35 85.0717 105.82 85.1776C103.911 85.7072 102.003 85.6012 100.306 84.9657C99.7758 84.7539 99.1396 85.0717 98.9275 85.6012C98.7154 86.2368 99.0336 86.7664 99.5638 86.9782Z" fill="white"/>
<path d="M169.126 129.769C167.748 127.227 134.981 55.5202 132.86 51.1776C132.648 50.648 132.33 50.2243 132.012 49.8006C131.8 49.5888 131.694 49.4829 131.482 49.271C131.376 49.1651 131.27 49.0592 131.058 48.9533C130.74 48.7414 130.315 48.5296 129.891 48.3178C129.785 48.3178 129.679 48.2118 129.679 48.2118C129.573 48.2118 129.573 48.2118 129.467 48.1059C129.361 48.1059 129.255 48.1059 129.149 48C129.043 48 129.043 48 128.937 48C128.831 48 128.831 48 128.725 48C128.619 48 128.619 48 128.513 48C128.407 48 128.301 48 128.195 48C127.983 48 127.877 48 127.664 48C127.558 48 127.452 48 127.346 48C127.24 48 127.134 48 127.028 48C126.922 48 126.816 48 126.816 48.1059C126.71 48.1059 126.604 48.1059 126.604 48.2118C126.498 48.2118 126.392 48.3178 126.392 48.3178C126.286 48.3178 126.18 48.4237 126.18 48.4237C126.074 48.4237 125.968 48.5296 125.968 48.5296C125.862 48.5296 125.756 48.6355 125.756 48.6355C125.756 48.6355 125.756 48.6355 125.65 48.7414C123.211 50.2243 99.8819 64.947 99.8819 64.947C99.1396 65.3707 98.6094 66.0062 98.2913 66.8536C98.0792 67.3832 98.0792 67.9128 98.0792 68.5483C95.5342 69.1838 93.4134 70.8785 92.247 73.2087C91.1866 75.3271 90.1262 79.7757 94.0497 86.1308C93.9436 86.8723 93.9436 87.6137 94.1557 88.2492C94.3678 89.3084 95.004 90.1558 95.8523 90.5794C96.5946 90.8972 97.2309 91.3209 97.9732 91.5327C104.336 93.8629 111.334 91.8505 118.545 85.6012C119.075 85.1776 119.181 84.4361 118.969 83.9065C118.757 83.3769 118.121 82.9533 117.485 83.0592C116.742 83.0592 116.106 83.0592 115.47 83.0592C115.258 82.7414 115.152 82.1059 114.94 81.5763C114.409 79.8816 113.773 77.6573 111.546 76.3863C109.426 75.2212 106.456 75.2212 102.533 76.3863C102.215 76.0685 102.003 75.8567 101.685 75.5389C101.26 75.1153 100.73 74.9034 100.094 74.9034C100.094 74.9034 100.094 74.9034 99.9879 74.9034C99.5638 73.6324 99.5638 72.4673 99.8819 71.0903C100.094 71.1963 100.306 71.3022 100.518 71.4081C101.472 71.7259 102.533 71.6199 103.381 71.3022C103.381 71.3022 115.47 65.053 125.968 59.757C134.133 77.3396 157.886 135.595 157.886 135.595C158.098 136.125 158.522 136.548 158.84 136.972C158.84 136.972 158.84 136.972 158.946 137.078C159.583 137.713 160.431 138.243 161.279 138.667C162.764 139.196 164.354 139.196 165.627 138.667H165.733C166.899 138.137 168.384 137.184 169.232 135.171C169.232 135.065 169.338 134.96 169.338 134.854C170.081 133.159 169.868 131.358 169.126 129.769ZM110.486 78.1869C111.97 79.0343 112.501 80.6231 112.925 82.1059C112.925 82.3178 113.031 82.5296 113.137 82.6355C110.168 82 107.199 80.5171 104.23 77.9751C107.093 77.4455 109.213 77.4455 110.486 78.1869ZM100.2 77.0218C100.518 77.3396 101.472 78.5047 101.791 78.6106C106.032 82.6355 110.38 84.7539 114.728 85.0717C114.834 85.0717 115.576 85.1776 115.788 85.1776C108.895 90.6854 102.427 91.9564 96.7007 88.7788C96.4886 88.6729 96.1705 88.4611 95.9584 87.8255C95.5342 85.6012 97.2309 81.1526 100.2 77.0218ZM98.2913 76.2804C96.9127 78.2928 95.5342 80.8349 94.6859 83.1651C93.0953 79.7757 92.8832 76.7041 94.0497 74.162C94.898 72.5732 96.1705 71.4081 97.7611 70.7726C97.3369 72.6791 97.4429 74.4798 98.2913 76.2804ZM126.922 57.0031C126.392 57.3209 125.756 57.6386 125.013 57.9564C114.515 63.2523 102.427 69.5016 102.427 69.5016C102.003 69.7134 101.579 69.8193 101.154 69.6075C100.306 69.2897 99.8819 68.4424 100.2 67.595C100.306 67.1713 100.624 66.8536 101.048 66.7477C101.048 66.7477 113.773 58.1682 123.317 52.6604C125.438 51.3894 126.71 50.648 126.71 50.648L126.922 50.4361C127.028 50.3302 127.24 50.3302 127.346 50.2243C127.558 50.2243 127.664 50.2243 127.77 50.2243H127.877C127.877 50.2243 127.877 50.2243 127.983 50.2243H128.089C128.089 50.2243 128.089 50.2243 128.195 50.2243H128.513C128.619 50.2243 128.831 50.2243 128.937 50.3302H129.043C129.149 50.3302 129.149 50.3302 129.255 50.4361C129.361 50.4361 129.467 50.5421 129.573 50.5421C129.573 50.5421 129.679 50.5421 129.679 50.648L129.997 50.9657C130.103 51.0717 130.103 51.0717 130.209 51.1776C130.315 51.2835 130.421 51.4953 130.634 51.6012C130.74 51.8131 130.846 51.919 130.952 52.1308C131.164 52.7664 131.27 53.5078 130.952 54.1433C130.634 54.8847 130.103 55.5202 129.361 55.838C129.467 55.7321 128.513 56.2617 126.922 57.0031ZM162.021 136.76C160.007 136.019 159.477 134.324 159.477 134.324L127.77 58.9097L130.315 57.6386C131.27 57.215 132.648 55.5202 132.648 55.5202L167.217 130.723C167.217 130.723 168.172 132.417 167.536 134.324C166.687 136.336 164.248 137.502 162.021 136.76Z" fill="white"/>
<path d="M38.3785 183.47C37.6362 183.47 37 182.835 37 182.093C37 181.352 37.6362 180.717 38.3785 180.717H41.2416L43.0443 171.819C43.1503 171.29 43.4685 170.972 43.9987 170.76L50.043 168.748C50.149 168.748 50.3611 168.642 50.4671 168.642C50.6792 168.642 50.8913 168.748 51.1034 168.854C51.4215 169.065 51.6336 169.383 51.7396 169.701L54.2846 180.717H61.0711V140.467C61.0711 139.726 61.7074 139.09 62.4497 139.09C63.1919 139.09 63.8282 139.726 63.8282 140.467V168.642H67.5396L69.2362 163.558C69.4483 163.028 69.9785 162.604 70.5087 162.604C70.6148 162.604 70.8268 162.604 70.9329 162.71C71.251 162.816 71.5691 163.028 71.6752 163.346C71.8872 163.664 71.8872 164.087 71.7812 164.405L70.1906 169.277L73.1597 170.76C73.796 171.078 74.1141 171.925 73.796 172.561C73.5839 172.984 73.0537 173.302 72.5235 173.302C72.3114 173.302 72.0993 173.302 71.8872 173.196L68.1758 171.29H63.8282V180.611H79.204V172.031C79.204 171.29 79.8403 170.654 80.5825 170.654H88.6416C89.3839 170.654 90.0201 171.29 90.0201 172.031V180.717H109.319V134.854L94.1557 129.134C93.8376 129.028 93.6255 128.816 93.5195 128.604L85.8846 117.165H63.8282V124.368C63.8282 125.109 63.1919 125.745 62.4497 125.745C61.7074 125.745 61.0711 125.109 61.0711 124.368V115.894C61.0711 115.576 61.1772 115.153 61.4953 114.941C61.7074 114.729 62.1315 114.517 62.4497 114.517H67.1154V107.844C67.1154 107.103 67.7517 106.467 68.494 106.467C69.2362 106.467 69.8725 107.103 69.8725 107.844V114.517H79.204V101.171H66.4792C65.7369 101.171 65.1007 100.536 65.1007 99.7944C65.1007 99.053 65.7369 98.4174 66.4792 98.4174H79.204V97.7819C79.204 97.0405 79.8403 96.405 80.5825 96.405C81.3248 96.405 81.9611 97.0405 81.9611 97.7819V98.4174H91.2926V89.7321C91.2926 88.9907 91.9289 88.3551 92.6711 88.3551C93.4134 88.3551 94.0497 88.9907 94.0497 89.7321V98.4174H103.381V95.7695C103.381 95.028 104.017 94.3925 104.76 94.3925C105.502 94.3925 106.138 95.028 106.138 95.7695V98.4174H110.804C111.546 98.4174 112.183 99.053 112.183 99.7944C112.183 100.536 111.546 101.171 110.804 101.171H106.138V110.492H110.804C111.546 110.492 112.183 111.128 112.183 111.869C112.183 112.611 111.546 113.246 110.804 113.246H106.138V122.567H110.804C111.546 122.567 112.183 123.202 112.183 123.944C112.183 124.685 111.546 125.321 110.804 125.321H106.138V130.723L111.228 132.629C111.758 132.841 112.077 133.371 112.077 133.9V164.087H112.713C118.227 164.087 120.772 169.807 121.726 172.349L121.832 172.667L122.15 172.773C126.498 173.62 127.77 178.174 128.195 180.187L128.301 180.717H130.846C131.588 180.717 132.224 181.352 132.224 182.093C132.224 182.835 131.588 183.47 130.846 183.47H38.3785ZM112.077 180.717H125.544L125.332 179.975C124.589 177.115 122.999 175.526 120.772 175.526C120.136 175.526 119.605 175.103 119.393 174.467C119.393 174.361 117.485 166.947 112.713 166.947H112.077V180.717ZM81.9611 180.717H87.2631V173.408H81.9611V180.717ZM45.5893 173.09L44.1047 180.717H51.5275L49.5128 171.819L45.5893 173.09ZM93.9436 124.474L95.4282 126.804L103.169 129.664V125.215H102.533C101.791 125.215 101.154 124.579 101.154 123.838C101.154 123.097 101.791 122.461 102.533 122.461H103.169V113.14H93.8376V124.474H93.9436ZM81.9611 114.517H86.6268C87.051 114.517 87.4752 114.729 87.7933 115.153L91.2926 120.449V101.171H81.9611V114.517ZM93.9436 110.492H103.275V101.171H93.9436V110.492ZM102.639 165.358C101.897 165.358 101.26 164.723 101.26 163.981C101.26 163.24 101.897 162.604 102.639 162.604C103.381 162.604 104.017 163.24 104.017 163.981C104.017 164.829 103.381 165.358 102.639 165.358ZM94.5799 165.358C93.8376 165.358 93.2013 164.723 93.2013 163.981C93.2013 163.664 93.3074 163.24 93.6255 163.028C93.8376 162.816 94.2617 162.604 94.5799 162.604C95.3221 162.604 95.9584 163.24 95.9584 163.981C95.9584 164.829 95.3221 165.358 94.5799 165.358ZM86.6268 165.358C85.8846 165.358 85.2483 164.723 85.2483 163.981C85.2483 163.24 85.8846 162.604 86.6268 162.604C87.3691 162.604 88.0054 163.24 88.0054 163.981C87.8993 164.829 87.3691 165.358 86.6268 165.358ZM78.5678 165.358C77.8255 165.358 77.1893 164.723 77.1893 163.981C77.1893 163.24 77.8255 162.604 78.5678 162.604C79.3101 162.604 79.9463 163.24 79.9463 163.981C79.9463 164.829 79.3101 165.358 78.5678 165.358ZM102.639 157.414C101.897 157.414 101.26 156.779 101.26 156.037C101.26 155.296 101.897 154.66 102.639 154.66C103.381 154.66 104.017 155.296 104.017 156.037C104.017 156.779 103.381 157.414 102.639 157.414ZM94.5799 157.414C93.8376 157.414 93.2013 156.779 93.2013 156.037C93.2013 155.72 93.3074 155.296 93.6255 155.084C93.8376 154.872 94.2617 154.66 94.5799 154.66C95.3221 154.66 95.9584 155.296 95.9584 156.037C95.9584 156.779 95.3221 157.414 94.5799 157.414ZM86.6268 157.414C85.8846 157.414 85.2483 156.779 85.2483 156.037C85.2483 155.296 85.8846 154.66 86.6268 154.66C87.3691 154.66 88.0054 155.296 88.0054 156.037C87.8993 156.779 87.3691 157.414 86.6268 157.414ZM78.5678 157.414C77.8255 157.414 77.1893 156.779 77.1893 156.037C77.1893 155.296 77.8255 154.66 78.5678 154.66C79.3101 154.66 79.9463 155.296 79.9463 156.037C79.9463 156.779 79.3101 157.414 78.5678 157.414ZM70.5087 157.414C69.7664 157.414 69.1302 156.779 69.1302 156.037C69.1302 155.296 69.7664 154.66 70.5087 154.66C71.251 154.66 71.8872 155.296 71.8872 156.037C71.8872 156.779 71.251 157.414 70.5087 157.414ZM102.639 149.364C101.897 149.364 101.26 148.729 101.26 147.988C101.26 147.246 101.897 146.611 102.639 146.611C103.381 146.611 104.017 147.246 104.017 147.988C104.017 148.729 103.381 149.364 102.639 149.364ZM94.5799 149.364C93.8376 149.364 93.2013 148.729 93.2013 147.988C93.2013 147.67 93.3074 147.246 93.6255 147.034C93.8376 146.822 94.2617 146.611 94.5799 146.611C95.3221 146.611 95.9584 147.246 95.9584 147.988C95.9584 148.729 95.3221 149.364 94.5799 149.364ZM86.6268 149.364C85.8846 149.364 85.2483 148.729 85.2483 147.988C85.2483 147.246 85.8846 146.611 86.6268 146.611C87.3691 146.611 88.0054 147.246 88.0054 147.988C87.8993 148.729 87.3691 149.364 86.6268 149.364ZM78.5678 149.364C77.8255 149.364 77.1893 148.729 77.1893 147.988C77.1893 147.246 77.8255 146.611 78.5678 146.611C79.3101 146.611 79.9463 147.246 79.9463 147.988C79.9463 148.729 79.3101 149.364 78.5678 149.364ZM70.5087 149.364C69.7664 149.364 69.1302 148.729 69.1302 147.988C69.1302 147.246 69.7664 146.611 70.5087 146.611C71.251 146.611 71.8872 147.246 71.8872 147.988C71.8872 148.729 71.251 149.364 70.5087 149.364ZM102.639 141.315C101.897 141.315 101.26 140.679 101.26 139.938C101.26 139.196 101.897 138.561 102.639 138.561C103.381 138.561 104.017 139.196 104.017 139.938C104.017 140.679 103.381 141.315 102.639 141.315ZM94.5799 141.315C93.8376 141.315 93.2013 140.679 93.2013 139.938C93.2013 139.62 93.3074 139.196 93.6255 138.984C93.8376 138.773 94.2617 138.561 94.5799 138.561C95.3221 138.561 95.9584 139.196 95.9584 139.938C95.9584 140.679 95.3221 141.315 94.5799 141.315ZM86.6268 141.315C85.8846 141.315 85.2483 140.679 85.2483 139.938C85.2483 139.196 85.8846 138.561 86.6268 138.561C87.3691 138.561 88.0054 139.196 88.0054 139.938C87.8993 140.679 87.3691 141.315 86.6268 141.315ZM78.5678 141.315C77.8255 141.315 77.1893 140.679 77.1893 139.938C77.1893 139.196 77.8255 138.561 78.5678 138.561C79.3101 138.561 79.9463 139.196 79.9463 139.938C79.9463 140.679 79.3101 141.315 78.5678 141.315ZM70.5087 141.315C69.7664 141.315 69.1302 140.679 69.1302 139.938C69.1302 139.196 69.7664 138.561 70.5087 138.561C71.251 138.561 71.8872 139.196 71.8872 139.938C71.8872 140.679 71.251 141.315 70.5087 141.315ZM62.4497 133.794C61.7074 133.794 61.0711 133.159 61.0711 132.417C61.0711 131.676 61.7074 131.04 62.4497 131.04C63.1919 131.04 63.8282 131.676 63.8282 132.417C63.8282 133.159 63.298 133.794 62.4497 133.794ZM86.6268 133.265C85.8846 133.265 85.2483 132.629 85.2483 131.888C85.2483 131.146 85.8846 130.511 86.6268 130.511C87.3691 130.511 88.0054 131.146 88.0054 131.888C88.0054 132.629 87.3691 133.265 86.6268 133.265ZM70.5087 133.265C69.7664 133.265 69.1302 132.629 69.1302 131.888C69.1302 131.146 69.7664 130.511 70.5087 130.511C71.251 130.511 71.8872 131.146 71.8872 131.888C71.8872 132.629 71.251 133.265 70.5087 133.265ZM78.5678 133.265C77.8255 133.265 77.1893 132.629 77.1893 131.888C77.1893 131.146 77.8255 130.511 78.5678 130.511C79.3101 130.511 79.9463 131.146 79.9463 131.888C79.9463 132.417 79.7342 132.841 79.204 133.053C78.9919 133.265 78.7799 133.265 78.5678 133.265ZM78.5678 125.321C77.8255 125.321 77.1893 124.685 77.1893 123.944C77.1893 123.202 77.8255 122.567 78.5678 122.567C79.3101 122.567 79.9463 123.202 79.9463 123.944C79.9463 124.685 79.3101 125.321 78.5678 125.321ZM70.5087 125.321C69.7664 125.321 69.1302 124.685 69.1302 123.944C69.1302 123.202 69.7664 122.567 70.5087 122.567C71.251 122.567 71.8872 123.202 71.8872 123.944C71.8872 124.685 71.251 125.321 70.5087 125.321Z" fill="white"/>
</svg>
