<svg width="195" height="195" viewBox="0 0 195 195" fill="none" xmlns="http://www.w3.org/2000/svg">
<circle cx="97.3857" cy="97.4422" r="94.314" stroke="#EF810A" stroke-width="5"/>
<path d="M108.619 133.235C110.716 129.671 112.059 126.41 112.79 123.109L120.355 122.08C121.081 121.98 121.623 121.361 121.623 120.63V109.514C121.623 108.785 121.083 108.165 120.36 108.066L112.975 107.037C112.218 103.746 110.825 100.352 108.822 96.925L113.32 90.8818C113.752 90.2991 113.693 89.4874 113.18 88.9754L105.363 81.1746C104.85 80.6627 104.037 80.6017 103.453 81.0356L97.4455 85.487C94.5164 83.5953 91.1037 82.1887 87.4637 81.3769L86.4303 73.8199C86.3302 73.0959 85.7121 72.5547 84.9792 72.5547H74.0349C73.302 72.5547 72.6815 73.0959 72.5838 73.8199L71.5504 81.3794C68.2085 82.1473 64.803 83.5587 61.5979 85.5089L55.5614 81.0356C54.9776 80.6017 54.1641 80.6627 53.651 81.1746L45.8336 88.9754C45.3206 89.4874 45.2596 90.2991 45.6944 90.8818L50.1918 96.9225C48.1031 100.477 46.762 103.734 46.0315 107.029L38.2728 108.063C37.5448 108.161 37 108.78 37 109.514V120.63C37 121.359 37.5399 121.978 38.263 122.078L45.648 123.107C46.4053 126.397 47.8002 129.791 49.801 133.218L45.3035 139.262C44.8711 139.844 44.9298 140.656 45.4428 141.168L53.2602 148.969C53.7732 149.481 54.5867 149.542 55.1705 149.108L61.1777 144.656C64.1068 146.548 67.5196 147.955 71.1595 148.766L72.1929 156.323C72.2931 157.047 72.9111 157.589 73.644 157.589H84.5884C85.3212 157.589 85.9417 157.047 86.0395 156.323L87.0728 148.764C90.4148 147.996 93.8202 146.585 97.0253 144.634L103.062 149.108C103.646 149.539 104.459 149.481 104.972 148.969L112.79 141.168C113.295 140.663 113.361 139.866 112.946 139.283L108.617 133.238L108.619 133.235ZM103.795 146.007L97.9707 141.69C97.4797 141.326 96.8128 141.304 96.2998 141.636C92.8308 143.876 89.0907 145.422 85.4874 146.107C84.8693 146.224 84.3954 146.724 84.3099 147.345L83.3107 154.661H74.9241L73.9249 147.345C73.8394 146.724 73.3655 146.224 72.7475 146.107C68.7484 145.346 65.0278 143.813 61.9839 141.668C61.466 141.302 60.7722 141.312 60.2641 141.687L54.4401 146.004L48.4134 139.99L52.7398 134.179C53.0965 133.701 53.1258 133.053 52.8131 132.543C50.5021 128.767 48.9875 125.062 48.3108 121.527C48.1935 120.91 47.6952 120.44 47.0747 120.352L39.934 119.357V110.793L47.4558 109.791C48.086 109.709 48.5893 109.228 48.7041 108.604C49.3612 105.001 50.7488 101.608 53.204 97.6002C53.5167 97.0907 53.4874 96.4447 53.1307 95.9645L48.8043 90.1529L54.831 84.1389L60.6549 88.4562C61.146 88.8194 61.8104 88.8414 62.3259 88.5098C65.7949 86.2695 69.535 84.724 73.1383 84.039C73.7564 83.922 74.2303 83.4222 74.3158 82.8006L75.315 75.4849H83.7016L84.7007 82.8006C84.7862 83.4222 85.2602 83.922 85.8782 84.039C89.8773 84.7995 93.5979 86.3329 96.6418 88.4781C97.1597 88.8438 97.8535 88.834 98.3616 88.4562L104.186 84.1389L110.212 90.1529L105.886 95.9645C105.529 96.4423 105.5 97.0907 105.813 97.6002C108.124 101.376 109.638 105.082 110.315 108.616C110.432 109.233 110.931 109.704 111.551 109.791L118.692 110.786V119.352L111.36 120.349C110.733 120.435 110.229 120.915 110.117 121.537C109.46 125.137 108.072 128.533 105.617 132.541C105.312 133.04 105.334 133.677 105.676 134.154L109.841 139.971L103.797 146.002L103.795 146.007Z" fill="#EF810A"/>
<path d="M104.032 114.518C103.995 113.711 103.309 113.087 102.5 113.124L98.2004 113.319C98.2004 113.319 98.1833 113.319 98.1759 113.319C95.4667 113.487 92.9578 114.06 90.7958 114.989C90.1998 110.062 87.7324 105.355 83.831 101.815L80.7041 98.8898C80.4158 98.6192 80.0274 98.4754 79.6316 98.4949C79.2359 98.5144 78.8646 98.6923 78.6007 98.9873L75.6692 102.303C73.0479 105.267 71.3061 108.685 70.5586 112.285C67.6686 110.845 64.4488 109.967 61.0311 109.806L56.1697 109.418C55.7813 109.387 55.3977 109.511 55.0997 109.765C54.8041 110.018 54.6209 110.377 54.5916 110.764L54.2007 115.835C54.2007 115.849 54.2007 115.864 54.1983 115.879C53.5704 129.44 63.9285 140.975 77.2986 141.59L82.3799 141.785C82.3995 141.785 82.419 141.785 82.4361 141.785C82.7 141.785 82.9491 141.714 83.1641 141.59H83.8042C83.831 141.59 83.8555 141.59 83.8823 141.59C95.7306 140.968 104.855 130.742 104.227 118.806L104.032 114.516V114.518ZM77.8703 104.241L79.8027 102.056L81.8449 103.965C85.5387 107.317 87.7471 111.834 87.9889 116.471C87.8277 116.566 87.6689 116.666 87.5101 116.766C85.0916 118.292 82.9736 120.391 81.3197 122.885C79.4191 119.243 76.639 116.132 73.258 113.858C73.771 110.398 75.3541 107.09 77.8727 104.241H77.8703ZM57.1273 116.039L57.4034 112.456L60.8235 112.729C60.8406 112.729 60.8553 112.729 60.8724 112.731C64.5856 112.902 68.035 114.036 70.9983 115.883C74.995 118.453 78.0804 122.317 79.6903 126.783C79.6903 126.783 79.6903 126.783 79.6903 126.785C80.5624 129.181 80.9704 131.254 80.9704 133.306V135.227L80.8262 138.801L77.4208 138.669C65.6825 138.128 56.5826 127.977 57.1224 116.037L57.1273 116.039ZM83.9727 138.652L84.0973 135.517C84.2488 132.268 83.7651 129.133 82.7635 126.239C84.7642 122.699 87.2487 120.135 90.1558 118.609C90.1851 118.594 90.2144 118.577 90.2413 118.56C92.3911 117.241 95.1931 116.437 98.3445 116.239L101.169 116.11L101.298 118.95C101.838 129.203 94.084 137.987 83.9703 138.652H83.9727Z" fill="#EF810A"/>
<path d="M111.754 36.8683C105.019 36.8683 99.5391 42.3362 99.5391 49.0571V60.7584C99.5391 66.7382 103.975 71.8087 109.843 72.7985L110.493 78.476C110.554 79.0074 110.901 79.4633 111.397 79.6656C111.575 79.7388 111.764 79.7729 111.949 79.7729C112.281 79.7729 112.609 79.6607 112.875 79.4438L120.876 72.9472H144.785C151.52 72.9472 156.999 67.4793 156.999 60.7584V49.0571C156.999 42.3362 151.432 36.8683 144.589 36.8683H111.754ZM154.065 60.7584C154.065 65.8655 149.9 70.0218 144.782 70.0218H120.353C120.016 70.0218 119.688 70.1389 119.427 70.3509L113.1 75.4897L112.621 71.3187C112.54 70.6167 111.971 70.073 111.265 70.0267C106.333 69.6879 102.468 65.6168 102.468 60.7608V49.0595C102.468 43.9524 106.633 39.7961 111.751 39.7961H144.584C149.81 39.7961 154.063 43.9524 154.063 49.0595V60.7608L154.065 60.7584Z" fill="#EF810A"/>
<path d="M130.516 60.7584C130.125 60.1733 129.343 59.9783 128.366 59.9783C127.389 59.9783 126.802 60.3683 126.216 60.7584C125.63 61.1484 125.434 61.9285 125.434 62.7086C125.434 63.4886 125.825 64.0737 126.216 64.6588C126.607 65.2438 127.389 65.4389 128.366 65.4389C129.343 65.4389 129.929 65.0488 130.516 64.6588C131.102 64.2687 131.297 63.4886 131.297 62.7086C131.297 61.9285 131.102 61.1484 130.516 60.7584Z" fill="#EF810A"/>
<path d="M128.366 43.9866C126.607 43.9866 125.434 45.3517 125.434 47.1069L125.825 55.2978C126.021 56.6629 126.998 57.638 128.366 57.638C129.734 57.638 130.906 56.6629 130.906 55.2978L131.297 47.1069C131.297 45.3517 130.125 43.9866 128.366 43.9866Z" fill="#EF810A"/>
<path d="M156.025 140.9C153.802 140.107 152.306 138.779 152.306 137.597C152.306 136.322 153.721 135.061 155.995 134.303C156.384 134.174 156.699 133.889 156.867 133.518C157.036 133.148 157.041 132.721 156.882 132.346L154.732 127.275C154.574 126.902 154.271 126.612 153.89 126.473C153.508 126.334 153.088 126.356 152.727 126.536C150.626 127.585 148.847 127.687 147.97 126.809C147.174 126.015 147.294 124.091 148.281 121.79C148.437 121.427 148.439 121.017 148.288 120.654C148.136 120.291 147.846 120.003 147.479 119.855L142.593 117.904C142.224 117.758 141.809 117.765 141.445 117.929C141.081 118.092 140.8 118.397 140.668 118.77C139.806 121.178 138.421 122.48 137.554 122.48C135.861 122.48 134.82 119.906 134.449 118.799C134.319 118.411 134.033 118.097 133.662 117.929C133.288 117.761 132.863 117.756 132.487 117.914L127.406 120.059C127.032 120.218 126.741 120.52 126.602 120.9C126.463 121.278 126.485 121.7 126.665 122.061C127.723 124.174 127.831 126.112 126.939 127.002C126.14 127.799 124.257 127.682 122.141 126.707C121.413 126.373 120.551 126.683 120.206 127.402L117.861 132.277C117.68 132.65 117.668 133.084 117.827 133.467C117.986 133.85 118.298 134.15 118.689 134.289C120.912 135.081 122.407 136.409 122.407 137.592C122.407 138.867 120.993 140.127 118.719 140.885C118.33 141.014 118.015 141.3 117.846 141.67C117.678 142.041 117.673 142.467 117.832 142.843L119.982 147.913C120.14 148.286 120.443 148.576 120.824 148.715C121.203 148.854 121.626 148.832 121.987 148.652C124.088 147.604 125.867 147.501 126.744 148.379C127.54 149.173 127.423 151.097 126.433 153.398C126.279 153.756 126.275 154.159 126.421 154.522C126.568 154.883 126.851 155.17 127.21 155.324L132.292 157.469C132.663 157.625 133.083 157.623 133.452 157.462C133.821 157.301 134.107 156.994 134.243 156.614C135.106 154.205 136.491 152.903 137.358 152.903C138.545 152.903 139.843 154.424 140.444 156.523C140.558 156.926 140.842 157.26 141.22 157.44C141.421 157.535 141.636 157.584 141.853 157.584C142.046 157.584 142.242 157.545 142.425 157.469L147.506 155.324C147.88 155.166 148.171 154.863 148.31 154.483C148.449 154.105 148.427 153.683 148.246 153.323C147.189 151.209 147.081 149.271 147.973 148.381C148.772 147.584 150.655 147.701 152.771 148.676C153.132 148.842 153.543 148.854 153.914 148.713C154.283 148.569 154.581 148.284 154.735 147.918L156.885 142.848C157.041 142.477 157.038 142.058 156.877 141.69C156.716 141.321 156.408 141.036 156.027 140.9H156.025ZM152.59 145.461C149.817 144.542 147.377 144.834 145.896 146.312C144.335 147.869 144.032 150.424 145.012 153.201L142.701 154.176C141.531 151.582 139.542 149.978 137.358 149.978C135.326 149.978 133.384 151.562 132.084 154.203L129.651 153.176C130.611 150.224 130.33 147.818 128.82 146.312C127.247 144.742 124.853 144.442 122.112 145.422L121.118 143.077C123.79 141.807 125.341 139.827 125.341 137.594C125.341 135.478 123.778 133.486 121.169 132.17L122.261 129.901C125.06 130.844 127.525 130.559 129.018 129.069C130.579 127.512 130.882 124.957 129.902 122.18L132.245 121.19C133.904 124.815 136.227 125.4 137.556 125.4C139.596 125.4 141.543 123.806 142.843 121.149L145.061 122.034C144.11 124.974 144.396 127.37 145.901 128.872C147.406 130.373 149.868 130.744 152.612 129.762L153.606 132.109C150.934 133.379 149.382 135.359 149.382 137.592C149.382 139.825 150.97 141.731 153.618 143.047L152.597 145.458L152.59 145.461Z" fill="#EF810A"/>
<path d="M137.551 131.063C133.941 131.063 131.004 133.994 131.004 137.597C131.004 141.2 133.941 144.13 137.551 144.13C141.162 144.13 144.098 141.2 144.098 137.597C144.098 133.994 141.162 131.063 137.551 131.063ZM137.551 141.204C135.558 141.204 133.936 139.586 133.936 137.597C133.936 135.607 135.558 133.989 137.551 133.989C139.545 133.989 141.167 135.607 141.167 137.597C141.167 139.586 139.545 141.204 137.551 141.204Z" fill="#EF810A"/>
<path d="M120.243 96.2424C119.869 96.3789 119.569 96.6593 119.405 97.02C119.244 97.3808 119.234 97.7928 119.383 98.1609L120.947 102.061C121.098 102.442 121.403 102.739 121.787 102.885C122.17 103.032 122.598 103.01 122.964 102.827C124.413 102.105 125.725 102.12 126.157 102.554C126.59 102.985 126.607 104.297 125.884 105.74C125.703 106.101 125.679 106.522 125.82 106.903C125.962 107.283 126.253 107.585 126.626 107.744L130.34 109.304C130.709 109.46 131.126 109.458 131.495 109.297C131.864 109.136 132.15 108.833 132.287 108.456C132.927 106.696 133.726 105.908 134.231 105.908C134.82 105.908 135.768 106.8 136.371 108.456C136.508 108.831 136.794 109.136 137.163 109.297C137.351 109.377 137.549 109.418 137.749 109.418C137.949 109.418 138.135 109.379 138.318 109.304L142.032 107.744C142.405 107.588 142.696 107.283 142.838 106.903C142.979 106.522 142.955 106.103 142.774 105.742C142.051 104.299 142.066 102.988 142.501 102.556C142.935 102.125 144.247 102.108 145.693 102.829C146.06 103.012 146.487 103.034 146.871 102.888C147.255 102.741 147.56 102.444 147.711 102.064L149.275 98.1634C149.421 97.7953 149.414 97.3833 149.253 97.0225C149.092 96.6617 148.789 96.3813 148.415 96.2448C147.462 95.8987 145.862 95.1625 145.862 94.1094C145.862 93.5243 146.756 92.576 148.415 91.9739C148.789 91.8374 149.089 91.557 149.253 91.1962C149.414 90.8354 149.424 90.4235 149.275 90.0554L147.711 86.1549C147.56 85.7747 147.255 85.4772 146.871 85.331C146.487 85.1847 146.062 85.2067 145.693 85.3895C144.245 86.1111 142.933 86.0964 142.501 85.6625C142.068 85.231 142.051 83.9195 142.774 82.4764C142.955 82.1156 142.979 81.6938 142.838 81.316C142.696 80.9357 142.405 80.6334 142.032 80.475L138.318 78.9148C137.949 78.7588 137.532 78.7612 137.163 78.9221C136.794 79.083 136.508 79.3853 136.371 79.7631C136.024 80.7139 135.284 82.3106 134.231 82.3106C133.716 82.3106 132.783 81.5549 132.323 79.8777C132.211 79.4706 131.93 79.1318 131.551 78.9465C131.173 78.7612 130.73 78.749 130.342 78.9124L126.629 80.4725C126.255 80.6285 125.964 80.9333 125.823 81.3135C125.681 81.6938 125.705 82.1131 125.886 82.4739C126.609 83.9171 126.595 85.2286 126.16 85.6601C125.725 86.0916 124.413 86.1086 122.967 85.3871C122.6 85.2042 122.173 85.1823 121.789 85.3285C121.406 85.4748 121.1 85.7722 120.949 86.1525L119.386 90.0529C119.239 90.421 119.246 90.833 119.407 91.1938C119.569 91.5546 119.872 91.8349 120.245 91.9714C121.198 92.3176 122.798 93.0562 122.798 94.1069C122.798 94.692 121.904 95.6403 120.245 96.2424H120.243ZM125.727 94.1069C125.727 92.8271 125.151 91.1304 122.632 89.8238L123.128 88.5878C125.161 89.1851 127.066 88.8926 128.231 87.7297C129.402 86.5645 129.692 84.6508 129.084 82.6129L130.083 82.1936C131.021 84.0609 132.568 85.2335 134.231 85.2335C135.509 85.2335 137.204 84.663 138.511 82.1668L139.574 82.6129C138.966 84.6508 139.259 86.562 140.426 87.7297C141.592 88.8926 143.495 89.1851 145.53 88.5878L146.031 89.8384C144.086 90.8988 142.928 92.4541 142.928 94.1045C142.928 95.3843 143.505 97.081 146.023 98.3876L145.527 99.6236C143.495 99.0263 141.589 99.3213 140.424 100.482C139.259 101.642 138.963 103.561 139.571 105.599L138.492 106.052C137.429 104.126 135.875 102.978 134.229 102.978C133.237 102.978 131.507 103.412 130.142 106.042L129.082 105.596C129.69 103.558 129.397 101.647 128.229 100.479C127.066 99.3164 125.161 99.0214 123.126 99.6211L122.625 98.3706C124.569 97.3101 125.727 95.7548 125.727 94.1045V94.1069Z" fill="#EF810A"/>
<path d="M134.424 99.47C137.28 99.47 139.603 97.0639 139.603 94.1069C139.603 91.1499 137.28 88.7438 134.424 88.7438C131.568 88.7438 129.245 91.1499 129.245 94.1069C129.245 97.0639 131.568 99.47 134.424 99.47ZM134.424 91.6692C135.663 91.6692 136.672 92.7637 136.672 94.1069C136.672 95.4501 135.663 96.5447 134.424 96.5447C133.186 96.5447 132.177 95.4501 132.177 94.1069C132.177 92.7637 133.186 91.6692 134.424 91.6692Z" fill="#EF810A"/>
<path d="M38.3314 58.0281C37.9625 58.1695 37.6669 58.4547 37.5106 58.8179C37.3542 59.1811 37.3518 59.5907 37.5057 59.9563L39.46 64.6368C39.6139 65.0025 39.9095 65.2926 40.2809 65.4364C40.6522 65.5802 41.065 65.5681 41.4266 65.4023C43.5251 64.4345 44.9957 64.3248 45.7946 65.0708C46.5226 65.9727 46.4297 67.5841 45.5405 69.5075C45.3744 69.8683 45.3622 70.2827 45.5063 70.6508C45.6504 71.0213 45.9411 71.3163 46.3076 71.4699L50.998 73.4201C51.362 73.5712 51.7749 73.5688 52.1389 73.4152C52.5029 73.2592 52.7887 72.9642 52.9304 72.5961C53.7512 70.4655 54.7479 69.2442 55.6665 69.2442C56.6632 69.2442 57.8138 70.5606 58.598 72.5961C58.7397 72.9642 59.0255 73.2592 59.3895 73.4152C59.5727 73.4932 59.7706 73.5322 59.966 73.5322C60.1615 73.5322 60.3496 73.4957 60.5303 73.4201L65.2208 71.4699C65.5872 71.3163 65.8779 71.0213 66.0221 70.6508C66.1662 70.2802 66.154 69.8683 65.9879 69.5075C65.0034 67.3769 64.9032 65.8972 65.6923 65.1098C66.2663 64.5369 67.8885 64.3857 70.0993 65.4047C70.4609 65.5705 70.8762 65.5827 71.245 65.4389C71.6164 65.295 71.912 65.0049 72.0659 64.6393L74.0202 59.9588C74.1717 59.5931 74.1692 59.1836 74.0153 58.8203C73.859 58.4571 73.5634 58.1719 73.1945 58.0305C71.1547 57.248 69.8355 56.0998 69.8355 55.1052C69.8355 54.1106 71.1547 52.9624 73.1945 52.1799C73.5634 52.0385 73.859 51.7533 74.0153 51.39C74.1717 51.0268 74.1741 50.6173 74.0202 50.2516L72.0659 45.5711C71.912 45.203 71.6164 44.9153 71.245 44.7715C70.8737 44.6277 70.4609 44.6399 70.0993 44.8056C68.0008 45.7734 66.5302 45.8831 65.7313 45.1372C65.0034 44.2352 65.0962 42.6239 65.9854 40.7005C66.1515 40.3397 66.1637 39.9253 66.0196 39.5572C65.8755 39.1866 65.5848 38.8916 65.2183 38.7381L60.5279 36.7854C60.1566 36.6318 59.7388 36.6367 59.3724 36.7976C59.006 36.9609 58.7201 37.2657 58.5858 37.6435C57.8211 39.779 56.6754 41.1588 55.6665 41.1588C54.6575 41.1588 53.5118 39.779 52.7472 37.6435C52.6128 37.2657 52.327 36.9609 51.9605 36.7976C51.5916 36.6343 51.1739 36.6318 50.805 36.7854L46.1146 38.7356C45.7481 38.8892 45.4574 39.1842 45.3133 39.5547C45.1692 39.9253 45.1814 40.3372 45.3475 40.698C46.2831 42.7189 46.4297 44.4156 45.7237 45.0202C45.6944 45.0445 45.6675 45.0689 45.6407 45.0957C45.0666 45.6686 43.4445 45.8198 41.2336 44.8008C40.8647 44.6301 40.4397 44.6204 40.0634 44.7764C39.6872 44.93 39.3916 45.2347 39.2475 45.615L37.4837 50.2979C37.2003 51.0488 37.579 51.8873 38.329 52.1774C40.3688 52.96 41.688 54.1081 41.688 55.1028C41.688 56.0974 40.3688 57.2455 38.329 58.0281H38.3314ZM40.7133 50.0371L41.4681 48.0284C44.0063 48.8206 46.2954 48.5379 47.6707 47.2068C49.1854 45.8758 49.4932 43.6185 48.5697 40.8833L50.5778 40.0496C51.8359 42.6336 53.6413 44.0865 55.664 44.0865C57.6868 44.0865 59.4945 42.636 60.7502 40.0496L62.7656 40.8882C61.957 43.3796 62.2184 45.5467 63.54 47.0874C63.5645 47.1166 63.5889 47.1435 63.6158 47.1703C65.1133 48.6622 67.2264 48.9523 69.9137 48.0332L70.7613 50.0639C68.2867 51.3413 66.8991 53.1306 66.8991 55.1076C66.8991 57.0847 68.2891 58.874 70.7613 60.1489L69.9063 62.1966C67.3241 61.3775 64.9911 61.6676 63.6133 63.0425C62.1158 64.5369 61.8275 66.6455 62.7485 69.3271L60.7136 70.173C59.4335 67.7035 57.6403 66.3189 55.6591 66.3189C54.2667 66.3189 52.3636 67.0258 50.7904 70.1705L48.753 69.3222C49.5616 66.8308 49.3002 64.6636 47.9785 63.123C47.9541 63.0937 47.9297 63.0669 47.9028 63.0401C46.4053 61.5458 44.2922 61.2581 41.6049 62.1771L40.7572 60.1465C43.2319 58.8691 44.6195 57.0798 44.6195 55.1052C44.6195 53.1306 43.2148 51.3169 40.7108 50.0395L40.7133 50.0371Z" fill="#EF810A"/>
<path d="M55.4686 61.2459C58.8643 61.2459 61.6248 58.4912 61.6248 55.1028C61.6248 51.7143 58.8643 48.9596 55.4686 48.9596C52.0729 48.9596 49.3124 51.7143 49.3124 55.1028C49.3124 58.4912 52.0729 61.2459 55.4686 61.2459ZM55.4686 51.8849C57.247 51.8849 58.6933 53.3281 58.6933 55.1028C58.6933 56.8774 57.247 58.3206 55.4686 58.3206C53.6901 58.3206 52.2439 56.8774 52.2439 55.1028C52.2439 53.3281 53.6901 51.8849 55.4686 51.8849Z" fill="#EF810A"/>
</svg>
