<svg width="121" height="121" viewBox="0 0 121 121" fill="none" xmlns="http://www.w3.org/2000/svg">
<circle cx="60.8" cy="60.2563" r="58.5" stroke="white" stroke-width="3"/>
<path d="M77.1685 27.2563H43.8367C42.6094 27.2563 41.6145 28.2413 41.6145 29.4563V37.1561C41.6145 38.3711 42.6094 39.356 43.8367 39.356H47.1699V44.8559C47.1699 45.2849 46.8143 44.5699 53.8362 56.1636V59.9475C53.8362 60.7615 53.8362 60.6405 57.0028 65.7883C57.3973 66.4649 58.1247 66.8836 58.9138 66.8883H59.3915V71.6402L36.0592 80.726C35.4209 80.9699 35 81.5775 35 82.2549C35 82.9323 35.4209 83.5399 36.0592 83.7839C60.7693 93.6176 59.2693 93.2546 60.5026 93.2546C61.7359 93.2546 60.2471 93.6176 84.946 83.7839C85.5821 83.535 86 82.9266 86 82.2494C86 81.5723 85.5821 80.9638 84.946 80.715L61.6137 71.6072V66.8553H62.0914C62.8805 66.8506 63.6079 66.4319 64.0025 65.7553C67.069 60.6955 67.169 60.7285 67.169 59.9145V56.1636C74.1576 44.6249 73.8354 45.2959 73.8354 44.8559V39.356H77.1685C78.3958 39.356 79.3907 38.3711 79.3907 37.1561V29.4563C79.3907 28.2413 78.3958 27.2563 77.1685 27.2563ZM59.3915 73.9721V81.5509L48.6253 86.4678L38.1147 82.2549L59.3915 73.9721ZM82.8905 82.2549L61.3248 90.9007C60.7968 91.1089 60.2084 91.1089 59.6804 90.9007L51.4474 87.6008L60.9692 83.2009C61.3454 83.0291 61.5938 82.6645 61.6137 82.2549V73.9721L82.8905 82.2549ZM64.9469 59.9475L62.0914 64.6554H58.9138L56.0584 59.9475V56.9556H64.9469V59.9475ZM71.6132 43.7559H59.3915C58.7779 43.7559 58.2805 44.2484 58.2805 44.8559C58.2805 45.4634 58.7779 45.9559 59.3915 45.9559H70.7577L65.4246 54.7556H55.5806L50.2475 45.9559H53.8362C54.4499 45.9559 54.9473 45.4634 54.9473 44.8559C54.9473 44.2484 54.4499 43.7559 53.8362 43.7559H49.392V39.356H71.6132V43.7559ZM77.1685 37.1561H43.8367V29.4563H46.0588V31.6562C46.0588 32.2637 46.5562 32.7562 47.1699 32.7562C47.7835 32.7562 48.2809 32.2637 48.2809 31.6562V29.4563H50.503V31.6562C50.503 32.2637 51.0005 32.7562 51.6141 32.7562C52.2277 32.7562 52.7252 32.2637 52.7252 31.6562V29.4563H54.9473V31.6562C54.9473 32.2637 55.4447 32.7562 56.0584 32.7562C56.672 32.7562 57.1694 32.2637 57.1694 31.6562V29.4563H59.3915V31.6562C59.3915 32.2637 59.889 32.7562 60.5026 32.7562C61.1162 32.7562 61.6137 32.2637 61.6137 31.6562V29.4563H63.8358V31.6562C63.8358 32.2637 64.3332 32.7562 64.9469 32.7562C65.5605 32.7562 66.0579 32.2637 66.0579 31.6562V29.4563H68.28V31.6562C68.28 32.2637 68.7775 32.7562 69.3911 32.7562C70.0047 32.7562 70.5022 32.2637 70.5022 31.6562V29.4563H72.7243V31.6562C72.7243 32.2637 73.2217 32.7562 73.8354 32.7562C74.449 32.7562 74.9464 32.2637 74.9464 31.6562V29.4563H77.1685V37.1561Z" fill="white"/>
<path d="M76.313 55.0416C76.6901 54.9178 76.9719 54.6043 77.0521 54.2191C77.1324 53.8339 76.999 53.4355 76.7021 53.1741C76.4053 52.9127 75.9901 52.8279 75.6131 52.9517C71.2355 54.3816 69.4689 58.3745 71.4355 62.5434C72.8243 65.5024 71.691 68.0433 68.5689 69.1433C68.0083 69.3477 67.7113 69.9544 67.8966 70.5167C68.082 71.079 68.6833 71.3955 69.2578 71.2332C71.26 70.7288 72.9129 69.3338 73.7327 67.4563C74.5526 65.5788 74.4469 63.4311 73.4465 61.6415C72.0465 58.6385 73.1909 56.0646 76.313 55.0416Z" fill="white"/>
<path d="M84.6571 44.2399C84.9395 44.1494 85.1736 43.9508 85.3072 43.6884C85.4408 43.4259 85.4628 43.1215 85.3682 42.8429C85.173 42.2705 84.5479 41.9611 83.9682 42.15C81.9693 42.6553 80.3193 44.0485 79.4998 45.923C78.6802 47.7975 78.7836 49.942 79.7795 51.7307C81.1795 54.7006 80.0351 57.2856 76.913 58.3305C76.3301 58.5219 76.0142 59.1449 76.2075 59.722C76.4008 60.2991 77.03 60.6118 77.613 60.4205C81.9906 58.9905 83.7571 54.9976 81.7906 50.8397C80.4017 47.8368 81.535 45.2629 84.6571 44.2399Z" fill="white"/>
</svg>
