<svg width="233" height="232" viewBox="0 0 233 232" fill="none" xmlns="http://www.w3.org/2000/svg">
<rect x="2.5" y="2" width="228" height="228" rx="114" stroke="white" stroke-width="4"/>
<path d="M156.836 181H76.164C73.9017 180.998 71.7327 180.089 70.1331 178.474C68.5334 176.859 67.6337 174.67 67.6314 172.386V75.2773C67.6337 72.9933 68.5334 70.8035 70.1331 69.1885C71.7327 67.5735 73.9017 66.6651 76.164 66.6628H88.5751C89.1923 66.6628 89.7842 66.9103 90.2206 67.3509C90.657 67.7915 90.9022 68.3891 90.9022 69.0122C90.9022 69.6353 90.657 70.2329 90.2206 70.6735C89.7842 71.1141 89.1923 71.3616 88.5751 71.3616H76.164C75.1357 71.3626 74.1497 71.7754 73.4226 72.5095C72.6954 73.2437 72.2865 74.2391 72.2855 75.2773V172.386C72.2865 173.424 72.6954 174.419 73.4226 175.153C74.1497 175.887 75.1357 176.3 76.164 176.301H156.836C157.864 176.3 158.85 175.887 159.577 175.153C160.305 174.419 160.714 173.424 160.714 172.386V75.2773C160.714 74.2391 160.305 73.2437 159.577 72.5095C158.85 71.7754 157.864 71.3626 156.836 71.3616H153.733C153.116 71.3616 152.524 71.1141 152.088 70.6735C151.651 70.2329 151.406 69.6353 151.406 69.0122C151.406 68.3891 151.651 67.7915 152.088 67.3509C152.524 66.9103 153.116 66.6628 153.733 66.6628H156.836C159.098 66.6651 161.267 67.5735 162.867 69.1885C164.467 70.8035 165.366 72.9933 165.369 75.2773V172.386C165.366 174.67 164.467 176.859 162.867 178.474C161.267 180.089 159.098 180.998 156.836 181Z" fill="white"/>
<path d="M100.986 110.518C100.681 110.519 100.378 110.458 100.095 110.34C99.8131 110.222 99.5566 110.048 99.3408 109.83L93.1353 103.565C92.7016 103.124 92.4587 102.527 92.4598 101.906C92.4609 101.284 92.706 100.688 93.1413 100.249C93.5766 99.8092 94.1667 99.5618 94.7824 99.5606C95.398 99.5595 95.989 99.8047 96.4259 100.243L100.986 104.847L111.752 93.9776C112.189 93.5397 112.78 93.2945 113.395 93.2956C114.011 93.2967 114.601 93.5441 115.037 93.9836C115.472 94.4231 115.717 95.0189 115.718 95.6405C115.719 96.262 115.476 96.8587 115.043 97.2998L102.631 109.83C102.416 110.048 102.159 110.222 101.877 110.34C101.594 110.458 101.292 110.519 100.986 110.518Z" fill="white"/>
<path d="M85.4723 112.084C84.8552 112.084 84.2634 111.837 83.827 111.396C83.3906 110.956 83.1454 110.358 83.1452 109.735V94.0724C83.1454 93.4494 83.3906 92.8519 83.827 92.4113C84.2634 91.9708 84.8552 91.7232 85.4723 91.723H100.986C101.603 91.723 102.195 91.9705 102.632 92.4111C103.068 92.8517 103.313 93.4493 103.313 94.0724C103.313 94.6955 103.068 95.2931 102.632 95.7337C102.195 96.1743 101.603 96.4218 100.986 96.4218H87.7994V109.735C87.7992 110.358 87.554 110.956 87.1176 111.396C86.6812 111.837 86.0894 112.084 85.4723 112.084Z" fill="white"/>
<path d="M100.986 140.277H85.4723C84.8552 140.277 84.2634 140.029 83.827 139.589C83.3906 139.148 83.1454 138.551 83.1452 137.928V122.265C83.1454 121.642 83.3906 121.045 83.827 120.604C84.2634 120.163 84.8552 119.916 85.4723 119.916H100.986C101.603 119.916 102.195 120.163 102.631 120.604C103.068 121.045 103.313 121.642 103.313 122.265V137.928C103.313 138.551 103.068 139.148 102.631 139.589C102.195 140.029 101.603 140.277 100.986 140.277ZM87.7994 135.578H98.6591V124.615H87.7994V135.578Z" fill="white"/>
<path d="M100.986 168.47H85.4723C84.8552 168.47 84.2634 168.222 83.827 167.782C83.3906 167.341 83.1454 166.744 83.1452 166.12V150.458C83.1454 149.835 83.3906 149.237 83.827 148.797C84.2634 148.356 84.8552 148.109 85.4723 148.108H100.986C101.603 148.109 102.195 148.356 102.631 148.797C103.068 149.237 103.313 149.835 103.313 150.458V166.12C103.313 166.744 103.068 167.341 102.631 167.782C102.195 168.222 101.603 168.47 100.986 168.47ZM87.7994 163.771H98.6591V152.807H87.7994V163.771Z" fill="white"/>
<path d="M150.63 112.084H113.397C112.78 112.084 112.188 111.837 111.752 111.396C111.315 110.956 111.07 110.358 111.07 109.735C111.07 109.112 111.315 108.514 111.752 108.074C112.188 107.633 112.78 107.386 113.397 107.386H150.63C151.248 107.386 151.84 107.633 152.276 108.074C152.712 108.514 152.958 109.112 152.958 109.735C152.958 110.358 152.712 110.956 152.276 111.396C151.84 111.837 151.248 112.084 150.63 112.084Z" fill="white"/>
<path d="M150.63 137.145H113.397C112.78 137.145 112.188 136.897 111.752 136.457C111.315 136.016 111.07 135.418 111.07 134.795C111.07 134.172 111.315 133.575 111.752 133.134C112.188 132.693 112.78 132.446 113.397 132.446H150.63C151.248 132.446 151.84 132.693 152.276 133.134C152.712 133.575 152.958 134.172 152.958 134.795C152.958 135.418 152.712 136.016 152.276 136.457C151.84 136.897 151.248 137.145 150.63 137.145Z" fill="white"/>
<path d="M150.63 165.337H113.397C112.78 165.337 112.188 165.09 111.752 164.649C111.315 164.209 111.07 163.611 111.07 162.988C111.07 162.365 111.315 161.767 111.752 161.327C112.188 160.886 112.78 160.639 113.397 160.639H150.63C151.248 160.639 151.84 160.886 152.276 161.327C152.712 161.767 152.958 162.365 152.958 162.988C152.958 163.611 152.712 164.209 152.276 164.649C151.84 165.09 151.248 165.337 150.63 165.337Z" fill="white"/>
<path d="M141.322 83.8917H91.6778C90.1577 83.8023 88.7341 83.1101 87.7171 81.9659C86.7001 80.8217 86.172 79.3181 86.248 77.7827V66.5068C86.172 64.9714 86.7001 63.4678 87.7171 62.3236C88.7341 61.1794 90.1577 60.4872 91.6778 60.3978H102.842C103.92 57.6275 105.799 55.2492 108.235 53.5729C110.671 51.8966 113.551 51 116.499 51C119.447 51 122.327 51.8966 124.763 53.5729C127.199 55.2492 129.079 57.6275 130.156 60.3978H141.322C142.842 60.4872 144.266 61.1794 145.283 62.3236C146.3 63.4678 146.828 64.9714 146.752 66.5068V77.7827C146.828 79.3181 146.3 80.8217 145.283 81.9659C144.266 83.1101 142.842 83.8023 141.322 83.8917ZM91.6778 65.0966C91.3688 65.0966 90.9022 65.6594 90.9022 66.5068V77.7827C90.9022 78.63 91.3688 79.1929 91.6778 79.1929H141.322C141.631 79.1929 142.098 78.63 142.098 77.7827V66.5068C142.098 65.6594 141.631 65.0966 141.322 65.0966H128.472C127.956 65.0968 127.455 64.9239 127.047 64.6053C126.639 64.2866 126.348 63.8401 126.219 63.3361C125.671 61.1529 124.418 59.2165 122.657 57.8333C120.897 56.4501 118.73 55.6991 116.499 55.6991C114.269 55.6991 112.101 56.4501 110.341 57.8333C108.581 59.2165 107.327 61.1529 106.78 63.3361C106.65 63.84 106.359 64.2863 105.951 64.605C105.543 64.9236 105.042 65.0965 104.527 65.0966H91.6778Z" fill="white"/>
</svg>
