<svg width="121" height="121" viewBox="0 0 121 121" fill="none" xmlns="http://www.w3.org/2000/svg">
<circle cx="60.4" cy="60.2563" r="58.5" stroke="white" stroke-width="3"/>
<path d="M43.2079 71.6576H50.7709C51.9357 71.6576 52.8833 70.7105 52.8833 69.5464V62.161C52.8833 59.8851 51.0304 58.0332 48.7529 58.0332H45.2257C42.9484 58.0332 41.0955 59.8851 41.0955 62.161V69.5464C41.0955 70.7105 42.0431 71.6576 43.2079 71.6576ZM43.7181 62.1611C43.7181 61.3303 44.3944 60.6544 45.2257 60.6544H48.7529C49.5843 60.6544 50.2607 61.3303 50.2607 62.1611V69.0367H43.7181V62.1611Z" fill="white"/>
<path d="M99.8462 30.5657C99.2928 30.0985 98.4657 30.1686 97.9983 30.7212L90.4885 39.2634L88.538 37.6169C87.3963 36.653 85.6826 36.7974 84.7178 37.9382L82.0476 41.0977C81.2385 40.9445 80.4038 40.8643 79.5506 40.8643C78.3042 40.8643 77.0971 41.0355 75.9517 41.3556L68.3773 37.9997C67.715 37.7058 66.9403 38.005 66.6471 38.6665C66.3535 39.3282 66.6523 40.1024 67.3143 40.3957L72.6726 42.7696C71.3838 43.5447 70.2357 44.5305 69.2763 45.6791L59.2319 41.2288C58.8935 41.079 58.5072 41.079 58.1689 41.2288L30.735 53.3837L29.0985 49.6946L57.8822 36.9419C58.4023 36.7116 58.9991 36.7116 59.5187 36.9419L62.6527 38.3303C63.3145 38.6239 64.0895 38.3251 64.3829 37.6635C64.6765 37.0018 64.3777 36.2276 63.7155 35.9344L60.5815 34.5459C59.386 34.0163 58.0147 34.0163 56.8192 34.5459L46.9133 38.9347V35.9132C46.9133 34.9398 46.1209 34.1477 45.1467 34.1477H39.6669C38.6928 34.1477 37.9003 34.9398 37.9003 35.9132V42.9279L27.568 47.5057C27.0523 47.7343 26.6567 48.1496 26.4539 48.6754C26.2509 49.2011 26.265 49.7744 26.4937 50.2897L28.5446 54.9128C28.7731 55.4283 29.1889 55.8241 29.715 56.0268C29.9617 56.1218 30.2187 56.1692 30.4754 56.1692C30.7663 56.1692 31.0565 56.1082 31.3305 55.9869L33.2298 55.1454V62.3116C33.2298 63.0355 33.8167 63.6221 34.5411 63.6221C35.2654 63.6221 35.8524 63.0355 35.8524 62.3116V53.9834L58.7006 43.8603L67.7795 47.8828C67.6111 48.1931 67.4548 48.5108 67.3109 48.8353L64.1366 48.9626L62.2733 47.0416C61.7694 46.522 60.9391 46.509 60.4193 47.0126C59.8991 47.5165 59.8862 48.3462 60.3904 48.8657L62.6618 51.2074C62.9092 51.4627 63.2491 51.6058 63.6033 51.6058C63.6208 51.6058 63.6383 51.6055 63.6559 51.6048L66.4541 51.4926C66.2686 52.3781 66.171 53.2957 66.171 54.2356C66.171 54.2546 66.171 54.2737 66.1712 54.2927L60.7055 55.3168C60.0359 55.4423 59.5739 56.0591 59.6425 56.7365L59.9089 59.3745L57.5963 59.8625C56.8877 60.0119 56.4343 60.7072 56.5842 61.4154C56.7144 62.0324 57.2591 62.4556 57.8657 62.4556C57.9556 62.4556 58.0467 62.4461 58.138 62.4269L61.6026 61.6958C62.2581 61.5576 62.7037 60.948 62.6364 60.2819L62.3726 57.671L66.4394 56.9088C66.5462 57.433 66.6838 57.946 66.8502 58.4461C65.4674 59.1195 64.5181 60.5426 64.5181 62.1606V69.5461C64.5181 70.7102 65.4657 71.6572 66.6305 71.6572H74.1935C75.3583 71.6572 76.3059 70.7102 76.3059 69.5461V67.2099C76.8539 67.3467 77.4151 67.4498 77.9872 67.5167L77.7693 70.9887L74.5149 73.4503C73.9374 73.887 73.8234 74.7088 74.2603 75.2861L75.8386 77.3712C76.0965 77.7117 76.4886 77.891 76.8853 77.891C77.1609 77.891 77.4387 77.8047 77.6756 77.6256C78.2531 77.1889 78.3671 76.367 77.9302 75.7896L77.1429 74.7498L79.8316 72.7163C80.1361 72.486 80.3251 72.1342 80.3491 71.7531L80.6117 67.5663C80.9266 67.5417 81.2392 67.5061 81.5488 67.4598V87.6352H65.7487V78.2389C65.7487 76.6018 64.4161 75.27 62.7782 75.27H54.6233C52.9853 75.27 51.6526 76.6018 51.6526 78.2389V87.6352H41.2986C42.3771 86.3371 42.982 84.6864 42.982 82.9852C42.982 81.1921 42.3232 79.4695 41.1269 78.1351C41.0846 78.0877 41.0652 78.0245 41.079 77.978C41.2583 77.3733 41.3333 76.7444 41.302 76.1085C41.1633 73.3011 38.8568 70.9696 36.0512 70.8008C35.9849 70.797 35.9188 70.7942 35.8527 70.7926V67.3792C35.8527 66.6553 35.2658 66.0687 34.5414 66.0687C33.8171 66.0687 33.2301 66.6553 33.2301 67.3792V71.3635C32.7383 71.6064 32.2794 71.9242 31.8667 72.3126C30.7469 73.3665 30.1045 74.8524 30.1045 76.3892C30.1045 76.9095 30.1764 77.4255 30.3185 77.9238C30.3299 77.9639 30.3491 78.065 30.2816 78.1405C28.966 79.6109 28.3149 81.5094 28.4481 83.4863C28.5539 85.0559 29.1646 86.4931 30.1183 87.6353L21.3113 87.6353C20.5869 87.6353 20 88.2219 20 88.9458C20 89.6698 20.5869 90.2563 21.3113 90.2563L91.5363 90.2563C92.2607 90.2563 92.8476 89.6698 92.8476 88.9459C92.8476 88.2219 92.2607 87.6353 91.5363 87.6353H84.1712V66.7914C87.2621 65.6586 89.8726 63.4017 91.4431 60.3614C91.7753 59.7182 91.523 58.9279 90.8795 58.5959C90.236 58.2639 89.4451 58.5158 89.1129 59.1592C87.2557 62.754 83.5918 64.9873 79.5508 64.9873C73.619 64.9873 68.7934 60.1644 68.7934 54.2364C68.7934 48.3084 73.6192 43.4856 79.5508 43.4856C85.659 43.4856 90.6069 48.6023 90.2936 54.797C90.2567 55.5199 90.8132 56.1356 91.5363 56.1725C92.263 56.2101 92.8758 55.653 92.9127 54.9305C93.0066 53.0968 92.7291 51.2833 92.0937 49.5794L94.764 46.4197C95.7309 45.2763 95.5877 43.5683 94.4427 42.6017L92.492 40.955L100.002 32.413C100.469 31.8595 100.399 31.0328 99.8462 30.5657ZM40.5229 36.7685H44.2907V40.0965L40.5229 41.7659V36.7685ZM32.2362 79.8873C32.8864 79.1606 33.1121 78.1578 32.8401 77.2052C32.7649 76.9408 32.7268 76.6663 32.7268 76.3888C32.7268 75.5595 33.0597 74.7895 33.6643 74.2206C35.5207 72.473 38.5589 73.7426 38.682 76.2371C38.6988 76.5774 38.6589 76.9125 38.5638 77.2333C38.2933 78.1468 38.5267 79.1625 39.1731 79.8837C39.9377 80.7369 40.3589 81.8384 40.3589 82.985C40.3589 84.288 39.8337 85.4954 38.8801 86.3851C36.0208 89.0531 31.326 87.1948 31.0642 83.3098C30.9789 82.0428 31.3952 80.8274 32.2362 79.8873ZM54.2751 87.6352V78.2389C54.2751 78.047 54.4314 77.891 54.6232 77.891H62.778C62.97 77.891 63.126 78.0472 63.126 78.2389V87.6352H54.2751ZM73.6831 66.2522V69.0366H67.1405V62.161C67.1405 61.5982 67.4547 61.1002 67.9203 60.8417C69.251 63.1727 71.2628 65.0671 73.6831 66.2522ZM92.7607 44.7276L90.8163 47.0283C89.3695 44.7776 87.2664 42.9866 84.7793 41.9274L86.7214 39.6294C86.7527 39.5921 86.8085 39.5875 86.8458 39.619C88.8234 41.2882 90.5564 42.7512 92.7504 44.6032C92.7875 44.6341 92.7929 44.6901 92.7607 44.7276Z" fill="white"/>
</svg>
