<svg width="194" height="194" viewBox="0 0 194 194" fill="none" xmlns="http://www.w3.org/2000/svg">
<g clip-path="url(#clip0_1_333)">
<circle cx="97.1928" cy="96.814" r="94.314" stroke="#555555" stroke-width="5"/>
<path d="M156.425 120.607V124.545C156.425 124.969 156.06 125.318 155.618 125.318C155.176 125.318 154.811 124.969 154.811 124.545V120.607C154.811 120.175 155.176 119.834 155.618 119.834C156.06 119.834 156.425 120.184 156.425 120.607ZM152.034 119.834C151.592 119.834 151.227 120.184 151.227 120.607V124.545C151.227 124.969 151.592 125.318 152.034 125.318C152.476 125.318 152.841 124.969 152.841 124.545V120.607C152.841 120.184 152.476 119.834 152.034 119.834ZM148.45 119.834C148.008 119.834 147.643 120.184 147.643 120.607V124.545C147.643 124.969 148.008 125.318 148.45 125.318C148.892 125.318 149.257 124.969 149.257 124.545V120.607C149.257 120.184 148.892 119.834 148.45 119.834ZM135.352 116.312C135.794 116.312 136.159 115.963 136.159 115.539V109.324C136.159 108.901 135.794 108.552 135.352 108.552C134.91 108.552 134.545 108.901 134.545 109.324V115.539C134.545 115.963 134.91 116.312 135.352 116.312ZM153.045 134.252C154.444 134.252 155.575 135.336 155.575 136.675C155.575 138.014 154.412 139.098 153.045 139.098C151.678 139.098 150.515 138.014 150.515 136.675C150.515 135.336 151.635 134.252 153.045 134.252ZM153.045 135.798C152.528 135.798 152.129 136.18 152.129 136.675C152.129 137.17 152.537 137.552 153.045 137.552C153.553 137.552 153.961 137.14 153.961 136.675C153.961 136.21 153.553 135.798 153.045 135.798ZM147.192 136.675C147.192 137.984 146.029 139.098 144.662 139.098C143.295 139.098 142.132 138.014 142.132 136.675C142.132 135.336 143.241 134.252 144.662 134.252C146.084 134.252 147.192 135.336 147.192 136.675ZM145.578 136.675C145.578 136.191 145.171 135.798 144.662 135.798C144.154 135.798 143.746 136.18 143.746 136.675C143.746 137.17 144.154 137.552 144.662 137.552C145.171 137.552 145.578 137.14 145.578 136.675ZM138.807 136.675C138.807 137.984 137.644 139.098 136.277 139.098C134.91 139.098 133.747 138.014 133.747 136.675C133.747 135.336 134.855 134.252 136.277 134.252C137.698 134.252 138.807 135.336 138.807 136.675ZM137.193 136.675C137.193 136.191 136.785 135.798 136.277 135.798C135.768 135.798 135.361 136.18 135.361 136.675C135.361 137.17 135.768 137.552 136.277 137.552C136.785 137.552 137.193 137.14 137.193 136.675ZM130.401 136.664C130.401 137.973 129.249 139.076 127.882 139.076C126.515 139.076 125.364 137.992 125.364 136.664C125.364 135.336 126.472 134.252 127.882 134.252C129.292 134.252 130.401 135.336 130.401 136.664ZM128.787 136.675C128.787 136.191 128.379 135.809 127.882 135.809C127.386 135.809 126.978 136.18 126.978 136.675C126.978 137.17 127.386 137.541 127.882 137.541C128.379 137.541 128.787 137.14 128.787 136.675ZM122.03 136.675C122.03 137.984 120.867 139.098 119.5 139.098C118.133 139.098 116.97 138.006 116.97 136.675C116.97 135.344 118.078 134.252 119.5 134.252C120.921 134.252 122.03 135.336 122.03 136.675ZM120.413 136.675C120.413 136.191 120.005 135.798 119.497 135.798C118.988 135.798 118.581 136.18 118.581 136.675C118.581 137.17 118.988 137.552 119.497 137.552C120.005 137.552 120.413 137.14 120.413 136.675ZM131.288 97.7856C131.61 97.4858 131.601 96.9908 131.288 96.6938L90.4027 57.6146C90.0897 57.3149 89.5728 57.3149 89.2626 57.6146C88.941 57.9144 88.9496 58.4093 89.2626 58.7063L130.148 97.7856C130.309 97.9395 130.513 98.011 130.72 98.011C130.926 98.011 131.139 97.9395 131.291 97.7856H131.288ZM42.3491 73.2315H42.4037C44.1469 73.2315 45.8384 72.7062 47.4092 71.664C47.7739 71.4275 47.8716 70.9435 47.6131 70.5915C47.3661 70.2423 46.8607 70.1598 46.4931 70.3963C45.1922 71.2625 43.8137 71.6942 42.4037 71.6942C41.9528 71.6942 41.5738 72.0352 41.5738 72.456C41.5738 72.8767 41.9069 73.2287 42.3491 73.2287V73.2315ZM135.363 103.547C136.483 103.547 137.391 102.678 137.391 101.605C137.391 100.533 136.483 99.6637 135.363 99.6637C134.243 99.6637 133.336 100.533 133.336 101.605C133.336 102.678 134.243 103.547 135.363 103.547ZM64.1288 33.4345C64.1288 32.7058 63.5113 32.1173 62.7532 32.1173C61.995 32.1173 61.3776 32.7085 61.3776 33.4345C61.3776 34.1605 61.995 34.7517 62.7532 34.7517C63.5113 34.7517 64.1288 34.1605 64.1288 33.4345ZM38.8657 58.5468C38.455 58.5468 38.1247 58.8658 38.1247 59.2563C38.1247 59.6468 38.4579 59.9658 38.8657 59.9658C39.2735 59.9658 39.6066 59.6468 39.6066 59.2563C39.6066 58.8658 39.2735 58.5468 38.8657 58.5468ZM155.156 128.915V131.131C157.999 131.511 160.193 133.851 160.193 136.675C160.193 139.766 157.568 142.271 154.349 142.271H100.46V141.793C100.46 142.279 100.049 142.673 99.5407 142.673H44.727C44.2187 142.673 43.808 142.279 43.808 141.793V138.341C43.808 137.857 44.2215 137.461 44.727 137.461H45.7378V109.902H44.727C44.2187 109.902 43.808 109.506 43.808 109.022V105.606C43.808 105.122 44.2187 104.726 44.727 104.726H45.7378V84.3824C45.7378 84.1019 45.8757 83.8407 46.1083 83.6757C46.3438 83.5107 46.6453 83.4529 46.9239 83.5409L47.5758 83.7279L48.7331 84.0634L48.7618 83.6784L48.8336 82.7352C48.8365 82.6802 48.8623 82.6307 48.8767 82.5785C48.8911 82.5317 48.8968 82.4795 48.9169 82.4355C48.9456 82.375 48.9887 82.3282 49.0289 82.276C49.0576 82.2402 49.0806 82.199 49.1151 82.166C49.1668 82.1165 49.2299 82.0862 49.2931 82.0505C49.3304 82.0285 49.362 82.001 49.3994 81.9845C49.5085 81.9432 49.6262 81.9185 49.7497 81.9185H98.6189V80.263H52.6244C52.2482 80.263 51.9122 80.043 51.7715 79.7103C51.6307 79.3748 51.7198 78.9926 51.9897 78.7451L52.2568 78.5031L54.2958 76.6469L55.0252 74.4689C55.0769 74.3122 55.1745 74.1747 55.3038 74.0674L58.4943 71.4578L58.2588 66.0789C58.2473 65.8231 58.3536 65.5702 58.5518 65.3969L63.6865 60.8623L63.7382 57.4524L63.7526 56.5614V56.1874C63.7526 56.0087 63.8071 55.8354 63.9134 55.6924C63.9564 55.6264 64.011 55.5659 64.0771 55.5137L65.9437 54.004L67.8621 52.4503C68.0286 52.3183 68.2383 52.244 68.4565 52.244H72.7585C73.3587 52.8187 73.9704 53.4072 74.5935 54.004H68.7925L66.7047 55.6924H76.3539C76.957 56.2699 77.5687 56.8584 78.189 57.4524H65.5761L65.5187 61.2693C65.513 61.5085 65.4067 61.7395 65.2229 61.9018L60.1111 66.4144L60.3495 71.8125C60.361 72.0847 60.2404 72.3432 60.0278 72.5192L56.6966 75.2444L55.9758 77.4003C55.9269 77.5406 55.8437 77.6671 55.7317 77.7688L54.9247 78.5031H96.6919V75.1977C97.3065 75.7861 97.9182 76.3746 98.5299 76.9604V78.5031H99.5379C100.046 78.5031 100.457 78.8963 100.457 79.383V82.7985C100.457 83.2852 100.046 83.6784 99.5379 83.6784H98.5299V104.726H99.5379C100.046 104.726 100.457 105.122 100.457 105.606V109.022C100.457 109.508 100.046 109.902 99.5379 109.902H98.5299V121.913C98.9032 121.974 99.2622 122.067 99.6097 122.186H99.6183L99.6298 122.197C100.652 122.565 101.514 123.206 102.085 124.05C102.45 124.606 103.021 124.999 103.257 125.029C103.472 125.059 103.688 125.092 103.914 125.112C104.667 125.194 105.517 125.288 106.218 125.761C106.657 126.06 106.938 126.451 107.174 126.781C107.358 127.039 107.519 127.265 107.722 127.411C108.153 127.71 108.865 127.73 109.618 127.76C110.448 127.793 111.384 127.823 112.179 128.244C113.009 128.689 114.526 130.49 115.29 131.799C116.151 131.326 117.13 131.06 118.184 131.06H120.08V128.772C119.003 128.442 118.216 127.482 118.216 126.349V120.434C118.216 118.888 118.486 117.351 119.034 115.888L121.048 110.457C121.424 109.437 122.435 108.758 123.566 108.758H129.304C129.68 108.758 130.033 108.829 130.358 108.964V103.593C121.717 95.3079 74.7917 50.3053 62.8365 38.8354C56.4697 45.3279 40.9477 61.151 40.9333 61.1648C40.4107 61.6845 39.6784 62.009 38.8657 62.009C38.679 62.009 38.4952 61.9897 38.3172 61.9568C38.4177 62.9797 38.7824 63.8569 39.4228 64.6132C39.4458 64.6049 39.4572 64.5939 39.4659 64.5829C39.8966 64.3987 40.382 64.4069 40.8127 64.6049C41.1143 64.7369 41.3928 64.8524 41.6829 64.9734C44.3307 63.12 46.5276 62.3362 48.3684 62.6057C50.4016 62.8917 51.4986 64.3464 52.3056 65.4189C52.5325 65.7269 52.8541 66.1394 53.0609 66.3044C53.5434 66.1586 54.0057 65.9854 54.4595 65.7682C54.9218 65.5509 55.4703 65.6554 55.8149 66.0046C56.171 66.3649 56.2342 66.9011 55.9872 67.3356C52.3602 73.5917 47.6907 76.8476 42.3721 76.8476C41.769 76.8476 41.1459 76.8064 40.5313 76.7239C39.7588 76.6194 39.1011 76.1986 38.6388 75.5166C38.3574 75.1152 38.1764 74.6119 38.0242 74.0647C33.415 70.5833 33.0388 67.1101 33.2312 65.3392C33.4581 63.3427 34.6068 61.5608 36.2925 60.48C36.1001 60.1115 35.991 59.6991 35.991 59.2618C35.991 58.5853 36.2495 57.9639 36.6716 57.4854C36.686 57.4689 58.2703 32.703 59.6315 31.1438C59.6746 31.0943 59.6976 31.0668 59.6976 31.0668C59.7435 31.0118 59.7924 30.9596 59.8412 30.9073C59.8871 30.8578 59.9359 30.8111 59.9848 30.7643C60.0365 30.7148 60.0882 30.6681 60.1427 30.6241C60.1944 30.5773 60.249 30.5333 60.3064 30.4921C60.361 30.4481 60.4184 30.4068 60.4787 30.3683C60.5362 30.3271 60.5965 30.2886 60.6568 30.2528C60.7171 30.2171 60.7774 30.1813 60.8406 30.1483C60.9037 30.1153 60.9669 30.0823 61.033 30.0521C61.1622 29.9888 61.2972 29.9366 61.435 29.8899C61.4982 29.8679 61.5671 29.8459 61.6332 29.8266C61.6447 29.8239 61.6561 29.8211 61.6676 29.8184C61.7222 29.8019 61.7739 29.7881 61.8285 29.7771C61.8801 29.7661 61.929 29.7551 61.9807 29.7469C62.0381 29.7331 62.0955 29.7249 62.153 29.7166C62.2362 29.7029 62.3167 29.6946 62.3999 29.6891C62.4488 29.6836 62.4976 29.6809 62.5493 29.6781C62.6153 29.6754 62.6814 29.6726 62.7503 29.6726C63.0978 29.6726 63.4309 29.7166 63.7526 29.7964C63.8703 29.8266 63.988 29.8624 64.1 29.9009C64.1115 29.9036 64.1201 29.9064 64.1288 29.9119C64.3125 29.9778 64.4906 30.0548 64.66 30.1483C65.0248 30.3408 65.3521 30.5911 65.6307 30.8798C65.6422 30.8908 65.6508 30.8991 65.6594 30.9073C68.4163 33.4345 138.715 98.0385 138.772 98.0963C139.757 98.9735 140.378 100.219 140.378 101.608C140.378 101.682 140.369 101.754 140.366 101.825V116.221H145.199V115.212C145.199 113.798 146.394 112.654 147.867 112.654H150.495V109.069C150.495 107.903 150.969 106.822 151.819 105.997L154.036 103.874C154.346 103.574 154.863 103.574 155.176 103.874C155.489 104.174 155.489 104.669 155.176 104.966L152.959 107.089C152.41 107.617 152.109 108.315 152.109 109.069V112.654H154.734C156.21 112.654 157.404 113.798 157.404 115.212V116.221H157.522C158.995 116.232 160.19 117.376 160.19 118.787V126.363C160.19 127.773 158.995 128.917 157.522 128.917H155.153L155.156 128.915ZM43.4663 65.6774C46.3208 66.6674 48.9255 67.0194 51.2804 66.6784C51.1942 66.5656 51.0995 66.4419 51.0018 66.3181C50.3011 65.3804 49.4941 64.3272 48.1387 64.1319C46.9325 63.9559 45.3616 64.4839 43.4663 65.6774ZM39.9914 74.6642C40.27 75.0767 40.5715 75.1592 40.7668 75.1894C45.89 75.8906 50.3241 73.3552 53.9511 67.6464C53.7473 67.7178 53.1959 67.8636 53.1212 67.8746C49.7641 68.7711 45.9532 68.3778 41.7662 66.6371C41.5422 66.6371 40.5198 66.1009 40.1838 65.9359C39.1184 69.6868 39.0437 73.2837 39.9914 74.6642ZM146.816 116.229H155.782V115.217C155.782 114.662 155.308 114.208 154.728 114.208H147.87C147.29 114.208 146.816 114.662 146.816 115.217V116.229ZM121.708 128.926V131.079H153.542V128.926H121.708ZM131.975 121.66C132.296 121.526 132.652 121.454 133.029 121.454H134.384C135.085 121.454 135.699 121.053 135.946 120.434L136.839 118.237C137.184 117.382 137.882 116.744 138.743 116.436V105.161L138.755 105.133C137.862 105.92 136.673 106.407 135.363 106.407C134.054 106.407 132.868 105.917 131.975 105.128V121.66ZM38.5268 65.9579C37.4843 64.8854 36.8583 63.6177 36.709 62.1327C35.6866 62.9577 35.0089 64.1622 34.8566 65.5042C34.6212 67.6051 35.6435 69.7803 37.7428 71.7575C37.7083 69.8628 38.0529 67.7509 38.5268 65.9579ZM61.682 37.7271C62.1013 37.3037 62.4775 36.9214 62.8077 36.5832C63.7784 35.5932 64.3528 35.0075 64.3585 35.002C64.7835 34.6032 65.0477 34.0477 65.0477 33.4345C65.0477 32.8708 64.8266 32.3565 64.4648 31.9715C64.4619 31.9715 64.4619 31.966 64.4561 31.966C64.3528 31.856 64.235 31.7543 64.1087 31.6636C63.9823 31.5756 63.8473 31.4986 63.7009 31.4353C63.6291 31.4051 63.5544 31.3748 63.4797 31.3501C63.4395 31.3363 63.4022 31.3253 63.3649 31.3171C63.3247 31.3061 63.2873 31.2978 63.2471 31.2896C63.2069 31.2813 63.1667 31.2731 63.1265 31.2676C63.0863 31.2593 63.0461 31.2538 63.003 31.2511C62.9197 31.2428 62.8365 31.2373 62.7532 31.2373C62.6929 31.2373 62.6326 31.2401 62.5722 31.2456C62.5407 31.2456 62.5119 31.2456 62.4804 31.2538C62.3655 31.2648 62.2535 31.2868 62.1415 31.3171C62.1185 31.3226 62.0927 31.3281 62.0697 31.3363C62.0352 31.3473 62.0036 31.3583 61.9692 31.3693C61.9462 31.3748 61.9232 31.3831 61.9031 31.3941C61.8888 31.3968 61.8744 31.4023 61.86 31.4106C61.8313 31.4216 61.8026 31.4326 61.7768 31.4463C61.7624 31.4518 61.748 31.4601 61.7337 31.4656C61.6964 31.4821 61.659 31.5013 61.6217 31.5233C61.547 31.5618 61.4752 31.6058 61.4063 31.6581C61.3029 31.7296 61.2053 31.8093 61.1163 31.8973C61.0847 31.9248 61.0559 31.955 61.0301 31.9853C61.0014 32.0155 60.9727 32.0458 60.9468 32.0788C60.9411 32.0843 60.1829 32.9533 58.9481 34.3722C53.3624 40.7796 38.0156 58.3928 37.9955 58.4176C37.7715 58.6321 37.6308 58.9291 37.6308 59.2591C37.6308 59.9108 38.185 60.4415 38.8657 60.4415C39.239 60.4415 39.5692 60.282 39.7961 60.0318C39.822 60.0098 55.3239 44.2087 61.682 37.7271ZM130.295 101.308C130.375 101.396 130.461 101.479 130.55 101.556C130.631 101.641 130.717 101.723 130.806 101.8C130.886 101.886 130.972 101.968 131.061 102.045C131.142 102.13 131.228 102.213 131.317 102.29C131.397 102.375 131.484 102.458 131.573 102.535C131.653 102.623 131.739 102.702 131.828 102.779C131.909 102.867 131.995 102.95 132.084 103.027C132.164 103.112 132.25 103.195 132.339 103.272C132.42 103.357 132.506 103.439 132.595 103.516C132.675 103.602 132.762 103.684 132.851 103.761C133.471 104.421 134.367 104.839 135.363 104.839C137.23 104.839 138.743 103.39 138.743 101.605C138.743 100.621 138.284 99.7435 137.563 99.1495C137.48 99.0643 137.394 98.9845 137.302 98.9103C137.219 98.825 137.132 98.7453 137.041 98.6683C136.957 98.5858 136.871 98.506 136.779 98.429C136.696 98.3465 136.61 98.264 136.518 98.1898C136.435 98.1045 136.348 98.0248 136.257 97.9505C136.173 97.8653 136.087 97.7856 135.995 97.7086C135.912 97.6261 135.826 97.5463 135.734 97.4693C135.651 97.3868 135.564 97.3043 135.473 97.2301C135.389 97.1448 135.303 97.0651 135.211 96.9908C135.128 96.9056 135.042 96.8258 134.95 96.7488C134.867 96.6663 134.78 96.5838 134.689 96.5096C134.608 96.4243 134.519 96.3446 134.427 96.2703C134.347 96.1851 134.258 96.1053 134.169 96.0311C134.085 95.9459 133.999 95.8661 133.907 95.7891C133.824 95.7066 133.738 95.6241 133.646 95.5499C133.563 95.4646 133.477 95.3849 133.385 95.3106C133.301 95.2254 133.215 95.1456 133.123 95.0686C133.04 94.9861 132.954 94.9064 132.862 94.8294C132.779 94.7469 132.693 94.6644 132.601 94.5901C132.517 94.5049 132.431 94.4251 132.339 94.3509C132.256 94.2656 132.17 94.1859 132.078 94.1089C131.995 94.0264 131.909 93.9439 131.817 93.8697C131.733 93.7844 131.647 93.7047 131.555 93.6304C131.472 93.5452 131.386 93.4654 131.294 93.3912C131.211 93.3059 131.125 93.2262 131.033 93.1492C130.952 93.0667 130.863 92.9842 130.771 92.9099C130.691 92.8247 130.602 92.7449 130.513 92.6707C130.43 92.5854 130.344 92.5057 130.252 92.4287C130.168 92.3462 130.082 92.2664 129.99 92.1895C129.907 92.107 129.821 92.0245 129.729 91.9502C129.646 91.865 129.56 91.7852 129.468 91.711C129.384 91.6257 129.298 91.546 129.206 91.469C129.123 91.3865 129.037 91.304 128.945 91.2297C128.862 91.1445 128.776 91.0647 128.684 90.9905C128.6 90.9052 128.514 90.8255 128.422 90.7512C128.339 90.666 128.253 90.5862 128.161 90.5092C128.078 90.4268 127.992 90.3442 127.9 90.27C127.816 90.1848 127.73 90.105 127.638 90.0308C127.555 89.9455 127.469 89.8658 127.377 89.7915C127.297 89.7063 127.208 89.6238 127.116 89.5495C127.035 89.467 126.946 89.3845 126.854 89.3103C126.774 89.225 126.688 89.1453 126.596 89.071C126.513 88.9858 126.426 88.906 126.334 88.829C126.251 88.7465 126.165 88.664 126.073 88.5898C125.99 88.5045 125.904 88.4248 125.812 88.3506C125.729 88.2653 125.642 88.1856 125.55 88.1113C125.467 88.0261 125.381 87.9463 125.289 87.8693C125.206 87.7868 125.12 87.7043 125.028 87.6301C124.945 87.5448 124.858 87.4651 124.766 87.3908C124.683 87.3056 124.597 87.2258 124.505 87.1516C124.422 87.0663 124.336 86.9866 124.244 86.9096C124.161 86.8271 124.074 86.7446 123.983 86.6703C123.899 86.5851 123.813 86.5054 123.721 86.4311C123.638 86.3459 123.552 86.2661 123.46 86.1891C123.379 86.1066 123.29 86.0241 123.199 85.9499C123.118 85.8646 123.032 85.7849 122.937 85.7106C122.857 85.6254 122.771 85.5456 122.679 85.4714C122.595 85.3861 122.509 85.3064 122.417 85.2294C122.334 85.1469 122.248 85.0644 122.156 84.9901C122.073 84.9049 121.987 84.8251 121.895 84.7509C121.811 84.6656 121.725 84.5859 121.633 84.5117C121.55 84.4264 121.464 84.3439 121.372 84.2697C121.289 84.1872 121.203 84.1047 121.111 84.0304C121.027 83.9452 120.941 83.8654 120.849 83.7912C120.766 83.7059 120.68 83.6262 120.588 83.5492C120.505 83.4667 120.419 83.3842 120.327 83.3099C120.243 83.2247 120.157 83.1449 120.065 83.0707C119.982 82.9854 119.896 82.9057 119.804 82.8315C119.724 82.7462 119.635 82.6665 119.543 82.5895C119.462 82.507 119.376 82.4245 119.281 82.3502C119.201 82.265 119.115 82.1852 119.023 82.111C118.94 82.0257 118.853 81.946 118.762 81.8717C118.678 81.7865 118.592 81.704 118.5 81.6297C118.417 81.5472 118.331 81.4647 118.239 81.3905C118.156 81.3052 118.069 81.2255 117.978 81.1512C117.894 81.066 117.808 80.9862 117.716 80.9092C117.633 80.8268 117.547 80.7443 117.455 80.67C117.372 80.5875 117.285 80.505 117.194 80.4308C117.11 80.3455 117.024 80.2658 116.932 80.1915C116.849 80.1063 116.763 80.0265 116.671 79.9495C116.588 79.867 116.501 79.7845 116.41 79.7103C116.326 79.625 116.24 79.5453 116.148 79.471C116.068 79.3858 115.979 79.306 115.887 79.2318C115.807 79.1465 115.72 79.064 115.626 78.9898C115.545 78.9073 115.459 78.8248 115.364 78.7506C115.284 78.6653 115.198 78.5856 115.106 78.5113C115.023 78.4261 114.936 78.3463 114.844 78.2693C114.761 78.1868 114.675 78.1043 114.583 78.0301C114.5 77.9476 114.414 77.8651 114.322 77.7908C114.239 77.7056 114.152 77.6258 114.06 77.5516C113.977 77.4663 113.891 77.3866 113.799 77.3096C113.716 77.2271 113.63 77.1446 113.538 77.0704C113.455 76.9851 113.368 76.9054 113.276 76.8311C113.193 76.7459 113.107 76.6661 113.015 76.5919C112.932 76.5066 112.846 76.4241 112.754 76.3499C112.671 76.2674 112.584 76.1849 112.492 76.1106C112.412 76.0254 112.323 75.9456 112.231 75.8714C112.151 75.7861 112.065 75.7064 111.97 75.6321C111.889 75.5469 111.803 75.4644 111.708 75.3901C111.628 75.3076 111.542 75.2252 111.447 75.1509C111.367 75.0657 111.281 74.9859 111.189 74.9117C111.105 74.8264 111.019 74.7467 110.927 74.6697C110.844 74.5872 110.758 74.5047 110.666 74.4304C110.583 74.3452 110.497 74.2654 110.405 74.1912C110.321 74.1059 110.235 74.0262 110.143 73.9519C110.06 73.8667 109.974 73.7842 109.882 73.7099C109.799 73.6274 109.713 73.5449 109.621 73.4707C109.537 73.3854 109.451 73.3057 109.359 73.2315C109.276 73.1462 109.19 73.0665 109.098 72.9922C109.015 72.907 108.929 72.8245 108.837 72.7502C108.753 72.6677 108.667 72.5852 108.575 72.511C108.495 72.4257 108.409 72.346 108.314 72.2717C108.234 72.1865 108.147 72.104 108.053 72.0297C107.972 71.9472 107.886 71.8647 107.791 71.7905C107.711 71.7052 107.625 71.6255 107.533 71.5513C107.45 71.466 107.363 71.3862 107.272 71.312C107.188 71.2268 107.102 71.1443 107.01 71.07C106.927 70.9875 106.841 70.905 106.749 70.8308C106.666 70.7455 106.579 70.6658 106.488 70.5915C106.404 70.5063 106.318 70.4265 106.226 70.3523C106.143 70.267 106.057 70.1845 105.965 70.1103C105.882 70.0278 105.795 69.9453 105.704 69.871C105.62 69.7858 105.534 69.706 105.442 69.6318C105.359 69.5466 105.273 69.4641 105.181 69.3898C105.098 69.3073 105.011 69.2248 104.92 69.1506C104.839 69.0653 104.753 68.9856 104.658 68.9113C104.578 68.8261 104.492 68.7463 104.397 68.6721C104.317 68.5868 104.23 68.5043 104.136 68.4301C104.055 68.3476 103.969 68.2651 103.874 68.1908C103.794 68.1056 103.708 68.0258 103.616 67.9516C103.533 67.8663 103.446 67.7866 103.354 67.7123C103.271 67.6271 103.185 67.5446 103.093 67.4704C103.01 67.3879 102.924 67.3054 102.832 67.2311C102.749 67.1459 102.662 67.0661 102.57 66.9919C102.487 66.9066 102.401 66.8241 102.309 66.7526C102.226 66.6674 102.14 66.5849 102.048 66.5106C101.965 66.4254 101.878 66.3456 101.786 66.2714C101.703 66.1861 101.617 66.1064 101.525 66.0321C101.442 65.9469 101.356 65.8644 101.264 65.7902C101.181 65.7077 101.097 65.6252 101.002 65.5509C100.922 65.4657 100.836 65.3859 100.741 65.3117C100.661 65.2264 100.575 65.1467 100.48 65.0724C100.399 64.9872 100.313 64.9047 100.218 64.8304C100.138 64.7479 100.052 64.6654 99.9571 64.5912C99.8767 64.5059 99.7906 64.4262 99.6987 64.3519C99.6154 64.2667 99.5293 64.1842 99.4374 64.1127C99.3541 64.0274 99.2679 63.945 99.176 63.8707C99.0927 63.7855 99.0066 63.7057 98.9147 63.6315C98.8314 63.5462 98.7453 63.4665 98.6534 63.3922C98.5701 63.307 98.4839 63.2245 98.392 63.1502C98.3087 63.0677 98.2226 62.9852 98.1307 62.911C98.0474 62.8257 97.9613 62.746 97.8694 62.6717C97.7861 62.5865 97.6999 62.5067 97.608 62.4325C97.5247 62.3472 97.4415 62.2647 97.3467 62.1905C97.2663 62.108 97.1801 62.0255 97.0854 61.9513C97.005 61.866 96.9188 61.7863 96.824 61.712C96.7436 61.6268 96.6575 61.5443 96.5627 61.4728C96.4823 61.3875 96.3961 61.305 96.3014 61.2308C96.221 61.1455 96.1348 61.0658 96.0429 60.9915C95.9596 60.9063 95.8735 60.8265 95.7816 60.7523C95.6983 60.667 95.6121 60.5845 95.5202 60.5103C95.437 60.4278 95.3508 60.3453 95.2589 60.271C95.1756 60.1858 95.0895 60.1061 94.9976 60.0318C94.9143 59.9466 94.8281 59.8641 94.7362 59.7926C94.653 59.7073 94.5668 59.6248 94.4749 59.5506C94.3916 59.4681 94.3055 59.3856 94.2136 59.3113C94.1303 59.2261 94.047 59.1463 93.9522 59.0721C93.869 58.9868 93.7857 58.9043 93.6909 58.8328C93.6105 58.7476 93.5243 58.6651 93.4296 58.5908C93.3492 58.5056 93.263 58.4258 93.1682 58.3516C93.0878 58.2663 93.0017 58.1866 92.9069 58.1124C92.8265 58.0271 92.7404 57.9446 92.6456 57.8704C92.5652 57.7879 92.479 57.7054 92.3843 57.6311C92.3038 57.5459 92.2177 57.4661 92.1258 57.3919C92.0425 57.3066 91.9564 57.2241 91.8645 57.1526C91.7812 57.0674 91.695 56.9849 91.6031 56.9106C91.5198 56.8281 91.4337 56.7456 91.3418 56.6714C91.2585 56.5861 91.1724 56.5064 91.0805 56.4321C90.9972 56.3469 90.911 56.2672 90.8191 56.1929C90.7358 56.1077 90.6526 56.0252 90.5578 55.9509C90.4774 55.8684 90.3912 55.7859 90.2965 55.7117C90.2161 55.6264 90.1299 55.5467 90.0351 55.4724C89.9547 55.3872 89.8686 55.3074 89.7738 55.2332C89.6934 55.1479 89.6072 55.0654 89.5153 54.9939C89.4321 54.9087 89.3459 54.8262 89.254 54.7519C89.1707 54.6694 89.0846 54.5869 88.9927 54.5127C88.9094 54.4274 88.8232 54.3477 88.7313 54.2735C88.6481 54.1882 88.5648 54.1057 88.47 54.0342C88.3867 53.949 88.3034 53.8665 88.2087 53.795C88.1283 53.7097 88.0421 53.6272 87.9473 53.553C87.8669 53.4677 87.7808 53.388 87.686 53.3137C87.6056 53.2285 87.5194 53.1487 87.4247 53.0745C87.3443 52.9892 87.2581 52.9067 87.1662 52.8352C87.0829 52.75 86.9968 52.6675 86.9049 52.5932C86.8216 52.508 86.7355 52.4283 86.6436 52.354C86.5603 52.2688 86.4741 52.189 86.3822 52.1148C86.2989 52.0295 86.2157 51.947 86.1209 51.8755C86.0405 51.7903 85.9543 51.7078 85.8596 51.6363C85.7791 51.551 85.693 51.4685 85.5982 51.3943C85.5178 51.309 85.4317 51.2293 85.3369 51.155C85.2565 51.0698 85.1703 50.99 85.0756 50.9158C84.9952 50.8305 84.909 50.748 84.8171 50.6765C84.7338 50.5913 84.6477 50.5088 84.5558 50.4346C84.4725 50.3493 84.3863 50.2696 84.2944 50.1953C84.2112 50.1101 84.125 50.0303 84.0331 49.9561C83.9498 49.8708 83.8665 49.7883 83.7718 49.7168C83.6914 49.6316 83.6052 49.5491 83.5104 49.4776C83.43 49.3923 83.3439 49.3098 83.2491 49.2356C83.1687 49.1503 83.0825 49.0706 82.9878 48.9963C82.9074 48.9111 82.8212 48.8314 82.7264 48.7571C82.646 48.6719 82.5599 48.5894 82.468 48.5179C82.3847 48.4326 82.2985 48.3501 82.2066 48.2759C82.1234 48.1906 82.0372 48.1109 81.9453 48.0366C81.862 47.9514 81.7759 47.8716 81.684 47.7974C81.6036 47.7121 81.5174 47.6296 81.4226 47.5581C81.3422 47.4729 81.2561 47.3904 81.1613 47.3189C81.0809 47.2336 80.9948 47.1511 80.9 47.0769C80.8196 46.9916 80.7334 46.9119 80.6387 46.8377C80.5582 46.7524 80.4721 46.6727 80.3802 46.5984C80.2969 46.5132 80.2108 46.4307 80.1189 46.3592C80.0356 46.2739 79.9494 46.1914 79.8575 46.1172C79.7742 46.0319 79.6881 45.9522 79.5962 45.8779C79.5129 45.7927 79.4268 45.7129 79.3349 45.6387C79.2544 45.5534 79.1683 45.4709 79.0735 45.3994C78.9931 45.3142 78.907 45.2317 78.8122 45.1574C78.7318 45.0722 78.6456 44.9925 78.5509 44.9182C78.4705 44.833 78.3843 44.7532 78.2895 44.679C78.2091 44.5937 78.123 44.5112 78.0311 44.4397C77.9478 44.3545 77.8616 44.272 77.7697 44.2005C77.6865 44.1152 77.6003 44.0327 77.5084 43.9585C77.4251 43.8732 77.339 43.7935 77.2471 43.7192C77.1667 43.634 77.0805 43.5542 76.9857 43.48C76.9053 43.3947 76.8192 43.3122 76.7244 43.2407C76.644 43.1555 76.5578 43.073 76.4631 42.9988C76.3827 42.9135 76.2965 42.8338 76.2017 42.7595C76.1213 42.6743 76.0352 42.5945 75.9404 42.5203C75.86 42.435 75.7738 42.3525 75.6819 42.281C75.5987 42.1958 75.5125 42.1133 75.4206 42.0418C75.3373 41.9565 75.2512 41.874 75.1593 41.7998C75.076 41.7145 74.9898 41.6348 74.898 41.5605C74.8175 41.4753 74.7314 41.3955 74.6366 41.3213C74.5562 41.2361 74.4701 41.1536 74.3753 41.0821C74.2949 40.9968 74.2087 40.9143 74.114 40.8401C74.0335 40.7548 73.9474 40.6751 73.8526 40.6008C73.7722 40.5156 73.6861 40.4358 73.5913 40.3616C73.5109 40.2763 73.4247 40.1938 73.3328 40.1223C73.2495 40.0371 73.1634 39.9546 73.0715 39.8831C72.9882 39.7951 72.9021 39.7153 72.8102 39.6411C72.7269 39.5558 72.6407 39.4761 72.5488 39.4018C72.4684 39.3166 72.3823 39.2369 72.2875 39.1626C72.2071 39.0774 72.1209 38.9949 72.0262 38.9234C71.9458 38.8381 71.8596 38.7556 71.7648 38.6814C71.6844 38.5961 71.5983 38.5164 71.5035 38.4421C71.4231 38.3569 71.3369 38.2771 71.2422 38.2029C71.1618 38.1176 71.0756 38.0351 70.9837 37.9636C70.9004 37.8784 70.8143 37.7959 70.7224 37.7244C70.6391 37.6364 70.5529 37.5566 70.461 37.4824C70.3806 37.3972 70.2945 37.3174 70.1997 37.2432C70.1193 37.1579 70.0331 37.0754 69.9384 37.0039C69.858 36.9187 69.7718 36.8362 69.677 36.7647C69.5966 36.6794 69.5105 36.5969 69.4157 36.5227C69.3353 36.4374 69.2491 36.3577 69.1544 36.2834C69.074 36.1982 68.9878 36.1184 68.893 36.0442C68.8126 35.9589 68.7265 35.8764 68.6346 35.8049C68.5513 35.7197 68.4652 35.6372 68.3733 35.5657C68.29 35.4777 68.2038 35.398 68.1119 35.3237C68.0315 35.2385 67.9454 35.1587 67.8506 35.0845C67.7702 34.9992 67.684 34.9167 67.5893 34.8452C67.5088 34.76 67.4227 34.6775 67.3279 34.606C67.2475 34.518 67.1614 34.4382 67.0666 34.364C66.9862 34.2787 66.9 34.199 66.8053 34.1247C66.7536 34.0697 66.7019 34.0175 66.6444 33.9707C66.521 34.7985 66.1132 35.5382 65.5216 36.1019C65.5187 36.1047 64.9386 36.6932 63.9593 37.6941C63.9967 37.7326 64.034 37.7656 64.0742 37.7986C64.1517 37.8866 64.2379 37.9691 64.3298 38.0434C64.4073 38.1314 64.4935 38.2139 64.5854 38.2909C64.6629 38.3789 64.7491 38.4586 64.841 38.5356C64.9185 38.6236 65.0046 38.7034 65.0965 38.7804C65.1741 38.8684 65.2602 38.9509 65.3521 39.0251C65.4297 39.1131 65.5158 39.1956 65.6077 39.2699C65.6853 39.3579 65.7714 39.4403 65.8633 39.5146C65.9409 39.6026 66.027 39.6851 66.1189 39.7621C66.1993 39.8501 66.2826 39.9298 66.3745 40.0068C66.4549 40.0948 66.5382 40.1746 66.6301 40.2516C66.7105 40.3396 66.7938 40.4221 66.8857 40.4963C66.9661 40.5843 67.0494 40.6668 67.1413 40.7411C67.2217 40.8291 67.305 40.9116 67.3968 40.9858C67.4773 41.0738 67.5605 41.1563 67.6524 41.2333C67.7328 41.3213 67.819 41.401 67.908 41.478C67.9884 41.566 68.0746 41.6458 68.1636 41.7228C68.244 41.8108 68.3302 41.8933 68.4192 41.9675C68.4996 42.0555 68.5858 42.138 68.6748 42.2123C68.7552 42.3003 68.8414 42.3828 68.9333 42.457C69.0108 42.545 69.0969 42.6275 69.1888 42.7045C69.2664 42.7925 69.3525 42.8723 69.4444 42.9493C69.522 43.0373 69.6081 43.117 69.7 43.194C69.7776 43.282 69.8637 43.3645 69.9556 43.4387C70.0331 43.5267 70.1193 43.6092 70.2112 43.6835C70.2887 43.7715 70.3749 43.854 70.4668 43.9282C70.5443 44.0162 70.6305 44.0987 70.7224 44.1757C70.7999 44.2637 70.8861 44.3435 70.978 44.4205C71.0555 44.5085 71.1417 44.591 71.2336 44.6652C71.3111 44.7532 71.3972 44.8357 71.4891 44.91C71.5667 44.998 71.6528 45.0804 71.7447 45.1547C71.8223 45.2427 71.9084 45.3252 72.0003 45.4022C72.0779 45.4874 72.164 45.5699 72.2559 45.6469C72.3335 45.7349 72.4196 45.8147 72.5115 45.8917C72.589 45.9797 72.6752 46.0622 72.7671 46.1364C72.8446 46.2244 72.9308 46.3069 73.0227 46.3812C73.1031 46.4692 73.1864 46.5517 73.2783 46.6259C73.3587 46.7139 73.442 46.7964 73.5339 46.8734C73.6143 46.9587 73.6975 47.0411 73.7894 47.1181C73.8699 47.2061 73.9531 47.2859 74.045 47.3629C74.1254 47.4509 74.2087 47.5306 74.3006 47.6076C74.381 47.6956 74.4643 47.7781 74.5562 47.8524C74.6366 47.9404 74.7199 48.0229 74.8118 48.0971C74.8922 48.1851 74.9784 48.2676 75.0674 48.3446C75.1478 48.4299 75.234 48.5124 75.323 48.5894C75.4034 48.6774 75.4895 48.7571 75.5786 48.8341C75.659 48.9221 75.7451 49.0046 75.8342 49.0788C75.9146 49.1668 76.0007 49.2493 76.0897 49.3236C76.1702 49.4116 76.2563 49.4941 76.3453 49.5683C76.4257 49.6563 76.5119 49.7388 76.6009 49.8158C76.6813 49.9011 76.7675 49.9836 76.8565 50.0606C76.9369 50.1486 77.0231 50.2283 77.1121 50.3053C77.1925 50.3933 77.2787 50.4758 77.3706 50.5501C77.4481 50.6381 77.5343 50.7205 77.6261 50.7948C77.7037 50.8828 77.7898 50.9653 77.8817 51.0395C77.9593 51.1275 78.0454 51.21 78.1373 51.287C78.2149 51.3723 78.301 51.4548 78.3929 51.5318C78.4705 51.6198 78.5566 51.6995 78.6485 51.7765C78.726 51.8645 78.8122 51.947 78.9041 52.0213C78.9816 52.1093 79.0678 52.1918 79.1597 52.266C79.2372 52.354 79.3234 52.4365 79.4153 52.5107C79.4928 52.5987 79.579 52.6812 79.6709 52.7582C79.7484 52.8435 79.8345 52.926 79.9264 53.003C80.004 53.091 80.0901 53.1707 80.182 53.2477C80.2596 53.3357 80.3457 53.4182 80.4376 53.4925C80.518 53.5805 80.6013 53.663 80.6932 53.7372C80.7736 53.8252 80.8569 53.9077 80.9488 53.982C81.0292 54.07 81.1125 54.1525 81.2044 54.2295C81.2848 54.3147 81.3681 54.3972 81.46 54.4742C81.5404 54.5622 81.6237 54.6419 81.7156 54.7189C81.796 54.8069 81.8793 54.8894 81.9712 54.9637C82.0516 55.0517 82.1349 55.1342 82.2267 55.2084C82.3072 55.2964 82.3933 55.3789 82.4823 55.4559C82.5627 55.5412 82.6489 55.6237 82.7379 55.7007C82.8183 55.7859 82.9045 55.8684 82.9935 55.9454C83.0739 56.0334 83.1601 56.1132 83.2491 56.1902C83.3295 56.2782 83.4157 56.3606 83.5047 56.4349C83.5851 56.5229 83.6713 56.6054 83.7603 56.6796C83.8407 56.7676 83.9268 56.8501 84.0159 56.9271C84.0963 57.0124 84.1824 57.0949 84.2715 57.1719C84.3519 57.2571 84.438 57.3396 84.527 57.4166C84.6075 57.5046 84.6936 57.5844 84.7826 57.6614C84.863 57.7494 84.9492 57.8319 85.0411 57.9061C85.1186 57.9941 85.2048 58.0766 85.2967 58.1509C85.3742 58.2388 85.4604 58.3213 85.5523 58.3983C85.6298 58.4836 85.716 58.5661 85.8079 58.6431C85.8854 58.7283 85.9716 58.8108 86.0635 58.8878C86.141 58.9758 86.2271 59.0556 86.319 59.1326C86.3966 59.2206 86.4827 59.3031 86.5746 59.3773C86.6522 59.4653 86.7383 59.5478 86.8302 59.6221C86.9078 59.7101 86.9939 59.7926 87.0858 59.8696C87.1633 59.9548 87.2495 60.0373 87.3414 60.1143C87.4189 60.1995 87.5051 60.282 87.597 60.359C87.6745 60.447 87.7607 60.5268 87.8526 60.6038C87.933 60.6918 88.0163 60.7743 88.1082 60.8485C88.1886 60.9365 88.2719 61.019 88.3638 61.0933C88.4442 61.1813 88.5274 61.2638 88.6193 61.3408C88.6998 61.426 88.783 61.5085 88.8749 61.5855C88.9553 61.6735 89.0386 61.7533 89.1305 61.8303C89.2109 61.9183 89.2942 61.998 89.3861 62.075C89.4665 62.163 89.5498 62.2455 89.6417 62.3197C89.7221 62.4077 89.8054 62.4902 89.8973 62.5645C89.9777 62.6525 90.0638 62.735 90.1529 62.812C90.2333 62.8972 90.3194 62.9797 90.4085 63.0567C90.4889 63.142 90.575 63.2245 90.6641 63.3015C90.7445 63.3895 90.8306 63.4692 90.9196 63.5462C91 63.6342 91.0862 63.7167 91.1752 63.791C91.2556 63.8789 91.3418 63.9614 91.4308 64.0357C91.5112 64.1237 91.5974 64.2062 91.6864 64.2832C91.7668 64.3684 91.853 64.4509 91.942 64.5279C92.0224 64.6132 92.1086 64.6957 92.1976 64.7727C92.278 64.8607 92.3642 64.9404 92.4532 65.0174C92.5336 65.1054 92.6197 65.1879 92.7088 65.2622C92.7892 65.3502 92.8753 65.4327 92.9672 65.5097C93.0448 65.5949 93.1309 65.6774 93.2228 65.7544C93.3004 65.8396 93.3865 65.9221 93.4784 65.9991C93.5559 66.0871 93.6421 66.1669 93.734 66.2439C93.8115 66.3319 93.8977 66.4116 93.9896 66.4886C94.0671 66.5766 94.1533 66.6591 94.2452 66.7334C94.3227 66.8214 94.4089 66.9039 94.5008 66.9809C94.5783 67.0661 94.6644 67.1486 94.7563 67.2256C94.8339 67.3109 94.92 67.3934 95.0119 67.4704C95.0895 67.5584 95.1756 67.6381 95.2675 67.7151C95.3479 67.8031 95.4312 67.8828 95.5231 67.9598C95.6035 68.0478 95.6868 68.1303 95.7787 68.2046C95.8591 68.2926 95.9424 68.3751 96.0343 68.4521C96.1147 68.5373 96.198 68.6198 96.2899 68.6968C96.3703 68.7821 96.4536 68.8646 96.5455 68.9416C96.6259 69.0296 96.7092 69.1093 96.8011 69.1863C96.8815 69.2743 96.9648 69.3541 97.0566 69.4311C97.1371 69.5191 97.2203 69.6015 97.3122 69.6758C97.3926 69.7638 97.4759 69.8463 97.5678 69.9233C97.6482 70.0085 97.7344 70.091 97.8234 70.168C97.9038 70.2533 97.99 70.3358 98.079 70.4128C98.1594 70.5008 98.2456 70.5805 98.3346 70.6575C98.415 70.7455 98.5012 70.8253 98.5902 70.9023C98.6706 70.9903 98.7567 71.0728 98.8458 71.147C98.9262 71.235 99.0123 71.3175 99.1014 71.3945C99.1818 71.4797 99.2679 71.5622 99.3569 71.6392C99.4374 71.7245 99.5235 71.807 99.6125 71.884C99.6929 71.972 99.7791 72.0517 99.8681 72.1287C99.9485 72.2167 100.035 72.2965 100.124 72.3735C100.204 72.4615 100.29 72.544 100.379 72.6182C100.46 72.7062 100.546 72.7887 100.635 72.8657C100.715 72.951 100.801 73.0335 100.893 73.1105C100.971 73.1957 101.057 73.2782 101.146 73.3552C101.226 73.4432 101.313 73.5229 101.405 73.5999C101.482 73.6879 101.568 73.7677 101.66 73.8447C101.738 73.9327 101.824 74.0152 101.916 74.0922C101.993 74.1774 102.079 74.2599 102.171 74.3369C102.249 74.4222 102.335 74.5047 102.427 74.5817C102.504 74.6669 102.591 74.7494 102.682 74.8264C102.763 74.9144 102.846 74.9942 102.938 75.0712C103.018 75.1592 103.102 75.2389 103.194 75.3159C103.274 75.4039 103.357 75.4864 103.449 75.5634C103.53 75.6486 103.613 75.7311 103.705 75.8081C103.785 75.8934 103.869 75.9759 103.96 76.0529C104.041 76.1381 104.124 76.2206 104.216 76.2976C104.296 76.3856 104.38 76.4654 104.472 76.5424C104.552 76.6304 104.635 76.7101 104.727 76.7871C104.808 76.8751 104.891 76.9576 104.983 77.0346C105.063 77.1199 105.149 77.2024 105.238 77.2793C105.319 77.3646 105.405 77.4471 105.494 77.5241C105.574 77.6093 105.661 77.6918 105.75 77.7688C105.83 77.8568 105.916 77.9366 106.005 78.0136C106.086 78.1016 106.172 78.1813 106.261 78.2583C106.341 78.3463 106.427 78.4288 106.516 78.5058C106.597 78.5911 106.683 78.6736 106.772 78.7506C106.852 78.8358 106.938 78.9183 107.027 78.9953C107.108 79.0805 107.194 79.163 107.283 79.24C107.363 79.328 107.45 79.4078 107.539 79.4848C107.619 79.5728 107.705 79.6525 107.794 79.7295C107.875 79.8175 107.961 79.9 108.05 79.977C108.13 80.0623 108.216 80.1448 108.305 80.2218C108.386 80.307 108.472 80.3895 108.561 80.4665C108.641 80.5518 108.728 80.6343 108.817 80.7113C108.897 80.7993 108.983 80.879 109.072 80.956C109.153 81.044 109.239 81.1265 109.331 81.2007C109.408 81.2887 109.494 81.3712 109.586 81.4482C109.664 81.5335 109.75 81.616 109.842 81.693C109.919 81.7782 110.006 81.8607 110.097 81.9377C110.178 82.023 110.261 82.1055 110.353 82.1825C110.433 82.2705 110.517 82.3502 110.609 82.4272C110.689 82.5152 110.772 82.595 110.864 82.672C110.945 82.76 111.028 82.8424 111.12 82.9194C111.2 83.0047 111.283 83.0872 111.375 83.1642C111.456 83.2494 111.539 83.3319 111.631 83.4089C111.711 83.4942 111.795 83.5767 111.887 83.6537C111.967 83.7417 112.05 83.8214 112.142 83.8984C112.223 83.9864 112.306 84.0689 112.398 84.1432C112.478 84.2312 112.564 84.3137 112.653 84.3907C112.734 84.4759 112.82 84.5584 112.909 84.6354C112.989 84.7206 113.075 84.8031 113.164 84.8801C113.245 84.9654 113.331 85.0479 113.42 85.1249C113.5 85.2129 113.587 85.2926 113.676 85.3696C113.756 85.4576 113.842 85.5401 113.931 85.6171C114.012 85.7024 114.098 85.7849 114.187 85.8619C114.267 85.9471 114.353 86.0296 114.442 86.1066C114.523 86.1919 114.609 86.2744 114.698 86.3514C114.778 86.4366 114.865 86.5191 114.954 86.5961C115.034 86.6841 115.12 86.7638 115.209 86.8408C115.29 86.9288 115.376 87.0113 115.465 87.0883C115.545 87.1736 115.631 87.2561 115.72 87.3331C115.801 87.4183 115.887 87.5008 115.976 87.5778C116.056 87.6631 116.143 87.7456 116.232 87.8226C116.312 87.9106 116.398 87.9903 116.487 88.0673C116.568 88.1553 116.654 88.2351 116.743 88.3121C116.823 88.4001 116.909 88.4825 116.998 88.5595C117.079 88.6448 117.165 88.7273 117.254 88.8043C117.334 88.8895 117.42 88.972 117.512 89.049C117.59 89.1343 117.676 89.2168 117.768 89.2938C117.848 89.3818 117.932 89.4615 118.024 89.5385C118.104 89.6265 118.187 89.7063 118.279 89.7833C118.36 89.8713 118.443 89.9538 118.535 90.0308C118.615 90.116 118.698 90.1985 118.79 90.2755C118.871 90.3607 118.954 90.4432 119.046 90.5202C119.126 90.6055 119.21 90.688 119.301 90.765C119.382 90.853 119.465 90.9327 119.557 91.0097C119.637 91.0977 119.721 91.1775 119.813 91.2545C119.893 91.3425 119.976 91.425 120.068 91.502C120.149 91.5872 120.235 91.6697 120.324 91.7467C120.404 91.832 120.49 91.9145 120.579 91.9915C120.66 92.0767 120.746 92.1592 120.835 92.2362C120.915 92.3242 121.002 92.4039 121.091 92.4809C121.171 92.5689 121.257 92.6487 121.346 92.7257C121.427 92.8137 121.513 92.8962 121.602 92.9732C121.682 93.0584 121.768 93.1409 121.857 93.2179C121.938 93.3032 122.024 93.3857 122.113 93.4627C122.193 93.5479 122.28 93.6304 122.369 93.7074C122.449 93.7954 122.535 93.8752 122.624 93.9521C122.705 94.0402 122.791 94.1199 122.88 94.1996C122.96 94.2849 123.046 94.3674 123.135 94.4444C123.216 94.5296 123.302 94.6121 123.391 94.6891C123.471 94.7744 123.557 94.8569 123.646 94.9339C123.727 95.0191 123.813 95.1016 123.902 95.1786C123.982 95.2666 124.069 95.3464 124.158 95.4234C124.238 95.5114 124.324 95.5911 124.413 95.6709C124.494 95.7561 124.58 95.8386 124.669 95.9156C124.749 96.0008 124.835 96.0833 124.924 96.1603C125.005 96.2456 125.091 96.3281 125.18 96.4051C125.26 96.4903 125.347 96.5728 125.436 96.6498C125.519 96.7378 125.602 96.8176 125.694 96.8946C125.774 96.9826 125.858 97.0623 125.95 97.1421C126.03 97.2273 126.113 97.3098 126.205 97.3868C126.286 97.4721 126.369 97.5546 126.461 97.6316C126.541 97.7168 126.625 97.7993 126.716 97.8763C126.797 97.9615 126.88 98.044 126.972 98.121C127.052 98.209 127.136 98.2888 127.228 98.3658C127.308 98.4538 127.391 98.5335 127.483 98.6133C127.564 98.6985 127.647 98.781 127.739 98.858C127.819 98.9433 127.902 99.0258 127.994 99.1028C128.075 99.188 128.161 99.2705 128.25 99.3475C128.33 99.4328 128.417 99.5153 128.506 99.5923C128.586 99.6803 128.672 99.76 128.761 99.8397C128.842 99.925 128.928 100.005 129.017 100.084C129.097 100.17 129.183 100.252 129.272 100.329C129.353 100.414 129.439 100.497 129.528 100.574C129.608 100.659 129.694 100.742 129.784 100.819C129.864 100.904 129.95 100.986 130.039 101.063C130.12 101.151 130.206 101.231 130.295 101.308ZM119.844 120.764H126.056C126.291 120.764 126.487 120.577 126.487 120.351V110.311H123.569C123.127 110.311 122.73 110.581 122.578 110.982L120.565 116.414C120.083 117.712 119.844 119.062 119.844 120.442V120.764ZM120.91 127.369H130.372V111.323C130.361 110.765 129.887 110.311 129.307 110.311H128.112V120.351C128.112 121.432 127.196 122.309 126.065 122.309H119.856V126.36C119.856 126.916 120.33 127.369 120.91 127.369ZM103.713 130.677C103.412 131.956 102.786 133.13 101.904 134.087C104.615 135.077 109.084 134.984 113.185 133.821C113.42 133.438 113.699 133.089 114.023 132.77C113.538 131.863 112.033 129.946 111.407 129.616C110.945 129.368 110.278 129.346 109.566 129.327C108.954 129.305 108.277 129.264 107.651 129.08C107.587 129.181 107.51 129.275 107.404 129.346C106.123 130.152 104.885 130.554 103.713 130.677ZM102.054 130.655C100.707 130.512 99.5092 130.034 98.5327 129.432V134.544C98.9233 134.379 99.2909 134.184 99.6326 133.955C101.097 132.976 101.752 131.656 102.054 130.655ZM98.5299 126.168V127.548C100.012 128.835 102.846 130.193 106.249 128.216C106.1 128.021 105.971 127.845 105.85 127.68C105.669 127.413 105.505 127.185 105.29 127.053C104.937 126.806 104.354 126.742 103.742 126.682C103.495 126.652 103.245 126.63 103.01 126.588C102.128 126.445 101.235 125.651 100.738 124.919C100.503 124.567 100.17 124.281 99.782 124.034C99.4718 124.729 99.0726 125.466 98.5299 126.17V126.168ZM47.5758 104.726H96.6919V83.6784H50.6055L50.4849 85.2899C50.4648 85.5566 50.3183 85.8014 50.0886 85.9526C49.8589 86.1039 49.5688 86.1479 49.3017 86.0681L47.5758 85.5676V104.726ZM98.6189 108.142V106.486H45.6459V108.142H98.6189ZM77.9277 123.346V137.461H96.6919V109.902H47.5758V137.461H66.3372V123.346C66.3372 122.859 66.7507 122.466 67.2561 122.466H77.0087C77.517 122.466 77.9277 122.859 77.9277 123.346ZM68.9017 124.226V137.461H75.3632V124.226H68.9017ZM98.6189 139.224H45.6459V140.913H98.6189V139.224ZM106.671 138.044C106.694 137.222 106.146 136.582 105.853 136.293C103.8 136.221 101.959 135.861 100.592 135.212C100.58 135.223 100.569 135.231 100.557 135.231C99.9485 135.636 99.2679 135.952 98.5327 136.191V137.461H99.5407C100.049 137.461 100.46 137.857 100.46 138.341V140.726H104.724C105.974 139.829 106.651 138.902 106.671 138.044ZM114.172 140.737C113.064 139.705 112.355 138.262 112.355 136.675C112.355 136.304 112.398 135.944 112.461 135.603C110.902 135.974 109.331 136.191 107.811 136.274C108.081 136.758 108.297 137.376 108.277 138.077C108.254 138.993 107.855 139.881 107.091 140.737H114.172ZM154.349 132.624H118.21C115.873 132.624 113.98 134.439 113.98 136.675C113.98 138.911 115.873 140.726 118.21 140.726H154.349C156.686 140.726 158.579 138.911 158.579 136.675C158.579 134.439 156.686 132.624 154.349 132.624ZM157.525 127.38C158.105 127.38 158.579 126.927 158.579 126.36V118.784C158.579 118.229 158.105 117.775 157.525 117.775H139.918C139.229 117.775 138.606 118.187 138.356 118.795L137.463 120.989C136.969 122.205 135.763 123 134.396 123H133.04C132.46 123 131.986 123.453 131.986 124.009V127.38H157.525ZM74.0048 66.0651V64.3767H78.2177C78.726 64.3767 79.1367 63.9834 79.1367 63.4967C79.1367 63.01 78.726 62.6167 78.2177 62.6167H67.954C67.4457 62.6167 67.035 63.01 67.035 63.4967C67.035 63.9834 67.4457 64.3767 67.954 64.3767H72.1669V66.0651C72.1669 66.5519 72.5775 66.9451 73.0859 66.9451C73.5942 66.9451 74.0048 66.5519 74.0048 66.0651ZM69.9326 71.6035V71.147H71.5236C72.0319 71.147 72.4426 70.7538 72.4426 70.267C72.4426 69.7803 72.0319 69.3871 71.5236 69.3871H66.4664C65.9581 69.3871 65.5474 69.7803 65.5474 70.267C65.5474 70.7538 65.9581 71.147 66.4664 71.147H68.0947V71.6035C68.0947 72.0902 68.5054 72.4835 69.0137 72.4835C69.522 72.4835 69.9326 72.0902 69.9326 71.6035ZM83.9527 62.9797C83.4128 62.4627 82.8758 61.9485 82.3445 61.437C82.1492 61.5993 82.0257 61.833 82.0257 62.0997V75.6871C82.0257 76.1739 82.4364 76.5671 82.9447 76.5671H91.9707C92.479 76.5671 92.8897 76.1739 92.8897 75.6871V71.5485C92.2751 70.96 91.6634 70.3715 91.0517 69.7858V74.8072H83.8637V62.9797H83.9527ZM63.2184 70.9353C62.7101 70.9353 62.2994 71.3285 62.2994 71.8152V75.0877H60.6338C60.1255 75.0877 59.7148 75.4809 59.7148 75.9676C59.7148 76.4544 60.1255 76.8476 60.6338 76.8476H68.5685C69.0768 76.8476 69.4875 76.4544 69.4875 75.9676C69.4875 75.4809 69.0768 75.0877 68.5685 75.0877H64.1374V71.8152C64.1374 71.3285 63.7267 70.9353 63.2184 70.9353ZM92.8897 88.3588V101.946C92.8897 102.433 92.479 102.826 91.9707 102.826H82.9447C82.4364 102.826 82.0257 102.433 82.0257 101.946V88.3588C82.0257 87.8721 82.4364 87.4788 82.9447 87.4788H91.9707C92.479 87.4788 92.8897 87.8721 92.8897 88.3588ZM91.0517 89.2388H83.8637V101.066H91.0517V89.2388ZM61.5528 114.582V128.169C61.5528 128.656 61.1421 129.049 60.6338 129.049H51.6078C51.0995 129.049 50.6888 128.656 50.6888 128.169V114.582C50.6888 114.095 51.0995 113.702 51.6078 113.702H60.6338C61.1421 113.702 61.5528 114.095 61.5528 114.582ZM59.7148 115.462H52.5267V127.29H59.7148V115.462ZM61.5528 88.3588V101.946C61.5528 102.433 61.1421 102.826 60.6338 102.826H51.6078C51.0995 102.826 50.6888 102.433 50.6888 101.946V88.3588C50.6888 87.8721 51.0995 87.4788 51.6078 87.4788H60.6338C61.1421 87.4788 61.5528 87.8721 61.5528 88.3588ZM59.7148 101.066V89.2388H52.5267V101.066H59.7148ZM82.0229 128.169V114.582C82.0229 114.095 82.4335 113.702 82.9418 113.702H91.9678C92.4762 113.702 92.8868 114.095 92.8868 114.582V128.169C92.8868 128.656 92.4762 129.049 91.9678 129.049H82.9418C82.4335 129.049 82.0229 128.656 82.0229 128.169ZM83.8637 127.29H91.0517V115.462H83.8637V127.29ZM77.2011 88.3588V101.946C77.2011 102.433 76.7905 102.826 76.2822 102.826H67.2561C66.7478 102.826 66.3372 102.433 66.3372 101.946V88.3588C66.3372 87.8721 66.7478 87.4788 67.2561 87.4788H76.2822C76.7905 87.4788 77.2011 87.8721 77.2011 88.3588ZM75.3632 89.2388H68.1751V101.066H75.3632V89.2388Z" fill="#555555"/>
</g>
<defs>
<clipPath id="clip0_1_333">
<rect width="193.628" height="193.628" fill="white" transform="translate(0.378815)"/>
</clipPath>
</defs>
</svg>
