<svg width="121" height="121" viewBox="0 0 121 121" fill="none" xmlns="http://www.w3.org/2000/svg">
<circle cx="60.2" cy="60.2563" r="58.5" stroke="white" stroke-width="3"/>
<path d="M94 60.7569C94 60.373 93.7738 60.0249 93.4199 59.8649L75.989 51.9714L93.4199 44.0779C94.1749 43.7359 94.1754 42.6364 93.4199 42.2944L60.4095 27.3458C60.1376 27.2231 59.8242 27.2267 59.5559 27.356L56.5665 28.7955C55.4145 29.3501 56.2816 31.1167 57.4419 30.559L60.0063 29.324L65.6348 31.8727L59.9554 34.4449L52.6374 31.1407C52.2716 30.9756 51.9405 30.8299 51.5409 31.0099L26.5673 42.2944C25.8118 42.6359 25.8107 43.7359 26.5668 44.0779L43.9977 51.9719L40.5812 53.5187C39.4158 54.0462 40.2414 55.8333 41.4136 55.3022L46.3286 53.0765C46.3462 53.0689 46.3628 53.0592 46.3794 53.0505L59.5772 59.0266C59.8397 59.1457 60.1474 59.1457 60.4095 59.0266L73.6036 53.052L90.6183 60.7569L59.9933 74.6249L29.3678 60.7569L36.0678 57.7226C37.2333 57.195 36.4088 55.4075 35.236 55.9391L26.5663 59.8649C25.8118 60.2068 25.8107 61.3064 26.5663 61.6483L43.9977 69.5418L26.5663 77.4353C25.8118 77.7773 25.8107 78.8768 26.5663 79.2188L59.5772 94.1674C59.8392 94.286 60.1474 94.286 60.4095 94.1674L66.1215 91.5804C67.2865 91.0529 66.4625 89.2653 65.2892 89.7969L59.9933 92.1953L29.3678 78.3273L46.3831 70.6219L59.5772 76.597C59.8392 76.7156 60.1474 76.7156 60.4095 76.597L73.6632 70.5948C73.7385 70.6638 73.8257 70.7226 73.9237 70.7671L90.6183 78.3268L71.7983 86.8495C70.6329 87.3775 71.4584 89.1641 72.6306 88.633L93.4199 79.2188C94.1749 78.8768 94.1754 77.7773 93.4199 77.4353L75.989 69.5418L93.4199 61.6483C93.7738 61.4883 94 61.1402 94 60.7569ZM68.0202 53.4195L62.3787 50.8647L68.5791 48.0569L74.2003 50.6209L68.0202 53.4195ZM45.7926 50.624L51.4346 48.0691L57.6079 50.8647L51.9659 53.4195L45.7926 50.624ZM37.3947 46.8214L43.0367 44.2665L49.0492 46.989L43.4072 49.5439L37.3947 46.8214ZM43.704 36.7104L49.3076 39.2663L43.0367 42.1063L37.4056 39.5561L43.704 36.7104ZM51.6842 40.3505L57.6749 43.0832L51.4346 45.9089L45.4221 43.1864L51.6842 40.3505ZM82.5914 39.5515L76.9375 42.112L70.7548 39.3205L76.4181 36.7559L82.5914 39.5515ZM74.5495 43.1931L68.5822 45.8951L62.4311 43.0893L68.3668 40.4016L74.5495 43.1931ZM76.58 49.5433L70.9592 46.9793L76.9385 44.2716L82.5883 46.8224L76.58 49.5433ZM60.0545 42.0051L54.0638 39.2729L59.9565 36.6041L65.9778 39.323L60.0545 42.0051ZM53.82 46.989L60.0514 44.1669L66.2025 46.9727L59.9933 49.7846L53.82 46.989ZM84.9763 45.7413L79.326 43.1905L84.9768 40.6316L90.6183 43.1864L84.9763 45.7413ZM68.0202 32.9528L74.0327 35.6758L68.3658 38.2419L62.3445 35.523L68.0202 32.9528ZM51.6873 38.1887L46.0863 35.6339L51.9446 32.9871L57.5675 35.5261L51.6873 38.1887ZM35.0181 40.6352L40.6513 43.1864L35.0093 45.7413L29.3699 43.1875L35.0181 40.6352ZM59.9933 57.0545L54.3513 54.4996L59.9933 51.9448L65.6348 54.4996L59.9933 57.0545Z" fill="white"/>
</svg>
