<svg width="195" height="194" viewBox="0 0 195 194" fill="none" xmlns="http://www.w3.org/2000/svg">
<g clip-path="url(#clip0_1_342)">
<circle cx="97.5785" cy="96.814" r="94.314" stroke="white" stroke-width="5"/>
<path d="M61.9624 120.174C61.9624 121.096 62.7076 121.844 63.6259 121.844C64.5442 121.844 65.2894 121.096 65.2894 120.174V114.147C65.2894 113.225 64.5442 112.477 63.6259 112.477C62.7076 112.477 61.9624 113.225 61.9624 114.147V120.174Z" fill="white"/>
<path d="M73.8554 120.174C73.8554 121.096 74.6006 121.844 75.5189 121.844C76.4371 121.844 77.1824 121.096 77.1824 120.174V114.147C77.1824 113.225 76.4371 112.477 75.5189 112.477C74.6006 112.477 73.8554 113.225 73.8554 114.147V120.174Z" fill="white"/>
<path d="M61.9624 101.315C61.9624 102.237 62.7076 102.985 63.6259 102.985C64.5442 102.985 65.2894 102.237 65.2894 101.315V95.2877C65.2894 94.3659 64.5442 93.6178 63.6259 93.6178C62.7076 93.6178 61.9624 94.3659 61.9624 95.2877V101.315Z" fill="white"/>
<path d="M73.8554 101.315C73.8554 102.237 74.6006 102.985 75.5189 102.985C76.4371 102.985 77.1824 102.237 77.1824 101.315V95.2877C77.1824 94.3659 76.4371 93.6178 75.5189 93.6178C74.6006 93.6178 73.8554 94.3659 73.8554 95.2877V101.315Z" fill="white"/>
<path d="M143.111 150.333H122.024V146.675C120.915 146.666 119.806 146.639 118.697 146.626V150.333H100.283V134.889C100.283 132.445 98.3001 130.454 95.8647 130.454H78.959C76.5236 130.454 74.5407 132.445 74.5407 134.889V139.623C74.5407 140.545 75.286 141.293 76.2043 141.293C77.1225 141.293 77.8678 140.545 77.8678 139.623V134.889C77.8678 134.286 78.3579 133.794 78.959 133.794H85.7484V150.333H77.8678V146.08C77.8678 145.158 77.1225 144.41 76.2043 144.41C75.286 144.41 74.5407 145.158 74.5407 146.08V150.333H56.1246V85.3461C56.1246 84.4243 55.3793 83.6762 54.4611 83.6762C53.5428 83.6762 52.7976 84.4243 52.7976 85.3461V150.333H49.6635C48.7453 150.333 48 151.081 48 152.003C48 152.924 48.7453 153.673 49.6635 153.673H143.111C144.029 153.673 144.774 152.924 144.774 152.003C144.774 151.081 144.029 150.333 143.111 150.333ZM96.956 150.333H89.0754V133.794H95.8647C96.4658 133.794 96.956 134.286 96.956 134.889V150.333Z" fill="white"/>
<path d="M108.687 108.77C108.729 108.77 108.774 108.77 108.816 108.767L110.488 108.698C110.444 108.741 110.402 108.785 110.357 108.827C111.633 108.692 112.85 108.249 114.123 108.086C115.268 107.939 116.508 107.761 117.433 107.24C117.967 106.937 118.362 106.135 118.502 105.532C118.653 104.882 118.792 104.259 119.021 103.684C119.003 103.689 118.985 103.693 118.968 103.7V95.851H121.94C122.858 95.851 123.603 95.1029 123.603 94.1811C123.603 93.2593 122.858 92.5112 121.94 92.5112H118.968V88.0068H121.94C122.858 88.0068 123.603 87.2587 123.603 86.3369C123.603 85.4151 122.858 84.667 121.94 84.667H118.968V80.1626H121.94C122.858 80.1626 123.603 79.4145 123.603 78.4927C123.603 77.5709 122.858 76.8228 121.94 76.8228H118.968V72.3185H121.94C122.858 72.3185 123.603 71.5703 123.603 70.6485C123.603 69.7267 122.858 68.9786 121.94 68.9786H118.968V64.4743H121.94C122.858 64.4743 123.603 63.7262 123.603 62.8044C123.603 61.8826 122.858 61.1344 121.94 61.1344H118.968V56.6301H121.94C122.858 56.6301 123.603 55.882 123.603 54.9602C123.603 54.0384 122.858 53.2903 121.94 53.2903H118.968V51.3086C118.968 50.3868 118.222 49.6387 117.304 49.6387C116.386 49.6387 115.641 50.3868 115.641 51.3086V53.2903H110.009V48.7859H112.595C113.513 48.7859 114.259 48.0378 114.259 47.116C114.259 46.1942 113.513 45.4461 112.595 45.4461H110.009V41.3425C110.009 40.4207 109.264 39.6726 108.345 39.6726C107.427 39.6726 106.682 40.4207 106.682 41.3425V45.4439H101.05V41.3425C101.05 40.4207 100.305 39.6726 99.3869 39.6726C98.4687 39.6726 97.7234 40.4207 97.7234 41.3425V45.4439H92.0919V41.3425C92.0919 40.4207 91.3466 39.6726 90.4284 39.6726C89.5101 39.6726 88.7649 40.4207 88.7649 41.3425V45.4439H83.1333V41.3425C83.1333 40.4207 82.3881 39.6726 81.4698 39.6726C80.5516 39.6726 79.8063 40.4207 79.8063 41.3425V45.4439H74.1748V41.3425C74.1748 40.4207 73.4295 39.6726 72.5113 39.6726C71.593 39.6726 70.8477 40.4207 70.8477 41.3425V45.4439H67.8756C66.9574 45.4439 66.2121 46.192 66.2121 47.1138C66.2121 48.0356 66.9574 48.7837 67.8756 48.7837H70.8477V53.288H67.8756C66.9574 53.288 66.2121 54.0362 66.2121 54.958C66.2121 55.8798 66.9574 56.6279 67.8756 56.6279H70.8477V61.1322H67.8756C66.9574 61.1322 66.2121 61.8803 66.2121 62.8021C66.2121 63.7239 66.9574 64.4721 67.8756 64.4721H70.8477V67.4067C70.3199 67.0014 69.6655 66.7699 68.9669 66.7699H56.2266C54.3346 66.7699 52.7953 68.3151 52.7953 70.2144V78.8913C52.7953 79.8131 53.5406 80.5612 54.4589 80.5612C55.3771 80.5612 56.1224 79.8131 56.1224 78.8913V70.2144C56.1224 70.1565 56.1689 70.1097 56.2266 70.1097H68.8094L73.3319 81.5186C73.7533 82.5807 74.7182 83.3221 75.8494 83.4557L86.3361 84.6714L91.0294 94.7088C91.5374 95.7931 92.6353 96.4945 93.8286 96.4945H101.884L105.797 106.775C106.256 107.981 107.407 108.772 108.685 108.772L108.687 108.77ZM110.009 56.6279H115.641V61.1322H110.009V56.6279ZM110.009 64.4721H115.641V68.9764H110.009V64.4721ZM110.009 72.3162H115.641V76.8206H110.009V72.3162ZM110.009 80.1604H115.641V84.6648H110.009V80.1604ZM110.009 88.0046H115.641V92.5089H110.009V88.0046ZM110.009 95.8488H115.641V105.027C115.547 105.073 115.456 105.12 115.365 105.169C115.168 105.151 115.416 105.158 110.011 105.376V95.8488H110.009ZM79.8085 80.5523L76.3728 80.1537L74.1792 74.6185V72.3185H79.8107V80.5545L79.8085 80.5523ZM79.8085 68.9764H74.177V64.4721H79.8085V68.9764ZM79.8085 61.1322H74.177V56.6279H79.8085V61.1322ZM79.8085 53.288H74.177V48.7837H79.8085V53.288ZM88.7671 82.3447C88.2725 81.8058 87.6004 81.4563 86.8485 81.3694L83.1355 80.9397V72.3185H88.7671V82.3469V82.3447ZM88.7671 68.9764H83.1355V64.4721H88.7671V68.9764ZM88.7671 61.1322H83.1355V56.6279H88.7671V61.1322ZM88.7671 53.288H83.1355V48.7837H88.7671V53.288ZM97.7234 93.1546H93.9772L92.0919 89.1223C92.0919 89.1223 92.0919 89.1112 92.0919 89.1045V88.0046H97.7234V93.1546ZM97.7234 84.6648H92.0919V80.1604H97.7234V84.6648ZM97.7234 76.8206H92.0919V72.3162H97.7234V76.8206ZM97.7234 68.9764H92.0919V64.4721H97.7234V68.9764ZM97.7234 61.1322H92.0919V56.6279H97.7234V61.1322ZM97.7234 53.288H92.0919V48.7837H97.7234V53.288ZM106.682 84.6648H101.05V80.1604H106.682V84.6648ZM106.682 68.9764H101.05V64.4721H106.682V68.9764ZM106.682 61.1322H101.05V56.6279H106.682V61.1322ZM101.05 48.7837H106.682V53.288H101.05V48.7837ZM101.05 72.3162H106.682V76.8206H101.05V72.3162ZM102.046 93.1546H101.05V88.0046H106.682V99.7386L104.936 95.1519C104.482 93.9584 103.322 93.1546 102.046 93.1546Z" fill="white"/>
<path d="M107.645 119.818C109.097 119.818 110.275 118.635 110.275 117.177C110.275 115.719 109.097 114.536 107.645 114.536C106.192 114.536 105.014 115.719 105.014 117.177C105.014 118.635 106.192 119.818 107.645 119.818Z" fill="white"/>
<path d="M95.6451 109.97C97.0979 109.97 98.2757 108.787 98.2757 107.329C98.2757 105.871 97.0979 104.688 95.6451 104.688C94.1923 104.688 93.0146 105.871 93.0146 107.329C93.0146 108.787 94.1923 109.97 95.6451 109.97Z" fill="white"/>
<path d="M96.5723 122.004C98.0251 122.004 99.2028 120.822 99.2028 119.364C99.2028 117.905 98.0251 116.723 96.5723 116.723C95.1195 116.723 93.9417 117.905 93.9417 119.364C93.9417 120.822 95.1195 122.004 96.5723 122.004Z" fill="white"/>
<path fill-rule="evenodd" clip-rule="evenodd" d="M144.716 93.8382C141.738 92.2885 138.074 93.4575 136.53 96.4477L129.791 109.507C129.756 109.576 129.725 109.647 129.698 109.72C126.398 109.607 123.129 111.07 120.924 113.661C118.327 116.714 115.13 120.045 112.398 121.746C108.503 124.171 105.285 125.046 103.284 125.355C102.115 125.536 101.166 126.293 100.704 127.272C100.221 128.296 100.259 129.637 101.197 130.674C103.237 132.932 107.214 136.628 114.509 141.286C119.562 144.513 124.093 146.296 126.531 147.122C128.399 147.757 130.397 147.031 131.468 145.419C132.823 143.381 135.203 139.538 137.248 134.86C138.761 131.4 140.063 127.836 141.31 124.275C142.361 121.272 141.888 118.105 140.289 115.601L147.312 102.065C148.864 99.0751 147.702 95.3857 144.719 93.8337L144.716 93.8382ZM137.641 112.813L144.089 100.384C144.712 99.1819 144.246 97.6991 143.046 97.0778C141.849 96.4544 140.376 96.9242 139.757 98.1266L133.356 110.533C133.571 110.624 133.784 110.724 133.995 110.831L136.335 112.023C136.796 112.256 137.231 112.524 137.643 112.817L137.641 112.813ZM137.881 123.069C137.621 123.808 137.348 124.576 137.067 125.36L122.323 117.593C122.798 117.061 123.253 116.538 123.683 116.033C125.877 113.454 129.479 112.624 132.349 114.084L134.689 115.276C137.57 116.743 138.934 120.067 137.881 123.071V123.069ZM114.312 124.845C116.104 123.73 117.976 122.098 119.731 120.345L119.755 120.359L135.787 128.804C135.17 130.414 134.536 131.988 133.919 133.4C131.989 137.815 129.729 141.464 128.445 143.397C128.261 143.673 127.964 143.762 127.691 143.671C126.62 143.308 125.087 142.736 123.262 141.905C124.109 141.008 125.338 139.541 126.518 137.526C127.028 136.655 126.733 135.551 125.861 135.056C124.989 134.562 123.869 134.869 123.361 135.74C122.414 137.359 121.259 138.955 119.839 140.2C118.757 139.614 117.623 138.953 116.461 138.209C115.514 137.606 114.629 137.02 113.8 136.452C114.232 136.161 114.705 135.804 115.212 135.366C115.975 134.709 116.053 133.571 115.381 132.825C114.709 132.079 113.549 132.01 112.784 132.667C111.659 133.636 110.874 134.003 110.557 134.128C107.665 131.946 105.726 130.156 104.473 128.849C106.904 128.394 110.335 127.321 114.314 124.843L114.312 124.845Z" fill="white"/>
</g>
<defs>
<clipPath id="clip0_1_342">
<rect width="193.628" height="193.628" fill="white" transform="translate(0.764465)"/>
</clipPath>
</defs>
</svg>
