<svg width="195" height="194" viewBox="0 0 195 194" fill="none" xmlns="http://www.w3.org/2000/svg">
<circle cx="97.3857" cy="96.814" r="94.314" stroke="white" stroke-width="5"/>
<path d="M147.714 49.8889H135.543V46.4114C135.543 45.4511 134.765 44.6726 133.805 44.6726H116.417C115.457 44.6726 114.678 45.4511 114.678 46.4114V49.8889H46.8673C45.9071 49.8889 45.1286 50.6674 45.1286 51.6276V58.5827C45.1286 59.5437 45.9071 60.3214 46.8673 60.3214H52.0836V93.3578C52.0836 94.3189 52.8621 95.0966 53.8223 95.0966C54.7825 95.0966 55.5611 95.8751 55.5611 96.8353C55.5611 97.7964 54.7825 98.5741 53.8223 98.5741C52.8621 98.5741 52.0836 97.7964 52.0836 96.8353H48.6061C48.6112 98.108 49.0841 99.3348 49.9365 100.281L45.4767 106.225L45.4988 106.242C45.2661 106.534 45.1362 106.895 45.1286 107.268V114.223C45.1286 114.685 45.312 115.126 45.638 115.452L49.1155 118.93C49.4415 119.256 49.8838 119.439 50.3448 119.439H57.2998C57.7608 119.439 58.2031 119.256 58.5292 118.93L62.0066 115.452C62.3327 115.126 62.516 114.685 62.516 114.223V107.268C62.5084 106.895 62.3785 106.534 62.1459 106.242L62.1679 106.225L57.7082 100.281C58.8696 98.9901 59.3077 97.2038 58.8755 95.5228C58.4443 93.8418 57.1996 92.4884 55.5611 91.9171V60.3214H114.678V62.0602C114.678 63.0213 115.457 63.7989 116.417 63.7989H119.895V145.521H112.94V75.9702H109.462V82.9253H99.0296V79.4478H95.5522V82.9253H85.1197V81.1865H81.6422V82.9253H71.2098V77.709H93.8134V74.2315H71.2098V67.2765H67.7323V145.521H64.9747L56.7904 137.337C56.1112 136.658 55.0109 136.658 54.3317 137.337L46.1474 145.521H45.1286V148.998H149.453V145.521H148.097C149.321 144.185 149.755 142.305 149.243 140.567C148.731 138.83 147.346 137.487 145.593 137.029C146.477 134.849 145.794 132.349 143.925 130.922C142.056 129.495 139.463 129.495 137.594 130.922C135.725 132.349 135.042 134.849 135.926 137.029C134.173 137.487 132.788 138.83 132.276 140.567C131.764 142.305 132.198 144.185 133.422 145.521H130.327V63.7989H133.805C134.765 63.7989 135.543 63.0213 135.543 62.0602V60.3214H147.714C148.675 60.3214 149.453 59.5437 149.453 58.5827V51.6276C149.453 50.6674 148.675 49.8889 147.714 49.8889ZM54.6917 102.052L57.2998 105.529H50.3448L52.9529 102.052H54.6917ZM59.0385 113.504L56.5799 115.962H51.0648L48.6061 113.504V109.007H59.0385V113.504ZM140.238 53.3664L135.543 56.4967V53.3664H140.238ZM118.156 48.1501H125.111V55.1052H118.156V48.1501ZM71.2098 53.7145L75.9047 56.8439H66.5148L71.2098 53.7145ZM60.7773 56.4967L56.0823 53.3664H65.4722L60.7773 56.4967ZM76.9473 53.3664H86.3372L81.6422 56.4967L76.9473 53.3664ZM92.0747 53.7145L96.7696 56.8439H87.3797L92.0747 53.7145ZM97.8122 53.3664H107.202L102.507 56.4967L97.8122 53.3664ZM48.6061 53.3664H49.8235L55.0398 56.8439H48.6061V53.3664ZM108.245 56.8439L113.461 53.3664H114.678V56.8439H108.245ZM126.85 139.783L123.72 135.088L126.85 130.394V139.783ZM126.85 98.0528L123.72 93.3578L126.85 88.6637V98.0528ZM123.372 99.0962L126.501 103.79L123.372 108.485V99.0962ZM123.372 87.6203V78.2311L126.501 82.9253L123.372 87.6203ZM123.372 119.961L126.501 124.655L123.372 129.35V119.961ZM126.85 118.908L123.72 114.223L126.85 109.529V118.908ZM123.72 72.4927L126.85 67.7986V77.1877L123.72 72.4927ZM123.372 66.7552V63.7989H125.34L123.372 66.7552ZM109.462 86.4028V103.79H99.0296V86.4028H109.462ZM95.5522 86.4028V101.356L91.5534 97.4042C91.2291 97.0841 90.7918 96.9033 90.3359 96.9016H85.1197V86.4028H95.5522ZM81.6422 86.4028V89.3013H71.2098V86.4028H81.6422ZM55.5611 141.024L60.0573 145.521H51.0648L55.5611 141.024ZM71.2098 145.521V92.7788H81.6422V98.6471C81.6422 99.6082 82.4207 100.386 83.381 100.386H89.6211L96.0734 106.766C96.3978 107.086 96.835 107.267 97.2909 107.268H109.462V145.521H71.2098ZM123.372 140.826L126.501 145.521H123.372V140.826ZM144.237 143.782C143.277 143.782 142.498 143.004 142.498 142.043C142.498 141.083 143.277 140.304 144.237 140.304C145.197 140.304 145.976 141.083 145.976 142.043C145.976 143.004 145.197 143.782 144.237 143.782ZM140.759 133.349C141.72 133.349 142.498 134.128 142.498 135.088C142.498 136.049 141.72 136.827 140.759 136.827C139.799 136.827 139.021 136.049 139.021 135.088C139.021 134.128 139.799 133.349 140.759 133.349ZM137.282 140.304C138.242 140.304 139.021 141.083 139.021 142.043C139.021 143.004 138.242 143.782 137.282 143.782C136.322 143.782 135.543 143.004 135.543 142.043C135.543 141.083 136.322 140.304 137.282 140.304ZM132.066 60.3214H118.156V58.5827H126.85C127.81 58.5827 128.588 57.805 128.588 56.8439V48.1501H132.066V60.3214ZM141.281 56.8439L145.976 53.7145V56.8439H141.281Z" fill="white"/>
</svg>
