<svg width="121" height="121" viewBox="0 0 121 121" fill="none" xmlns="http://www.w3.org/2000/svg">
<circle cx="60.6001" cy="60.2563" r="58.5" stroke="white" stroke-width="3"/>
<path d="M60.5 60.8047C62.2338 60.8047 63.6452 59.3934 63.6452 57.6596C63.6452 55.9257 62.2338 54.5144 60.5 54.5144C58.7662 54.5144 57.3548 55.9257 57.3548 57.6596C57.3548 59.3934 58.7662 60.8047 60.5 60.8047ZM60.5 56.6112C61.0774 56.6112 61.5484 57.0811 61.5484 57.6596C61.5484 58.238 61.0774 58.708 60.5 58.708C59.9226 58.708 59.4516 58.238 59.4516 57.6596C59.4516 57.0811 59.9226 56.6112 60.5 56.6112Z" fill="white"/>
<path d="M58.331 50.3987C58.4114 51.5305 59.3646 52.4176 60.5 52.4176C61.6354 52.4176 62.5886 51.5305 62.669 50.3987L63.637 36.8408C63.6431 36.7671 63.6452 36.6929 63.6452 36.6197C63.6452 34.9242 62.2666 33.5467 60.5722 33.5467H60.4278C58.7334 33.5467 57.3548 34.9242 57.3548 36.6197C57.3548 36.6929 57.3569 36.7686 57.362 36.8387L58.331 50.3987ZM60.4278 35.6434H60.5722C61.1112 35.6434 61.5484 36.0816 61.5463 36.6888L60.5778 50.2497C60.5722 50.3291 60.4278 50.3291 60.4232 50.2497L59.4516 36.6197C59.4516 36.0816 59.8888 35.6434 60.4278 35.6434Z" fill="white"/>
<path d="M89.8548 55.5628H78.4465L65.9892 30.6488C64.9428 28.5566 62.8389 27.2563 60.5 27.2563C58.1611 27.2563 56.0572 28.5566 55.0108 30.6488L42.5535 55.5628H31.1452C29.4113 55.5628 28 56.9741 28 58.708V73.3854C28 75.1192 29.4113 76.5305 31.1452 76.5305H34.3584L35.2676 90.1596H32.1935V92.2563H88.8064V90.1596H85.7335L86.6426 76.5305H89.8548C91.5887 76.5305 93 75.1192 93 73.3854V58.708C93 56.9741 91.5887 55.5628 89.8548 55.5628ZM90.9032 58.708V64.0021L84.8622 57.6596H89.8548C90.4323 57.6596 90.9032 58.1295 90.9032 58.708ZM56.8864 31.5871C57.575 30.2085 58.9597 29.3531 60.5 29.3531C62.0403 29.3531 63.425 30.2085 64.1136 31.5871L76.8473 57.0535C77.1263 57.6115 77.2742 58.237 77.2742 58.861C77.2742 61.0888 75.4615 62.9015 73.2337 62.9015H47.7663C45.5385 62.9015 43.7258 61.0888 43.7258 58.861C43.7258 58.237 43.8737 57.6125 44.1527 57.0535L56.8864 31.5871ZM76.0758 74.4338L67.0893 64.9983H73.2337C74.214 64.9983 75.1375 64.7613 75.9596 64.3512L85.5615 74.4338H76.0758ZM76.2939 76.5305L77.203 90.1596H43.798L44.7071 76.5305H76.2939ZM47.7663 64.9983H51.8139L60.8 74.4338H51.3138L35.3387 57.6596H41.758C41.6782 58.0558 41.629 58.4576 41.629 58.861C41.629 62.2452 44.3821 64.9983 47.7663 64.9983ZM64.1944 64.9983L73.1815 74.4338H63.6953L54.7098 64.9983H64.1944ZM31.1452 57.6596H32.4428L48.4185 74.4338H38.9328L30.0968 65.1554V58.708C30.0968 58.1295 30.5677 57.6596 31.1452 57.6596ZM30.0968 73.3854V68.1957L36.038 74.4338H31.1452C30.5677 74.4338 30.0968 73.9638 30.0968 73.3854ZM36.4593 76.5305H42.6063L41.6971 90.1596H37.3674L36.4593 76.5305ZM83.6326 90.1596H79.3039L78.3948 76.5305H84.5417L83.6326 90.1596ZM89.8548 74.4338H88.4573L77.6622 63.0996C78.7178 61.997 79.371 60.5048 79.371 58.861C79.371 58.4576 79.3218 58.0558 79.243 57.6596H81.9679L90.9032 67.0428V73.3854C90.9032 73.9638 90.4323 74.4338 89.8548 74.4338Z" fill="white"/>
<path d="M90.9032 90.1596H93V92.2563H90.9032V90.1596Z" fill="white"/>
<path d="M28 90.1596H30.0968V92.2563H28V90.1596Z" fill="white"/>
</svg>
