<svg width="195" height="195" viewBox="0 0 195 195" fill="none" xmlns="http://www.w3.org/2000/svg">
<circle cx="97.5785" cy="97.4422" r="94.314" stroke="white" stroke-width="5"/>
<path d="M88.6897 155.673C113.325 155.673 133.379 137.207 133.379 114.513C133.379 113.484 132.541 112.642 131.517 112.642H45.8621C44.8379 112.642 44 113.484 44 114.513C44 137.207 64.0545 155.673 88.6897 155.673ZM123.008 124.073C124.181 122.614 124.814 120.799 124.758 118.947C124.721 118.012 125.037 117.114 125.596 116.384H129.618C128.892 129.873 120.308 141.491 107.962 147.516C109.042 146.131 109.619 144.391 109.545 142.539C109.433 139.695 107.869 137.226 105.318 135.953L103.512 135.055C101.966 134.288 101.128 132.604 101.408 130.902L101.724 128.956C102.041 126.917 103.884 125.476 105.97 125.701L116.323 126.786C118.837 127.048 121.332 126.038 123.008 124.055V124.073ZM121.462 116.384C121.183 117.244 121.015 118.124 121.034 119.059C121.071 120.275 120.55 121.173 120.14 121.697C119.283 122.707 117.999 123.213 116.695 123.082L106.342 121.997C102.301 121.566 98.6517 124.391 98.0372 128.376L97.7207 130.303C97.1807 133.652 98.8379 136.908 101.836 138.423L103.642 139.321C104.946 139.976 105.746 141.229 105.802 142.689C105.858 144.148 105.132 145.476 103.884 146.225C102.022 147.328 100.365 148.732 98.9497 150.453C98.8752 150.546 98.8007 150.659 98.7262 150.752C95.5048 151.501 92.1531 151.931 88.6897 151.931C83.6807 151.931 78.8952 151.07 74.4448 149.555C75.469 149.368 76.4745 149.162 77.4614 148.881L82.4703 147.497C83.8483 147.123 85.1517 146.374 86.269 145.289C88.4848 143.007 89.2483 139.695 88.2241 136.627C86.7717 132.305 82.0607 129.91 77.6848 131.295L75.0966 132.137C73.6814 132.586 72.1731 132.361 70.9628 131.501C69.7338 130.621 69.0076 129.256 68.9703 127.721L68.8772 125.084C68.84 121.454 66.8103 118.124 63.7007 116.365H121.425L121.462 116.384ZM55.0421 116.384L61.4662 119.396C63.7379 120.444 65.1531 122.651 65.1903 125.196L65.2834 127.852C65.3579 130.565 66.6428 133.016 68.84 134.569C71.0186 136.122 73.7186 136.533 76.2697 135.71L78.8393 134.868C81.3159 134.083 83.8855 135.392 84.7048 137.824C85.2821 139.546 84.8538 141.398 83.6621 142.632C83.029 143.231 82.2841 143.661 81.4834 143.886L76.4745 145.27C73.3834 146.131 70.2179 146.449 67.0152 146.225C55.9917 139.92 48.4503 128.975 47.7614 116.384H55.0421Z" fill="white"/>
<path d="M90.7566 79.9763C88.429 83.4562 86.66 87.1792 85.5055 91.052C84.8166 93.2971 84.351 95.5421 84.0717 97.7311C83.811 99.6768 84.5186 101.623 85.971 103.063C87.1628 104.242 88.8014 104.953 90.5331 105.102V110.79H94.2572V105.102C95.4303 104.99 96.5662 104.635 97.5345 104.036C98.5028 104.616 99.6014 104.99 100.774 105.084V110.771H104.499V105.084C106.417 104.915 108.167 104.092 109.396 102.689C110.625 101.286 111.183 99.5084 110.96 97.7124C110.197 91.4823 107.888 85.3458 104.294 79.9763L104.182 79.8079C103.493 78.7789 101.78 78.7789 101.091 79.8079L100.979 79.9763C99.62 81.9969 98.4655 84.0923 97.4972 86.2625C96.5476 84.111 95.4117 82.0156 94.071 80.0324L93.9593 79.8641C93.2703 78.7789 91.5014 78.7789 90.8124 79.8641L90.7193 79.995L90.7566 79.9763ZM98.0186 98.1801C98.6145 93.3158 100.179 88.6759 102.655 84.3542C105.132 88.6759 106.696 93.3158 107.292 98.1801C107.385 98.9097 107.143 99.6207 106.621 100.219C105.951 100.986 104.927 101.417 103.81 101.417H101.501C100.383 101.417 99.3593 100.986 98.689 100.219C98.1676 99.6207 97.9255 98.9097 98.0186 98.1801ZM92.4138 84.3729C93.7545 86.6928 94.7972 89.125 95.5793 91.6133C95.0021 93.6151 94.5738 95.6357 94.3131 97.7311C94.1641 98.9472 94.3876 100.126 94.909 101.192C94.4807 101.342 94.0338 101.435 93.5497 101.435H91.2407C90.2166 101.435 89.2483 101.061 88.5779 100.406C88.2055 100.051 87.6097 99.2839 87.7586 98.1988C88.0007 96.2156 88.429 94.1764 89.0621 92.1371C89.8441 89.4804 90.9614 86.8799 92.3952 84.3916L92.4138 84.3729Z" fill="white"/>
<path d="M68.5793 80.8369H73.7931V110.771H77.5172V80.8369H82.731C87.6655 80.8369 91.669 76.8145 91.669 71.8753C91.669 68.0026 89.2297 64.6537 85.6731 63.4189C85.0028 58.461 80.7572 54.6444 75.6552 54.6444C70.5531 54.6444 66.3448 58.4236 65.6372 63.4189C62.0807 64.6537 59.6414 68.0026 59.6414 71.8753C59.6414 76.8145 63.6448 80.8369 68.5793 80.8369ZM67.7041 66.7304C68.5979 66.5807 69.2497 65.7014 69.2497 64.7847C69.2497 61.2487 72.1172 58.3862 75.6366 58.3862C79.1559 58.3862 82.0234 61.2487 82.0234 64.8969C82.0234 65.8136 82.6752 66.5994 83.5876 66.7491C86.1014 67.1794 87.9262 69.3309 87.9262 71.8941C87.9262 74.7752 85.58 77.1138 82.7124 77.1138H77.4986V73.6901L82.0793 71.2954L80.3662 67.9839L77.4986 69.4806V65.9072H73.7745V69.4806L70.9069 67.9839L69.1938 71.2954L73.7745 73.6901V77.1138H68.5607C65.6931 77.1138 63.3469 74.7752 63.3469 71.8941C63.3469 69.3309 65.1717 67.1794 67.6855 66.7491L67.7041 66.7304Z" fill="white"/>
<path d="M51.4483 104.803V110.771H55.1724V104.822C56.1966 104.429 57.1462 103.737 57.9655 102.764C58.7662 103.718 59.7159 104.429 60.7586 104.822V110.79H64.4828V104.822C67.7228 103.606 70.069 99.2652 70.069 93.9519C70.069 87.6657 66.7917 82.7265 62.6207 82.7265C60.8331 82.7265 59.2317 83.6245 57.9655 85.14C56.6807 83.6058 55.0607 82.7265 53.3103 82.7265C49.1393 82.7265 45.8621 87.6657 45.8621 93.9519C45.8621 99.2652 48.2083 103.606 51.4483 104.822V104.803ZM62.6207 86.4496C64.371 86.4496 66.3448 89.6488 66.3448 93.9332C66.3448 98.2175 64.371 101.417 62.6207 101.417C60.8703 101.417 58.8966 98.2175 58.8966 93.9332C58.8966 89.6488 60.8703 86.4496 62.6207 86.4496ZM53.3103 86.4496C54.2414 86.4496 55.2469 87.3663 55.9731 88.8443C55.4703 90.3598 55.1724 92.0997 55.1724 93.9332C55.1724 95.7666 55.4517 97.5066 55.9731 99.022C55.2469 100.5 54.2414 101.417 53.3103 101.417C51.56 101.417 49.5862 98.2175 49.5862 93.9332C49.5862 89.6488 51.56 86.4496 53.3103 86.4496Z" fill="white"/>
<path d="M121.276 110.771V104.859C123.957 104.055 125.931 101.566 125.931 98.6104C125.931 94.9996 123.008 92.0623 119.414 92.0623C115.82 92.0623 112.897 94.9996 112.897 98.6104C112.897 101.566 114.87 104.036 117.552 104.859V110.771H121.276ZM116.621 98.6104C116.621 97.0576 117.868 95.8041 119.414 95.8041C120.959 95.8041 122.207 97.0576 122.207 98.6104C122.207 100.163 120.959 101.417 119.414 101.417C117.868 101.417 116.621 100.163 116.621 98.6104Z" fill="white"/>
<path d="M112.226 64.4292L114.107 65.4021C114.461 66.6368 114.963 67.8342 115.578 68.9755L114.926 71.0147C114.74 71.5947 114.852 72.2308 115.224 72.7172C116.341 74.1952 117.645 75.5049 119.116 76.6274C119.6 77.0016 120.233 77.1138 120.81 76.9268L122.84 76.2719C123.976 76.8893 125.168 77.3945 126.397 77.7499L127.365 79.6395C127.644 80.1821 128.166 80.5563 128.78 80.6311C129.804 80.7621 130.679 80.8369 131.517 80.8369C132.355 80.8369 133.23 80.7808 134.254 80.6311C134.85 80.5563 135.39 80.1821 135.67 79.6395L136.638 77.7499C137.867 77.3945 139.059 76.8893 140.194 76.2719L142.224 76.9268C142.801 77.1138 143.434 77.0016 143.919 76.6274C145.39 75.5049 146.693 74.1952 147.81 72.7172C148.183 72.2308 148.294 71.5947 148.108 71.0147L147.457 68.9755C148.071 67.8342 148.574 66.6368 148.928 65.4021L150.808 64.4292C151.348 64.1486 151.721 63.6247 151.795 63.0073C151.926 61.9783 152 61.099 152 60.2571C152 59.4152 151.944 58.5359 151.795 57.5069C151.721 56.9082 151.348 56.3656 150.808 56.085L148.928 55.1121C148.574 53.8774 148.071 52.68 147.457 51.5387L148.108 49.4995C148.294 48.9195 148.183 48.2834 147.81 47.797C146.693 46.319 145.39 45.0093 143.919 43.8868C143.434 43.5126 142.801 43.4191 142.224 43.5874L140.194 44.2423C139.059 43.6249 137.867 43.1197 136.638 42.7643L135.67 40.8747C135.39 40.3321 134.869 39.9579 134.254 39.8831C132.188 39.6024 130.828 39.6024 128.761 39.8831C128.166 39.9579 127.626 40.3321 127.346 40.8747L126.378 42.7643C125.149 43.1197 123.957 43.6249 122.821 44.2423L120.792 43.5874C120.214 43.4004 119.581 43.5126 119.097 43.8868C117.626 45.0093 116.323 46.319 115.206 47.797C114.833 48.2834 114.721 48.9195 114.908 49.4995L115.559 51.5387C114.945 52.68 114.442 53.8774 114.088 55.1121L112.208 56.085C111.668 56.3656 111.295 56.8895 111.221 57.5069C111.09 58.5359 111.016 59.4152 111.016 60.2571C111.016 61.099 111.072 61.9783 111.221 63.0073C111.295 63.606 111.668 64.1486 112.208 64.4292H112.226ZM114.814 58.9475L116.546 58.0494C117.03 57.8062 117.384 57.3572 117.496 56.8334C117.85 55.3928 118.408 54.0083 119.19 52.7361C119.47 52.2684 119.544 51.7071 119.377 51.1833L118.781 49.3311C119.339 48.6763 119.954 48.0402 120.624 47.4789L122.468 48.0776C122.97 48.246 123.548 48.1711 124.013 47.8905C125.279 47.1047 126.657 46.5435 128.091 46.188C128.612 46.057 129.059 45.7016 129.301 45.2338L130.195 43.4939C131.126 43.4191 131.852 43.4191 132.783 43.4939L133.677 45.2338C133.919 45.7203 134.366 46.0757 134.888 46.188C136.321 46.5435 137.699 47.1047 138.966 47.8905C139.431 48.1711 139.99 48.246 140.511 48.0776L142.354 47.4789C143.006 48.0402 143.639 48.6576 144.198 49.3311L143.602 51.1833C143.434 51.7071 143.509 52.2684 143.788 52.7361C144.57 54.0083 145.129 55.3928 145.483 56.8334C145.613 57.3572 145.967 57.8062 146.432 58.0494L148.164 58.9475C148.201 59.4152 148.22 59.8455 148.22 60.2571C148.22 60.6687 148.201 61.099 148.164 61.5667L146.432 62.4648C145.948 62.708 145.594 63.157 145.483 63.6808C145.129 65.1214 144.57 66.5059 143.788 67.7781C143.509 68.2458 143.434 68.8071 143.602 69.3309L144.198 71.1831C143.639 71.8379 143.025 72.474 142.354 73.0353L140.511 72.4366C139.99 72.2682 139.431 72.3431 138.966 72.6237C137.699 73.4095 136.321 73.9707 134.888 74.3262C134.366 74.4572 133.919 74.8126 133.677 75.2804L132.783 77.0203C131.852 77.0951 131.126 77.0951 130.195 77.0203L129.301 75.2804C129.059 74.7939 128.612 74.4385 128.091 74.3262C126.657 73.9707 125.279 73.4095 124.013 72.6237C123.548 72.3431 122.989 72.2682 122.468 72.4366L120.624 73.0353C119.972 72.474 119.339 71.8566 118.781 71.1831L119.377 69.3309C119.544 68.8071 119.47 68.2458 119.19 67.7781C118.408 66.5059 117.85 65.1214 117.496 63.6808C117.366 63.157 117.012 62.708 116.546 62.4648L114.814 61.5667C114.777 61.099 114.759 60.6687 114.759 60.2571C114.759 59.8455 114.777 59.4152 114.814 58.9475Z" fill="white"/>
<path d="M131.517 69.6116C136.657 69.6116 140.828 65.4208 140.828 60.2571C140.828 55.0934 136.657 50.9026 131.517 50.9026C126.378 50.9026 122.207 55.0934 122.207 60.2571C122.207 65.4208 126.378 69.6116 131.517 69.6116ZM131.517 54.6444C134.59 54.6444 137.103 57.1701 137.103 60.2571C137.103 63.3441 134.59 65.8698 131.517 65.8698C128.445 65.8698 125.931 63.3441 125.931 60.2571C125.931 57.1701 128.445 54.6444 131.517 54.6444Z" fill="white"/>
</svg>
