<svg width="194" height="195" viewBox="0 0 194 195" fill="none" xmlns="http://www.w3.org/2000/svg">
<g clip-path="url(#clip0_1_388)">
<circle cx="97" cy="97.4422" r="94.314" stroke="#008AAB" stroke-width="5"/>
<path d="M85.4464 117.839C84.7548 117.839 84.0709 117.984 83.4388 118.265C82.8067 118.546 82.2404 118.955 81.7764 119.468C81.3125 119.981 80.9611 120.585 80.745 121.242C80.5289 121.899 80.4528 122.594 80.5217 123.282L83.0134 148.216C83.133 149.439 83.7042 150.573 84.6156 151.397C85.527 152.221 86.713 152.676 87.9418 152.673H106.053C107.282 152.676 108.468 152.221 109.379 151.397C110.291 150.572 110.862 149.437 110.981 148.214L113.473 123.28C113.541 122.593 113.465 121.898 113.249 121.241C113.033 120.584 112.681 119.98 112.217 119.468C111.753 118.955 111.187 118.545 110.555 118.265C109.923 117.984 109.24 117.839 108.548 117.839H85.4464ZM106.053 149.006H87.9418C87.6222 149.007 87.3136 148.89 87.0762 148.676C86.8388 148.462 86.6898 148.167 86.6583 147.849L84.9459 130.673H109.049L107.333 147.849C107.301 148.166 107.153 148.461 106.916 148.675C106.679 148.888 106.372 149.007 106.053 149.006ZM109.832 122.918L109.415 127.006H84.5792L84.163 122.918C84.145 122.739 84.1648 122.558 84.2212 122.387C84.2776 122.216 84.3693 122.059 84.4903 121.926C84.6114 121.793 84.759 121.687 84.9237 121.614C85.0884 121.542 85.2665 121.505 85.4464 121.506H108.548C108.728 121.505 108.906 121.542 109.071 121.614C109.236 121.687 109.383 121.793 109.504 121.926C109.625 122.059 109.717 122.216 109.773 122.387C109.83 122.558 109.85 122.739 109.832 122.918Z" fill="#008AAB"/>
<path d="M126.445 152.673H144.556C145.785 152.676 146.971 152.221 147.882 151.397C148.794 150.572 149.365 149.437 149.484 148.214L151.976 123.28C152.044 122.593 151.968 121.898 151.752 121.241C151.535 120.584 151.184 119.98 150.72 119.468C150.256 118.955 149.69 118.545 149.058 118.265C148.426 117.984 147.742 117.839 147.051 117.839H123.949C123.258 117.839 122.574 117.984 121.942 118.265C121.309 118.546 120.743 118.955 120.279 119.468C119.815 119.981 119.464 120.585 119.248 121.242C119.032 121.899 118.956 122.594 119.025 123.282L121.516 148.216C121.636 149.439 122.207 150.573 123.118 151.397C124.03 152.221 125.216 152.676 126.445 152.673ZM144.556 149.006H126.445C126.125 149.007 125.816 148.89 125.579 148.676C125.342 148.462 125.193 148.167 125.161 147.849L123.449 130.673H147.551L145.835 147.849C145.804 148.166 145.655 148.461 145.419 148.675C145.182 148.888 144.874 149.007 144.556 149.006ZM122.998 121.927C123.118 121.795 123.265 121.689 123.429 121.616C123.593 121.543 123.77 121.506 123.949 121.506H147.051C147.231 121.505 147.409 121.542 147.574 121.614C147.738 121.687 147.886 121.793 148.007 121.926C148.128 122.059 148.22 122.216 148.276 122.387C148.332 122.558 148.352 122.739 148.334 122.918L147.918 127.006H123.082L122.666 122.918C122.649 122.738 122.669 122.558 122.726 122.387C122.784 122.217 122.876 122.06 122.998 121.927Z" fill="#008AAB"/>
<path d="M43.2767 119.469C42.8137 119.982 42.4632 120.587 42.2475 121.243C42.0319 121.9 41.9559 122.595 42.0245 123.282L44.5161 148.216C44.6356 149.438 45.2061 150.571 46.1163 151.395C47.0265 152.219 48.2111 152.675 49.439 152.673H67.55C68.7791 152.676 69.9653 152.221 70.8767 151.397C71.7881 150.572 72.3592 149.437 72.4783 148.214L74.97 123.28C75.0386 122.593 74.9624 121.898 74.7461 121.241C74.5299 120.584 74.1785 119.98 73.7145 119.468C73.2506 118.955 72.6844 118.545 72.0524 118.265C71.4205 117.984 70.7367 117.839 70.0453 117.839H46.9436C46.2526 117.841 45.5695 117.986 44.9381 118.267C44.3067 118.548 43.7408 118.957 43.2767 119.469ZM67.55 149.006H49.439C49.1194 149.007 48.8108 148.89 48.5734 148.676C48.3361 148.462 48.1871 148.167 48.1556 147.849L46.4431 130.673H70.5458L68.8297 147.849C68.7983 148.166 68.6498 148.461 68.4132 148.675C68.1766 148.888 67.8689 149.007 67.55 149.006ZM70.9969 121.927C71.1172 122.061 71.2082 122.218 71.2641 122.388C71.32 122.559 71.3395 122.739 71.3214 122.918L70.9125 127.006H46.0764L45.6602 122.918C45.6422 122.739 45.6621 122.558 45.7185 122.387C45.7748 122.216 45.8665 122.059 45.9875 121.926C46.1086 121.793 46.2562 121.687 46.4209 121.614C46.5856 121.542 46.7637 121.505 46.9436 121.506H70.0453C70.2246 121.506 70.4019 121.543 70.5658 121.616C70.7297 121.689 70.8765 121.795 70.9969 121.927Z" fill="#008AAB"/>
<path d="M133.667 112.339C133.667 112.825 133.86 113.292 134.204 113.635C134.547 113.979 135.014 114.172 135.5 114.172C135.986 114.172 136.453 113.979 136.796 113.635C137.14 113.292 137.334 112.825 137.334 112.339V108.672C137.334 107.7 136.947 106.767 136.259 106.08C135.572 105.392 134.639 105.006 133.667 105.006H98.8307V101.339C98.8307 100.853 98.6376 100.387 98.2937 100.043C97.9499 99.6989 97.4835 99.5058 96.9973 99.5058C96.511 99.5058 96.0446 99.6989 95.7008 100.043C95.357 100.387 95.1638 100.853 95.1638 101.339V105.006H60.3279C59.3554 105.006 58.4227 105.392 57.735 106.08C57.0473 106.767 56.661 107.7 56.661 108.672V112.339C56.661 112.825 56.8542 113.292 57.198 113.635C57.5419 113.979 58.0082 114.172 58.4945 114.172C58.9807 114.172 59.4471 113.979 59.7909 113.635C60.1348 113.292 60.3279 112.825 60.3279 112.339V108.672H95.1638V112.339C95.1638 112.825 95.357 113.292 95.7008 113.635C96.0446 113.979 96.511 114.172 96.9973 114.172C97.4835 114.172 97.9499 113.979 98.2937 113.635C98.6376 113.292 98.8307 112.825 98.8307 112.339V108.672H133.667V112.339Z" fill="#008AAB"/>
<path d="M76.8291 95.8519H87.8299C88.8025 95.8519 89.7352 95.4656 90.4228 94.778C91.1105 94.0903 91.4969 93.1577 91.4969 92.1852V88.5186C91.4969 87.5461 91.1105 86.6135 90.4228 85.9258C89.7352 85.2382 88.8025 84.8519 87.8299 84.8519H77.4763L81.3266 79.0842L81.4366 79.1575C82.0419 79.5487 82.749 79.7529 83.4696 79.7445C84.1902 79.7362 84.8924 79.5157 85.4884 79.1106C86.0845 78.7055 86.5479 78.1338 86.8209 77.4669C87.0938 76.8 87.1642 76.0674 87.0232 75.3607L85.4281 67.6277C85.3357 67.1601 85.1518 66.7154 84.887 66.3191C84.6222 65.9228 84.2817 65.5826 83.8851 65.3183C83.4885 65.0539 83.0436 64.8704 82.5759 64.7785C82.1082 64.6865 81.627 64.6878 81.1598 64.7823L73.4024 66.2692C72.702 66.4176 72.0604 66.7678 71.5567 67.2766C71.0531 67.7854 70.7094 68.4305 70.568 69.1323C70.4267 69.834 70.4939 70.5619 70.7613 71.2259C71.0288 71.89 71.4848 72.4612 72.0731 72.8692L72.1941 72.9499L69.0039 77.7165C68.1252 79.0229 67.6577 80.5624 67.6618 82.1367V86.6852C67.6647 89.1155 68.6315 91.4454 70.3501 93.1638C72.0686 94.8823 74.3987 95.849 76.8291 95.8519ZM87.8299 92.1852H76.8291C75.6019 92.1794 74.4119 91.7633 73.4484 91.0032C72.4849 90.2431 71.8033 89.1827 71.5121 87.9906C72.3164 88.3311 73.1798 88.5105 74.0533 88.5186H87.8299V92.1852ZM72.0456 79.7644L76.2626 73.4687C76.5264 73.062 76.621 72.5684 76.5261 72.0931C76.4312 71.6177 76.1544 71.1982 75.7547 70.924L74.0954 69.8698L81.8363 68.3665L83.4498 76.0885L81.8473 75.0142C81.4414 74.7483 80.9474 74.6524 80.4715 74.747C79.9955 74.8416 79.5758 75.1193 79.3025 75.5202L73.1622 84.7089C72.6043 84.5636 72.1151 84.2271 71.78 83.758C71.4449 83.2889 71.2852 82.717 71.3287 82.1422C71.326 81.2954 71.577 80.4672 72.0493 79.7644H72.0456Z" fill="#008AAB"/>
<path d="M82.3552 61.772L85.4978 63.5577C85.928 63.7956 86.4011 63.9456 86.8898 63.9991C87.3785 64.0526 87.873 64.0085 88.3445 63.8693C88.816 63.7302 89.2551 63.4987 89.6364 63.1884C90.0176 62.878 90.3335 62.4951 90.5655 62.0617L95.2848 52.9866L99.3184 59.2658L99.2231 59.3263C98.6302 59.7272 98.1671 60.2923 97.8905 60.9524C97.6139 61.6124 97.5358 62.3388 97.6658 63.0426C97.7958 63.7463 98.1282 64.3969 98.6223 64.9147C99.1165 65.4324 99.7509 65.7948 100.448 65.9575L108.165 67.5855C109.105 67.7846 110.085 67.6068 110.896 67.0905C111.706 66.5742 112.281 65.7605 112.497 64.8245L114.232 57.108C114.373 56.405 114.306 55.6759 114.039 55.0106C113.771 54.3453 113.315 53.7728 112.726 53.3635C112.137 52.9543 111.441 52.7263 110.724 52.7075C110.007 52.6888 109.301 52.8801 108.691 53.258L108.57 53.3368L105.351 48.3025C104.496 46.983 103.275 45.9418 101.838 45.3068L97.6701 43.4881C93.048 41.4714 88.3433 43.2663 85.6683 48.0843L80.9416 56.844C80.4808 57.686 80.3707 58.6758 80.6354 59.5985C80.9001 60.5212 81.5181 61.3022 82.3552 61.772ZM106.482 56.866C106.748 57.2727 107.164 57.5583 107.64 57.6612C108.115 57.7641 108.612 57.676 109.023 57.416C109.023 57.416 110.657 56.305 110.653 56.3325L108.935 64.0032L101.214 62.4082L102.846 61.3613C103.251 61.095 103.536 60.6805 103.639 60.2068C103.741 59.7331 103.654 59.2379 103.396 58.8276L97.2869 49.3145C97.6402 48.8634 98.1408 48.5508 98.7012 48.4315C99.2616 48.3122 99.8461 48.3937 100.353 48.6618C101.135 49.0032 101.8 49.5675 102.265 50.2843L106.482 56.866ZM88.8805 49.8443C89.3694 48.6833 90.2336 47.7198 91.3348 47.1079C92.436 46.496 93.7106 46.2711 94.9548 46.4691C94.3433 47.0431 93.8457 47.7273 93.488 48.4858L87.3092 60.3677L84.163 58.5838L88.8805 49.8443Z" fill="#008AAB"/>
<path d="M110.565 71.1422C109.76 71.6835 109.2 72.5204 109.008 73.4714C108.816 74.4224 109.006 75.4108 109.538 76.2224L115.286 84.8519C115.286 84.8519 107.998 84.8574 107.998 84.8134C107.991 84.093 107.77 83.3908 107.365 82.7952C106.96 82.1995 106.387 81.7369 105.72 81.4654C105.053 81.1939 104.32 81.1256 103.614 81.2692C102.908 81.4128 102.26 81.7618 101.751 82.2724L96.2364 87.8146C95.8938 88.15 95.6216 88.5505 95.4358 88.9925C95.2499 89.4345 95.1542 89.9091 95.1542 90.3886C95.1542 90.868 95.2499 91.3427 95.4358 91.7847C95.6216 92.2267 95.8938 92.6271 96.2364 92.9626L101.764 98.4406C102.278 98.9438 102.927 99.285 103.633 99.4219C104.339 99.5587 105.069 99.4852 105.733 99.2103C106.398 98.9355 106.966 98.4715 107.369 97.876C107.772 97.2805 107.99 96.5798 107.998 95.8611H114.067C115.637 95.8563 117.172 95.391 118.48 94.5228L122.255 91.9927C124.272 90.6365 125.67 88.5382 126.146 86.1551C126.622 83.7721 126.136 81.2976 124.794 79.2712L118.687 70.1357C118.145 69.3304 117.307 68.7717 116.356 68.5808C115.404 68.3899 114.415 68.5824 113.605 69.1163L110.565 71.1422ZM106.165 92.1944C105.678 92.1944 105.212 92.3876 104.868 92.7314C104.524 93.0752 104.331 93.5415 104.331 94.0277L104.357 95.8409L98.8307 90.4051L104.331 84.8391V86.6907C104.331 87.177 104.524 87.6433 104.868 87.9871C105.212 88.3309 105.678 88.5241 106.165 88.5241H117.554C117.739 89.0647 117.731 89.6529 117.53 90.1881C117.33 90.7232 116.949 91.1719 116.454 91.4574L116.438 91.4684C115.733 91.9324 114.909 92.182 114.065 92.1871L106.165 92.1944ZM121.749 81.3025C122.427 82.3304 122.742 83.5551 122.644 84.7823C122.546 86.0095 122.042 87.169 121.21 88.0767C121.048 87.2179 120.717 86.3997 120.236 85.6696L112.582 74.2057L115.636 72.1579L121.749 81.3025Z" fill="#008AAB"/>
</g>
<defs>
<clipPath id="clip0_1_388">
<rect width="193.628" height="193.628" fill="white" transform="translate(0.185974 0.628174)"/>
</clipPath>
</defs>
</svg>
