<svg width="233" height="232" viewBox="0 0 233 232" fill="none" xmlns="http://www.w3.org/2000/svg">
<rect x="2.5" y="2" width="228" height="228" rx="114" stroke="white" stroke-width="4"/>
<path fill-rule="evenodd" clip-rule="evenodd" d="M43.5815 105.831L58.4376 103.233C58.7754 103.173 59.089 103.017 59.3412 102.784C59.5935 102.551 59.7739 102.251 59.8613 101.919C61.1339 97.0562 63.0642 92.3902 65.5987 88.0505C65.7779 87.7559 65.8667 87.4151 65.8542 87.0704C65.8417 86.7257 65.7283 86.3922 65.5282 86.1114L56.8598 73.7581L71.2239 59.3771L83.5577 68.0586C83.8406 68.2561 84.174 68.3686 84.5186 68.3829C84.8632 68.3971 85.2048 68.3125 85.503 68.1391C89.8377 65.5972 94.4998 63.6619 99.3593 62.3872C99.6908 62.2988 99.9901 62.1177 100.222 61.865C100.455 61.6123 100.61 61.2986 100.67 60.9606L103.264 46.0926H111.623V73.5732C89.0692 74.5162 70.9983 93.1855 70.9983 115.999C70.9983 138.812 89.0692 157.483 111.623 158.429V185.909H103.264L100.67 171.041C100.61 170.703 100.454 170.389 100.222 170.136C99.9902 169.883 99.6909 169.701 99.3593 169.612C94.5 168.338 89.8379 166.404 85.503 163.863C85.2047 163.69 84.8632 163.605 84.5186 163.619C84.1741 163.634 83.8407 163.746 83.5577 163.943L71.2239 172.625L56.8598 158.242L65.5291 145.887C65.7292 145.606 65.8425 145.273 65.855 144.928C65.8676 144.584 65.7788 144.243 65.5996 143.948C63.0641 139.608 61.1337 134.941 59.8622 130.077C59.7763 129.744 59.5963 129.443 59.3437 129.21C59.0912 128.977 58.7769 128.822 58.4385 128.763L43.5812 126.168L43.5815 105.831ZM41.4813 129.444L56.705 132.106C57.9503 136.513 59.7054 140.759 61.9345 144.759L53.054 157.413C52.8154 157.76 52.7046 158.18 52.7406 158.6C52.7767 159.02 52.9572 159.415 53.2515 159.716L69.7578 176.23C70.0561 176.528 70.45 176.712 70.8703 176.749C71.2905 176.785 71.7102 176.672 72.0555 176.43L84.6995 167.536C88.6893 169.775 92.9285 171.536 97.3297 172.782L99.9938 188.013C100.064 188.43 100.279 188.808 100.602 189.081C100.925 189.353 101.335 189.502 101.757 189.5H113.414C113.651 189.501 113.885 189.455 114.103 189.365C114.322 189.276 114.521 189.144 114.688 188.977C114.856 188.81 114.989 188.612 115.08 188.394C115.171 188.176 115.218 187.942 115.219 187.705V156.669C115.218 156.432 115.171 156.198 115.08 155.98C114.989 155.762 114.856 155.563 114.689 155.397C114.521 155.23 114.322 155.098 114.103 155.008C113.885 154.919 113.651 154.873 113.414 154.874C92.0025 154.874 74.594 137.435 74.594 115.998C74.594 94.5617 92.0025 77.1227 113.414 77.1227C113.651 77.1238 113.885 77.0782 114.103 76.9885C114.322 76.8988 114.521 76.7668 114.689 76.6001C114.856 76.4333 114.989 76.2351 115.08 76.0168C115.171 75.7985 115.218 75.5643 115.219 75.3278V44.2964C115.218 44.0598 115.171 43.8255 115.081 43.6071C114.99 43.3886 114.857 43.1903 114.689 43.0234C114.521 42.8565 114.322 42.7244 114.104 42.6346C113.885 42.5448 113.651 42.499 113.414 42.5H101.756C101.333 42.4983 100.924 42.647 100.601 42.9194C100.278 43.1919 100.062 43.5704 99.9926 43.9874L97.3297 59.2192C92.9288 60.4659 88.6896 62.2264 84.6995 64.4643L72.0555 55.5716C71.7103 55.3289 71.2907 55.2158 70.8705 55.2522C70.4502 55.2885 70.0562 55.4721 69.7578 55.7705L53.2515 72.2839C52.9571 72.5848 52.7764 72.9788 52.7403 73.3985C52.7043 73.8182 52.8152 74.2373 53.054 74.5841L61.9339 87.2419C59.7057 91.2412 57.9507 95.4868 56.7045 99.8929L41.4807 102.555C41.0653 102.628 40.6889 102.845 40.418 103.168C40.147 103.492 39.999 103.9 40 104.322V127.675C39.9984 128.098 40.1462 128.507 40.4171 128.831C40.688 129.154 41.0645 129.371 41.4801 129.444H41.4813ZM178.79 80.1002C178.791 80.8806 178.559 81.6436 178.126 82.2925C177.693 82.9414 177.078 83.4471 176.357 83.7456C175.637 84.0441 174.845 84.1219 174.08 83.9693C173.316 83.8167 172.613 83.4404 172.063 82.8881C171.512 82.3359 171.137 81.6325 170.986 80.8669C170.834 80.1013 170.913 79.308 171.213 78.5874C171.512 77.8667 172.018 77.2512 172.667 76.8186C173.316 76.3861 174.078 76.1559 174.858 76.1573C175.901 76.1588 176.902 76.5748 177.639 77.3141C178.376 78.0534 178.79 79.0555 178.79 80.1002ZM128.764 114.195C128.682 110.34 128.262 106.499 127.509 102.718C130.916 102.015 134.225 100.897 137.362 99.3891C140.393 103.762 142.168 108.883 142.493 114.195H128.764ZM127.509 129.26C128.262 125.479 128.682 121.639 128.764 117.785H142.493C142.168 123.097 140.393 128.218 137.362 132.591C134.226 131.083 130.917 129.965 127.509 129.26H127.509ZM105.434 137.156C107.661 142.253 110.565 145.177 113.399 145.177C116.218 145.177 119.136 142.253 121.363 137.156C122.07 135.52 122.663 133.838 123.139 132.121C116.676 131.163 110.107 131.163 103.644 132.121C104.118 133.84 104.716 135.523 105.434 137.156ZM100.106 132.77C97.2204 133.364 94.408 134.272 91.7189 135.478C95.3499 139.535 100.042 142.494 105.265 144.021C104.012 142.346 102.966 140.526 102.15 138.601C101.328 136.709 100.645 134.76 100.106 132.77ZM98.0203 117.785H84.3041C84.6229 123.098 86.3981 128.221 89.435 132.591C92.5677 131.085 95.8715 129.967 99.2739 129.26C98.527 125.478 98.1071 121.639 98.0188 117.785H98.0203ZM99.2754 102.718C95.873 102.013 92.569 100.895 89.4365 99.3903C86.399 103.759 84.6236 108.882 84.3056 114.195H98.0218C98.1102 110.34 98.5301 106.5 99.2769 102.718H99.2754ZM102.151 93.3776C102.967 91.4521 104.013 89.6326 105.266 87.9587C100.043 89.485 95.3506 92.4444 91.7201 96.502C94.4096 97.7063 97.2219 98.6147 100.107 99.2111C100.647 97.2197 101.33 95.2701 102.151 93.3776ZM125.184 117.785H101.615C101.694 121.42 102.09 125.042 102.799 128.608C109.827 127.549 116.973 127.549 124 128.608C124.703 125.041 125.099 121.42 125.184 117.785ZM101.615 114.195H125.184C125.099 110.56 124.703 106.94 124 103.373C120.492 103.907 116.948 104.173 113.4 104.167C109.851 104.173 106.307 103.908 102.799 103.373C102.09 106.939 101.694 110.56 101.615 114.195ZM121.364 94.8225C119.137 89.727 116.219 86.8031 113.4 86.8031C110.566 86.8031 107.662 89.727 105.435 94.8225C104.718 96.4554 104.12 98.1382 103.645 99.8576C106.874 100.339 110.135 100.58 113.4 100.577C116.66 100.58 119.917 100.34 123.142 99.8576C122.665 98.1405 122.072 96.4582 121.366 94.8225H121.364ZM135.08 96.502C132.386 97.7063 129.569 98.6143 126.679 99.2099C126.15 97.2169 125.472 95.2669 124.649 93.3764C123.834 91.4475 122.783 89.6273 121.52 87.9575C126.749 89.48 131.447 92.4398 135.08 96.5008V96.502ZM121.518 144.021C122.781 142.35 123.832 140.53 124.648 138.601C125.471 136.711 126.149 134.762 126.678 132.77C129.568 133.365 132.385 134.273 135.079 135.478C131.445 139.538 126.747 142.498 121.518 144.021ZM185.472 112.047C186.251 112.046 187.013 112.276 187.662 112.709C188.31 113.141 188.816 113.756 189.115 114.477C189.414 115.197 189.493 115.99 189.341 116.755C189.19 117.521 188.815 118.224 188.265 118.776C187.714 119.328 187.012 119.704 186.248 119.856C185.484 120.009 184.692 119.931 183.972 119.633C183.252 119.335 182.636 118.83 182.203 118.181C181.77 117.532 181.539 116.77 181.539 115.99C181.542 114.946 181.957 113.946 182.694 113.207C183.431 112.469 184.429 112.052 185.472 112.047ZM178.79 151.879C178.791 152.66 178.56 153.423 178.127 154.072C177.694 154.721 177.078 155.227 176.358 155.525C175.637 155.824 174.845 155.901 174.08 155.749C173.316 155.596 172.614 155.22 172.063 154.668C171.512 154.116 171.137 153.412 170.986 152.647C170.834 151.881 170.913 151.088 171.213 150.367C171.512 149.646 172.018 149.031 172.667 148.598C173.316 148.166 174.078 147.935 174.858 147.937C175.901 147.938 176.902 148.354 177.639 149.093C178.376 149.833 178.791 150.835 178.79 151.879ZM163.694 171.918C163.694 172.698 163.463 173.46 163.031 174.109C162.598 174.757 161.983 175.263 161.264 175.562C160.544 175.861 159.752 175.94 158.988 175.788C158.224 175.637 157.522 175.262 156.97 174.711C156.419 174.16 156.043 173.458 155.89 172.694C155.737 171.929 155.814 171.136 156.111 170.415C156.408 169.694 156.912 169.077 157.559 168.643C158.206 168.209 158.968 167.976 159.747 167.975C160.264 167.974 160.777 168.075 161.256 168.273C161.735 168.471 162.17 168.761 162.536 169.127C162.903 169.494 163.194 169.929 163.392 170.407C163.591 170.886 163.693 171.399 163.694 171.918ZM159.747 56.119C160.526 56.1179 161.288 56.3482 161.936 56.7808C162.585 57.2133 163.09 57.8287 163.389 58.5491C163.688 59.2695 163.767 60.0624 163.616 60.8276C163.465 61.5928 163.09 62.2959 162.539 62.8479C161.989 63.3999 161.287 63.776 160.523 63.9286C159.759 64.0812 158.966 64.0034 158.246 63.7052C157.526 63.4069 156.911 62.9016 156.478 62.253C156.045 61.6045 155.814 60.842 155.814 60.0619C155.815 59.0175 156.229 58.016 156.966 57.2769C157.704 56.5379 158.703 56.1215 159.747 56.119ZM167.33 80.1002C167.33 81.8858 167.964 83.6133 169.121 84.9728L157.717 97.5729H140.52C138.995 95.3225 137.196 93.2717 135.163 91.4681H143.466C143.782 91.4689 144.094 91.3863 144.368 91.2288C144.643 91.0713 144.871 90.8443 145.031 90.5706L158.351 67.4618C160.161 67.8097 162.035 67.4821 163.62 66.5409C165.204 65.5997 166.39 64.1101 166.952 62.3535C167.515 60.5969 167.415 58.6949 166.673 57.0068C165.93 55.3187 164.595 53.9613 162.921 53.1912C161.246 52.421 159.348 52.2914 157.585 52.8267C155.822 53.362 154.315 54.5253 153.35 56.0968C152.385 57.6682 152.028 59.5391 152.347 61.3559C152.666 63.1727 153.639 64.8097 155.081 65.9577L142.438 87.8782H130.286C125.377 84.9225 119.78 83.3074 114.053 83.1941C108.326 83.0808 102.669 84.4734 97.6479 87.2328C92.6265 89.9922 88.4158 94.0219 85.4363 98.9196C82.4568 103.817 80.8127 109.412 80.668 115.144C80.668 115.373 80.668 115.602 80.654 115.832V115.991C80.654 116.273 80.668 116.555 80.668 116.836C80.814 122.568 82.459 128.162 85.4387 133.059C88.4185 137.956 92.6289 141.985 97.6499 144.744C102.671 147.503 108.327 148.896 114.053 148.784C119.78 148.671 125.377 147.058 130.286 144.104H142.438L155.082 166.021C153.693 167.128 152.739 168.692 152.391 170.435C152.043 172.178 152.323 173.988 153.181 175.545C154.039 177.101 155.42 178.303 157.079 178.937C158.738 179.571 160.568 179.597 162.244 179.01C163.92 178.422 165.334 177.259 166.235 175.728C167.137 174.196 167.467 172.394 167.168 170.642C166.869 168.89 165.96 167.3 164.601 166.155C163.243 165.01 161.524 164.383 159.748 164.386C159.279 164.386 158.812 164.431 158.352 164.52L145.032 141.41C144.872 141.136 144.644 140.909 144.369 140.751C144.095 140.594 143.784 140.511 143.467 140.512H135.163C137.196 138.709 138.996 136.658 140.52 134.408H157.717L169.121 147.008C168.011 148.317 167.382 149.966 167.336 151.682C167.291 153.398 167.832 155.078 168.87 156.444C169.909 157.81 171.382 158.78 173.046 159.194C174.711 159.607 176.466 159.439 178.022 158.718C179.578 157.997 180.841 156.765 181.602 155.227C182.364 153.689 182.578 151.936 182.209 150.26C181.839 148.584 180.91 147.084 179.573 146.008C178.236 144.933 176.573 144.347 174.858 144.348C173.896 144.347 172.944 144.533 172.053 144.895L159.846 131.41C159.679 131.224 159.475 131.074 159.247 130.972C159.018 130.87 158.771 130.817 158.521 130.817H142.647C143.419 129.297 144.069 127.719 144.592 126.096H158.519C158.995 126.096 159.451 125.907 159.787 125.57C160.123 125.234 160.312 124.777 160.312 124.301C160.312 123.825 160.123 123.368 159.787 123.032C159.451 122.695 158.995 122.506 158.519 122.506H145.538C145.848 120.948 146.05 119.371 146.143 117.785H178.17C178.608 119.573 179.686 121.138 181.198 122.185C182.711 123.232 184.554 123.688 186.38 123.467C188.205 123.246 189.887 122.363 191.107 120.986C192.326 119.608 193 117.831 193 115.99C193 114.149 192.326 112.372 191.107 110.994C189.887 109.616 188.205 108.734 186.38 108.513C184.554 108.292 182.711 108.748 181.198 109.795C179.686 110.842 178.608 112.407 178.17 114.195H146.143C146.05 112.609 145.848 111.031 145.537 109.473H158.52C158.995 109.473 159.451 109.284 159.787 108.947C160.124 108.611 160.313 108.154 160.313 107.678C160.313 107.202 160.124 106.746 159.787 106.409C159.451 106.072 158.995 105.883 158.52 105.883H144.593C144.069 104.26 143.419 102.681 142.647 101.161H158.519C158.769 101.161 159.016 101.109 159.244 101.007C159.473 100.905 159.677 100.757 159.844 100.571L172.051 87.0846C172.942 87.4476 173.895 87.6331 174.857 87.6308C176.345 87.6305 177.799 87.1883 179.037 86.3603C180.274 85.5323 181.238 84.3556 181.807 82.979C182.376 81.6025 182.525 80.0878 182.234 78.6267C181.944 77.1655 181.227 75.8235 180.174 74.7703C179.121 73.7171 177.78 73 176.321 72.7097C174.861 72.4195 173.348 72.569 171.973 73.1396C170.599 73.7101 169.424 74.6759 168.597 75.9149C167.771 77.1539 167.33 78.6104 167.33 80.1002Z" fill="white"/>
</svg>
