<svg width="233" height="232" viewBox="0 0 233 232" fill="none" xmlns="http://www.w3.org/2000/svg">
<rect x="2.5" y="2" width="228" height="228" rx="114" stroke="white" stroke-width="4"/>
<path d="M77.8608 140.817C77.8608 139.835 77.0648 139.039 76.083 139.039H65.5534C64.5716 139.039 63.7756 139.835 63.7756 140.817V150.476C63.7756 151.458 64.5716 152.254 65.5534 152.254H76.083C77.0648 152.254 77.8608 151.458 77.8608 150.476V140.817ZM74.3051 148.698H67.3313V142.595H74.3054L74.3051 148.698ZM112.566 84.5623C112.566 83.5804 113.362 82.7847 114.344 82.7847H123.679C129.033 82.7847 133.389 87.1402 133.389 92.4939V109.264C133.389 110.246 132.593 111.041 131.611 111.041C130.629 111.041 129.833 110.245 129.833 109.264V92.4936C129.833 89.1004 127.073 86.3399 123.679 86.3399H114.344C113.362 86.3399 112.566 85.5439 112.566 84.5623ZM118.389 150.418V142.595H111.415V162.251C111.415 163.233 110.619 164.029 109.637 164.029C108.655 164.029 107.859 163.233 107.859 162.251V140.817C107.859 139.835 108.655 139.039 109.637 139.039H120.167C121.149 139.039 121.945 139.835 121.945 140.817V150.418C121.945 151.4 121.149 152.196 120.167 152.196C119.185 152.196 118.389 151.4 118.389 150.418ZM121.945 111.847C121.945 112.829 121.149 113.625 120.167 113.625H65.5534C64.5716 113.625 63.7756 112.829 63.7756 111.847V94.4228C63.7756 93.4409 64.5716 92.6452 65.5534 92.6452H71.6713V96.2007H67.3313V110.07H118.389V96.2007H114.424V92.6452H120.167C121.149 92.6452 121.945 93.4412 121.945 94.4228V111.847ZM121.945 121.787C121.945 120.805 121.149 120.009 120.167 120.009H109.637C108.655 120.009 107.859 120.805 107.859 121.787V131.439C107.859 132.421 108.655 133.217 109.637 133.217H120.167C121.149 133.217 121.945 132.421 121.945 131.439V121.787ZM118.389 129.661H111.415V123.565H118.389V129.661ZM98.1214 139.039H87.599C86.6171 139.039 85.8211 139.835 85.8211 140.817V150.476C85.8211 151.458 86.6171 152.254 87.599 152.254H98.1214C99.1033 152.254 99.8993 151.458 99.8993 150.476V140.817C99.8993 139.835 99.1033 139.039 98.1214 139.039ZM96.3435 148.698H89.3768V142.595H96.3435V148.698ZM98.1214 158.069H87.599C86.6171 158.069 85.8211 158.865 85.8211 159.847V169.506C85.8211 170.488 86.6171 171.284 87.599 171.284H98.1214C99.1033 171.284 99.8993 170.488 99.8993 169.506V159.847C99.8993 158.865 99.1033 158.069 98.1214 158.069ZM96.3435 167.728H89.3768V161.625H96.3435V167.728ZM98.1214 120.009H87.599C86.6171 120.009 85.8211 120.805 85.8211 121.787V131.439C85.8211 132.421 86.6171 133.217 87.599 133.217H98.1214C99.1033 133.217 99.8993 132.421 99.8993 131.439V121.787C99.8993 120.805 99.1033 120.009 98.1214 120.009ZM96.3435 129.661H89.3768V123.565H96.3435V129.661ZM76.083 158.069H65.5534C64.5716 158.069 63.7756 158.865 63.7756 159.847V169.506C63.7756 170.488 64.5716 171.284 65.5534 171.284H76.083C77.0648 171.284 77.8608 170.488 77.8608 169.506V159.847C77.8608 158.865 77.0651 158.069 76.083 158.069ZM74.3051 167.728H67.3313V161.625H74.3054L74.3051 167.728ZM77.8608 121.787C77.8608 120.805 77.0648 120.009 76.083 120.009H65.5534C64.5716 120.009 63.7756 120.805 63.7756 121.787V131.439C63.7756 132.421 64.5716 133.217 65.5534 133.217H76.083C77.0648 133.217 77.8608 132.421 77.8608 131.439V121.787ZM74.3051 129.661H67.3313V123.565H74.3054L74.3051 129.661ZM96.6317 179.222C96.6317 180.204 95.8357 181 94.8539 181H62.0411C56.6872 181 52.3317 176.644 52.3317 171.291V92.4936C52.3317 87.14 56.6872 82.7844 62.0411 82.7844H71.3763C72.3581 82.7844 73.1541 83.5804 73.1541 84.562C73.1541 85.5436 72.3581 86.3396 71.3763 86.3396H62.0411C58.6479 86.3396 55.8874 89.1004 55.8874 92.4934V171.29C55.8874 174.683 58.6479 177.444 62.0411 177.444H94.8539C95.8357 177.444 96.6317 178.24 96.6317 179.222ZM138.981 130.182V133.555H136.023C135.041 133.555 134.245 134.351 134.245 135.333C134.245 136.315 135.041 137.111 136.023 137.111H138.981V138.19C138.981 139.172 139.777 139.968 140.759 139.968C141.741 139.968 142.537 139.172 142.537 138.19V137.026C145.259 136.586 147.33 134.462 147.33 131.914C147.33 129.362 145.259 127.235 142.537 126.795V123.428H145.552C146.534 123.428 147.33 122.632 147.33 121.65C147.33 120.668 146.534 119.872 145.552 119.872H142.537V118.793C142.537 117.811 141.741 117.015 140.759 117.015C139.777 117.015 138.981 117.811 138.981 118.793V119.956C136.256 120.393 134.18 122.519 134.18 125.069C134.18 127.619 136.256 129.745 138.981 130.182ZM142.537 130.456C143.265 130.735 143.775 131.29 143.775 131.914C143.775 132.521 143.259 133.076 142.537 133.359V130.456ZM138.981 123.621V126.516C138.255 126.235 137.736 125.679 137.736 125.069C137.736 124.46 138.255 123.903 138.981 123.621ZM177.358 165.806H173.953V157.472C173.953 155.646 172.471 154.161 170.65 154.161H165.863V145.826C165.863 144.005 164.378 142.523 162.553 142.523H151.519C155.729 139.284 158.45 134.199 158.45 128.488C158.45 118.733 150.514 110.797 140.759 110.797C131 110.797 123.06 118.733 123.06 128.488C123.06 134.199 125.782 139.284 129.994 142.523H128.825C127 142.523 125.515 144.005 125.515 145.826V154.161H117.051C115.225 154.161 113.74 155.646 113.74 157.472V165.806H106.838C105.012 165.806 103.527 167.288 103.527 169.11V177.696C103.527 179.518 105.012 181 106.838 181H140.571C141.123 181 141.642 180.862 142.099 180.623C142.558 180.862 143.078 181 143.63 181H177.357C179.183 181 180.668 179.518 180.668 177.696V169.11C180.669 167.288 179.183 165.806 177.358 165.806ZM170.397 157.717V165.806H154.088V157.717H170.397ZM126.616 128.488C126.616 120.694 132.96 114.352 140.759 114.352C148.553 114.352 154.894 120.694 154.894 128.488C154.894 135.704 149.463 141.672 142.476 142.523H139.041C132.05 141.671 126.616 135.704 126.616 128.488ZM129.07 146.078H138.822C139.458 146.148 140.104 146.186 140.759 146.186C141.413 146.186 142.059 146.148 142.695 146.078H162.307V154.161H129.07V146.078ZM140.32 177.444H107.082V169.362H140.32V177.444ZM117.295 165.806V157.717H150.533V165.806H117.295ZM177.113 177.444H143.875V169.362H177.113V177.444Z" fill="white"/>
<path d="M92.8612 70.3478H79.0258C78.0457 70.3478 77.2484 71.1425 77.2484 72.1251C77.2484 73.1077 78.0457 73.9025 79.0258 73.9025H92.8612C93.8413 73.9025 94.6385 73.1077 94.6385 72.1251C94.6385 71.1425 93.8413 70.3478 92.8612 70.3478ZM106.694 94.7458H79.0258C78.0457 94.7458 77.2484 95.543 77.2484 96.5231C77.2484 97.5057 78.0457 98.303 79.0258 98.303H106.694C107.677 98.303 108.471 97.5057 108.471 96.5231C108.471 95.543 107.677 94.7458 106.694 94.7458ZM106.694 86.6131H79.0258C78.0457 86.6131 77.2484 87.4104 77.2484 88.3905C77.2484 89.3731 78.0457 90.1678 79.0258 90.1678H106.694C107.677 90.1678 108.471 89.3731 108.471 88.3905C108.471 87.4104 107.677 86.6131 106.694 86.6131ZM106.694 78.4804H79.0258C78.0457 78.4804 77.2484 79.2752 77.2484 80.2578C77.2484 81.2404 78.0457 82.0351 79.0258 82.0351H106.694C107.677 82.0351 108.471 81.2404 108.471 80.2578C108.471 79.2752 107.677 78.4804 106.694 78.4804ZM106.42 51H63.4587C58.1139 51 53.7645 55.3494 53.7645 60.6967V68.7989C53.7645 69.7816 54.5592 70.5788 55.5418 70.5788H69.5982V110.069H73.1529V60.6967C73.1529 58.3684 72.3277 56.2305 70.9566 54.5572H106.42C109.81 54.5572 112.567 57.3096 112.567 60.6967V110.069H116.122V60.6967C116.122 55.3494 111.77 51 106.42 51ZM57.3192 67.0216V60.6967C57.3192 57.3096 60.0741 54.5572 63.4587 54.5572C66.8433 54.5572 69.5982 57.3096 69.5982 60.6967V67.0216H57.3192ZM106.694 78.4804H79.0258C78.0457 78.4804 77.2484 79.2752 77.2484 80.2578C77.2484 81.2404 78.0457 82.0351 79.0258 82.0351H106.694C107.677 82.0351 108.471 81.2404 108.471 80.2578C108.471 79.2752 107.677 78.4804 106.694 78.4804ZM106.694 86.6131H79.0258C78.0457 86.6131 77.2484 87.4104 77.2484 88.3905C77.2484 89.3731 78.0457 90.1678 79.0258 90.1678H106.694C107.677 90.1678 108.471 89.3731 108.471 88.3905C108.471 87.4104 107.677 86.6131 106.694 86.6131ZM106.694 94.7458H79.0258C78.0457 94.7458 77.2484 95.543 77.2484 96.5231C77.2484 97.5057 78.0457 98.303 79.0258 98.303H106.694C107.677 98.303 108.471 97.5057 108.471 96.5231C108.471 95.543 107.677 94.7458 106.694 94.7458ZM79.0258 73.9025H92.8612C93.8413 73.9025 94.6385 73.1077 94.6385 72.1251C94.6385 71.1425 93.8413 70.3478 92.8612 70.3478H79.0258C78.0457 70.3478 77.2484 71.1425 77.2484 72.1251C77.2484 73.1077 78.0457 73.9025 79.0258 73.9025ZM106.694 86.6131H79.0258C78.0457 86.6131 77.2484 87.4104 77.2484 88.3905C77.2484 89.3731 78.0457 90.1678 79.0258 90.1678H106.694C107.677 90.1678 108.471 89.3731 108.471 88.3905C108.471 87.4104 107.677 86.6131 106.694 86.6131ZM106.694 94.7458H79.0258C78.0457 94.7458 77.2484 95.543 77.2484 96.5231C77.2484 97.5057 78.0457 98.303 79.0258 98.303H106.694C107.677 98.303 108.471 97.5057 108.471 96.5231C108.471 95.543 107.677 94.7458 106.694 94.7458ZM92.8612 70.3478H79.0258C78.0457 70.3478 77.2484 71.1425 77.2484 72.1251C77.2484 73.1077 78.0457 73.9025 79.0258 73.9025H92.8612C93.8413 73.9025 94.6385 73.1077 94.6385 72.1251C94.6385 71.1425 93.8413 70.3478 92.8612 70.3478ZM106.694 78.4804H79.0258C78.0457 78.4804 77.2484 79.2752 77.2484 80.2578C77.2484 81.2404 78.0457 82.0351 79.0258 82.0351H106.694C107.677 82.0351 108.471 81.2404 108.471 80.2578C108.471 79.2752 107.677 78.4804 106.694 78.4804Z" fill="white"/>
</svg>
