<svg width="233" height="233" viewBox="0 0 233 233" fill="none" xmlns="http://www.w3.org/2000/svg">
<rect x="2.5" y="2.5" width="228" height="228" rx="114" stroke="white" stroke-width="4"/>
<path d="M116.5 61.218C114.922 61.218 113.643 59.9441 113.643 58.3727V54.3453C113.643 52.7739 114.922 51.5 116.5 51.5C118.078 51.5 119.357 52.7739 119.357 54.3453V58.3724C119.357 59.9441 118.078 61.218 116.5 61.218Z" fill="white"/>
<path d="M79.5397 74.7326C78.806 74.7326 78.0729 74.453 77.5145 73.894L74.6701 71.0464C73.5572 69.9323 73.5619 68.131 74.6805 67.0226C75.7988 65.9145 77.6077 65.9184 78.7206 67.033L81.5653 69.8806C82.6782 70.9947 82.6735 72.796 81.5549 73.9044C80.9975 74.4564 80.2685 74.7326 79.5397 74.7326Z" fill="white"/>
<path d="M153.46 74.7326C152.732 74.7326 152.003 74.4569 151.446 73.9044C150.327 72.7963 150.322 70.9947 151.435 69.8806L154.28 67.033C155.393 65.9184 157.202 65.9143 158.32 67.0226C159.439 68.1308 159.443 69.9323 158.33 71.0464L155.486 73.894C154.927 74.453 154.194 74.7326 153.46 74.7326Z" fill="white"/>
<path d="M91.9744 141.695C90.4258 140.604 89.1105 139.158 88.1712 137.516L78.571 120.727C78.109 119.919 77.5243 119.208 76.8418 118.614L77.1958 92.0713C77.248 88.1702 74.5153 84.7111 70.698 83.8458C66.3856 82.8681 62.0468 85.4201 60.8189 89.6541L51.1024 123.165C48.7348 131.331 50.2204 139.979 55.1784 146.892L59.3393 152.693C61.0059 155.017 62.1858 157.604 62.8465 160.382L66.2345 179.158C66.4791 180.514 67.6637 181.5 69.0462 181.5H69.0516L91.1579 181.459C92.4131 181.457 93.52 180.639 93.8857 179.443L99.0891 162.417C101.452 154.686 98.5928 146.359 91.9744 141.695ZM93.6234 160.759L89.035 175.772L71.435 175.805L68.4571 159.301C68.4483 159.253 68.4384 159.205 68.4273 159.157C67.599 155.625 66.1057 152.337 63.9887 149.386L59.8278 143.584C55.8913 138.096 54.7119 131.229 56.592 124.744L66.3088 91.2325C66.6412 90.0853 67.6946 89.3285 68.8457 89.3285C69.0389 89.3285 69.2347 89.3499 69.4303 89.3942C70.6362 89.6676 71.4992 90.7615 71.4826 91.9953L71.1543 116.607C69.8474 116.653 68.5626 117.014 67.3941 117.679C63.6903 119.785 62.2294 124.289 63.9962 128.155L75.0625 152.376C75.9416 154.301 76.0785 156.473 75.4477 158.493L74.7875 160.607C74.3189 162.107 75.1604 163.702 76.667 164.169C78.1744 164.635 79.775 163.797 80.2436 162.297L80.9038 160.183C81.952 156.827 81.7245 153.217 80.2633 150.019L69.1971 125.799C68.661 124.626 69.1041 123.259 70.2271 122.621C70.8021 122.294 71.4704 122.21 72.108 122.384C72.7463 122.558 73.2782 122.969 73.6063 123.542L83.2064 140.332C84.5567 142.693 86.4477 144.771 88.6745 146.34C93.2785 149.585 95.2676 155.379 93.6234 160.759Z" fill="white"/>
<path d="M181.898 123.165L172.181 89.6539C170.953 85.4198 166.615 82.8676 162.302 83.8456C158.485 84.7108 155.752 88.1699 155.804 92.0711L156.158 118.614C155.476 119.208 154.891 119.918 154.429 120.726L144.829 137.516C143.889 139.158 142.574 140.604 141.025 141.695C134.407 146.359 131.548 154.686 133.91 162.416L139.114 179.442C139.479 180.638 140.586 181.456 141.842 181.459L163.948 181.499H163.953C165.336 181.499 166.52 180.513 166.765 179.157L170.153 160.382C170.814 157.603 171.994 155.017 173.66 152.693L177.821 146.891C182.78 139.979 184.265 131.331 181.898 123.165ZM173.172 143.584L169.011 149.386C166.895 152.337 165.401 155.625 164.573 159.157C164.562 159.205 164.552 159.253 164.543 159.301L161.565 175.805L143.965 175.772L139.377 160.759C137.733 155.379 139.722 149.585 144.326 146.34C146.553 144.771 148.444 142.693 149.794 140.332L159.394 123.543C159.722 122.969 160.254 122.558 160.892 122.384C161.53 122.21 162.198 122.294 162.773 122.621C163.897 123.26 164.339 124.626 163.803 125.799L152.737 150.02C151.276 153.218 151.049 156.827 152.097 160.183L152.757 162.297C153.226 163.798 154.826 164.635 156.333 164.169C157.84 163.702 158.682 162.108 158.213 160.607L157.553 158.493C156.922 156.473 157.059 154.301 157.938 152.376L169.004 128.156C170.771 124.289 169.31 119.785 165.606 117.679C164.438 117.015 163.153 116.653 161.846 116.607L161.518 91.9955C161.502 90.7617 162.365 89.6678 163.57 89.3944C164.933 89.0871 166.304 89.8934 166.692 91.2327L176.409 124.744C178.288 131.229 177.109 138.096 173.172 143.584Z" fill="white"/>
<path d="M147.448 117.132V76.9243C147.448 76.1366 147.121 75.3844 146.543 74.8464C145.966 74.3084 145.191 74.0314 144.401 74.0854C135.872 74.6527 127.38 72.8157 119.846 68.773L117.855 67.7047C117.009 67.2505 115.991 67.2505 115.145 67.7047L113.154 68.773C105.62 72.8157 97.1283 74.6522 88.5989 74.0854C87.8081 74.0319 87.0344 74.3084 86.4568 74.8464C85.8792 75.3844 85.5517 76.1366 85.5517 76.9243V117.132C85.5517 126.589 91.1878 135.058 99.9103 138.707L115.394 145.184C115.747 145.332 116.124 145.406 116.5 145.406C116.876 145.406 117.252 145.332 117.606 145.184L133.09 138.707C141.812 135.059 147.448 126.59 147.448 117.132ZM130.877 133.461L116.5 139.475L102.123 133.461C95.5274 130.702 91.2654 124.292 91.2654 117.132V79.8756C99.8309 79.9307 108.28 77.8521 115.864 73.7825L116.5 73.4416L117.135 73.7825C124.612 77.7944 132.926 79.8769 141.369 79.8769C141.491 79.8769 141.612 79.8764 141.734 79.8756V117.132C141.735 124.292 137.473 130.702 130.877 133.461Z" fill="white"/>
<path d="M116.5 116.518C115.793 116.518 115.108 116.257 114.58 115.78L106.518 108.492C105.349 107.436 105.262 105.637 106.322 104.473C107.383 103.309 109.189 103.222 110.358 104.278L116.105 109.473L124.914 97.8607C125.865 96.6067 127.657 96.3582 128.916 97.3056C130.175 98.2526 130.424 100.037 129.473 101.291L118.78 115.387C118.296 116.025 117.566 116.431 116.767 116.505C116.678 116.514 116.589 116.518 116.5 116.518Z" fill="white"/>
</svg>
