<svg width="233" height="232" viewBox="0 0 233 232" fill="none" xmlns="http://www.w3.org/2000/svg">
<rect x="2.5" y="2" width="228" height="228" rx="114" stroke="#555555" stroke-width="4"/>
<path d="M103.781 172.561C104.907 172.561 105.82 171.652 105.82 170.53C105.82 169.407 104.907 168.498 103.781 168.498C102.655 168.498 101.742 169.407 101.742 170.53C101.742 171.652 102.655 172.561 103.781 172.561Z" fill="#555555"/>
<path d="M134.242 160.43H122.039C120.914 160.43 120.001 161.34 120.001 162.462V174.624C120.001 175.746 120.914 176.656 122.039 176.656H134.242C135.368 176.656 136.281 175.746 136.281 174.624V162.462C136.281 161.34 135.368 160.43 134.242 160.43ZM132.234 172.561H124.109V164.464H132.234V172.561Z" fill="#555555"/>
<path d="M85.4919 111.815H73.289C72.1631 111.815 71.2502 112.725 71.2502 113.847V126.008C71.2502 127.13 72.1631 128.04 73.289 128.04H85.4919C86.6178 128.04 87.5307 127.13 87.5307 126.008V113.847C87.5307 112.725 86.6178 111.815 85.4919 111.815ZM83.453 123.976H75.3279V115.879H83.453V123.976Z" fill="#555555"/>
<path d="M85.4919 136.107H73.289C72.1631 136.107 71.2502 137.017 71.2502 138.139V150.301C71.2502 151.423 72.1631 152.333 73.289 152.333H85.4919C86.6178 152.333 87.5307 151.423 87.5307 150.301V138.139C87.5307 137.017 86.6178 136.107 85.4919 136.107ZM83.453 148.269H75.3279V140.171H83.453V148.269Z" fill="#555555"/>
<path d="M85.4919 87.5221H73.289C72.1631 87.5221 71.2502 88.432 71.2502 89.5541V101.716C71.2502 102.838 72.1631 103.748 73.289 103.748H85.4919C86.6178 103.748 87.5307 102.838 87.5307 101.716V89.5541C87.5307 88.432 86.6178 87.5221 85.4919 87.5221ZM83.453 99.6836H75.3279V91.5861H83.453V99.6836Z" fill="#555555"/>
<path d="M85.4919 63.2295H73.289C72.1631 63.2295 71.2502 64.1393 71.2502 65.2615V77.423C71.2502 78.5451 72.1631 79.4549 73.289 79.4549H85.4919C86.6178 79.4549 87.5307 78.5451 87.5307 77.423V65.2615C87.5307 64.1393 86.6178 63.2295 85.4919 63.2295ZM83.453 75.391H75.3279V67.2934H83.453V75.391Z" fill="#555555"/>
<path d="M109.867 63.2295H97.6643C96.5383 63.2295 95.6254 64.1393 95.6254 65.2615V77.423C95.6254 78.5451 96.5383 79.4549 97.6643 79.4549H109.867C110.993 79.4549 111.906 78.5451 111.906 77.423V65.2615C111.906 64.1393 110.993 63.2295 109.867 63.2295ZM107.828 75.391H99.7031V67.2934H107.828V75.391Z" fill="#555555"/>
<path d="M85.4919 160.43H73.289C72.1631 160.43 71.2502 161.34 71.2502 162.462V174.624C71.2502 175.746 72.1631 176.656 73.289 176.656H85.4919C86.6178 176.656 87.5307 175.746 87.5307 174.624V162.462C87.5307 161.34 86.6178 160.43 85.4919 160.43ZM83.453 172.561H75.3279V164.464H83.453V172.561Z" fill="#555555"/>
<path d="M120.701 113.574V125.098C120.701 127.282 122.496 129.071 124.687 129.071H150.553C152.744 129.071 154.54 127.282 154.54 125.098V113.574C154.54 111.39 152.744 109.601 150.553 109.601H124.687C122.496 109.601 120.701 111.39 120.701 113.574ZM151.588 113.574V125.098C151.588 125.644 151.132 126.099 150.584 126.099H124.717C124.17 126.099 123.713 125.644 123.713 125.098V113.574C123.713 113.028 124.17 112.573 124.717 112.573H150.584C151.132 112.573 151.588 113.028 151.588 113.574Z" fill="#555555"/>
<path d="M163.639 109.601H160.687C158.496 109.601 156.7 111.39 156.7 113.574V125.098C156.7 127.312 158.496 129.071 160.687 129.071H163.943V131.346H143.767C141.546 131.346 139.781 133.135 139.781 135.319V146.813C139.781 147.177 139.811 147.511 139.902 147.814H137.498C137.59 147.48 137.62 147.147 137.62 146.813V135.289C137.62 133.105 135.825 131.316 133.634 131.316H107.767C107.402 131.316 107.067 131.346 106.763 131.437V129.041H114.584C116.805 129.041 118.57 127.252 118.57 125.068V113.574C118.57 111.36 116.775 109.601 114.584 109.601H106.763V107.205C107.098 107.296 107.433 107.326 107.767 107.326H133.634C135.825 107.326 137.62 105.537 137.62 103.353V91.8287C137.62 89.6451 135.825 87.8557 133.634 87.8557H107.767C105.576 87.8557 103.781 89.6451 103.781 91.8287V144.842C103.781 148.148 106.459 150.786 109.745 150.786H160.961C164.278 150.786 166.925 148.117 166.925 144.842V112.876C166.925 111.057 165.434 109.601 163.639 109.601ZM106.763 112.573H114.584C115.132 112.573 115.588 113.028 115.588 113.574V125.068C115.588 125.614 115.132 126.069 114.584 126.069H106.763V112.543V112.573ZM163.943 126.099H160.687C160.139 126.099 159.683 125.644 159.683 125.098V113.574C159.683 113.028 160.139 112.573 160.687 112.573H163.943V126.099ZM142.763 135.319C142.763 134.773 143.219 134.318 143.767 134.318H163.943V143.356C163.943 145.812 161.935 147.814 159.47 147.814H143.767C143.219 147.814 142.763 147.359 142.763 146.813V135.319ZM106.763 135.319C106.763 134.773 107.22 134.318 107.767 134.318H133.634C134.181 134.318 134.638 134.773 134.638 135.319V146.843C134.638 147.389 134.181 147.844 133.634 147.844H111.236C108.772 147.844 106.763 145.843 106.763 143.386V135.319ZM106.763 91.8287C106.763 91.2828 107.22 90.8279 107.767 90.8279H133.634C134.181 90.8279 134.638 91.2828 134.638 91.8287V103.353C134.638 103.899 134.181 104.354 133.634 104.354H107.767C107.22 104.354 106.763 103.899 106.763 103.353V91.8287Z" fill="#555555"/>
<path d="M145.715 83.0033L142.002 93.891C141.302 95.9836 142.398 98.2279 144.498 98.9557L168.995 107.266C171.094 107.963 173.346 106.871 174.077 104.779L177.789 93.891C178.489 91.7984 177.393 89.5541 175.294 88.8262L150.797 80.5164C148.697 79.8189 146.445 80.9107 145.715 83.0033ZM174.959 92.9205L171.246 103.808C171.064 104.324 170.486 104.627 169.968 104.445L145.471 96.1352C144.954 95.9533 144.65 95.377 144.832 94.8615L148.545 83.9738C148.727 83.4582 149.306 83.1549 149.823 83.3369L174.32 91.6467C174.837 91.8287 175.142 92.4049 174.959 92.9205Z" fill="#555555"/>
<path d="M150.492 185.936H144.406V156.154C143.098 156.761 141.728 157.337 140.329 157.792V185.936H115.953V162.462C115.953 161.34 115.04 160.43 113.914 160.43H93.5865C92.4606 160.43 91.5476 161.34 91.5476 162.462V185.936H67.1724V59.4385H140.329V78.0295H144.376V57.4066C144.376 56.2844 143.463 55.3746 142.337 55.3746H132.173V44.032C132.173 42.9098 131.26 42 130.134 42H77.3668C76.2408 42 75.3279 42.9098 75.3279 44.032V55.3746H65.164C64.038 55.3746 63.1251 56.2844 63.1251 57.4066V185.936H57.0389C55.9129 185.936 55 186.846 55 187.968C55 189.09 55.9129 190 57.0389 190H150.492C151.618 190 152.531 189.09 152.531 187.968C152.531 186.846 151.618 185.936 150.492 185.936ZM79.4057 46.0639H128.156V55.3746H79.4057V46.0639ZM111.906 185.936H105.82V178.657C105.82 177.535 104.907 176.625 103.781 176.625C102.655 176.625 101.742 177.535 101.742 178.657V185.936H95.6558V164.464H111.906V185.936Z" fill="#555555"/>
</svg>
