<?xml version="1.0" encoding="UTF-8"?>
<svg id="Layer_1" data-name="Layer 1" xmlns="http://www.w3.org/2000/svg" version="1.1" viewBox="0 0 232 232">
  <defs>
    <style>
      .cls-1 {
        fill: #fff;
        stroke-width: 0px;
      }

      .cls-2 {
        fill: none;
        stroke: #fff;
        stroke-width: 4px;
      }
    </style>
  </defs>
  <path class="cls-2" d="M116,2h0c63,0,114,51,114,114h0c0,63-51,114-114,114h0c-63,0-114-51-114-114h0C2,53,53,2,116,2Z"/>
  <path class="cls-1" d="M146.9,114.5c-1.4-1.3-2.9-2.6-4.2-4-3.1,6.6-9.8,11.1-17.5,11.1h-6.2c1.2-9.7,9.4-17,19.2-17.1h.2c-.7-1.7-.9-3.8-.9-5.7-7.7.2-14.9,4-19.5,10.3-2.9-11.1-12.8-18.8-24.2-18.8h-11.9v3.4c0,13.8,11.2,25.1,25.1,25.1h6.2v22.7h5.7v-13.4l44.8,11.2-47.7,19.1-49.5-16.7,39-11.5-1.6-5.7-47.5,14.2v5.7l59.7,20.1,54-21.6v16.6l-54,21.7-59.7-20.9v6l5.7,2,54,18.9,59.7-23.9v-26.9l-42.4-10.6c5.9-2.1,10.6-6.2,13.6-11.4h0ZM106.9,113.1c-9.8,0-18.1-7.3-19.2-17.1h6.1c9.8,0,18.2,7.3,19.4,17.1h-6.2ZM71.2,125.3c.7-1.4.8-3,.2-4.4-5.4-14.3-2.2-29.8,8.1-40.4l2.1,3.7c1.1,1.8,3.1,2.9,5.2,2.7s3.9-1.6,4.6-3.6l9.1-26.1c.5-1.5.4-3.1-.4-4.5-.8-1.4-2.1-2.3-3.7-2.6l-27.1-5.2c-2.1-.4-4.2.4-5.4,2.2s-1.4,4-.3,5.8l3.3,5.6c-20.2,16.4-28.2,45.3-19.1,69.8h0c.8,2.2,2.8,3.6,5,3.6s1,0,1.4-.2l13.5-3.6c1.5-.4,2.7-1.4,3.4-2.8h0ZM66.4,122.9h0s-13.5,3.7-13.5,3.7c0,0,0,0,0,0h0c-8.6-23.1-.5-50.5,19.1-65.2,1.1-.8,1.4-2.3.7-3.5l-4.4-7.7h0s0,0,0,0h0l27.2,5.2s0,0,0,0h0c0,0-9.1,26.2-9.1,26.2h0s0,0,0,0h0s-3.8-6.6-3.8-6.6c-.4-.7-1.1-1.2-1.9-1.3s-1.6,0-2.2.6c-13.9,12.1-18.6,31.2-12,48.6h0c0,0,0,0,0,0ZM187.4,99.7c-.9-1.9-2.8-3.1-4.9-3.1h-6.5c-1.9-12.1-7.7-23.7-16.5-32.9-9.3-9.7-21.5-16.3-34.4-18.6-2.8-.5-5.4,1.2-6.1,3.9l-3.6,13.6c-.4,1.5-.1,3.1.7,4.3s2.2,2.2,3.7,2.4c14.9,2.4,27,13.2,31,27.2h-4.3c-2.1,0-4,1.2-4.9,3.1-.9,1.9-.6,4.1.8,5.8l18.1,20.9c1,1.2,2.5,1.9,4.1,1.9h0c1.6,0,3.1-.7,4.1-1.9l18.1-20.9c1.4-1.6,1.7-3.8.8-5.8h-.1ZM182.6,102l-18.1,20.9h0l-7.6-8.8h0l-10.5-12.2h0s0,0,0,0h7.7c.8,0,1.6-.3,2-1,.5-.6.7-1.4.6-2.2-1.7-8.8-6.1-16.8-12.6-23-6.5-6.2-14.6-10.2-23.5-11.6,0,0,0,0,0,0h0c0,0,3.6-13.6,3.6-13.6,0,0,0,0,0,0,24.3,4.3,44.1,24.9,46.9,49.2.1,1.4,1.3,2.4,2.6,2.4h8.9s0,0,0,0h0s0,0,0,0Z"/>
</svg>