<svg width="233" height="232" viewBox="0 0 233 232" fill="none" xmlns="http://www.w3.org/2000/svg">
<rect x="2.5" y="2" width="228" height="228" rx="114" stroke="white" stroke-width="4"/>
<path d="M180.515 140.457L170.375 133.508C171.035 130.071 171.372 126.569 171.372 123.091C171.372 119.613 171.039 116.118 170.375 112.674L180.519 105.724C182.969 104.043 183.723 100.709 182.241 98.1346L170.981 78.6347C169.495 76.0565 166.23 75.0454 163.547 76.3328L152.453 81.6409C150.468 79.9187 148.358 78.3415 146.154 76.926C146.312 76.6699 146.461 76.4002 146.589 76.1171C147.694 73.667 147.276 70.8967 145.497 68.8847L121.549 41.7782C120.272 40.3291 118.429 39.5 116.498 39.5C114.567 39.5 112.726 40.3291 111.446 41.7782L87.5016 68.8847C85.7256 70.8967 85.3043 73.6704 86.4097 76.1171C86.5378 76.4002 86.6827 76.6699 86.8411 76.926C84.6438 78.3381 82.5307 79.9153 80.5424 81.6409L69.4516 76.3362C66.769 75.0522 63.5034 76.0632 62.0172 78.638L50.7578 98.138C49.275 100.713 50.0299 104.046 52.4833 105.728L62.6238 112.677C61.9633 116.115 61.6263 119.613 61.6263 123.091C61.6263 126.569 61.9633 130.074 62.6238 133.505L52.4833 140.454C50.0299 142.132 49.275 145.469 50.7578 148.044L62.0172 167.544C63.5034 170.122 66.769 171.133 69.4516 169.846L80.5424 164.538C85.8705 169.161 91.9366 172.666 98.5823 174.955L99.5293 187.209C99.7585 190.175 102.266 192.5 105.238 192.5H112.42C113.35 192.5 114.105 191.745 114.105 190.815C114.105 189.885 113.35 189.13 112.42 189.13H105.238C104.015 189.13 102.98 188.173 102.886 186.949L101.898 174.173C101.811 173.142 101.12 172.259 100.129 171.925C93.5643 169.728 87.5926 166.28 82.3892 161.68C81.6107 160.989 80.502 160.827 79.5482 161.275L67.9923 166.806C66.8869 167.335 65.5423 166.92 64.9323 165.859L53.6729 146.359C53.0596 145.297 53.373 143.922 54.384 143.231L64.9492 135.989C65.8051 135.399 66.2264 134.361 66.0208 133.333C65.3401 129.956 64.993 126.508 64.993 123.084C64.993 119.66 65.3401 116.212 66.0242 112.829C66.2264 111.807 65.8051 110.769 64.9458 110.176L54.384 102.937C53.373 102.243 53.063 100.871 53.6729 99.8096L64.9323 80.3097C65.5423 79.2481 66.8869 78.8335 67.9923 79.3626L79.5482 84.8897C80.4919 85.3414 81.6074 85.1863 82.3858 84.4921C84.5696 82.5609 86.9219 80.8186 89.3787 79.2952C90.3291 79.7974 91.4075 80.0737 92.5499 80.0737H98.9261V101.009C92.1523 106.395 88.2868 114.392 88.2868 123.081C88.2868 138.634 100.941 151.289 116.494 151.289C132.047 151.289 144.702 138.634 144.702 123.081C144.702 114.392 140.836 106.395 134.062 101.009V80.0737H140.438C141.578 80.0737 142.659 79.7974 143.61 79.2952C146.07 80.8186 148.419 82.5643 150.606 84.4954C151.391 85.183 152.507 85.338 153.444 84.8897L164.999 79.3626C166.105 78.8335 167.446 79.2481 168.059 80.3097L179.319 99.8096C179.929 100.871 179.619 102.243 178.611 102.937L168.036 110.183C167.18 110.78 166.765 111.821 166.974 112.832C167.655 116.209 168.002 119.657 168.002 123.081C168.002 126.505 167.655 129.953 166.974 133.323C166.762 134.341 167.18 135.385 168.046 135.989L178.611 143.228C179.622 143.919 179.932 145.294 179.322 146.352L168.063 165.852C167.453 166.913 166.108 167.328 165.003 166.799L153.437 161.262C152.5 160.824 151.391 160.982 150.606 161.669C145.403 166.27 139.434 169.717 132.866 171.918C131.879 172.249 131.188 173.132 131.1 174.176L130.113 186.943C130.015 188.166 128.984 189.123 127.76 189.123H120.612C119.682 189.123 118.927 189.878 118.927 190.808C118.927 191.738 119.682 192.493 120.612 192.493H127.76C130.733 192.493 133.243 190.171 133.473 187.205L134.42 174.951C141.072 172.656 147.135 169.155 152.456 164.531L163.547 169.839C166.23 171.126 169.495 170.115 170.981 167.537L182.241 148.037C183.727 145.462 182.969 142.126 180.515 140.447V140.457ZM91.6602 123.094C91.6602 116.394 94.272 110.159 98.9295 105.529V140.636C94.4405 136.14 91.6602 129.936 91.6602 123.094ZM132.381 76.717C131.451 76.717 130.696 77.472 130.696 78.4021V119.296C130.696 120.226 131.451 120.981 132.381 120.981C133.311 120.981 134.066 120.226 134.066 119.296V105.529C138.723 110.159 141.335 116.394 141.335 123.094C141.335 129.794 138.555 136.14 134.066 140.636V127.482C134.066 126.552 133.311 125.797 132.381 125.797C131.451 125.797 130.696 126.552 130.696 127.482V143.457C126.668 146.274 121.775 147.933 116.498 147.933C111.22 147.933 106.327 146.274 102.3 143.457V78.4021C102.3 77.472 101.545 76.717 100.614 76.717H92.5533C91.1918 76.717 90.0426 75.9756 89.4832 74.732C88.9237 73.4884 89.126 72.1369 90.0291 71.1158L113.973 44.0093C114.624 43.2746 115.52 42.8702 116.498 42.8702C117.475 42.8702 118.375 43.2746 119.022 44.0093L142.966 71.1158C143.869 72.1369 144.071 73.4884 143.512 74.732C142.953 75.9756 141.803 76.717 140.442 76.717H132.381Z" fill="white"/>
</svg>
