<svg width="232" height="232" viewBox="0 0 232 232" fill="none" xmlns="http://www.w3.org/2000/svg">
<rect x="2" y="2" width="228" height="228" rx="114" stroke="#555555" stroke-width="4"/>
<path d="M177.66 149.871L185.43 130.388L181.249 128.711L172.811 149.871H172.084V122.774H167.581V86.6452H158.575V77.6129H154.072V86.6452H149.569V73.0968H145.066V86.6452H140.563V77.6129H136.06V86.6452H127.054V113.742H118.048V125.324C112.741 118.789 105.498 114.029 97.2777 111.847L96.2555 108.774C99.5382 107.864 102.236 105.536 103.584 102.452H104.539C109.506 102.452 113.545 98.4006 113.545 93.4194V82.129C116.028 82.129 118.048 80.1035 118.048 77.6129V73.0968C118.048 70.6061 116.028 68.5806 113.545 68.5806H113.153C110.998 55.5742 99.9075 46 86.5268 46C73.1462 46 62.0554 55.5742 59.9007 68.5806H59.5089C57.0256 68.5806 55.006 70.6061 55.006 73.0968V77.6129C55.006 80.1035 57.0256 82.129 59.5089 82.129V93.4194C59.5089 98.4006 63.5481 102.452 68.5149 102.452H69.4695C70.8204 105.536 73.5155 107.866 76.7982 108.774L75.776 111.847C58.1806 116.501 46 132.276 46 150.643V152.129C46 161.757 51.5026 170.105 59.5089 174.226V186H127.054V167.935H134.036C135.083 173.082 139.628 176.968 145.066 176.968C150.503 176.968 155.049 173.082 156.096 167.935H167.396C176.436 167.935 184.077 161.444 185.563 152.502L186 149.871H177.66ZM149.569 149.871V127.29H167.581V149.871H149.569ZM131.557 91.1613H163.078V122.774H149.569V113.742H131.557V91.1613ZM145.066 118.258V149.871H122.551V118.258H145.066ZM118.048 133.333V149.871H117.32L108.88 128.708L104.699 130.386L112.471 149.871H104.134L104.57 152.502C105.167 156.092 106.768 159.278 109.042 161.816V181.484H97.7843V176.968C101.508 176.968 104.539 173.928 104.539 170.194C104.539 166.459 101.508 163.419 97.7843 163.419V116.738C106.369 119.475 113.63 125.382 118.048 133.333ZM91.658 109.226L93.0472 113.408L86.5268 123.219L80.0043 113.408L81.3957 109.226H91.658ZM93.2813 132.143L89.3142 127.168L93.2813 121.2V132.143ZM79.7724 132.143V121.2L83.7395 127.168L79.7724 132.143ZM79.7724 139.371L86.5268 130.903L93.2813 139.371V159.301C92.5744 159.05 91.8201 158.903 91.0298 158.903H88.3933C86.5899 158.903 84.8923 159.608 83.6157 160.888L81.3056 163.205L79.7724 162.862V139.371ZM84.2754 166.612L86.7993 164.081C87.2248 163.654 87.7922 163.419 88.3933 163.419H91.0298C92.2704 163.419 93.2813 164.433 93.2813 165.677V167.935H97.7843C99.0249 167.935 100.036 168.949 100.036 170.194C100.036 171.438 99.0249 172.452 97.7843 172.452H84.2754V166.612ZM93.2813 176.968V181.484H79.7724V176.968H93.2813ZM104.539 97.9355V88.9032C107.022 88.9032 109.042 90.9287 109.042 93.4194C109.042 95.91 107.022 97.9355 104.539 97.9355ZM109.042 85.6426C107.711 84.8658 106.187 84.3871 104.539 84.3871V82.129H109.042V85.6426ZM108.582 68.5806H93.2813V51.5503C101.015 53.9552 106.948 60.3884 108.582 68.5806ZM88.7783 50.629V68.5806H84.2754V50.629C85.0161 50.5568 85.7658 50.5161 86.5268 50.5161C87.2879 50.5161 88.0376 50.5568 88.7783 50.629ZM79.7724 51.5503V68.5806H64.4712C66.1058 60.3884 72.0385 53.9552 79.7724 51.5503ZM59.5067 73.0968H113.545V77.6129H59.5089L59.5067 73.0968ZM68.5149 82.129V84.3871C66.8668 84.3871 65.3426 84.8658 64.0119 85.6426V82.129H68.5149ZM64.0119 93.4194C64.0119 90.9287 66.0315 88.9032 68.5149 88.9032V97.9355C66.0315 97.9355 64.0119 95.91 64.0119 93.4194ZM73.0179 97.9355V82.129H100.036V97.9355C100.036 101.67 97.0053 104.71 93.2813 104.71H79.7724C76.0484 104.71 73.0179 101.67 73.0179 97.9355ZM50.503 152.129V150.643C50.503 134.927 60.5536 121.361 75.2694 116.707V161.861L72.8265 161.317C67.6368 160.159 64.0119 155.627 64.0119 150.293V140.839H59.5089V150.293C59.5089 157.758 64.5838 164.104 71.8494 165.723L79.7724 167.488V172.452H70.7664C59.5945 172.452 50.503 163.334 50.503 152.129ZM64.0119 176.006C66.1621 176.618 68.4226 176.968 70.7664 176.968H75.2694V181.484H64.0119V176.006ZM113.545 181.484V165.483C116.208 167.019 119.286 167.895 122.551 167.929V181.484H113.545ZM145.066 172.452C141.342 172.452 138.311 169.412 138.311 165.677C138.311 164.433 139.322 163.419 140.563 163.419H149.569C150.809 163.419 151.82 164.433 151.82 165.677C151.82 169.412 148.79 172.452 145.066 172.452ZM167.394 163.419H155.907C154.974 160.798 152.498 158.903 149.566 158.903H140.56C137.629 158.903 135.152 160.798 134.22 163.419H122.733C116.825 163.419 111.71 159.75 109.708 154.387H180.414C178.417 159.75 173.304 163.419 167.394 163.419Z" fill="#555555"/>
<path d="M154.072 95.6774H158.575V100.194H154.072V95.6774Z" fill="#555555"/>
<path d="M145.066 95.6774H149.569V100.194H145.066V95.6774Z" fill="#555555"/>
<path d="M136.06 95.6774H140.563V100.194H136.06V95.6774Z" fill="#555555"/>
<path d="M154.072 104.71H158.575V109.226H154.072V104.71Z" fill="#555555"/>
<path d="M136.06 104.71H140.563V109.226H136.06V104.71Z" fill="#555555"/>
<path d="M145.066 104.71H149.569V109.226H145.066V104.71Z" fill="#555555"/>
<path d="M154.072 113.742H158.575V118.258H154.072V113.742Z" fill="#555555"/>
<path d="M127.054 122.774H131.557V145.355H127.054V122.774Z" fill="#555555"/>
<path d="M136.06 122.774H140.563V145.355H136.06V122.774Z" fill="#555555"/>
<path d="M154.072 131.806H163.078V136.323H154.072V131.806Z" fill="#555555"/>
<path d="M154.072 140.839H163.078V145.355H154.072V140.839Z" fill="#555555"/>
</svg>
