<svg width="233" height="232" viewBox="0 0 233 232" fill="none" xmlns="http://www.w3.org/2000/svg">
<rect x="2.5" y="2" width="228" height="228" rx="114" stroke="white" stroke-width="4"/>
<path d="M165.395 96.3918C169.789 93.448 172.686 88.4514 172.686 82.7939C172.686 73.762 165.304 66.4138 156.23 66.4138C147.157 66.4138 139.775 73.762 139.775 82.7939C139.775 88.4544 142.675 93.4529 147.073 96.3962C144.534 97.2802 142.126 98.5315 139.934 100.116C136.226 97.3758 132.019 95.2687 127.476 93.9549C134.619 90.0723 139.476 82.5247 139.476 73.8689C139.476 61.259 129.169 51 116.501 51C103.833 51 93.5261 61.259 93.5261 73.8689C93.5261 82.5247 98.3828 90.072 105.526 93.9549C100.976 95.2703 96.7637 97.3812 93.0511 100.127C90.8602 98.5429 88.4539 97.2916 85.9151 96.4075C90.311 93.4651 93.2092 88.469 93.2092 82.8112C93.2092 73.7826 85.8299 66.4373 76.7595 66.4373C67.6891 66.4373 60.3098 73.7826 60.3098 82.8112C60.3098 88.466 63.205 93.4599 67.5971 96.4029C56.8004 100.178 49.0379 110.425 49.0379 122.446C49.0379 123.642 50.0123 124.612 51.2141 124.612H77.7325C77.3182 126.888 77.1012 129.23 77.1012 131.623C77.1012 132.819 78.0756 133.789 79.2774 133.789H87.5328L91.123 139.509C91.2473 139.707 91.274 139.858 91.2253 140.086L89.8037 146.742C89.2553 149.31 90.7335 151.859 93.2424 152.671L94.8911 153.204L87.7678 170.828C87.2894 172.012 87.4376 173.243 88.1645 174.121C88.8815 174.987 90.0488 175.363 91.2873 175.126L98.916 173.666L103.769 179.704C104.439 180.537 105.358 181 106.3 181C106.467 181 106.634 180.985 106.801 180.956C107.926 180.757 108.841 179.916 109.249 178.706L115.078 161.404L116.205 160.95C116.423 160.863 116.577 160.863 116.795 160.95L117.922 161.404L123.751 178.706C124.159 179.916 125.074 180.757 126.199 180.956C126.366 180.985 126.533 181 126.7 181C127.642 181 128.561 180.537 129.231 179.704L134.084 173.666L141.713 175.126C142.952 175.363 144.119 174.987 144.836 174.121C145.562 173.243 145.711 172.012 145.232 170.828L138.109 153.204L139.758 152.67C142.267 151.859 143.745 149.31 143.197 146.742L141.775 140.086C141.726 139.857 141.753 139.706 141.877 139.508L145.468 133.789H153.723C154.925 133.789 155.899 132.819 155.899 131.623C155.899 129.23 155.682 126.887 155.268 124.612H181.786C182.988 124.612 183.962 123.642 183.962 122.446C183.962 110.42 176.196 100.167 165.394 96.3918H165.395ZM144.127 82.7939C144.127 76.1507 149.557 70.7461 156.231 70.7461C162.905 70.7461 168.334 76.1507 168.334 82.7939C168.334 89.437 162.912 94.8338 156.245 94.8411C156.24 94.8411 156.235 94.8411 156.23 94.8411C156.227 94.8411 156.223 94.8411 156.219 94.8411C149.551 94.8349 144.127 89.4332 144.127 82.7939ZM97.8785 73.8689C97.8785 63.6478 106.232 55.3324 116.501 55.3324C126.769 55.3324 135.123 63.6478 135.123 73.8689C135.123 84.0901 126.78 92.3939 116.522 92.4052C116.514 92.4052 116.507 92.4052 116.5 92.4052C116.493 92.4052 116.487 92.4052 116.48 92.4052C106.221 92.3939 97.8785 84.0833 97.8785 73.8689ZM64.6625 82.8112C64.6625 76.1716 70.0892 70.7697 76.7598 70.7697C83.4304 70.7697 88.857 76.1713 88.857 82.8112C88.857 89.4511 83.4361 94.8465 76.7709 94.8525C76.7671 94.8525 76.7633 94.8525 76.7595 94.8525C76.7549 94.8525 76.7503 94.8525 76.7456 94.8525C70.0815 94.8449 64.6625 89.4462 64.6625 82.8112ZM53.491 120.279C54.5919 108.468 64.6016 99.19 76.7489 99.1846C76.7524 99.1846 76.7562 99.1849 76.7598 99.1849C76.7636 99.1849 76.7671 99.1846 76.7709 99.1846C81.3374 99.1868 85.8011 100.533 89.588 103.008C84.5938 107.665 80.8157 113.598 78.7836 120.279H53.491ZM105.806 175.302L100.674 168.918L92.6075 170.462L99.0403 154.545L99.7443 154.773C99.9677 154.845 100.086 154.944 100.196 155.15L103.405 161.158C104.323 162.877 106.088 163.875 107.936 163.875C108.548 163.875 109.168 163.762 109.771 163.533L105.806 175.302ZM140.394 170.462L132.327 168.918L127.195 175.302L123.23 163.534C125.652 164.453 128.373 163.446 129.596 161.158L132.805 155.15C132.915 154.944 133.033 154.845 133.257 154.773L133.961 154.545L140.393 170.462H140.394ZM138.187 137.212C137.467 138.359 137.236 139.664 137.518 140.987L138.94 147.643C139.025 148.042 138.804 148.424 138.414 148.55L131.912 150.653C130.62 151.071 129.6 151.922 128.963 153.116L125.753 159.125C125.561 159.485 125.145 159.637 124.764 159.483L118.426 156.934C117.166 156.427 115.835 156.427 114.576 156.934L108.237 159.483C107.857 159.636 107.441 159.485 107.248 159.125L104.039 153.116C103.401 151.923 102.381 151.071 101.089 150.653L94.5878 148.55C94.1974 148.424 93.976 148.042 94.0614 147.643L95.483 140.987C95.7654 139.664 95.5342 138.359 94.8144 137.212L91.1916 131.441C90.9742 131.095 91.0509 130.661 91.3744 130.41L96.7616 126.22C97.832 125.388 98.4976 124.241 98.6867 122.901L99.638 116.163C99.6937 115.768 100.018 115.489 100.415 115.489C100.424 115.489 100.434 115.489 100.444 115.489L107.276 115.727C108.631 115.773 109.885 115.321 110.894 114.416L115.974 109.862C116.279 109.589 116.722 109.589 117.027 109.862L122.107 114.416C123.117 115.32 124.367 115.774 125.725 115.727L132.557 115.489C132.965 115.47 133.306 115.758 133.363 116.162L134.315 122.901C134.504 124.24 135.169 125.388 136.24 126.22L141.627 130.41C141.95 130.661 142.027 131.095 141.81 131.441L138.187 137.212L138.187 137.212ZM146.032 129.456C145.726 128.513 145.147 127.649 144.307 126.996L138.919 122.806C138.735 122.663 138.658 122.53 138.625 122.299L137.673 115.56C137.306 112.96 135.038 111.066 132.405 111.16L125.573 111.397C125.337 111.404 125.193 111.353 125.019 111.196L119.939 106.643C117.978 104.886 115.022 104.886 113.062 106.643L107.981 111.197C107.807 111.353 107.661 111.405 107.427 111.397L100.595 111.16C97.9533 111.066 95.6941 112.96 95.3272 115.56L94.3759 122.299C94.3433 122.53 94.2663 122.663 94.0813 122.806L88.6941 126.996C87.8538 127.649 87.2744 128.513 86.9684 129.456H81.52C82.6478 111.233 97.8951 96.7482 116.479 96.7373C116.486 96.7373 116.493 96.7379 116.501 96.7379C116.508 96.7379 116.515 96.7373 116.522 96.7373C135.106 96.7487 150.353 111.233 151.481 129.456H146.032ZM154.217 120.279C152.184 113.592 148.4 107.655 143.4 102.996C147.188 100.522 151.652 99.1757 156.219 99.1735C156.223 99.1735 156.227 99.1738 156.23 99.1738H156.241C168.395 99.1794 178.409 108.462 179.51 120.28H154.217V120.279ZM130.387 128.112H130.38L122.236 128.128L119.735 120.414C119.28 119.012 117.98 118.07 116.501 118.07C115.021 118.07 113.722 119.012 113.266 120.414L110.765 128.128L102.622 128.112H102.615C101.138 128.112 99.8393 129.051 99.3828 130.45C98.9255 131.851 99.4236 133.372 100.623 134.236L107.22 138.988L104.688 146.692C104.229 148.092 104.724 149.614 105.921 150.481C107.118 151.346 108.726 151.345 109.922 150.477L116.501 145.7L123.08 150.477C123.679 150.911 124.381 151.129 125.083 151.129C125.785 151.129 126.483 150.913 127.08 150.481C128.277 149.615 128.773 148.093 128.313 146.692L125.782 138.988L132.379 134.236C133.578 133.372 134.076 131.851 133.619 130.449C133.162 129.051 131.863 128.112 130.387 128.112L130.387 128.112ZM122.667 135.884C121.465 136.749 120.967 138.273 121.428 139.676L123.257 145.243L118.503 141.791C117.904 141.356 117.202 141.138 116.501 141.138C115.799 141.138 115.097 141.356 114.498 141.791L109.744 145.243L111.573 139.675C112.034 138.273 111.536 136.749 110.335 135.884L105.568 132.45L111.453 132.461H111.459C112.939 132.461 114.238 131.52 114.693 130.118L116.501 124.544L118.308 130.118C118.764 131.52 120.063 132.462 121.543 132.462H121.549L127.433 132.45L122.667 135.884Z" fill="white"/>
</svg>
