<svg width="232" height="232" viewBox="0 0 232 232" fill="none" xmlns="http://www.w3.org/2000/svg">
<rect x="2" y="2" width="228" height="228" rx="114" stroke="white" stroke-width="4"/>
<path d="M85.4898 138.581C82.0567 138.581 79.2618 141.386 79.2618 144.834C79.2618 148.278 82.0567 151.08 85.4898 151.08C88.9228 151.08 91.7177 148.278 91.7177 144.834C91.7177 141.386 88.9228 138.581 85.4898 138.581ZM85.4898 146.846C84.3823 146.846 83.4806 145.943 83.4806 144.834C83.4806 143.72 84.3823 142.815 85.4898 142.815C86.5972 142.815 87.499 143.72 87.499 144.834C87.499 145.943 86.5972 146.846 85.4898 146.846ZM96.0499 94.3827H109.637C110.802 94.3827 111.746 93.4353 111.746 92.2655V78.6435C111.746 77.4737 110.802 76.5263 109.637 76.5263H96.0499C94.8845 76.5263 93.9405 77.4737 93.9405 78.6435V92.2655C93.9405 93.4353 94.8871 94.3827 96.0499 94.3827ZM98.1593 80.7634H107.528V90.1509H98.1593V80.7634ZM117.711 94.3827H131.293C132.458 94.3827 133.402 93.4353 133.402 92.2655V78.6435C133.402 77.4737 132.458 76.5263 131.293 76.5263H117.713C116.548 76.5263 115.604 77.4737 115.604 78.6435V92.2655C115.601 93.4353 116.545 94.3827 117.711 94.3827ZM119.82 80.7634H129.183V90.1509H119.823V80.7634H119.82ZM96.0499 116.09H109.637C110.802 116.09 111.746 115.143 111.746 113.973V100.359C111.746 99.1889 110.802 98.2415 109.637 98.2415H96.0499C94.8845 98.2415 93.9405 99.1889 93.9405 100.359V113.973C93.9405 115.143 94.8871 116.09 96.0499 116.09ZM98.1593 102.476H107.528V111.855H98.1593V102.476ZM117.711 116.09H131.293C132.458 116.09 133.402 115.143 133.402 113.973V100.359C133.402 99.1889 132.458 98.2415 131.293 98.2415H117.713C116.548 98.2415 115.604 99.1889 115.604 100.359V113.973C115.601 115.143 116.545 116.09 117.711 116.09ZM119.82 102.476H129.183V111.855H119.823V102.476H119.82ZM165.412 119.946H151.825C150.659 119.946 149.715 120.894 149.715 122.063V135.685C149.715 136.855 150.659 137.803 151.825 137.803H165.412C166.577 137.803 167.521 136.855 167.521 135.685V122.063C167.521 120.894 166.575 119.946 165.412 119.946ZM163.303 133.568H153.934V124.181H163.303V133.568ZM181.391 176.771H177.491V115.891C177.491 115.095 177.045 114.367 176.339 114.004L143.962 97.466V66.1781C143.962 65.0083 143.018 64.0609 141.853 64.0609H137.892V53.1173C137.892 51.9475 136.948 51 135.783 51H91.5595C90.3941 51 89.4501 51.9475 89.4501 53.1173V64.0582H85.4898C84.3243 64.0582 83.3804 65.0057 83.3804 66.1755V89.8094H61.4691C60.3036 89.8094 59.3597 90.7569 59.3597 91.9267V139.277L49.3664 146.589C48.9129 146.92 48.6097 147.42 48.5253 147.973C48.4383 148.529 48.578 149.095 48.9076 149.551L53.1449 155.357C53.5588 155.924 54.1996 156.223 54.8482 156.223C55.2806 156.223 55.7157 156.09 56.0901 155.815L59.3597 153.423V176.765H55.4599C54.2945 176.765 53.3505 177.713 53.3505 178.883C53.3505 180.053 54.2945 181 55.4599 181H181.391C182.556 181 183.5 180.053 183.5 178.883C183.5 177.713 182.556 176.771 181.391 176.771ZM153.932 150.215L154.414 149.553C154.744 149.101 154.881 148.532 154.796 147.979C154.712 147.425 154.409 146.925 153.955 146.594L153.932 146.579V145.898H163.3V155.278H153.932V150.215ZM149.763 148.765L148.023 151.152L119.082 129.966C118.713 129.696 118.275 129.558 117.84 129.558C117.405 129.558 116.967 129.693 116.598 129.966L107.752 136.442L105.247 134.605L117.84 125.393L149.763 148.765ZM93.6689 55.2345H133.674V64.0582H93.6689V55.2345ZM87.5992 68.2954H139.743V136.191L119.082 121.066C118.341 120.523 117.336 120.523 116.595 121.066L101.661 131.991L87.5992 121.701V68.2954ZM83.3804 111.855H72.8967V102.476H83.3804V111.855ZM63.5785 94.0466H83.3804V98.2415H70.7873C69.6219 98.2415 68.6779 99.1889 68.6779 100.359V113.973C68.6779 115.143 69.6219 116.09 70.7873 116.09H83.3804V121.701L63.5785 136.193V94.0466ZM55.3044 151.155L53.5588 148.765L85.4898 125.398L117.421 148.767L115.68 151.155L86.7317 129.966C85.9907 129.423 84.9861 129.423 84.2452 129.966L55.3044 151.155ZM79.2723 176.771V162.138H91.7072V176.771H79.2723ZM95.926 176.771V160.021C95.926 158.851 94.982 157.903 93.8166 157.903H77.1629C75.9975 157.903 75.0535 158.851 75.0535 160.021V176.771H63.5785V150.339L85.4898 134.298L107.401 150.334V176.771H95.926ZM111.622 176.771V153.423L114.9 155.82C115.841 156.509 117.16 156.302 117.845 155.36L122.075 149.553C122.404 149.101 122.541 148.532 122.457 147.976C122.37 147.42 122.067 146.923 121.616 146.592L111.33 139.065L117.84 134.298L139.746 150.334V176.771H111.622ZM143.962 176.771V153.423L147.24 155.82C147.614 156.096 148.049 156.228 148.481 156.228C148.919 156.228 149.352 156.088 149.715 155.826V157.393C149.715 158.562 150.659 159.51 151.825 159.51H165.412C166.577 159.51 167.521 158.562 167.521 157.393V143.779C167.521 142.609 166.577 141.661 165.412 141.661H151.825C150.754 141.661 149.871 142.463 149.737 143.503L143.965 139.279V102.217L173.275 117.188V176.771H143.962Z" fill="white"/>
</svg>
