<svg width="232" height="232" viewBox="0 0 232 232" fill="none" xmlns="http://www.w3.org/2000/svg">
<rect x="2" y="2" width="228" height="228" rx="114" stroke="white" stroke-width="4"/>
<path d="M97.6654 61.9244C97.6654 60.8579 98.5296 59.9937 99.5961 59.9937H120.779C121.845 59.9937 122.709 60.8579 122.709 61.9244C122.709 62.9909 121.845 63.8551 120.779 63.8551H99.5961C98.5298 63.8551 97.6654 62.9906 97.6654 61.9244ZM88.1793 72.492H120.779C121.845 72.492 122.71 71.6278 122.71 70.5613C122.71 69.4948 121.845 68.6306 120.779 68.6306H88.1793C87.1128 68.6306 86.2486 69.4948 86.2486 70.5613C86.2486 71.6278 87.1128 72.492 88.1793 72.492ZM120.779 77.268H92.4654C91.3989 77.268 90.5347 78.1322 90.5347 79.1987C90.5347 80.2652 91.3989 81.1294 92.4654 81.1294H120.779C121.845 81.1294 122.709 80.2652 122.709 79.1987C122.709 78.1322 121.845 77.268 120.779 77.268ZM81.8533 89.7665H120.779C121.845 89.7665 122.709 88.9023 122.709 87.8358C122.709 86.7693 121.845 85.9051 120.779 85.9051H81.8533C80.7868 85.9051 79.9226 86.7693 79.9226 87.8358C79.9226 88.9023 80.787 89.7665 81.8533 89.7665ZM81.8533 107.041H120.779C121.845 107.041 122.709 106.176 122.709 105.11C122.709 104.043 121.845 103.179 120.779 103.179H81.8533C80.7868 103.179 79.9226 104.043 79.9226 105.11C79.9226 106.176 80.787 107.041 81.8533 107.041ZM120.779 94.5423H92.4654C91.3989 94.5423 90.5347 95.4065 90.5347 96.473C90.5347 97.5395 91.3989 98.4037 92.4654 98.4037H120.779C121.845 98.4037 122.709 97.5395 122.709 96.473C122.709 95.4065 121.845 94.5423 120.779 94.5423ZM120.779 111.817H92.4654C91.3989 111.817 90.5347 112.681 90.5347 113.747C90.5347 114.814 91.3989 115.678 92.4654 115.678H120.779C121.845 115.678 122.709 114.814 122.709 113.747C122.709 112.681 121.845 111.817 120.779 111.817ZM81.8533 124.315H120.779C121.845 124.315 122.709 123.451 122.709 122.384C122.709 121.318 121.845 120.454 120.779 120.454H81.8533C80.7868 120.454 79.9226 121.318 79.9226 122.384C79.9226 123.451 80.787 124.315 81.8533 124.315ZM120.779 129.091H92.4654C91.3989 129.091 90.5347 129.955 90.5347 131.022C90.5347 132.088 91.3989 132.952 92.4654 132.952H120.779C121.845 132.952 122.709 132.088 122.709 131.022C122.709 129.955 121.845 129.091 120.779 129.091ZM77.4099 129.846C76.6 129.152 75.3813 129.246 74.6876 130.056L69.2147 136.441L66.7898 133.74C66.0777 132.947 64.857 132.88 64.0634 133.594C63.27 134.306 63.2043 135.527 63.9169 136.32L67.812 140.658C68.1783 141.066 68.7006 141.299 69.2484 141.299H69.2706C69.8264 141.292 70.3525 141.047 70.7142 140.625L77.6191 132.569C78.3129 131.759 78.2195 130.54 77.4099 129.846ZM77.4099 112.572C76.6 111.878 75.3813 111.972 74.6876 112.781L69.2147 119.166L66.7898 116.466C66.0777 115.673 64.857 115.607 64.0634 116.32C63.27 117.032 63.2043 118.253 63.9169 119.046L67.812 123.384C68.1783 123.792 68.7006 124.025 69.2484 124.025H69.2708C69.8264 124.018 70.3525 123.773 70.7142 123.351L77.6191 115.295C78.3132 114.485 78.2195 113.266 77.4099 112.572ZM77.4099 78.0235C76.6 77.3292 75.3813 77.4235 74.6876 78.2328L69.2147 84.6177L66.7898 81.9176C66.0777 81.1245 64.857 81.0578 64.0634 81.7711C63.27 82.4837 63.2043 83.7041 63.9169 84.4975L67.812 88.8354C68.1783 89.2434 68.7006 89.4761 69.2484 89.4761H69.2708C69.8264 89.4697 70.3525 89.2241 70.7142 88.8019L77.6191 80.7461C78.3132 79.9362 78.2195 78.7173 77.4099 78.0235ZM69.2484 106.75H69.2706C69.8264 106.743 70.3525 106.498 70.7142 106.076L77.6191 98.0201C78.3129 97.2105 78.2195 95.9916 77.4099 95.2978C76.6 94.6035 75.3813 94.6978 74.6876 95.5071L69.2147 101.892L66.7898 99.1916C66.0777 98.3985 64.857 98.3321 64.0634 99.0452C63.27 99.7575 63.2043 100.978 63.9169 101.772L67.812 106.109C68.1781 106.517 68.7006 106.75 69.2484 106.75ZM153.379 172.649V177.632C153.379 179.489 151.868 181 150.011 181H104.588C102.731 181 101.22 179.489 101.22 177.632V172.649C101.22 170.792 102.731 169.281 104.588 169.281H107.215V166.927C107.215 163.692 109.847 161.061 113.082 161.061H141.517C144.752 161.061 147.384 163.692 147.384 166.927V169.281H150.011C151.868 169.281 153.379 170.792 153.379 172.649ZM111.077 169.281H143.522V166.927C143.522 165.821 142.623 164.922 141.517 164.922H113.082C111.976 164.922 111.077 165.821 111.077 166.927V169.281ZM149.517 173.143H105.082V177.139H149.517V173.143ZM177.773 157.483C176.858 159.068 175.375 160.204 173.597 160.68C173.002 160.839 172.398 160.918 171.799 160.918C170.609 160.918 169.437 160.608 168.383 159.999L144.434 146.172L142.686 149.199C143.901 150.23 144.248 152.015 143.423 153.443L141.336 157.059C140.714 158.138 139.58 158.741 138.417 158.741C137.846 158.741 137.269 158.596 136.74 158.291L134.729 157.129H61.7849C60.7184 157.129 59.8542 156.265 59.8542 155.199V150.583H55.2386C54.172 150.583 53.3079 149.719 53.3079 148.652V71.2025C53.3079 70.6905 53.5112 70.1996 53.8732 69.8371L72.145 51.5653C72.5072 51.2034 72.9981 51 73.5101 51H130.894C131.96 51 132.824 51.8642 132.824 52.9307V57.5466H137.44C138.507 57.5466 139.371 58.4108 139.371 59.4773V113.067L156.98 123.234C158.586 124.161 159.139 126.223 158.211 127.829L156.124 131.446C155.675 132.222 154.95 132.778 154.081 133.011C153.79 133.089 153.495 133.128 153.202 133.128C152.819 133.128 152.442 133.055 152.081 132.926L151.307 134.266L175.257 148.094C178.539 149.988 179.668 154.201 177.773 157.483ZM139.37 147.219L148.707 131.048L134.049 122.585L124.713 138.756L139.37 147.219ZM154.619 126.329L135.179 115.105L133.588 117.86L153.028 129.084L154.619 126.329ZM132.824 61.408V111.863C133.567 111.235 134.55 110.958 135.51 111.105V61.408H132.824ZM59.8998 69.2718H71.5794V57.5919L59.8998 69.2718ZM57.1692 146.721H116.702L116.439 146.569C114.833 145.642 114.28 143.581 115.207 141.974L115.43 141.589H81.8535C80.787 141.589 79.9228 140.725 79.9228 139.659C79.9228 138.592 80.787 137.728 81.8535 137.728H117.769C118.679 136.768 120.085 136.425 121.34 136.874L128.963 123.671V54.8614H75.4408V71.2025C75.4408 72.269 74.5766 73.1332 73.5101 73.1332H57.1692V146.721ZM128.041 153.268L123.39 150.583H63.7156V153.268H128.041ZM139.831 151.943L120.39 140.719L118.8 143.474L138.24 154.698L139.831 151.943ZM173.326 151.437L149.376 137.61L146.364 142.827L170.314 156.654C171.006 157.054 171.817 157.159 172.598 156.949C173.379 156.74 174.029 156.244 174.428 155.552C175.259 154.114 174.764 152.268 173.326 151.437Z" fill="white"/>
</svg>
