<?xml version="1.0" encoding="UTF-8"?>
<svg id="Layer_1" data-name="Layer 1" xmlns="http://www.w3.org/2000/svg" version="1.1" viewBox="0 0 232 232">
  <defs>
    <style>
      .cls-1 {
        fill: #fff;
        stroke-width: 0px;
      }

      .cls-2 {
        fill: none;
        stroke: #fff;
        stroke-width: 4px;
      }
    </style>
  </defs>
  <path class="cls-2" d="M116,2h0c63,0,114,51,114,114h0c0,63-51,114-114,114h0c-63,0-114-51-114-114h0C2,53,53,2,116,2Z"/>
  <path class="cls-1" d="M175.7,96.8c-2.7-1.7-6.1-1.9-9-.5-.3.1-.5.3-.8.4-3.8,1.8-6.6,5.3-7.4,9.4,0,.2,0,.4-.1.6h-.9c-4.8,0-7.1-1.1-9.6-2.3-2.6-1.3-5.6-2.7-11.2-2.7s-8.6,1.4-11.2,2.7c-2.5,1.2-4.8,2.3-9.5,2.3s-7.1-1.1-9.5-2.3c-2.6-1.3-5.6-2.7-11.2-2.7s-8.6,1.4-11.2,2.7c-2.5,1.2-4.8,2.3-9.5,2.3s-.6,0-.9,0c0-.2-.1-.4-.1-.6-.9-4.1-3.6-7.6-7.4-9.3-.3-.1-.6-.3-.8-.4-2.9-1.4-6.3-1.2-9,.5-2.8,1.7-4.4,4.6-4.4,7.9v24.9h0v47.4c0,7.9,6.4,14.2,14.2,14.2h99.7c7.9,0,14.2-6.4,14.2-14.2v-72.2c0-3.2-1.6-6.2-4.4-7.9h0ZM85.7,107.6c2.5-1.2,4.8-2.3,9.5-2.3s7.1,1.1,9.5,2.3c2.6,1.3,5.6,2.7,11.2,2.7s8.6-1.4,11.2-2.7c2.5-1.2,4.8-2.3,9.5-2.3s7.1,1.1,9.5,2.3c2.6,1.3,5.5,2.7,11,2.7-5.7,17.9-22.3,30.2-41.3,30.2s-35.6-12.3-41.3-30.1c5.5,0,8.4-1.5,11-2.7h0ZM55.7,104.6c0-1.9,1-3.7,2.6-4.7s3.7-1.1,5.4-.3c.3.1.6.3.9.4,2.7,1.3,4.7,3.8,5.3,6.7.2.7.3,1.4.5,2.1,5.3,20.9,24.1,35.4,45.6,35.4s41.7-15.8,46.1-37.5c.6-2.9,2.6-5.4,5.3-6.7.3-.1.6-.3.9-.4,3.7-1.8,8,.9,8,5v45.6c-4.4.3-7,1.5-9.3,2.7-2.5,1.2-4.8,2.3-9.5,2.3s-7.1-1.1-9.6-2.3c-2.6-1.3-5.6-2.7-11.2-2.7s-8.6,1.4-11.2,2.7c-2.5,1.2-4.8,2.3-9.5,2.3s-7.1-1.1-9.5-2.3c-2.6-1.3-5.6-2.7-11.2-2.7s-8.6,1.4-11.2,2.7c-2.5,1.2-4.8,2.3-9.5,2.3s-7.1-1.1-9.5-2.3c-2.3-1.1-4.9-2.4-9.3-2.7v-17.1h0v-28.5h0ZM55.7,154c3.5.3,5.6,1.2,7.7,2.3,2.6,1.3,5.6,2.7,11.2,2.7s8.6-1.4,11.2-2.7c2.5-1.2,4.8-2.3,9.5-2.3s7.1,1.1,9.5,2.3c2.6,1.3,5.6,2.7,11.2,2.7s8.6-1.4,11.2-2.7c2.5-1.2,4.8-2.3,9.5-2.3s7.1,1.1,9.5,2.3c2.6,1.3,5.6,2.7,11.2,2.7s8.6-1.4,11.2-2.7c2.1-1,4.1-2,7.7-2.3v13.2c-4.4.3-7,1.5-9.3,2.7-2.5,1.2-4.8,2.3-9.5,2.3s-7.1-1.1-9.6-2.3c-2.6-1.3-5.6-2.7-11.2-2.7s-8.6,1.4-11.2,2.7c-2.5,1.2-4.8,2.3-9.5,2.3s-7.1-1.1-9.5-2.3c-2.6-1.3-5.6-2.7-11.2-2.7s-8.6,1.4-11.2,2.7c-2.5,1.2-4.8,2.3-9.5,2.3s-7.1-1.1-9.5-2.3c-2.3-1.1-4.9-2.4-9.3-2.7v-13.2h0ZM176.3,175.2h0c0,6.7-5.4,12.2-12.2,12.2h-96.3c-6.7,0-12.2-5.4-12.2-12.2h0v-4.2c3.5.3,5.6,1.2,7.7,2.3,2.6,1.3,5.6,2.7,11.2,2.7s8.6-1.4,11.2-2.7c2.5-1.2,4.8-2.3,9.5-2.3s7.1,1.1,9.5,2.3c2.6,1.3,5.6,2.7,11.2,2.7s8.6-1.4,11.2-2.7c2.5-1.2,4.8-2.3,9.5-2.3s7.1,1.1,9.5,2.3c2.6,1.3,5.6,2.7,11.2,2.7s8.6-1.4,11.2-2.7c2.1-1,4.1-2,7.7-2.3v4.2h0ZM73.4,100.1c.6,1.6,2,2.5,3.6,2.5s.7,0,1-.1l9.6-2.6c1.1-.3,1.9-1,2.4-2,.5-1,.6-2.1.2-3.1-3.8-10.1-1.6-21.1,5.8-28.6l1.5,2.6c.8,1.3,2.2,2.1,3.7,1.9s2.8-1.1,3.3-2.6l6.5-18.5c.4-1.1.3-2.2-.3-3.2-.6-1-1.5-1.6-2.6-1.9l-19.3-3.7c-1.5-.3-3,.3-3.8,1.6s-1,2.8-.2,4.1l2.3,4c-14.3,11.6-20,32.1-13.5,49.5h0ZM90.5,52.7c.8-.6,1-1.6.5-2.5l-3.1-5.4h0s0,0,0,0h0l19.3,3.7h0c0,0-6.5,18.6-6.5,18.6h0l-2.7-4.7c-.3-.5-.8-.8-1.3-.9-.6-.1-1.1,0-1.6.5-9.8,8.6-13.2,22.1-8.5,34.4h0q0,0,0,0l-9.6,2.6s0,0,0,0h0c-6.1-16.4-.4-35.8,13.6-46.2h0ZM119.1,58.3c10.5,1.7,19.1,9.3,21.9,19.3h-3c-1.5,0-2.9.9-3.5,2.2s-.4,3,.6,4.1l12.8,14.8c.7.9,1.8,1.3,2.9,1.3h0c1.1,0,2.2-.5,2.9-1.3l12.8-14.8c1-1.2,1.2-2.7.6-4.1s-2-2.2-3.5-2.2h-4.6c-1.4-8.6-5.5-16.8-11.7-23.3-6.6-6.9-15.3-11.6-24.4-13.2-2-.4-3.8.9-4.4,2.8l-2.6,9.6c-.3,1.1-.1,2.2.5,3.1.6.9,1.5,1.5,2.6,1.7h0ZM119.6,54.5l2.6-9.6s0,0,0,0c17.2,3,31.2,17.7,33.2,34.8.1,1,.9,1.7,1.9,1.7h6.3s0,0,0,0h0c0,0-12.8,14.9-12.8,14.9h0l-5.4-6.2h0l-7.5-8.6h0q0,0,0,0h5.4c.6,0,1.1-.3,1.5-.7s.5-1,.4-1.6c-1.2-6.3-4.3-11.9-9-16.3-4.6-4.4-10.4-7.2-16.6-8.2h0s0,0,0,0Z"/>
</svg>