<svg width="81" height="80" viewBox="0 0 81 80" fill="none" xmlns="http://www.w3.org/2000/svg">
<path d="M79.9871 0.28239C79.8274 0.1577 79.6414 0.0710468 79.4432 0.0290111C79.245 -0.0130245 79.0398 -0.00933657 78.8433 0.039795L68.6551 2.58683L63.763 0.140788C63.5779 0.0482283 63.3737 4.10368e-05 63.1667 4.10368e-05C62.9597 4.10368e-05 62.7555 0.0482283 62.5703 0.140788L57.731 2.56046L50.255 0.0684402C50.1191 0.023126 49.9767 1.64056e-05 49.8333 2.8762e-08H44.5C44.293 -7.01069e-06 44.0888 0.0481955 43.9036 0.140788L36.5 3.84261L29.0964 0.140788C28.9112 0.0481955 28.707 -7.01069e-06 28.5 2.8762e-08H23.1667C23.0068 -1.86861e-05 22.8482 0.0287328 22.6986 0.0848799L12.6343 3.85897L6.51937 0.190023C6.35442 0.0910632 6.17001 0.028959 5.9788 0.00797243C5.7876 -0.0130142 5.59411 0.00761363 5.41162 0.0684402L1.41162 1.40177C1.14615 1.49027 0.915256 1.66006 0.751642 1.88707C0.588028 2.11409 0.49999 2.38683 0.5 2.66667V78.6667C0.500004 79.0203 0.64048 79.3594 0.890528 79.6095C1.14058 79.8595 1.47971 80 1.83333 80H79.1667C79.5203 80 79.8594 79.8595 80.1095 79.6095C80.3595 79.3594 80.5 79.0203 80.5 78.6667V1.33333C80.5 1.1307 80.4538 0.930733 80.365 0.748627C80.2761 0.566521 80.1469 0.407069 79.9871 0.28239ZM5.67318 2.79216L11.814 6.47664C11.986 6.57987 12.1792 6.64293 12.379 6.66114C12.5788 6.67934 12.7802 6.65222 12.9681 6.58179L23.4084 2.66667H28.1852L35.9036 6.52588C36.0888 6.61844 36.293 6.66663 36.5 6.66663C36.707 6.66663 36.9112 6.61844 37.0964 6.52588L44.8148 2.66667H49.617L57.4116 5.26489C57.7472 5.3767 58.1133 5.35067 58.4297 5.19254L63.1667 2.82406L67.9036 5.19254C68.1884 5.33483 68.5146 5.37065 68.8234 5.29354L77.8333 3.04102V21.3333H64.9036L61.2396 18.8906C61.0206 18.7446 60.7632 18.6667 60.5 18.6667H48.5C48.1464 18.6667 47.8072 18.8072 47.5571 19.0572L45.2811 21.3333H43.1667C42.813 21.3333 42.4739 21.4738 42.2238 21.7239L39.9478 24H37.0523L32.1095 19.0572C31.8595 18.8071 31.5203 18.6667 31.1667 18.6667H28.5C28.2368 18.6667 27.9794 18.7446 27.7604 18.8906L20.5 23.7309L17.2396 21.5573C17.0597 21.4373 16.8532 21.3629 16.6381 21.3405C16.423 21.3181 16.2057 21.3483 16.0049 21.4287L10.1545 23.7688L6.77621 20.3905C6.52614 20.1405 6.18698 20 5.83333 20H3.16667V3.62769L5.67318 2.79216ZM77.8333 24V49.3333H71.383L59.5884 45.4018C59.4524 45.3565 59.31 45.3334 59.1667 45.3333H52.5C52.3304 45.3333 52.1624 45.3657 52.0049 45.4287L45.5765 48H35.7189L33.4429 45.7239C33.1928 45.4738 32.8536 45.3333 32.5 45.3333H28.5C28.1464 45.3333 27.8072 45.4738 27.5571 45.7239L24.1789 49.1021L11.6618 44.0954C11.5043 44.0324 11.3363 44 11.1667 44H5.83333C5.47969 44 5.14053 44.1405 4.89046 44.3905L3.16667 46.1143V22.6667H5.28109L8.89046 26.2761C9.07493 26.4607 9.30953 26.5871 9.56516 26.6395C9.82078 26.692 10.0862 26.6683 10.3285 26.5713L16.3439 24.1651L19.7604 26.4427C19.9794 26.5888 20.2368 26.6667 20.5 26.6667C20.7632 26.6667 21.0206 26.5888 21.2396 26.4427L28.9036 21.3333H30.6144L35.5571 26.2761C35.8072 26.5262 36.1464 26.6667 36.5 26.6667H40.5C40.8536 26.6667 41.1928 26.5262 41.4429 26.2761L43.7189 24H45.8333C46.187 24 46.5261 23.8595 46.7762 23.6095L49.0522 21.3333H60.0964L63.7604 23.776C63.9794 23.922 64.2368 24 64.5 24H77.8333ZM3.16667 77.3333V49.8857L6.38558 46.6667H10.9098L24.0049 51.9046C24.2472 52.0016 24.5126 52.0253 24.7682 51.9729C25.0238 51.9204 25.2584 51.794 25.4429 51.6095L29.0522 48H31.9477L34.2238 50.2761C34.4739 50.5262 34.813 50.6667 35.1667 50.6667H45.8333C46.0029 50.6667 46.171 50.6343 46.3285 50.5713L52.7568 48H58.9504L70.7449 51.9316C70.8809 51.9769 71.0233 52 71.1667 52H77.8333V77.3333H3.16667Z" fill="#555555"/>
<path d="M21.8333 61.3333H18.3856L16.1095 59.0572C15.8595 58.8072 15.5203 58.6667 15.1667 58.6667H12.5C12.1464 58.6667 11.8072 58.8072 11.5571 59.0572L7.55713 63.0572C7.35927 63.2551 7.22868 63.5102 7.18388 63.7864C7.13907 64.0627 7.1823 64.346 7.30746 64.5963L11.3075 72.5963C11.4182 72.8178 11.5884 73.004 11.799 73.1342C12.0097 73.2644 12.2524 73.3334 12.5 73.3333H15.1667C15.4694 73.3333 15.7632 73.2303 15.9997 73.0412L22.6663 67.7078C22.8225 67.5829 22.9485 67.4245 23.0351 67.2442C23.1217 67.064 23.1667 66.8666 23.1667 66.6667V62.6667C23.1667 62.313 23.0262 61.9739 22.7761 61.7239C22.5261 61.4738 22.187 61.3333 21.8333 61.3333ZM20.5 66.0258L14.6989 70.6667H13.3241L10.1224 64.2633L13.0522 61.3333H14.6144L16.8905 63.6095C17.1405 63.8595 17.4797 64 17.8333 64H20.5V66.0258Z" fill="#555555"/>
<path d="M27.8431 62.4936C28.0484 62.6098 28.2809 62.6695 28.5169 62.6666C28.7528 62.6636 28.9837 62.5981 29.186 62.4766L35.8527 58.4766C36.0265 58.3724 36.1742 58.2299 36.2846 58.0601C36.395 57.8902 36.4653 57.6974 36.4901 57.4963C36.5148 57.2952 36.4934 57.091 36.4275 56.8995C36.3616 56.7079 36.2528 56.5338 36.1095 56.3905L32.1095 52.3905C31.8595 52.1405 31.5203 52 31.1667 52C30.813 52 30.4739 52.1405 30.2238 52.3905L27.5571 55.0572C27.3071 55.3073 27.1667 55.6464 27.1667 56V61.3333C27.1667 61.5693 27.2293 61.801 27.3481 62.0048C27.467 62.2087 27.6378 62.3773 27.8431 62.4936ZM29.8333 56.5522L31.1667 55.2189L33.0163 57.0686L29.8333 58.9784V56.5522Z" fill="#555555"/>
<path d="M45.6925 63.4037C45.569 63.1572 45.3721 62.9549 45.129 62.8248C44.8858 62.6946 44.6083 62.643 44.3346 62.6769L33.668 64.0103C33.4722 64.0348 33.2844 64.1024 33.1179 64.2082C32.9515 64.3141 32.8106 64.4556 32.7054 64.6225C32.6002 64.7893 32.5333 64.9775 32.5097 65.1733C32.486 65.3692 32.506 65.5678 32.5684 65.755L35.235 73.755C35.2917 73.925 35.3821 74.0819 35.5008 74.2162C35.6195 74.3505 35.764 74.4595 35.9258 74.5367C36.0876 74.6139 36.2633 74.6577 36.4424 74.6654C36.6215 74.6732 36.8003 74.6447 36.9681 74.5818L47.6348 70.5818C47.8097 70.5162 47.969 70.4145 48.1021 70.2834C48.2353 70.1523 48.3394 69.9947 48.4077 69.8207C48.476 69.6468 48.507 69.4604 48.4986 69.2737C48.4903 69.0871 48.4428 68.9042 48.3592 68.7371L45.6925 63.4037ZM37.3273 71.599L35.6126 66.4547L43.7293 65.44L45.3117 68.6049L37.3273 71.599Z" fill="#555555"/>
<path d="M53.2396 63.776L57.2396 61.1094C57.4222 60.9876 57.572 60.8227 57.6756 60.6291C57.7791 60.4356 57.8333 60.2195 57.8333 60V58.6667C57.8333 58.4002 57.7535 58.1398 57.6041 57.9191C57.4547 57.6985 57.2426 57.5277 56.9951 57.4287L50.3285 54.762C50.0179 54.6378 49.6721 54.6348 49.3594 54.7537C49.0468 54.8725 48.7903 55.1046 48.6408 55.4037L47.3074 58.0704C47.1823 58.3207 47.1391 58.604 47.1839 58.8802C47.2287 59.1564 47.3593 59.4116 47.5571 59.6095L51.5571 63.6095C51.7751 63.8274 52.0618 63.9631 52.3686 63.9935C52.6753 64.0239 52.9831 63.947 53.2396 63.776ZM50.1224 58.4034L50.4772 57.6936L54.9014 59.4633L52.6699 60.9509L50.1224 58.4034Z" fill="#555555"/>
<path d="M74.5343 61.5325C74.341 61.413 74.1203 61.3449 73.8932 61.3347C73.6662 61.3245 73.4403 61.3725 73.237 61.4741L65.237 65.4741C65.0623 65.5615 64.909 65.6861 64.7878 65.8392C64.6666 65.9924 64.5805 66.1703 64.5357 66.3603C64.4908 66.5504 64.4882 66.748 64.5281 66.9392C64.568 67.1303 64.6494 67.3104 64.7666 67.4666L68.7666 72.8C68.9345 73.0239 69.1686 73.1893 69.4357 73.2728C69.7029 73.3562 69.9895 73.3535 70.2551 73.2649L74.2551 71.9316C74.5205 71.8431 74.7514 71.6733 74.915 71.4463C75.0786 71.2192 75.1667 70.9465 75.1667 70.6667V62.6667C75.1667 62.4394 75.1086 62.2159 74.9979 62.0174C74.8872 61.8189 74.7277 61.652 74.5343 61.5325ZM72.5 69.7057L70.3234 70.4312L67.8586 67.1448L72.5 64.8241V69.7057Z" fill="#555555"/>
<path d="M9.83333 52H12.5V54.6667H9.83333V52Z" fill="#555555"/>
<path d="M20.5 72H23.1667V74.6667H20.5V72Z" fill="#555555"/>
<path d="M27.1667 69.3333H29.8333V72H27.1667V69.3333Z" fill="#555555"/>
<path d="M39.1667 56H41.8333V58.6667H39.1667V56Z" fill="#555555"/>
<path d="M56.5 66.6667H59.1667V69.3333H56.5V66.6667Z" fill="#555555"/>
<path d="M63.1667 53.3333H65.8333V56H63.1667V53.3333Z" fill="#555555"/>
<path d="M68.5 56H71.1667V58.6667H68.5V56Z" fill="#555555"/>
<path d="M52.5 70.6667H55.1667V73.3333H52.5V70.6667Z" fill="#555555"/>
<path d="M8.5 37.3333H12.5V40H8.5V37.3333Z" fill="#555555"/>
<path d="M13.8333 29.3333H17.8333V32H13.8333V29.3333Z" fill="#555555"/>
<path d="M5.83333 14.6667H9.83333V17.3333H5.83333V14.6667Z" fill="#555555"/>
<path d="M44.5 30.6667H48.5V33.3333H44.5V30.6667Z" fill="#555555"/>
<path d="M48.5 36H52.5V38.6667H48.5V36Z" fill="#555555"/>
<path d="M61.8333 29.3333H65.8333V32H61.8333V29.3333Z" fill="#555555"/>
<path d="M64.5 37.3333H68.5V40H64.5V37.3333Z" fill="#555555"/>
<path d="M19.1667 37.3333H21.8333V40H19.1667V37.3333Z" fill="#555555"/>
<path d="M33.8333 38.6667H36.5V41.3333H33.8333V38.6667Z" fill="#555555"/>
<path d="M55.1667 12H57.8333V14.6667H55.1667V12Z" fill="#555555"/>
<path d="M68.5 8H71.1667V10.6667H68.5V8Z" fill="#555555"/>
<path d="M69.8333 16H72.5V18.6667H69.8333V16Z" fill="#555555"/>
<path d="M32.5 9.33333H35.1667V12H32.5V9.33333Z" fill="#555555"/>
<path d="M35.1667 16H37.8333V18.6667H35.1667V16Z" fill="#555555"/>
<path d="M71.1667 40H73.8333V42.6667H71.1667V40Z" fill="#555555"/>
<path d="M25.8333 30.6667H29.8333V33.3333H25.8333V30.6667Z" fill="#555555"/>
<path d="M48.5 8H52.5V10.6667H48.5V8Z" fill="#555555"/>
<path d="M15.3007 9.13283H17.9673V11.7995H15.3007V9.13283Z" fill="#555555"/>
</svg>
