<svg width="121" height="121" viewBox="0 0 121 121" fill="none" xmlns="http://www.w3.org/2000/svg">
<circle cx="60.4" cy="60.2563" r="58.5" stroke="white" stroke-width="3"/>
<path d="M91.4504 74.9106V72.6512C91.4504 72.2351 91.1112 71.8981 90.6924 71.8981H89.1765V71.145H90.6924C91.1112 71.145 91.4504 70.8079 91.4504 70.3918V68.1325C91.4504 67.7164 91.1112 67.3793 90.6924 67.3793H89.1765C87.0864 67.3793 85.3867 69.0682 85.3867 71.145V71.8981H84.6288C84.21 71.8981 83.8708 72.2351 83.8708 72.6512V74.9106H82.3549V65.12C82.3549 63.8745 81.3345 62.8606 80.081 62.8606H73.2073C73.1126 62.1526 72.8786 61.4852 72.5384 60.878L73.7967 59.6278C73.9852 59.4414 74.06 59.1703 73.9956 58.9133L73.2377 55.9008C73.1837 55.688 73.0387 55.5082 72.8416 55.4094L69.8098 53.9031C69.7662 53.8814 69.7207 53.8796 69.6753 53.8673L69.68 53.8532L58.0653 46.8877L58.1231 46.7983L58.5968 45.3514C58.5798 44.8891 58.45 44.426 58.1951 44.0042C57.5669 42.9658 56.3466 42.4462 55.1557 42.7088C52.41 43.317 48.7263 45.2337 48.7263 45.2337L45.0266 49.7129C44.3889 49.5651 43.54 49.7543 42.9242 50.0932L41.2671 51.0064L38.1548 49.6206C37.9368 49.5237 37.6858 49.535 37.4773 49.6489L34.1632 51.4743C34.0192 51.5533 33.9055 51.6767 33.8392 51.8254L32.2901 55.2615C32.1565 55.5572 32.2276 55.9045 32.4692 56.1239C32.7098 56.3432 33.0641 56.3856 33.3493 56.2284L36.3897 54.5536L37.8468 54.9688L39.0122 57.0578L38.5944 58.5056L35.554 60.1804C35.2679 60.3376 35.1173 60.6577 35.1769 60.9768C35.1921 61.0578 35.2196 61.135 35.2584 61.2037C35.3721 61.4071 35.5768 61.5511 35.8174 61.585L39.5712 62.1009C39.7332 62.1235 39.899 62.0924 40.0421 62.0133L43.3562 60.1879C43.5647 60.0731 43.7068 59.8669 43.7399 59.6325L44.207 56.2754L45.8641 55.3623C46.5197 55.0008 46.8011 54.5094 47.0901 53.8805L53.1556 52.2999L54.0339 51.3914L66.0551 65.9013C64.8755 67.3304 64.1659 69.1567 64.1659 71.1459V79.5687C63.2857 79.8803 62.65 80.7087 62.65 81.6897C62.65 82.9352 63.6704 83.9491 64.9238 83.9491H67.9557V85.4553H64.1659C61.2402 85.4553 58.8602 87.8211 58.8602 90.7272C58.8602 93.6333 61.2402 95.9991 64.1659 95.9991H89.9364C92.8621 95.9991 95.242 93.6333 95.242 90.7272C95.242 87.8211 92.8621 85.4553 89.9364 85.4553H86.1466V83.9491H93.7261C94.9796 83.9491 96 82.9352 96 81.6897V79.4303C96 76.9384 93.9602 74.9115 91.4523 74.9115L91.4504 74.9106ZM42.2894 59.0526L39.5267 60.5739L38.2751 60.4016L39.6006 59.6711C39.7768 59.5741 39.9066 59.4122 39.9615 59.2202L40.5527 57.1726C40.6086 56.9806 40.585 56.7744 40.4874 56.6002L39.0179 53.9652C38.9203 53.7911 38.7573 53.6612 38.5641 53.6066L36.5034 53.0191C36.3101 52.9636 36.1035 52.9871 35.9273 53.0841L34.6018 53.8146L35.1182 52.6689L37.881 51.1476L40.7631 52.4298L42.7224 55.9422L42.2904 59.0507L42.2894 59.0526ZM45.1279 54.0443L43.8025 54.7748L42.333 52.1398L43.6585 51.4093C44.3899 51.0064 45.3658 51.2436 45.7192 51.9968C46.0726 52.7499 45.8594 53.6414 45.1279 54.0443ZM86.9026 71.145C86.9026 69.8995 87.923 68.8856 89.1765 68.8856H89.9345V69.6387H89.1765C88.3409 69.6387 87.6606 70.3146 87.6606 71.145V71.8981H86.9026V71.145ZM85.3867 73.4044H89.9345V74.9106H85.3867V73.4044ZM80.081 64.3668C80.4989 64.3668 80.839 64.7039 80.839 65.12V79.4294H68.7117V77.17C68.7117 76.3397 69.392 75.6637 70.2276 75.6637H77.0492C78.3027 75.6637 79.3231 74.6498 79.3231 73.4044V67.3793C79.3231 66.1339 78.3027 65.12 77.0492 65.12H69.391C70.3252 64.6417 71.3807 64.3668 72.5015 64.3668H80.081ZM84.6288 83.9481V85.4544H69.4697V83.9481H84.6288ZM69.3901 56.4185L69.8089 55.5863L71.8506 56.6002L72.42 58.8634L71.6166 59.6617C71.1883 59.2333 70.6938 58.8615 70.1291 58.5791L67.6259 56.6671L67.6837 56.5522L68.7127 56.8346C68.9997 56.8346 69.2622 56.6737 69.391 56.4185H69.3901ZM68.383 55.0507L68.2437 55.3284L67.2148 55.046C66.9277 55.046 66.6652 55.2069 66.5364 55.4621L66.2692 55.993L56.6337 48.7197L57.2922 48.0824L57.4135 47.8941L68.383 55.0497V55.0507ZM52.5398 50.916L47.326 52.1577C47.2834 51.8885 47.2161 51.6192 47.0939 51.3594C46.9376 51.0252 46.7197 50.7419 46.4695 50.4971L49.5383 46.5093C49.5383 46.5093 52.9046 44.7498 55.4854 44.1784C56.0378 44.056 56.6043 44.2979 56.8952 44.779C57.1605 45.2177 57.1434 45.7533 56.8668 46.1676L56.4177 45.8983C56.3447 45.7684 56.412 46.176 56.4925 46.5997L52.5398 50.916ZM54.9094 50.482L55.7829 49.5783L69.4517 59.9272C70.51 60.9448 71.4536 61.6255 71.6763 62.902C69.95 63.0715 68.3801 63.7681 67.1238 64.8244L54.9094 50.4811V50.482ZM67.4317 66.6262H77.0492C77.4671 66.6262 77.8072 66.9632 77.8072 67.3793V73.4044C77.8072 73.8205 77.4671 74.1575 77.0492 74.1575H70.2276C68.5554 74.1575 67.1958 75.5084 67.1958 77.17V79.4294H65.6799V71.145C65.6799 69.4081 66.346 67.8265 67.4317 66.6262ZM64.9219 82.4419C64.5041 82.4419 64.164 82.1048 64.164 81.6887C64.164 81.2726 64.5041 80.9356 64.9219 80.9356H80.839V82.4419H64.9219ZM89.9345 87.0849C91.9554 87.0849 93.5992 88.7182 93.5992 90.7262C93.5992 92.7343 91.9554 94.3676 89.9345 94.3676H64.164C62.1431 94.3676 60.4993 92.7343 60.4993 90.7262C60.4993 88.7182 62.1431 87.0849 64.164 87.0849H89.9345ZM94.4822 81.6887C94.4822 82.1048 94.1421 82.4419 93.7242 82.4419H82.3549V76.4169H91.4504C93.1226 76.4169 94.4822 77.7678 94.4822 79.4294V81.6887Z" fill="white"/>
<path d="M69.0907 62.8606C69.7179 62.8606 70.2276 62.3541 70.2276 61.7309C70.2276 61.1077 69.7179 60.6012 69.0907 60.6012C68.4635 60.6012 67.9538 61.1077 67.9538 61.7309C67.9538 62.3541 68.4635 62.8606 69.0907 62.8606ZM69.0907 61.3543C69.3001 61.3543 69.4697 61.5238 69.4697 61.7309C69.4697 61.938 69.3001 62.1075 69.0907 62.1075C68.8813 62.1075 68.7117 61.938 68.7117 61.7309C68.7117 61.5238 68.8813 61.3543 69.0907 61.3543Z" fill="white"/>
<path d="M66.6482 91.4794C66.9116 91.9275 67.3948 92.2325 67.9538 92.2325C68.5128 92.2325 68.996 91.9275 69.2593 91.4794H72.7137C72.9771 91.9275 73.4603 92.2325 74.0193 92.2325C74.5783 92.2325 75.0615 91.9275 75.3249 91.4794H78.7793C79.0427 91.9275 79.5258 92.2325 80.0848 92.2325C80.6438 92.2325 81.127 91.9275 81.3904 91.4794H84.8448C85.1082 91.9275 85.5914 92.2325 86.1504 92.2325C86.7094 92.2325 87.1907 91.9275 87.4531 91.4794H89.1794C89.5981 91.4794 89.9373 91.1423 89.9373 90.7262C89.9373 90.3101 89.5981 89.9731 89.1794 89.9731H87.4531C87.1897 89.525 86.7065 89.22 86.1475 89.22C85.5885 89.22 85.1053 89.525 84.842 89.9731H81.3876C81.1242 89.525 80.641 89.22 80.082 89.22C79.523 89.22 79.0398 89.525 78.7764 89.9731H75.322C75.0587 89.525 74.5755 89.22 74.0165 89.22C73.4575 89.22 72.9743 89.525 72.7109 89.9731H69.2565C68.9931 89.525 68.5099 89.22 67.9509 89.22C67.3919 89.22 66.9087 89.525 66.6453 89.9731H64.921C64.5022 89.9731 64.163 90.3101 64.163 90.7262C64.163 91.1423 64.5022 91.4794 64.921 91.4794H66.6482Z" fill="white"/>
<path d="M78.5651 77.17H74.7754V78.6762H78.5651V77.17Z" fill="white"/>
<path d="M84.6288 77.17H83.1129V81.6887H84.6288V77.17Z" fill="white"/>
<path d="M86.9026 77.17H85.3867V81.6887H86.9026V77.17Z" fill="white"/>
<path d="M89.1765 77.17H87.6606V81.6887H89.1765V77.17Z" fill="white"/>
<path d="M53.7232 45.3834C53.186 45.7044 53.0116 46.4001 53.3338 46.9339C53.6559 47.4676 54.357 47.6409 54.8942 47.3208C55.4314 46.9998 55.6057 46.3041 55.2836 45.7703C54.9615 45.2365 54.2604 45.0633 53.7232 45.3834ZM54.5039 46.675C54.3248 46.7814 54.0917 46.7239 53.9837 46.546C53.8757 46.3681 53.9344 46.1356 54.1135 46.0292C54.2926 45.9228 54.5256 45.9802 54.6337 46.1581C54.7417 46.3361 54.6829 46.5686 54.5039 46.675Z" fill="white"/>
<path d="M31.4033 77.0231H36.9932C38.7649 77.0231 40.2761 75.6807 40.3974 73.924C40.531 71.9885 38.9743 70.3617 37.0538 70.3617H31.4639C29.6922 70.3617 28.181 71.7042 28.0597 73.4608C27.9262 75.3964 29.4828 77.0231 31.4033 77.0231ZM31.4033 72.5834H37.0538C37.7047 72.5834 38.2306 73.1445 38.1652 73.8045C38.1083 74.3787 37.5986 74.8042 37.0188 74.8042H31.4383C30.8575 74.8042 30.3488 74.3787 30.2919 73.8045C30.2266 73.1445 30.7524 72.5834 31.4033 72.5834Z" fill="white"/>
<path d="M46.0564 78.2592H31.4649C29.6931 78.2592 28.182 79.5696 28.0607 81.283C27.9271 83.1715 29.4838 84.7577 31.4042 84.7577H45.9958C47.7675 84.7577 49.2787 83.4473 49.4 81.7339C49.5336 79.8455 47.9769 78.2592 46.0564 78.2592ZM47.1678 81.6162C47.1109 82.1764 46.6012 82.5915 46.0214 82.5915H31.4383C30.8575 82.5915 30.3488 82.1764 30.2919 81.6162C30.2266 80.9723 30.7524 80.4254 31.4033 80.4254H46.0564C46.7073 80.4254 47.2332 80.9723 47.1678 81.6162Z" fill="white"/>
<path d="M32.7164 42.5987C32.5269 42.1082 31.9765 41.8634 31.4923 42.0517L27.0602 43.7397C26.8233 43.8338 26.6329 44.0127 26.5287 44.2396C26.4245 44.4664 26.415 44.7206 26.5097 44.956L28.2085 49.3599C28.3506 49.7374 28.7116 49.9633 29.0915 49.9633C29.2052 49.9633 29.3189 49.9351 29.4335 49.8974L33.8657 48.2095C34.3593 48.0212 34.6056 47.4836 34.4161 46.9932L32.7174 42.5893V42.5987H32.7164ZM29.6515 47.8037L28.6263 45.1631L31.2839 44.1445L32.309 46.7851L29.6515 47.8037Z" fill="white"/>
<path d="M40.6011 43.348L46.0754 44.4363C46.154 44.4589 46.2204 44.4589 46.299 44.4589C46.5112 44.4589 46.7234 44.3921 46.9139 44.2706C47.1593 44.1153 47.3383 43.8602 47.3942 43.5712L48.4895 38.1317V38.1204C48.6126 37.5207 48.2214 36.9324 47.6178 36.81L42.1435 35.7217C41.8526 35.6662 41.5513 35.7217 41.306 35.8883C41.0606 36.055 40.8815 36.3101 40.8256 36.5991L39.7304 42.0385C39.6072 42.6382 39.9985 43.2266 40.602 43.349L40.6011 43.348ZM42.7906 38.1308L46.0754 38.786L45.416 42.0498L42.1312 41.3946L42.7906 38.1308Z" fill="white"/>
<path d="M58.5362 65.2188C58.125 64.6502 57.5613 64.2407 56.899 64.0279C56.935 63.3793 56.7559 62.7391 56.3713 62.2063C55.9061 61.5577 55.1993 61.1397 54.3939 61.0239C53.5981 60.9175 52.8013 61.1124 52.14 61.584C51.2901 62.18 50.8249 63.1129 50.8249 64.0637C50.2081 64.1616 49.5999 64.4017 49.0712 64.7745V64.7829C47.3004 66.0454 46.8438 68.445 48.0603 70.1339C48.7851 71.1384 49.9391 71.6712 51.1281 71.6712C51.942 71.6712 52.7653 71.4227 53.4806 70.9153C53.7127 70.7468 53.9278 70.5594 54.1154 70.3467C55.2249 70.8447 56.5844 70.7289 57.6399 69.9823C59.2145 68.8621 59.6172 66.7204 58.5343 65.2179L58.5362 65.2188ZM56.6043 68.5429C55.9421 69.0136 55.0572 68.9967 54.4934 68.4893C54.3238 68.3386 54.1173 68.2586 53.8937 68.2586C53.8397 68.2586 53.7952 68.2671 53.7412 68.2671C53.473 68.3113 53.24 68.4714 53.1064 68.7114C52.9368 69.0221 52.7132 69.28 52.4441 69.4674C51.4692 70.1603 50.1627 69.9917 49.5194 69.0936C48.8751 68.1955 49.1432 66.9068 50.1096 66.2224C50.6013 65.8665 51.1916 65.7338 51.7733 65.8317C52.1135 65.8759 52.4441 65.7516 52.6412 65.4852C52.8468 65.2188 52.8733 64.863 52.7302 64.5608C52.4706 64.0364 52.6582 63.3878 53.1774 63.0235C53.4636 62.8192 53.8122 62.7297 54.1438 62.7834C54.466 62.8276 54.7341 62.9877 54.9131 63.2372C55.1453 63.5657 55.1813 63.9931 55.0022 64.3838C54.8771 64.6596 54.9037 64.9797 55.0647 65.2282C55.2258 65.4862 55.5034 65.6368 55.8075 65.6368C56.3353 65.6368 56.8005 65.8674 57.0781 66.2591C57.5878 66.9698 57.3737 67.9922 56.6043 68.5429Z" fill="white"/>
<path d="M29.1237 38.5902C30.236 38.5902 31.3606 38.2503 32.3384 37.5575C32.6558 37.3268 32.9495 37.0717 33.2063 36.7798C34.7222 37.4595 36.5792 37.3023 38.0221 36.2818C40.1728 34.7521 40.7233 31.8252 39.2443 29.772C38.6825 28.9944 37.9122 28.4362 37.0074 28.1443C37.0567 27.2575 36.8122 26.3829 36.2864 25.6543C35.6507 24.7675 34.6852 24.197 33.5852 24.0388C32.4976 23.8929 31.4099 24.1603 30.5051 24.8042C29.3435 25.6176 28.7087 26.8932 28.7087 28.1923C27.8655 28.326 27.0346 28.6536 26.3136 29.1639V29.1761C23.8929 30.9026 23.2695 34.1816 24.9313 36.489C25.9214 37.8615 27.4979 38.5902 29.1237 38.5902ZM27.731 31.1455C28.4037 30.6598 29.2099 30.4771 30.0039 30.6108C30.4682 30.672 30.921 30.5016 31.1892 30.1373C31.4705 29.773 31.5065 29.2872 31.3114 28.8739C30.957 28.1575 31.2138 27.2707 31.9225 26.7727C32.3138 26.4931 32.7903 26.3717 33.2423 26.4451C33.6819 26.5063 34.0485 26.7247 34.293 27.0645C34.6104 27.5136 34.6596 28.0973 34.4152 28.631C34.2437 29.0076 34.2807 29.4444 34.5005 29.7852C34.7203 30.1373 35.0993 30.3434 35.5152 30.3434C36.2362 30.3434 36.8719 30.6588 37.2509 31.1935C37.9473 32.1651 37.6545 33.5621 36.6028 34.3143C35.698 34.9582 34.4882 34.9337 33.7188 34.2418C33.4867 34.0356 33.2053 33.9264 32.9002 33.9264C32.8273 33.9264 32.7657 33.9387 32.6927 33.9387C32.3261 33.9999 32.0087 34.2183 31.8249 34.5459C31.5928 34.9714 31.2867 35.3235 30.9201 35.5786C29.588 36.5257 27.803 36.295 26.9238 35.0684C26.0436 33.8417 26.4102 32.0813 27.73 31.1455H27.731Z" fill="white"/>
<path d="M51.888 74.2921C51.3252 73.8073 50.5795 73.5898 49.8434 73.6943L45.3913 74.326V72.3208L42.3709 69.3186L45.0105 68.3377C45.4378 68.1786 45.7855 67.8482 45.9626 67.4292C46.1398 67.0113 46.136 66.533 45.9513 66.1179L44.9385 63.8397C44.7376 63.3887 44.3482 63.0517 43.8716 62.9161C43.3951 62.7806 42.8853 62.8625 42.4761 63.1411C41.702 63.6664 41.0397 64.0703 40.585 64.3188L40.5234 64.0628C40.3926 63.5168 40.0212 63.0733 39.5049 62.8474C38.9885 62.6205 38.4087 62.6469 37.9141 62.919L36.0742 63.9329C35.9643 63.9931 35.8392 64.0232 35.7132 64.0204L34.1281 63.512L34.0315 63.4989C33.8117 63.4678 33.6175 63.336 33.5104 63.1458C33.4744 63.0809 33.4488 63.0103 33.4346 62.9312C33.3901 62.693 33.4715 62.4539 33.6525 62.291C34.2314 61.7714 34.3707 60.9326 33.9917 60.2519L33.2953 59.0046C32.9145 58.3221 32.1262 57.9945 31.3796 58.2082C31.1446 58.2759 30.8888 58.2147 30.7097 58.0519C30.4862 57.8485 30.4198 57.5275 30.5449 57.2517L31.3834 55.3915C31.6089 54.8916 31.5681 54.3164 31.2754 53.8523C30.9826 53.3881 30.4786 53.102 29.9272 53.086L28.0531 53.0332H28.0209C26.1838 53.0332 24.6897 54.5178 24.6897 56.3432V92.69C24.6897 94.5154 26.1838 96 28.0209 96H49.4436C51.2806 96 52.7748 94.5154 52.7748 92.69V76.221C52.7748 75.4811 52.4517 74.7788 51.8899 74.294L51.888 74.2921ZM46.0564 93.7519H31.4033V89.3245C31.4033 88.7135 31.9064 88.2146 32.5203 88.2146H44.9385C45.5534 88.2146 46.0555 88.7145 46.0555 89.3245V93.7519H46.0564ZM50.5123 92.6872C50.5123 93.2737 50.0319 93.7519 49.4407 93.7519H48.2905V89.3245C48.2905 87.4925 46.7822 85.9938 44.9385 85.9938H32.5213C30.6775 85.9938 29.1692 87.4925 29.1692 89.3245V93.7519H28.019C27.4288 93.7519 26.9474 93.2746 26.9474 92.6872V56.3404C26.9474 55.7577 27.4212 55.2832 28.0057 55.2757L28.9437 55.302L28.4804 56.3291C27.9555 57.4889 28.2369 58.8455 29.1806 59.705C29.7291 60.2039 30.4397 60.4788 31.1825 60.4788C31.2962 60.4788 31.409 60.4722 31.5217 60.4591L31.8059 60.9693C31.2773 61.6302 31.0508 62.501 31.2091 63.3369C31.2668 63.6514 31.3758 63.9526 31.5312 64.2313C31.9613 65.0032 32.7316 65.5474 33.6061 65.7027L35.2262 66.2224L35.3238 66.2355C35.9567 66.3221 36.6104 66.2016 37.1666 65.8947L38.4646 65.1802L38.4902 65.2857C38.6247 65.8486 38.9582 66.324 39.4291 66.6253C40.1444 67.0828 40.9687 66.6855 41.8943 66.1602C42.3311 65.9126 42.7887 65.6255 43.1544 65.3873L43.6272 66.4511L41.0028 67.4264L40.873 67.5234C40.368 67.8999 40.0534 68.4742 40.0099 69.0955C39.9644 69.7216 40.1956 70.3344 40.6409 70.7759L43.1288 73.249V74.4258C43.1288 75.0499 43.4008 75.644 43.8802 76.0582C44.2752 76.3971 44.7802 76.5835 45.3013 76.5835C45.4055 76.5835 45.5098 76.576 45.6093 76.5618L50.1617 75.9151C50.2764 75.8991 50.3578 75.9452 50.4062 75.9866C50.4545 76.0281 50.5123 76.1024 50.5123 76.2173V92.6872Z" fill="white"/>
</svg>
