<svg width="114" height="80" viewBox="0 0 114 80" fill="none" xmlns="http://www.w3.org/2000/svg">
<path d="M109.192 58.2155H108.103C107.486 55.8088 105.879 53.7372 103.678 52.5731C102.622 52.0145 101.487 51.6821 100.305 51.5855C99.5084 51.5205 98.7337 51.1616 98.123 50.5752C97.2827 49.7682 96.3415 49.0726 95.3256 48.5075C95.0054 48.3293 94.7975 48.0124 94.7697 47.6595C94.24 40.9816 90.595 37.5675 87.6662 34.8243C87.1293 34.3212 86.622 33.8461 86.1642 33.3786C85.2525 32.4474 84.7514 31.1986 84.7531 29.8603V29.8332C84.7531 28.2188 84.473 26.6352 83.9205 25.1269C83.6064 24.2698 82.6624 23.8311 81.8107 24.1472C80.9593 24.4632 80.5239 25.4143 80.8378 26.2713C81.2557 27.4122 81.4675 28.6105 81.4675 29.833V29.8579C81.4647 32.0703 82.3018 34.1452 83.8246 35.7008C84.3323 36.2193 84.8648 36.7179 85.4284 37.2459C88.2004 39.8423 91.0666 42.527 91.4944 47.9222C91.6102 49.3849 92.4485 50.6859 93.7365 51.4025C94.506 51.8305 95.2189 52.3574 95.8555 52.9688C97.0089 54.0764 98.4947 54.7562 100.039 54.8825C100.777 54.9427 101.487 55.1512 102.15 55.5014C103.29 56.1046 104.157 57.0592 104.648 58.2151H89.0884C88.1809 58.2151 87.4456 58.9557 87.4456 59.8692C87.4456 60.7827 88.1809 61.5233 89.0884 61.5233H109.192C109.521 61.5233 109.789 61.7928 109.789 62.1241V63.9097C105.947 64.1141 102.216 65.2648 98.9313 67.2742C95.8086 69.1844 92.2159 70.1941 88.541 70.1941C84.8666 70.1941 81.2737 69.1844 78.1506 67.2742C77.3749 66.8 76.3647 67.0481 75.8936 67.8291C75.4226 68.6099 75.6695 69.6273 76.4449 70.1017C80.0818 72.3264 84.2647 73.5023 88.541 73.5023C92.8174 73.5023 97.0002 72.3264 100.637 70.1017C103.408 68.4067 106.549 67.4226 109.789 67.2219V76.091C109.789 76.422 109.521 76.6915 109.192 76.6915H41.5855C43.3687 73.2344 47.2885 71.335 51.2073 72.2653C52.0907 72.4748 52.9752 71.9239 53.1833 71.0346C53.3914 70.1453 52.8442 69.2548 51.9613 69.045C45.9957 67.6304 40.029 70.962 38.0138 76.6913H4.80753C4.47853 76.6913 4.21086 76.4218 4.21086 76.0907V62.1239C4.21086 61.7926 4.47853 61.5231 4.80753 61.5231H8.4664C10.8307 66.5036 17.4359 69.8233 25.0794 69.8233C32.7132 69.8233 39.3267 66.5012 41.6915 61.5231H81.8624C82.7699 61.5231 83.5052 60.7825 83.5052 59.869C83.5052 58.9554 82.7699 58.2148 81.8624 58.2148H28.8522C27.9447 58.2148 27.2094 58.9554 27.2094 59.869C27.2094 60.7825 27.9447 61.5231 28.8522 61.5231H37.8337C35.4589 64.5301 30.5443 66.5151 25.0792 66.5151C19.6064 66.5151 14.6955 64.531 12.3228 61.5231H21.6255C22.533 61.5231 23.2684 60.7825 23.2684 59.869C23.2684 58.9554 22.533 58.2148 21.6255 58.2148H9.35483C9.41003 58.0867 9.46829 57.9594 9.53335 57.8346C10.1298 56.6913 11.0671 55.8197 12.2438 55.3137C15.1743 54.0537 17.5748 52.2891 19.3784 50.0686C20.8469 48.2607 22.7402 46.8112 24.8536 45.8772C26.4475 45.1728 27.4768 43.5956 27.4755 41.848L27.4753 41.8323C27.4753 36.6745 30.0784 31.9706 34.4386 29.2492C36.9431 27.6861 38.824 25.4634 39.8776 22.8221C39.9048 22.754 39.9324 22.6863 39.9615 22.6163C41.1071 19.8634 43.0218 17.5529 45.4978 15.9352C49.0973 13.5837 51.8382 10.3616 53.4247 6.61734C53.5485 6.32511 53.6994 6.03949 53.8731 5.76844C55.2887 3.55984 58.5838 2.63948 60.924 3.79869C62.2135 4.43741 63.1924 5.53267 63.6807 6.88222C64.3338 8.68875 65.7528 10.112 67.5735 10.7873C68.5819 11.1611 69.4546 11.8215 70.0966 12.697C70.6379 13.435 70.9912 14.3011 71.1189 15.2023C71.4404 17.4713 72.9584 19.4195 75.0809 20.2862C75.7735 20.5692 76.4377 20.9307 77.0549 21.3612C77.801 21.8817 78.8245 21.694 79.341 20.943C79.8575 20.192 79.6718 19.1616 78.9257 18.6413C78.1103 18.0725 77.2323 17.5946 76.3161 17.2203C75.2734 16.7947 74.5285 15.8423 74.3717 14.7352C74.1675 13.2934 73.6032 11.9092 72.7398 10.7319C71.7155 9.33519 70.3218 8.28074 68.7092 7.68282C67.7976 7.34472 67.09 6.6405 66.7683 5.75035C65.9885 3.5949 64.428 1.84748 62.3745 0.830296C58.5704 -1.05431 53.4129 0.385443 51.1125 3.97469C50.838 4.40278 50.5993 4.85513 50.4028 5.31917C49.0737 8.45629 46.759 11.1675 43.7095 13.1598C40.6769 15.141 38.3329 17.9689 36.932 21.3358C36.8971 21.4194 36.8632 21.5032 36.829 21.5879C36.038 23.5713 34.6127 25.248 32.7077 26.4372C27.3739 29.7662 24.1896 35.5212 24.1896 41.8447L24.1899 41.8616C24.1903 42.2842 23.9323 42.6711 23.533 42.8477C20.9465 43.9908 18.6306 45.7636 16.8351 47.974C15.3704 49.777 13.3915 51.2227 10.9534 52.271C9.1003 53.0678 7.56285 54.4972 6.62448 56.2958C6.30468 56.9087 6.06088 57.5516 5.89178 58.2146H4.80753C2.66683 58.2155 0.925232 59.9689 0.925232 62.1243V76.0912C0.925232 78.2464 2.66683 80 4.80753 80H109.192C111.333 80 113.075 78.2464 113.075 76.0912V62.1243C113.075 59.9689 111.333 58.2155 109.192 58.2155Z" fill="#555555"/>
<path d="M64.0311 66.5155C64.0283 66.5155 64.0259 66.5155 64.0232 66.5155C63.1195 66.5155 62.385 67.251 62.3807 68.1619C62.3763 69.0754 63.1085 69.8196 64.0158 69.8238H64.0467C64.9504 69.8238 65.6849 69.0882 65.6893 68.1774C65.6937 67.2638 64.9614 66.5197 64.0541 66.5155H64.0311Z" fill="#555555"/>
<path d="M37.14 35.7206H37.1633C38.0708 35.7206 38.8061 34.98 38.8061 34.0665C38.8061 33.153 38.0708 32.4123 37.1633 32.4123H37.14C36.2326 32.4123 35.4972 33.153 35.4972 34.0665C35.4972 34.98 36.2326 35.7206 37.14 35.7206Z" fill="#555555"/>
<path d="M34.3234 44.2487H34.3002C34.2975 44.2487 34.2951 44.2487 34.2925 44.2487C33.3887 44.2487 32.6541 44.9842 32.6499 45.8953C32.6457 46.8088 33.3778 47.5527 34.2853 47.5569H34.3162C35.2199 47.5569 35.9546 46.8214 35.9588 45.9103C35.9627 44.9968 35.2307 44.2528 34.3234 44.2487Z" fill="#555555"/>
<path d="M40.6005 39.5203C41.5042 39.5203 42.2387 38.7847 42.2431 37.8738C42.2474 36.9603 41.5152 36.2162 40.6079 36.212H40.5849C40.5821 36.212 40.5797 36.212 40.577 36.212C39.6733 36.212 38.9388 36.9475 38.9344 37.8584C38.93 38.7719 39.6623 39.5161 40.5696 39.5203H40.6005Z" fill="#555555"/>
<path d="M68.3171 45.9074C67.4096 45.9074 66.6743 46.648 66.6743 47.5616C66.6743 48.4751 67.4096 49.2157 68.3171 49.2157H68.3401C69.2476 49.2157 69.9829 48.4751 69.9829 47.5616C69.9829 46.648 69.2476 45.9074 68.3401 45.9074H68.3171Z" fill="#555555"/>
<path d="M75.6416 30.4276C76.5454 30.4276 77.2799 29.6921 77.2842 28.7812C77.2886 27.8677 76.5564 27.1235 75.6491 27.1193H75.6261C75.6233 27.1193 75.6208 27.1193 75.6182 27.1193C74.7144 27.1193 73.98 27.8549 73.9756 28.7657C73.9712 29.6793 74.7035 30.4234 75.6108 30.4276H75.6416Z" fill="#555555"/>
<path d="M63.4649 16.7881C64.3687 16.7881 65.1031 16.0525 65.1075 15.1416C65.1119 14.2281 64.3796 13.484 63.4724 13.4798H63.4494C63.4465 13.4798 63.4441 13.4798 63.4415 13.4798C62.5377 13.4798 61.8033 14.2153 61.7989 15.1262C61.7945 16.0397 62.5267 16.7839 63.434 16.7881H63.4649Z" fill="#555555"/>
<path d="M56.5622 25.7257C56.8812 26.0358 57.2923 26.1899 57.7032 26.1899C58.1334 26.1899 58.563 26.0208 58.8852 25.6846C59.5154 25.0276 59.4972 23.9802 58.8444 23.3459C57.3663 21.9086 55.4217 21.1173 53.3688 21.1173C51.3164 21.1173 49.3718 21.9086 47.8935 23.3457C47.2407 23.9802 47.2225 25.0274 47.8525 25.6846C48.4825 26.3417 49.5227 26.3602 50.1752 25.7259C51.0378 24.8874 52.172 24.4255 53.3686 24.4255C54.5659 24.4255 55.6999 24.8874 56.5622 25.7257Z" fill="#555555"/>
<path d="M38.697 52.6153C39.1077 52.6153 39.5191 52.4611 39.838 52.1512C41.1829 50.8436 42.9514 50.1235 44.8181 50.1235C46.6846 50.1235 48.4533 50.8436 49.7985 52.1512C50.451 52.786 51.4912 52.767 52.1212 52.1102C52.7514 51.453 52.7332 50.4058 52.0802 49.7713C50.1196 47.865 47.5401 46.8152 44.8179 46.8152C42.0952 46.8152 39.516 47.865 37.5553 49.7713C36.9028 50.4058 36.8844 51.453 37.5146 52.1102C37.8375 52.4463 38.267 52.6153 38.697 52.6153Z" fill="#555555"/>
<path d="M77.8711 39.9272C78.3013 39.9272 78.7308 39.758 79.053 39.4219C79.6832 38.7647 79.665 37.7175 79.012 37.083C76.435 34.5777 73.0456 33.1982 69.468 33.1982C66.1484 33.1982 62.992 34.3876 60.4951 36.56C58.7879 36.0322 56.9629 36.1028 55.2824 36.774C54.4391 37.111 54.0268 38.0723 54.3613 38.9215C54.696 39.7708 55.6508 40.1861 56.4943 39.8489C57.6084 39.4036 58.832 39.4109 59.9388 39.869C61.0456 40.3273 61.92 41.1885 62.401 42.2944C62.6711 42.9152 63.2741 43.2853 63.9067 43.2853C64.1269 43.2853 64.3505 43.2405 64.5652 43.1459C65.3962 42.7793 65.7747 41.8038 65.4107 40.9671C64.9732 39.9616 64.3441 39.0756 63.5679 38.3463C65.2957 37.1524 67.3373 36.5064 69.468 36.5064C72.1898 36.5064 74.7688 37.5565 76.7301 39.4629C77.049 39.773 77.4604 39.9272 77.8711 39.9272Z" fill="#555555"/>
</svg>
