<svg width="233" height="232" viewBox="0 0 233 232" fill="none" xmlns="http://www.w3.org/2000/svg">
<rect x="2.5" y="2" width="228" height="228" rx="114" stroke="#555555" stroke-width="4"/>
<path d="M172.82 36.5H136.98C132.746 36.5 129.3 39.9518 129.3 44.1935V49.3226C123.653 49.3226 119.06 53.9233 119.06 59.5806C119.06 65.238 123.653 69.8387 129.3 69.8387V82.6613H149.78V77.5323C149.78 74.7036 152.076 72.4032 154.9 72.4032C157.724 72.4032 160.02 74.7036 160.02 77.5323V82.6613H172.82C177.054 82.6613 180.5 79.2094 180.5 74.9677V44.1935C180.5 39.9518 177.054 36.5 172.82 36.5ZM175.38 74.9677C175.38 76.3808 174.233 77.5323 172.82 77.5323H165.14C165.14 71.8749 160.547 67.2742 154.9 67.2742C149.253 67.2742 144.66 71.8749 144.66 77.5323H134.42V64.7097H129.3C126.476 64.7097 124.18 62.4093 124.18 59.5806C124.18 56.752 126.476 54.4516 129.3 54.4516H134.42V44.1935C134.42 42.7805 135.567 41.629 136.98 41.629H172.82C174.233 41.629 175.38 42.7805 175.38 44.1935V74.9677Z" fill="#555555"/>
<path d="M129.3 87.7903C123.653 87.7903 119.06 92.3911 119.06 98.0484H108.82V85.2258H103.7C100.876 85.2258 98.58 82.9254 98.58 80.0968C98.58 77.2681 100.876 74.9677 103.7 74.9677H108.82V51.8871H101.957C74.6875 51.8871 52.5 74.1138 52.5 101.431C52.5 116.351 59.1125 130.328 70.6402 139.776L80.66 147.99V154.942C77.6878 156.004 75.54 158.825 75.54 162.164C75.54 165.711 77.9592 168.675 81.2232 169.56C80.8674 170.445 80.66 171.406 80.66 172.419C80.66 175.81 82.8744 178.661 85.9182 179.685C86.9781 188.578 94.5429 195.5 103.7 195.5C112.857 195.5 120.422 188.578 121.482 179.685C124.526 178.661 126.74 175.81 126.74 172.419C126.74 171.406 126.533 170.445 126.177 169.557C129.441 168.67 131.86 165.708 131.86 162.161C131.86 158.822 129.712 156.001 126.74 154.94V147.987L136.76 139.773C148.288 130.328 154.9 116.351 154.9 101.431V98.0484H139.54C139.54 92.3911 134.947 87.7903 129.3 87.7903ZM101.957 57.0161H103.7V69.8387C98.0526 69.8387 93.46 74.4394 93.46 80.0968C93.46 85.7541 98.0526 90.3548 103.7 90.3548V98.0484H93.46C93.46 92.3911 88.8674 87.7903 83.22 87.7903C77.5726 87.7903 72.98 92.3911 72.98 98.0484H57.748C59.4786 75.1319 78.6453 57.0161 101.957 57.0161ZM73.8811 135.806C63.997 127.704 58.1448 115.892 57.6558 103.177H78.1V98.0484C78.1 95.2197 80.3963 92.9194 83.22 92.9194C86.0437 92.9194 88.34 95.2197 88.34 98.0484V103.177H103.7V113.435C98.0526 113.435 93.46 118.036 93.46 123.694C93.46 129.351 98.0526 133.952 103.7 133.952V154.468H85.78V145.559L73.8811 135.806ZM103.7 190.371C97.5202 190.371 92.349 185.957 91.1586 180.113H116.241C115.051 185.957 109.88 190.371 103.7 190.371ZM119.06 174.984H88.34C86.9269 174.984 85.78 173.832 85.78 172.419C85.78 171.006 86.9269 169.855 88.34 169.855H119.06C120.473 169.855 121.62 171.006 121.62 172.419C121.62 173.832 120.473 174.984 119.06 174.984ZM124.18 164.726H83.22C81.8069 164.726 80.66 163.574 80.66 162.161C80.66 160.748 81.8069 159.597 83.22 159.597H124.18C125.593 159.597 126.74 160.748 126.74 162.161C126.74 163.574 125.593 164.726 124.18 164.726ZM133.519 135.806L121.62 145.559V154.468H108.82V128.823H103.7C100.876 128.823 98.58 126.522 98.58 123.694C98.58 120.865 100.876 118.565 103.7 118.565H108.82V103.177H124.18V98.0484C124.18 95.2197 126.476 92.9194 129.3 92.9194C132.124 92.9194 134.42 95.2197 134.42 98.0484V103.177H149.744C149.255 115.892 143.403 127.704 133.519 135.806Z" fill="#555555"/>
</svg>
