<svg width="232" height="232" viewBox="0 0 232 232" fill="none" xmlns="http://www.w3.org/2000/svg">
<rect x="2" y="2" width="228" height="228" rx="114" stroke="#555555" stroke-width="4"/>
<path fill-rule="evenodd" clip-rule="evenodd" d="M153.917 59.125C153.917 63.6046 157.562 67.25 162.042 67.25C166.521 67.25 170.167 63.6046 170.167 59.125C170.167 54.6454 166.521 51 162.042 51C157.562 51 153.917 54.6454 153.917 59.125ZM159.333 59.125C159.333 57.63 160.552 56.4167 162.042 56.4167C163.531 56.4167 164.75 57.63 164.75 59.125C164.75 60.62 163.531 61.8333 162.042 61.8333C160.552 61.8333 159.333 60.62 159.333 59.125Z" fill="#555555"/>
<path fill-rule="evenodd" clip-rule="evenodd" d="M110.583 99.75H118.708C121.698 99.75 124.125 97.3179 124.125 94.3333V86.2083C124.125 83.2238 121.698 80.7917 118.708 80.7917H110.583V72.6667H121.417C122.912 72.6667 124.125 71.4533 124.125 69.9583C124.125 68.4633 122.912 67.25 121.417 67.25H110.583C107.593 67.25 105.167 69.6821 105.167 72.6667V94.3333C105.167 97.3179 107.593 99.75 110.583 99.75ZM110.583 94.3333V86.2083H118.708V94.3333H110.583Z" fill="#555555"/>
<path fill-rule="evenodd" clip-rule="evenodd" d="M107.875 148.5C103.395 148.5 99.75 144.855 99.75 140.375C99.75 135.895 103.395 132.25 107.875 132.25C112.355 132.25 116 135.895 116 140.375C116 144.855 112.355 148.5 107.875 148.5ZM107.875 137.667C106.385 137.667 105.167 138.88 105.167 140.375C105.167 141.87 106.385 143.083 107.875 143.083C109.365 143.083 110.583 141.87 110.583 140.375C110.583 138.88 109.365 137.667 107.875 137.667Z" fill="#555555"/>
<path fill-rule="evenodd" clip-rule="evenodd" d="M70.0519 174.941C82.537 178.927 99.5391 181 116 181C147.509 181 181 173.406 181 159.333V105.167C181 100.947 177.864 94.8533 162.908 89.8213C161.5 89.3338 159.956 90.1083 159.48 91.5221C159.003 92.9358 159.761 94.4742 161.18 94.9508C170.199 97.9896 175.583 101.808 175.583 105.167C175.583 109.73 168.792 113.334 159.333 115.977V107.55C159.333 106.055 158.12 104.842 156.625 104.842C155.13 104.842 153.917 106.055 153.917 107.55V117.327C141.674 120.052 126.723 121.417 116 121.417C103.981 121.417 89.6681 119.974 78.0833 117.348V109.121C78.0833 107.626 76.87 106.412 75.375 106.412C73.88 106.412 72.6667 107.626 72.6667 109.121V115.972C63.083 113.246 56.4167 109.58 56.4167 105.167C56.4167 102.491 60.3871 98.3471 71.5454 94.745C72.9754 94.2846 73.75 92.7571 73.2896 91.3379C72.8292 89.9187 71.3017 89.1279 69.8825 89.5938C57.5271 93.5804 51 98.9646 51 105.167V159.333C51 165.924 58.346 171.094 69.3938 174.728C69.6048 174.828 69.826 174.899 70.0519 174.941ZM116 126.833C115.466 126.833 71.932 126.435 56.4167 114.603V159.333C56.4167 162.439 61.1622 166.104 69.8465 169.167L87.4921 151.669C90.3413 148.825 94.8046 148.83 97.6538 151.674L108.444 161.977C108.855 162.388 109.365 162.632 109.7 162.578C110.166 162.573 110.621 162.35 111.022 161.939L126.985 145.369C129.888 142.471 134.184 142.325 137.028 145.012L163.772 168.572C171.426 165.637 175.583 162.24 175.583 159.333V114.603C160.068 126.435 116.534 126.833 116 126.833ZM157.827 170.546L133.382 149.009C132.456 148.159 131.486 148.533 130.853 149.161L114.917 165.703C113.487 167.166 111.65 167.973 109.738 167.989C107.637 168.043 106.044 167.242 104.658 165.844L93.8675 155.542C93.0604 154.729 92.0746 154.745 91.3162 155.498L75.7141 170.975C85.7768 173.683 99.4581 175.583 116 175.583C133.402 175.583 147.639 173.48 157.827 170.546Z" fill="#555555"/>
<path fill-rule="evenodd" clip-rule="evenodd" d="M143.083 99.75H134.958C131.968 99.75 129.542 97.3179 129.542 94.3333V72.6667C129.542 69.6821 131.968 67.25 134.958 67.25H143.083C146.073 67.25 148.5 69.6821 148.5 72.6667V94.3333C148.5 97.3179 146.073 99.75 143.083 99.75ZM132.25 94.3333L134.958 94.3388V94.3333H143.083V72.6667H134.958V94.3333H132.25Z" fill="#555555"/>
<path d="M86.2083 99.75H94.3333C97.3233 99.75 99.75 97.3179 99.75 94.3333V86.2083C99.75 85.2227 99.4854 84.2974 99.0232 83.5C99.4854 82.7026 99.75 81.7773 99.75 80.7917V72.6667C99.75 69.6821 97.3233 67.25 94.3333 67.25H86.2083C84.7133 67.25 83.5 68.4633 83.5 69.9583C83.5 71.4533 84.7133 72.6667 86.2083 72.6667H94.3333V80.7917H86.2083C84.7133 80.7917 83.5 82.005 83.5 83.5C83.5 84.995 84.7133 86.2083 86.2083 86.2083H94.3333V94.3333H86.2083C84.7133 94.3333 83.5 95.5467 83.5 97.0417C83.5 98.5367 84.7133 99.75 86.2083 99.75Z" fill="#555555"/>
</svg>
