<svg width="232" height="232" viewBox="0 0 232 232" fill="none" xmlns="http://www.w3.org/2000/svg">
<rect x="2" y="2" width="228" height="228" rx="114" stroke="white" stroke-width="4"/>
<path fill-rule="evenodd" clip-rule="evenodd" d="M105.759 134.392H86.9486C85.6945 134.392 84.8585 133.556 84.8585 132.302V112.238C84.8585 110.984 85.6945 110.148 86.9486 110.148H105.759C107.013 110.148 107.849 110.984 107.849 112.238V132.302C107.849 133.556 107.013 134.392 105.759 134.392ZM89.0386 130.212H103.669V114.328H89.0386V130.212Z" fill="white"/>
<path d="M115.582 114.328H144.215C145.469 114.328 146.305 113.492 146.305 112.238C146.305 110.984 145.469 110.148 144.215 110.148H115.582C114.328 110.148 113.492 110.984 113.492 112.238C113.492 113.492 114.328 114.328 115.582 114.328Z" fill="white"/>
<path d="M144.215 125.196H115.582C114.328 125.196 113.492 124.36 113.492 123.106C113.492 121.852 114.328 121.016 115.582 121.016H144.215C145.469 121.016 146.305 121.852 146.305 123.106C146.305 124.36 145.469 125.196 144.215 125.196Z" fill="white"/>
<path d="M115.582 135.855H144.215C145.469 135.855 146.305 135.019 146.305 133.765C146.305 132.511 145.469 131.675 144.215 131.675H115.582C114.328 131.675 113.492 132.511 113.492 133.765C113.492 135.019 114.328 135.855 115.582 135.855Z" fill="white"/>
<path d="M144.215 146.514H86.9486C85.6945 146.514 84.8585 145.678 84.8585 144.424C84.8585 143.17 85.6945 142.334 86.9486 142.334H144.215C145.469 142.334 146.305 143.17 146.305 144.424C146.305 145.678 145.469 146.514 144.215 146.514Z" fill="white"/>
<path d="M86.9486 157.174H144.215C145.469 157.174 146.305 156.338 146.305 155.084C146.305 153.83 145.469 152.994 144.215 152.994H86.9486C85.6945 152.994 84.8585 153.83 84.8585 155.084C84.8585 156.338 85.6945 157.174 86.9486 157.174Z" fill="white"/>
<path d="M86.9486 168.46C85.9035 168.46 84.8585 167.624 84.8585 166.37C84.8585 165.116 85.6945 164.28 86.9486 164.28L144.215 163.862C145.469 163.862 146.305 164.698 146.305 165.952C146.305 167.206 145.469 168.042 144.215 168.042L86.9486 168.46Z" fill="white"/>
<path fill-rule="evenodd" clip-rule="evenodd" d="M144.215 82.9775H107.013C105.759 82.9775 104.923 82.1415 104.923 80.8875V66.6752C104.923 65.4212 105.759 64.5852 107.013 64.5852H144.215C145.469 64.5852 146.305 65.4212 146.305 66.6752V80.8875C146.305 82.1415 145.469 82.9775 144.215 82.9775ZM109.103 78.7974H142.125V68.7653H109.103V78.7974Z" fill="white"/>
<path fill-rule="evenodd" clip-rule="evenodd" d="M107.013 104.296H119.135C120.389 104.296 121.225 103.46 121.225 102.206V91.3376C121.225 90.0836 120.389 89.2476 119.135 89.2476H107.013C105.759 89.2476 104.923 90.0836 104.923 91.3376V102.206C104.923 103.46 105.759 104.296 107.013 104.296ZM117.045 100.116H109.103V93.4277H117.045V100.116Z" fill="white"/>
<path d="M144.215 93.4277H128.749C127.495 93.4277 126.659 92.5916 126.659 91.3376C126.659 90.0836 127.495 89.2476 128.749 89.2476H144.215C145.469 89.2476 146.305 90.0836 146.305 91.3376C146.305 92.5916 145.469 93.4277 144.215 93.4277Z" fill="white"/>
<path d="M128.749 103.878H144.215C145.469 103.878 146.305 103.042 146.305 101.788C146.305 100.534 145.469 99.6977 144.215 99.6977H128.749C127.495 99.6977 126.659 100.534 126.659 101.788C126.659 103.042 127.495 103.878 128.749 103.878Z" fill="white"/>
<path fill-rule="evenodd" clip-rule="evenodd" d="M49.119 81.9325C49.119 95.0226 59.0941 105.666 71.9003 106.718V174.103C71.9003 178.074 74.8264 181 78.7974 181H152.576C156.338 181 159.264 177.865 159.264 174.103V170.132H175.148C179.328 170.132 182.881 166.579 182.881 162.399V146.305C182.881 145.051 182.045 144.215 180.791 144.215H171.177V59.1511C171.177 57.0611 170.341 54.9711 168.878 53.508C167.621 52.251 165.901 51.4568 164.116 51.2581C163.808 51.091 163.44 51 163.026 51H78.7974C75.082 51 72.2814 53.5614 71.9362 57.1436C59.1128 58.1792 49.119 68.8302 49.119 81.9325ZM67.9623 79.8424C68.0669 76.575 68.4127 73.7115 68.9006 71.2733H79.0801C79.568 73.7115 79.9138 76.575 80.0184 79.8424H67.9623ZM63.7832 79.8424C63.8788 76.8988 64.1762 73.9844 64.6695 71.2733H56.2187C54.6978 73.8187 53.709 76.7249 53.4015 79.8424H63.7832ZM73.9904 61.2412C75.0862 61.2412 76.6991 63.2521 77.9857 67.0932H69.9951C71.2816 63.2521 72.8945 61.2412 73.9904 61.2412ZM84.1976 79.8424C84.1019 76.8988 83.8045 73.9844 83.3112 71.2733H91.7621C93.2829 73.8187 94.2717 76.7249 94.5792 79.8424H84.1976ZM82.3434 67.0932H88.4615C86.2365 64.9238 83.5193 63.2563 80.4854 62.2662C81.2072 63.6691 81.8273 65.301 82.3434 67.0932ZM59.5192 67.0932H65.6373C66.1534 65.301 66.7735 63.6691 67.4953 62.2662C64.4614 63.2563 61.7442 64.9238 59.5192 67.0932ZM53.4015 84.0225H63.7832C63.8739 86.8154 64.1463 89.5821 64.5953 92.1736H55.9755C54.5924 89.7299 53.6923 86.9707 53.4015 84.0225ZM59.1026 96.3537C61.4014 98.7273 64.2693 100.546 67.4953 101.599C66.7178 100.088 66.0583 98.3105 65.5197 96.3537H59.1026ZM69.8587 96.3537C71.1651 100.464 72.8534 102.621 73.9883 102.624H73.9924C75.1273 102.621 76.8156 100.464 78.122 96.3537H69.8587ZM82.4611 96.3537C81.9224 98.3105 81.2629 100.088 80.4854 101.599C83.7114 100.546 86.5793 98.7273 88.8781 96.3537H82.4611ZM92.0052 92.1736H83.3854C83.8345 89.5821 84.1068 86.8154 84.1976 84.0225H94.5792C94.2884 86.9707 93.3883 89.7299 92.0052 92.1736ZM68.8191 92.1736C68.3743 89.828 68.061 87.1051 67.9623 84.0225H80.0184C79.9197 87.1051 79.6064 89.828 79.1616 92.1736H68.8191ZM98.8617 81.9325C98.8617 95.0226 88.8866 105.666 76.0804 106.718V174.103C76.0804 175.775 77.1254 176.82 78.7974 176.82H152.576C154.039 176.82 155.084 175.566 155.084 174.103V59.1511C155.084 58.6864 155.198 58.2791 155.407 57.9504C155.572 56.9472 155.91 56.0135 156.39 55.1801H78.7974C77.3897 55.1801 76.4264 55.9209 76.157 57.153C88.9264 58.2415 98.8617 68.8685 98.8617 81.9325ZM175.148 165.952C177.029 165.952 178.701 164.28 178.701 162.399V148.395H171.177L171.177 161.981L171.177 161.988V162.399C171.177 164.489 172.64 165.952 174.73 165.952H175.148ZM167.898 165.952C167.324 164.88 166.997 163.668 166.997 162.399V146.305L166.997 146.299V59.1511C166.997 58.1061 166.579 57.0611 165.952 56.4341C165.325 55.8071 164.28 55.3891 163.235 55.3891C161.145 55.3891 159.473 57.0611 159.473 59.3601V165.952H167.898Z" fill="white"/>
</svg>
