<svg width="232" height="232" viewBox="0 0 232 232" fill="none" xmlns="http://www.w3.org/2000/svg">
<rect x="2" y="2" width="228" height="228" rx="114" stroke="white" stroke-width="4"/>
<path d="M163.977 136.724H107.116C106.064 136.724 105.211 137.577 105.211 138.629C105.211 139.681 106.064 140.534 107.116 140.534H163.977C165.03 140.534 165.883 139.681 165.883 138.629C165.882 137.577 165.03 136.724 163.977 136.724Z" fill="white"/>
<path d="M163.977 147.138H107.116C106.064 147.138 105.211 147.991 105.211 149.043C105.211 150.095 106.064 150.948 107.116 150.948H163.977C165.03 150.948 165.883 150.095 165.883 149.043C165.882 147.991 165.03 147.138 163.977 147.138Z" fill="white"/>
<path d="M107.116 157.552H148.928C149.98 157.552 150.833 158.405 150.833 159.457C150.833 160.509 149.98 161.362 148.928 161.362H107.116C106.064 161.362 105.211 160.509 105.211 159.457C105.211 158.405 106.064 157.552 107.116 157.552Z" fill="white"/>
<path fill-rule="evenodd" clip-rule="evenodd" d="M124.184 91.3282H161.821C164.208 91.3282 166.15 93.2698 166.15 95.6565V122.948C166.15 125.335 164.208 127.277 161.822 127.277H109.225C106.838 127.277 104.897 125.335 104.897 122.948V95.6563C104.897 93.2696 106.838 91.328 109.225 91.328H115.279C116.331 91.328 117.184 92.1808 117.184 93.233C117.184 94.2852 116.331 95.1381 115.279 95.1381H109.225C108.939 95.1381 108.707 95.3706 108.707 95.6563V121.486L123.163 104.068C125.301 101.492 129.258 101.486 131.401 104.068L140.273 114.758L144.427 109.753C146.566 107.176 150.523 107.171 152.666 109.753L162.34 121.41V95.6565C162.34 95.3709 162.107 95.1383 161.822 95.1383H124.184C123.132 95.1383 122.279 94.2854 122.279 93.2333C122.279 92.1811 123.132 91.3282 124.184 91.3282ZM149.734 112.186C149.116 111.442 147.976 111.442 147.359 112.186L137.997 123.467H159.096L149.734 112.186ZM128.469 106.501C127.852 105.757 126.712 105.757 126.094 106.501L112.014 123.467H133.045L137.798 117.741L128.469 106.501Z" fill="white"/>
<path fill-rule="evenodd" clip-rule="evenodd" d="M175.916 82.1447L160.317 66.5461C159.96 66.1888 159.475 65.988 158.97 65.988H137.428V57.6904C137.428 54.0012 134.427 51 130.738 51H62.217C58.5278 51 55.5264 54.0014 55.5264 57.6904V159.321C55.5264 163.01 58.5278 166.011 62.217 166.011H87.5524C88.6046 166.011 89.4574 165.158 89.4574 164.106C89.4574 163.054 88.6046 162.201 87.5524 162.201H62.217C60.6286 162.201 59.3365 160.909 59.3365 159.321V57.6904C59.3365 56.102 60.6288 54.8098 62.217 54.8098H125.244L100.363 64.3607C97.2881 65.5409 95.083 68.3671 94.6566 71.6201C94.566 72.1882 94.5691 72.5886 94.573 73.0986C94.5746 73.3042 94.5763 73.5277 94.5721 73.7872H67.2517C65.3974 73.7872 63.8885 75.2959 63.8885 77.1504V94.2154C63.8885 96.0696 65.3972 97.5786 67.2517 97.5786H94.5724V102.694H67.2517C65.3974 102.694 63.8885 104.203 63.8885 106.057V123.122C63.8885 124.977 65.3972 126.486 67.2517 126.486H94.5724V132.237H65.7935C64.7413 132.237 63.8885 133.09 63.8885 134.142C63.8885 135.195 64.7413 136.047 65.7935 136.047H94.5724V141.932H65.7935C64.7413 141.932 63.8885 142.785 63.8885 143.837C63.8885 144.889 64.7413 145.742 65.7935 145.742H94.5724V174.309C94.5724 177.999 97.5738 181 101.263 181H169.783C173.473 181 176.474 177.999 176.474 174.309V83.4917C176.474 82.9864 176.273 82.502 175.916 82.1447ZM160.875 72.492L169.97 81.5869H163.756C162.167 81.5869 160.875 80.2945 160.875 78.7063V72.492ZM106.756 65.988L133 55.9138C133.386 56.4039 133.618 57.0201 133.618 57.6906V65.988H106.756ZM67.6983 93.7685V77.5973H94.5721V93.7685H67.6983ZM67.6983 122.675V106.504H94.5721V122.675H67.6983ZM169.783 177.189H101.263C99.6743 177.189 98.3822 175.897 98.3822 174.309V72.6784C98.3822 71.1057 99.6609 69.7978 101.263 69.7978H157.065V78.7061C157.065 82.3953 160.067 85.3967 163.756 85.3967H172.664V174.309C172.664 175.897 171.372 177.189 169.783 177.189Z" fill="white"/>
</svg>
