<svg width="232" height="232" viewBox="0 0 232 232" fill="none" xmlns="http://www.w3.org/2000/svg">
<rect x="2" y="2" width="228" height="228" rx="114" stroke="white" stroke-width="4"/>
<path d="M160.032 65.6773H139.064C136.29 65.6773 136.288 61.4838 139.064 61.4838H160.032C162.806 61.4838 162.808 65.6773 160.032 65.6773Z" fill="white"/>
<path d="M139.064 84.5482H168.419C171.195 84.5482 171.193 80.3547 168.419 80.3547H139.064C136.288 80.3547 136.29 84.5482 139.064 84.5482Z" fill="white"/>
<path d="M168.419 103.419H139.064C136.29 103.419 136.288 99.2255 139.064 99.2255H168.419C171.193 99.2255 171.195 103.419 168.419 103.419Z" fill="white"/>
<path d="M139.064 111.806H149.548C152.324 111.806 152.322 107.613 149.548 107.613H139.064C136.288 107.613 136.29 111.806 139.064 111.806Z" fill="white"/>
<path d="M143.258 76.1611H139.064C136.29 76.1611 136.288 71.9676 139.064 71.9676H143.258C146.032 71.9676 146.034 76.1611 143.258 76.1611Z" fill="white"/>
<path d="M153.742 76.1611H168.419C171.195 76.1611 171.193 71.9676 168.419 71.9676H153.742C150.966 71.9676 150.968 76.1611 153.742 76.1611Z" fill="white"/>
<path d="M153.742 95.032H139.064C136.29 95.032 136.288 90.8385 139.064 90.8385H153.742C156.516 90.8385 156.518 95.032 153.742 95.032Z" fill="white"/>
<path d="M168.419 90.8385H164.226C161.449 90.8385 161.452 95.032 164.226 95.032H168.419C171.195 95.032 171.193 90.8385 168.419 90.8385Z" fill="white"/>
<path fill-rule="evenodd" clip-rule="evenodd" d="M178.903 51H128.581C127.421 51 126.484 51.9393 126.484 53.0968V120.193C126.484 121.351 127.421 122.29 128.581 122.29H178.903C180.062 122.29 181 121.351 181 120.193V53.0968C181 51.9393 180.062 51 178.903 51ZM130.677 118.096V55.1935H176.806V118.096H130.677Z" fill="white"/>
<path d="M164.226 166.322H168.419C171.193 166.322 171.195 170.515 168.419 170.515H164.226C164.226 171.673 163.288 172.612 162.129 172.612C160.969 172.612 160.032 171.673 160.032 170.515H126.484C123.71 170.515 123.708 166.322 126.484 166.322H160.032C160.032 165.165 160.969 164.225 162.129 164.225C163.288 164.225 164.226 165.165 164.226 166.322Z" fill="white"/>
<path fill-rule="evenodd" clip-rule="evenodd" d="M157.744 153.498L143.807 161.529C140.815 163.246 136.968 161.124 136.968 157.581V141.524C136.968 138.026 140.782 135.827 143.809 137.58L157.744 145.606C160.781 147.355 160.781 151.752 157.744 153.498ZM141.715 141.213C141.467 141.069 141.161 141.253 141.161 141.524V157.583C141.161 157.861 141.469 158.031 141.717 157.893L155.652 149.864C155.891 149.726 155.891 149.38 155.652 149.242L141.715 141.213Z" fill="white"/>
<path fill-rule="evenodd" clip-rule="evenodd" d="M174.709 128.58H120.194C116.725 128.58 113.903 131.402 113.903 134.87V174.709C113.903 178.177 116.725 180.999 120.194 180.999H174.709C178.177 180.999 181 178.177 181 174.709V134.87C181 131.402 178.177 128.58 174.709 128.58ZM176.806 174.709C176.806 175.864 175.867 176.806 174.709 176.806H120.194C119.036 176.806 118.097 175.864 118.097 174.709V134.87C118.097 133.715 119.036 132.774 120.194 132.774H174.709C175.867 132.774 176.806 133.715 176.806 134.87V174.709Z" fill="white"/>
<path fill-rule="evenodd" clip-rule="evenodd" d="M101.323 76.1611C101.323 80.7866 97.5611 84.5482 92.9356 84.5482C88.3102 84.5482 84.5486 80.7866 84.5486 76.1611C84.5486 71.5357 88.3102 67.7741 92.9356 67.7741C97.5611 67.7741 101.323 71.5357 101.323 76.1611ZM97.1291 76.1611C97.1291 73.8484 95.2483 71.9676 92.9356 71.9676C90.6229 71.9676 88.7421 73.8484 88.7421 76.1611C88.7421 78.4739 90.6229 80.3547 92.9356 80.3547C95.2483 80.3547 97.1291 78.4739 97.1291 76.1611Z" fill="white"/>
<path d="M100.708 91.4528C99.8885 90.633 98.5633 90.633 97.7435 91.4528L90.8388 98.3575L77.6439 85.1625C76.8241 84.3427 75.4989 84.3427 74.6791 85.1625L60.0018 99.8399C58.0392 101.802 61.0061 104.765 62.9666 102.805L76.1615 89.6098L89.3564 102.805C90.1763 103.625 91.5014 103.625 92.3213 102.805L99.2259 95.9001L106.131 102.805C108.064 104.738 111.083 101.826 109.095 99.8399L100.708 91.4528Z" fill="white"/>
<path fill-rule="evenodd" clip-rule="evenodd" d="M118.097 113.903V63.5806C118.097 60.1125 115.275 57.2903 111.806 57.2903H57.2907C53.8226 57.2903 51.0004 60.1125 51.0004 63.5806V113.903C51.0004 117.371 53.8226 120.193 57.2907 120.193H111.806C115.275 120.193 118.097 117.371 118.097 113.903ZM113.903 113.903C113.903 115.058 112.964 116 111.806 116H57.2907C56.1332 116 55.1939 115.058 55.1939 113.903V63.5806C55.1939 62.4253 56.1332 61.4838 57.2907 61.4838H111.806C112.964 61.4838 113.903 62.4253 113.903 63.5806V113.903Z" fill="white"/>
<path d="M80.355 152.693C82.0921 152.693 83.5002 151.285 83.5002 149.548C83.5002 147.811 82.0921 146.403 80.355 146.403C78.618 146.403 77.2099 147.811 77.2099 149.548C77.2099 151.285 78.618 152.693 80.355 152.693Z" fill="white"/>
<path d="M98.1775 149.548C98.1775 151.285 96.7694 152.693 95.0324 152.693C93.2954 152.693 91.8872 151.285 91.8872 149.548C91.8872 147.811 93.2954 146.403 95.0324 146.403C96.7694 146.403 98.1775 147.811 98.1775 149.548Z" fill="white"/>
<path d="M65.6777 152.693C67.4147 152.693 68.8228 151.285 68.8228 149.548C68.8228 147.811 67.4147 146.403 65.6777 146.403C63.9407 146.403 62.5326 147.811 62.5326 149.548C62.5326 151.285 63.9407 152.693 65.6777 152.693Z" fill="white"/>
<path fill-rule="evenodd" clip-rule="evenodd" d="M51.0004 149.548C51.0004 136.831 64.168 126.483 80.355 126.483C96.542 126.483 109.71 136.831 109.71 149.548C109.71 162.265 96.542 172.612 80.355 172.612C76.778 172.612 73.3309 172.126 70.0935 171.161L60.8698 180.385C59.5614 181.693 57.2907 180.781 57.2907 178.902V163.835C53.2271 159.767 51.0004 154.725 51.0004 149.548ZM70.192 166.792C73.3539 167.871 76.7717 168.419 80.355 168.419C94.2293 168.419 105.516 159.952 105.516 149.548C105.516 139.144 94.2293 130.677 80.355 130.677C66.4808 130.677 55.1939 139.144 55.1939 149.548C55.1939 153.886 57.1376 157.989 60.8174 161.411C61.243 161.808 61.4842 162.363 61.4842 162.946V173.841L68.0324 167.293C68.5964 166.725 69.4393 166.532 70.192 166.792Z" fill="white"/>
</svg>
