<svg width="232" height="232" viewBox="0 0 232 232" fill="none" xmlns="http://www.w3.org/2000/svg">
<rect x="2" y="2" width="228" height="228" rx="114" stroke="white" stroke-width="4"/>
<path d="M95.0323 79.3337L88.4232 68.7597C87.9263 67.965 86.966 67.6002 86.0665 67.8539C85.1669 68.1139 84.5484 68.9358 84.5484 69.871V88.7419H88.7419V77.1824L95.351 87.7565C95.741 88.3813 96.4203 88.7419 97.129 88.7419C97.3219 88.7419 97.5169 88.7147 97.7077 88.6602C98.6073 88.4023 99.2258 87.5803 99.2258 86.6452V67.7742H95.0323V79.3337Z" fill="white"/>
<path d="M103.419 86.6452V69.871C103.419 68.7135 104.359 67.7742 105.516 67.7742H113.903V71.9677H107.613V76.1613H113.903V80.3548H107.613V84.5484H113.903V88.7419H105.516C104.359 88.7419 103.419 87.8026 103.419 86.6452Z" fill="white"/>
<path d="M126.484 75.7587L126.335 75.3834C126.014 74.5866 125.245 74.0645 124.387 74.0645C123.53 74.0645 122.76 74.5866 122.439 75.3813L122.29 75.7587V67.7742H118.097V86.6452C118.097 87.6495 118.81 88.5134 119.797 88.7042C120.783 88.8908 121.766 88.3561 122.141 87.4252L124.387 81.8058L126.633 87.4231C126.958 88.2303 127.736 88.7419 128.581 88.7419C128.711 88.7419 128.845 88.7294 128.977 88.7042C129.965 88.5134 130.677 87.6495 130.677 86.6452V67.7742H126.484V75.7587Z" fill="white"/>
<path d="M141.161 80.3548C137.693 80.3548 134.871 77.5326 134.871 74.0645C134.871 70.5965 137.693 67.7742 141.161 67.7742H147.452V71.9677H141.161C140.006 71.9677 139.065 72.9092 139.065 74.0645C139.065 75.2198 140.006 76.1613 141.161 76.1613C144.629 76.1613 147.452 78.9835 147.452 82.4516C147.452 85.9197 144.629 88.7419 141.161 88.7419H134.871V84.5484H141.161C142.317 84.5484 143.258 83.6069 143.258 82.4516C143.258 81.2963 142.317 80.3548 141.161 80.3548Z" fill="white"/>
<path fill-rule="evenodd" clip-rule="evenodd" d="M78.2581 97.129H153.742C154.899 97.129 155.839 96.1897 155.839 95.0323V61.4839C155.839 60.3265 154.899 59.3871 153.742 59.3871H78.2581C77.1006 59.3871 76.1613 60.3265 76.1613 61.4839V95.0323C76.1613 96.1897 77.1006 97.129 78.2581 97.129ZM80.3548 63.5806H151.645V92.9355H80.3548V63.5806Z" fill="white"/>
<path fill-rule="evenodd" clip-rule="evenodd" d="M78.2581 143.258H111.806C112.964 143.258 113.903 142.319 113.903 141.161V103.419C113.903 102.262 112.964 101.323 111.806 101.323H78.2581C77.1006 101.323 76.1613 102.262 76.1613 103.419V141.161C76.1613 142.319 77.1006 143.258 78.2581 143.258ZM80.3548 105.516H109.71V139.065H80.3548V105.516Z" fill="white"/>
<path d="M122.29 151.645V147.452H76.1613V151.645H122.29Z" fill="white"/>
<path d="M122.29 155.839V160.032H76.1613V155.839H122.29Z" fill="white"/>
<path d="M122.29 168.419V164.226H76.1613V168.419H122.29Z" fill="white"/>
<path fill-rule="evenodd" clip-rule="evenodd" d="M167.291 97.366C166.597 97.0053 165.761 97.0598 165.121 97.5085L164.226 98.1334V53.0968C164.226 51.9394 163.286 51 162.129 51H69.871C68.7135 51 67.7742 51.9394 67.7742 53.0968V63.5806H53.0968C51.9394 63.5806 51 64.52 51 65.6774V170.516C51 176.297 55.7031 181 61.4839 181H149.548C157.642 181 164.226 174.416 164.226 166.323V159.028L165.121 159.655C165.48 159.904 165.899 160.032 166.323 160.032C166.654 160.032 166.985 159.953 167.291 159.795C167.983 159.435 168.419 158.718 168.419 157.935V99.2258C168.419 98.4437 167.983 97.7266 167.291 97.366ZM55.1935 170.516V67.7742H67.7742V170.516C67.7742 173.984 64.9519 176.806 61.4839 176.806C58.0158 176.806 55.1935 173.984 55.1935 170.516ZM160.032 166.323C160.032 172.103 155.329 176.806 149.548 176.806H69.8165C71.1479 175.049 71.9677 172.885 71.9677 170.516V55.1935H160.032V101.069L144.694 111.806H130.677C123.739 111.806 118.097 117.449 118.097 124.387V132.774C118.097 138.24 121.605 142.889 126.484 144.621V160.032C126.484 164.658 130.245 168.419 134.871 168.419C139.496 168.419 143.258 164.658 143.258 160.032V145.355H144.694L160.032 156.092V166.323ZM147.452 142.166V114.996L155.839 109.125V148.039L147.452 142.166ZM139.065 145.355V160.032C139.065 162.345 137.184 164.226 134.871 164.226C132.558 164.226 130.677 162.345 130.677 160.032V145.355H139.065ZM130.677 141.161C126.052 141.161 122.29 137.4 122.29 132.774V124.387C122.29 119.762 126.052 116 130.677 116H143.258V141.161H130.677ZM160.032 150.974V106.187L164.226 103.252V153.91L160.032 150.974Z" fill="white"/>
<path d="M181 122.29H172.613V126.484H181V122.29Z" fill="white"/>
<path d="M171.11 114.523L177.401 108.232L180.367 111.197L174.076 117.488L171.11 114.523Z" fill="white"/>
<path d="M174.074 131.296L171.108 134.262L177.399 140.553L180.365 137.587L174.074 131.296Z" fill="white"/>
</svg>
