<svg width="23" height="23" viewBox="0 0 23 23" fill="none" xmlns="http://www.w3.org/2000/svg">
<path d="M19.78 13.156C19.0256 13.156 18.4 13.7816 18.4 14.536V18.2712C18.4 19.3568 17.5168 20.24 16.4312 20.24H4.7288C3.6432 20.24 2.76 19.3568 2.76 18.2712V6.5688C2.76 5.4832 3.6432 4.6 4.7288 4.6H8.464C9.2184 4.6 9.844 3.9744 9.844 3.22C9.844 2.4656 9.2184 1.84 8.464 1.84H4.7288C2.116 1.84 0 3.956 0 6.5688V18.2712C0 20.884 2.116 23 4.7288 23H16.4312C19.044 23 21.16 20.884 21.16 18.2712V14.536C21.16 13.7816 20.5344 13.156 19.78 13.156Z" fill="white"/>
<path d="M21.62 0H14.26C13.5056 0 12.88 0.6256 12.88 1.38C12.88 2.1344 13.5056 2.76 14.26 2.76H18.308L11.4448 9.6048C10.9112 10.1384 10.9112 11.0216 11.4448 11.5552C11.7208 11.8312 12.0704 11.96 12.42 11.96C12.7696 11.96 13.1192 11.8312 13.3952 11.5552L20.24 4.7288V8.74C20.24 9.4944 20.8656 10.12 21.62 10.12C22.3744 10.12 23 9.4944 23 8.74V1.38C23 0.6256 22.3744 0 21.62 0Z" fill="white"/>
</svg>
