<svg width="90" height="90" viewBox="0 0 90 90" fill="none" xmlns="http://www.w3.org/2000/svg">
<path d="M36.3073 30.6792H32.7312C32.0031 30.6792 31.4128 31.2851 31.4128 32.0329C31.4128 32.7807 32.0031 33.3867 32.7312 33.3867H34.8599C34.5097 35.1729 33.412 36.817 31.1474 36.817C28.5785 36.817 26.4885 34.6709 26.4885 32.0329C26.4885 29.3952 28.5785 27.249 31.1474 27.249C32.0811 27.249 32.9817 27.5312 33.7512 28.0652C34.3545 28.4835 35.174 28.3207 35.5816 27.7014C35.9893 27.0817 35.8307 26.2402 35.2273 25.8217C34.02 24.9842 32.6092 24.5414 31.1472 24.5414C27.1245 24.5414 23.8516 27.9019 23.8516 32.0328C23.8516 36.1636 27.1245 39.5243 31.1472 39.5243C34.9615 39.5243 37.6255 36.4438 37.6255 32.0328C37.6256 31.2851 37.0354 30.6792 36.3073 30.6792Z" fill="#555555"/>
<path d="M59.1736 38.4397C59.3986 39.0898 59.9991 39.5245 60.6702 39.5245C60.6739 39.5245 60.6776 39.5245 60.6811 39.5243C61.3564 39.5198 61.9564 39.0754 62.1768 38.4095L66.08 26.3446C66.3098 25.635 65.9355 24.8688 65.2446 24.6333C64.5543 24.3974 63.8074 24.7815 63.578 25.4912L60.6486 34.546L57.5742 25.4515C57.3354 24.745 56.5836 24.3703 55.8965 24.6165C55.2087 24.8616 54.8446 25.6329 55.0833 26.3392L59.1736 38.4397Z" fill="#555555"/>
<path d="M46.8179 24.5416C42.795 24.5416 39.5223 27.9021 39.5223 32.0329C39.5223 36.1638 42.7952 39.5245 46.8179 39.5245C50.8407 39.5245 54.1136 36.1638 54.1136 32.0329C54.1136 27.9021 50.8409 24.5416 46.8179 24.5416ZM46.8179 36.817C44.2489 36.817 42.159 34.6709 42.159 32.0329C42.159 29.3952 44.2491 27.249 46.8179 27.249C49.3868 27.249 51.4768 29.3952 51.4768 32.0329C51.4768 34.6709 49.3868 36.817 46.8179 36.817Z" fill="#555555"/>
<path d="M87.5215 33.3865C88.888 33.3865 90 32.2448 90 30.8413V27.087C90 25.6838 88.8882 24.5419 87.5215 24.5419H85.8127V21.1757C85.8127 18.5938 84.3115 16.2864 81.9879 15.2972L46.9756 0.400614C45.7195 -0.133478 44.2786 -0.133658 43.0223 0.400794L8.00982 15.2974C5.68652 16.2865 4.18535 18.594 4.18535 21.1758V24.5421H2.47852C1.11182 24.5421 0 25.6838 0 27.0871V30.8415C0 32.2448 1.11182 33.3867 2.47852 33.3867H4.18535V38.7166C4.18535 39.4644 4.77562 40.0703 5.50371 40.0703H12.224V76.9686H6.8226V45.0381C6.8226 44.2903 6.23232 43.6844 5.50424 43.6844C4.77615 43.6844 4.18588 44.2903 4.18588 45.0381V82.1307H2.47939C1.11234 82.1307 0 83.2727 0 84.6764V87.4543C0 88.858 1.11234 90 2.47939 90H87.5208C88.8878 90 90 88.858 90 87.4543V84.6764C90 83.2727 88.8878 82.1307 87.5208 82.1307H85.8131L85.8129 33.3865H87.5215ZM87.3633 30.679H72.5309V27.2496H87.3633V30.679ZM83.1763 40.0701V76.9685H77.7749V40.0701H83.1763ZM62.1615 76.9685V45.3948H69.027C70.959 45.3948 72.531 43.7808 72.531 41.7968V40.0701H75.1384V76.9685H62.1615ZM45 60.9524C44.2719 60.9524 43.6816 61.5583 43.6816 62.3061V76.9685H38.5119V61.7574C38.5137 61.078 38.8067 60.4405 39.3168 60.0073L43.8015 56.2006C44.4955 55.6115 45.5026 55.6118 46.1965 56.2017L50.6728 60.0068C51.1838 60.441 51.4768 61.0809 51.4768 61.7623V76.9685H46.3184V62.3061C46.3184 61.5583 45.7283 60.9524 45 60.9524ZM35.8752 45.3948L35.8748 76.9685H30.4734V45.3948H35.8752ZM51.4881 45.3948V57.1852L47.8779 54.1162C46.211 52.6992 43.7899 52.6979 42.1216 54.1141L38.5117 57.178V45.3948H51.4881ZM54.1248 76.9685V45.3948H59.5248V76.9685H54.1248ZM6.82207 21.1758C6.82207 19.6925 7.6848 18.367 9.01951 17.7986L44.0314 2.90213C44.6465 2.64058 45.3521 2.64077 45.9666 2.90195L80.9784 17.7982C82.3136 18.3666 83.1762 19.6923 83.1762 21.1757V24.5419H72.5309V22.2689C72.5309 20.2851 70.959 18.6709 69.0268 18.6709H59.4093C58.6811 18.6709 58.091 19.2768 58.091 20.0246C58.091 20.7724 58.6811 21.3784 59.4093 21.3784H69.0268C69.5051 21.3784 69.8941 21.7778 69.8941 22.2689V41.7966C69.8941 42.2877 69.5051 42.6872 69.0268 42.6872H20.9721C20.494 42.6872 20.1048 42.2877 20.1048 41.7966V22.2691C20.1048 21.778 20.4938 21.3785 20.9721 21.3785H53.2477C53.9759 21.3785 54.566 20.7726 54.566 20.0248C54.566 19.277 53.9759 18.6711 53.2477 18.6711H20.9721C19.0401 18.6711 17.4681 20.2851 17.4681 22.2691V24.5421H6.82207V21.1758ZM2.63672 27.2496H17.4681V30.679H2.63672V27.2496ZM17.4681 33.3865V37.3627L6.82207 37.3621V33.3865H17.4681ZM14.8607 40.0701H17.4681V41.7968C17.4681 43.7806 19.0399 45.3948 20.9721 45.3948H27.8367V76.9685H14.8607V40.0701ZM71.7903 82.1307C71.062 82.1307 70.4719 82.7366 70.4719 83.4844C70.4719 84.2322 71.062 84.8381 71.7903 84.8381H87.3633V87.2927H2.63672V84.8381H65.614C66.3423 84.8381 66.9324 84.2322 66.9324 83.4844C66.9324 82.7366 66.3423 82.1307 65.614 82.1307H6.8226V79.6759H83.1762V82.1307H71.7903ZM83.1762 37.3621L72.5309 37.3627V33.3865H83.1762V37.3621Z" fill="#555555"/>
<path d="M42.872 15.0254C43.2093 15.0254 43.5468 14.8933 43.8042 14.629L48.0593 10.2599C48.5742 9.73106 48.5742 8.87406 48.0593 8.34538C47.5443 7.81707 46.7096 7.81671 46.1948 8.34538L41.9398 12.7145C41.425 13.2434 41.425 14.1004 41.9398 14.629C42.1972 14.8933 42.5347 15.0254 42.872 15.0254Z" fill="#555555"/>
<path d="M68.7076 48.3199C67.9794 48.3199 67.3893 48.9259 67.3893 49.6737V52.995C67.3893 53.7428 67.9794 54.3487 68.7076 54.3487C69.4359 54.3487 70.026 53.7428 70.026 52.995V49.6737C70.026 48.926 69.4359 48.3199 68.7076 48.3199Z" fill="#555555"/>
<path d="M68.7076 57.6309C67.9794 57.6309 67.3893 58.2368 67.3893 58.9846V62.3059C67.3893 63.0537 67.9794 63.6597 68.7076 63.6597C69.4359 63.6597 70.026 63.0537 70.026 62.3059V58.9846C70.026 58.237 69.4359 57.6309 68.7076 57.6309Z" fill="#555555"/>
<path d="M68.7076 66.9418C67.9794 66.9418 67.3893 67.5478 67.3893 68.2956V71.6171C67.3893 72.3649 67.9794 72.9708 68.7076 72.9708C69.4359 72.9708 70.026 72.3649 70.026 71.6171V68.2956C70.026 67.5479 69.4359 66.9418 68.7076 66.9418Z" fill="#555555"/>
<path d="M21.5162 48.3199C20.7881 48.3199 20.1978 48.9259 20.1978 49.6737V52.995C20.1978 53.7428 20.7881 54.3487 21.5162 54.3487C22.2442 54.3487 22.8345 53.7428 22.8345 52.995V49.6737C22.8345 48.926 22.2442 48.3199 21.5162 48.3199Z" fill="#555555"/>
<path d="M21.5162 57.6309C20.7881 57.6309 20.1978 58.2368 20.1978 58.9846V62.3059C20.1978 63.0537 20.7881 63.6597 21.5162 63.6597C22.2442 63.6597 22.8345 63.0537 22.8345 62.3059V58.9846C22.8345 58.237 22.2442 57.6309 21.5162 57.6309Z" fill="#555555"/>
<path d="M21.5162 66.9418C20.7881 66.9418 20.1978 67.5478 20.1978 68.2956V71.6171C20.1978 72.3649 20.7881 72.9708 21.5162 72.9708C22.2442 72.9708 22.8345 72.3649 22.8345 71.6171V68.2956C22.8345 67.5479 22.2442 66.9418 21.5162 66.9418Z" fill="#555555"/>
</svg>
