<svg width="90" height="90" viewBox="0 0 90 90" fill="none" xmlns="http://www.w3.org/2000/svg">
<path d="M46.4516 63.871C47.2529 63.871 47.9032 64.5213 47.9032 65.3226H50.8065C50.8065 62.9216 48.8526 60.9677 46.4516 60.9677V58.0645H43.5484V60.9677H39.1936V65.3226C39.1936 67.7235 41.1474 69.6774 43.5484 69.6774H46.4516C47.2529 69.6774 47.9032 70.3277 47.9032 71.129V72.5807H43.5484C42.7471 72.5807 42.0968 71.9303 42.0968 71.129H39.1936C39.1936 73.53 41.1474 75.4839 43.5484 75.4839V78.3871H46.4516V75.4839H50.8065V71.129C50.8065 68.7281 48.8526 66.7742 46.4516 66.7742H43.5484C42.7471 66.7742 42.0968 66.1239 42.0968 65.3226V63.871H46.4516Z" fill="#555555"/>
<path d="M81.2903 84.1936V52.2581H8.70968V84.1936H81.2903ZM11.6129 74.1629C15.2521 74.7769 18.1248 77.6511 18.7403 81.2903H11.6129V74.1629ZM71.2597 81.2903C71.8737 77.6511 74.7479 74.7784 78.3871 74.1629V81.2903H71.2597ZM78.3871 62.2887C74.7479 61.6747 71.8752 58.8005 71.2597 55.1613H78.3871V62.2887ZM68.326 55.1613C68.9836 60.4045 73.1439 64.5634 78.3871 65.2224V71.2306C73.1439 71.8882 68.985 76.0486 68.326 81.2918H54.151C58.2663 78.3987 60.9677 73.6258 60.9677 68.2258C60.9677 62.8258 58.2663 58.0529 54.1524 55.1613H68.326ZM45 81.2903C37.7956 81.2903 31.9355 75.4302 31.9355 68.2258C31.9355 61.0215 37.7956 55.1613 45 55.1613C52.2044 55.1613 58.0645 61.0215 58.0645 68.2258C58.0645 75.4302 52.2044 81.2903 45 81.2903ZM29.0323 68.2258C29.0323 73.6258 31.7337 78.3987 35.8476 81.2903H21.6726C21.015 76.0471 16.8547 71.8882 11.6115 71.2292V65.221C16.8547 64.5634 21.0135 60.4031 21.6726 55.1598H35.8476C31.7337 58.0529 29.0323 62.8258 29.0323 68.2258ZM18.7403 55.1613C18.1263 58.8005 15.2521 61.6732 11.6129 62.2887V55.1613H18.7403Z" fill="#555555"/>
<path d="M90 40.6452H87.0968V37.7419C87.0968 30.1921 82.2615 23.7673 75.5303 21.3561C78.1316 19.514 79.8387 16.4874 79.8387 13.0645C79.8387 7.46274 75.2792 2.90323 69.6774 2.90323C64.0756 2.90323 59.5161 7.46274 59.5161 13.0645C59.5161 16.4831 61.2189 19.5082 63.8173 21.3503C61.8198 22.0631 59.9632 23.1344 58.3273 24.5468C56.3966 22.979 54.151 21.7916 51.7021 21.0818C54.6677 18.974 56.6129 15.5192 56.6129 11.6129C56.6129 5.20984 51.4031 0 45 0C38.5969 0 33.3871 5.20984 33.3871 11.6129C33.3871 15.5192 35.3323 18.974 38.2994 21.0803C35.8505 21.7916 33.6034 22.9776 31.6727 24.5468C30.0368 23.1344 28.1802 22.0631 26.1827 21.3503C28.7811 19.5082 30.4839 16.4831 30.4839 13.0645C30.4839 7.46274 25.9244 2.90323 20.3226 2.90323C14.7208 2.90323 10.1613 7.46274 10.1613 13.0645C10.1613 16.4874 11.8684 19.514 14.4697 21.3561C7.73855 23.7673 2.90323 30.1921 2.90323 37.7419V40.6452H0V49.3548H2.90323V90H87.0968V49.3548H90V40.6452ZM84.1936 37.7419V40.6452H79.8387V31.9355H76.9355V40.6452H65.3226V39.1936C65.3226 34.3306 63.4573 29.9061 60.4263 26.5558C62.1435 25.1303 64.1453 24.1476 66.2908 23.6366L65.2631 33.9256L69.6774 38.3429L74.0932 33.9271L73.0655 23.641C79.4381 25.1739 84.1936 30.9063 84.1936 37.7419ZM55.1613 31.9355V40.6452H48.4258L53.37 24.824C58.7148 27.4079 62.4194 32.8689 62.4194 39.1936V40.6452H58.0645V31.9355H55.1613ZM31.9355 31.9355V40.6452H27.5806V39.1936C27.5806 32.8689 31.2852 27.4094 36.63 24.824L41.5742 40.6452H34.8387V31.9355H31.9355ZM39.3518 23.8036C40.0587 23.6105 40.7816 23.4624 41.5234 23.3681L40.8644 28.6418L39.3518 23.8036ZM44.6153 40.6452L42.9547 35.3294L44.4658 23.2258H45.5327L47.0453 35.3294L45.3847 40.6452H44.6153ZM49.1356 28.6418L48.4766 23.3695C49.2184 23.4639 49.9413 23.6119 50.6468 23.805L49.1356 28.6418ZM69.6774 23.2258C69.8226 23.2258 69.9634 23.2432 70.1086 23.2476L71.0681 32.8471L69.6774 34.2377L68.2868 32.8471L69.2463 23.2476C69.39 23.2432 69.5323 23.2258 69.6774 23.2258ZM62.4194 13.0645C62.4194 9.06242 65.6753 5.80645 69.6774 5.80645C73.6795 5.80645 76.9355 9.06242 76.9355 13.0645C76.9355 17.0666 73.6795 20.3226 69.6774 20.3226C65.6753 20.3226 62.4194 17.0666 62.4194 13.0645ZM36.2903 11.6129C36.2903 6.80952 40.1966 2.90323 45 2.90323C49.8034 2.90323 53.7097 6.80952 53.7097 11.6129C53.7097 16.4163 49.8034 20.3226 45 20.3226C40.1966 20.3226 36.2903 16.4163 36.2903 11.6129ZM20.3226 23.2258C21.2995 23.2258 22.2605 23.3216 23.1968 23.5089C23.0516 24.975 21.8265 26.129 20.3226 26.129C18.8202 26.129 17.595 24.9779 17.4484 23.5147C18.3774 23.326 19.3384 23.2258 20.3226 23.2258ZM13.0645 13.0645C13.0645 9.06242 16.3205 5.80645 20.3226 5.80645C24.3247 5.80645 27.5806 9.06242 27.5806 13.0645C27.5806 17.0666 24.3247 20.3226 20.3226 20.3226C16.3205 20.3226 13.0645 17.0666 13.0645 13.0645ZM5.80645 37.7419C5.80645 31.7569 9.45 26.6066 14.6337 24.39C15.1737 27.0363 17.5195 29.0323 20.3226 29.0323C23.1285 29.0323 25.4729 27.0334 26.0115 24.3842C27.2874 24.9285 28.4879 25.6544 29.5737 26.5558C26.5427 29.9061 24.6774 34.3306 24.6774 39.1936V40.6452H13.0645V31.9355H10.1613V40.6452H5.80645V37.7419ZM84.1936 87.0968H5.80645V49.3548H84.1936V87.0968ZM87.0968 46.4516H2.90323V43.5484H87.0968V46.4516Z" fill="#555555"/>
</svg>
