<svg width="70" height="63" viewBox="0 0 70 63" fill="none" xmlns="http://www.w3.org/2000/svg">
<path d="M4.60726 7.08261C5.63427 5.1742 6.26181 3.54709 6.19789 1.74595C5.24817 1.08349 4.10149 0.763529 2.94599 0.838552C2.93589 2.70587 2.37727 4.52905 1.33954 6.0815C2.82572 5.97692 3.71203 6.1433 4.60726 7.08261Z" fill="#FF44BC"/>
<path d="M67.7906 55.9481C66.0001 55.837 64.2446 54.9874 61.2859 51.7879C60.0803 53.3514 59.4088 55.2608 59.3701 57.2348C61.4304 59.1342 63.9435 60.4734 66.6691 61.1243C66.4742 59.3231 66.8676 57.5071 67.7906 55.9481Z" fill="url(#paint0_linear_2007_3)"/>
<path d="M60.7242 14.3639C58.8533 15.8748 56.7019 17.0007 54.3939 17.6765C54.6919 18.9169 55.3888 20.0253 56.3776 20.8313C58.7543 20.1877 61.0193 19.1864 63.0949 17.8617C61.3805 16.7805 60.6869 15.9537 60.7242 14.3639Z" fill="#EE8134"/>
<defs>
<linearGradient id="paint0_linear_2007_3" x1="27276.4" y1="7756.52" x2="27248.7" y2="7812.21" gradientUnits="userSpaceOnUse">
<stop stop-color="#4D8EFF"/>
<stop offset="0.43" stop-color="#3F76FF"/>
<stop offset="1" stop-color="#2850FF"/>
</linearGradient>
</defs>
</svg>
