<svg width="33" height="30" viewBox="0 0 33 30" fill="none" xmlns="http://www.w3.org/2000/svg">
<path d="M28.5843 25.483C28.501 25.2436 28.4077 24.9778 28.3093 24.698C28.2285 24.4683 28.1442 24.2291 28.0591 23.9878C27.7788 23.1927 27.4901 22.3739 27.2901 21.7891C27.2416 21.6548 27.1932 21.4493 27.2064 21.2368C27.2195 21.0257 27.3117 20.6666 27.6929 20.511C27.8137 20.461 27.9551 20.4291 28.109 20.4473C28.2673 20.4661 28.394 20.5326 28.4898 20.6083C28.6275 20.7171 28.7368 20.8821 28.7977 20.9741C28.8056 20.9859 28.8126 20.9966 28.8188 21.0057L28.8215 21.0098C28.9485 21.2012 29.0236 21.365 29.0856 21.5004C29.0999 21.5317 29.1135 21.5614 29.1269 21.5896C29.3163 21.9814 29.507 22.3733 29.698 22.7656C30.2 23.797 30.7035 24.8314 31.1878 25.8761C31.3812 26.2879 31.4945 26.7351 31.5924 27.1212C31.6015 27.1571 31.6105 27.1926 31.6193 27.2274L31.6194 27.2276C31.696 27.528 31.7123 27.8965 31.4914 28.204C31.2669 28.5166 30.9041 28.6193 30.5664 28.6328L30.5664 28.6328C29.4158 28.6789 28.4257 28.6798 27.1353 28.6554L27.135 28.6554C27.0797 28.6543 27.0243 28.6532 26.9689 28.6521C25.5744 28.6251 24.1286 28.597 22.7007 28.3621L22.6982 28.3617C22.3862 28.3087 22.1239 28.2242 21.9181 28.0634C21.7013 27.894 21.607 27.6854 21.5466 27.5404L21.5366 27.5164L21.5292 27.4915C21.4935 27.3722 21.4859 27.2395 21.5231 27.1057C21.5595 26.9741 21.6306 26.8725 21.7045 26.7985C21.8409 26.6619 22.0133 26.5927 22.1325 26.5546C22.3802 26.4754 22.6698 26.4496 22.8187 26.4375C23.2676 26.3962 23.5275 26.4144 23.8577 26.438C24.6241 26.4893 25.3861 26.5417 26.1547 26.5946C26.2079 26.5982 26.2611 26.6019 26.3143 26.6055C21.2778 24.2043 16.4773 21.3745 12.3077 17.5222C7.96169 13.5076 4.20576 9.0052 1.53129 3.65248L1.53127 3.65249L1.52899 3.6478L1.5094 3.60758C1.32594 3.2309 1.11181 2.79125 0.992031 2.3247C0.990165 2.31792 0.987843 2.30983 0.985182 2.30056C0.96012 2.21328 0.904934 2.0211 0.916621 1.82238C0.932677 1.54937 1.06105 1.29594 1.31824 1.09408L1.34469 1.07332L1.37368 1.05629C1.4917 0.986953 1.63314 0.944466 1.78929 0.95393C1.94062 0.963102 2.06768 1.01872 2.16618 1.08233C2.34667 1.19888 2.49127 1.38215 2.60816 1.55265C2.77767 1.79283 2.95768 2.05809 3.11483 2.33864L3.11638 2.34145C5.51596 6.69088 8.52014 10.5846 12.0092 14.1314L11.6656 14.4694L12.0092 14.1314C16.3991 18.5941 21.6387 21.8661 27.1684 24.7864C27.6316 25.0281 28.0982 25.2525 28.5843 25.483Z" fill="#EE8133" stroke="#EE8133"/>
</svg>
