<?xml version="1.0" encoding="utf-8"?>
<!-- Generator: Adobe Illustrator 27.8.1, SVG Export Plug-In . SVG Version: 6.00 Build 0)  -->
<svg version="1.1" id="Layer_1" xmlns="http://www.w3.org/2000/svg" xmlns:xlink="http://www.w3.org/1999/xlink" x="0px" y="0px"
	 viewBox="0 0 332.2 393.7" style="enable-background:new 0 0 332.2 393.7;" xml:space="preserve">
<style type="text/css">
	.st0{display:none;}
	.st1{display:inline;fill:#FFFFFF;}
	.st2{fill:#D7F0F9;}
	.st3{fill:#008AAB;}
	.st4{fill:#FFFFFF;}
	.st5{fill:#15314E;}
	.st6{fill:#05556D;}
	.st7{fill:#F98D3D;}
	.st8{fill:#ED701B;}
	.st9{fill:#FF9F50;}
	.st10{fill:none;}
	.st11{fill:#EF810A;}
	.st12{fill:#EFAA3A;}
	.st13{opacity:0.29;fill:#F98D2B;enable-background:new    ;}
	.st14{fill:#F77E2D;}
	.st15{opacity:0.55;fill:url(#SVGID_1_);enable-background:new    ;}
	.st16{fill:#FFFFD7;}
</style>
<g id="BACKGROUND" class="st0">
	<rect x="-83.2" y="0" class="st1" width="500" height="500"/>
</g>
<g id="OBJECTS">
	<g>
		<g>
			<path class="st2" d="M68.3,206.7c3.5,0,6.5-2.5,7-6c0.1-0.6,0.1-1.3,0.1-1.9c0-7.7-6.2-14-14-14c-0.3,0-0.6,0-0.9,0
				c-0.6-7.6-7-13.6-14.8-13.6c-8.2,0-14.8,6.6-14.8,14.8c0,0.4,0,0.7,0,1.1c-2.3-1.3-5-2-7.9-1.9c-7.4,0.5-13.5,6.4-14,13.8
				c0,0.1,0,0.1,0,0.2c-0.2,4,3,7.4,7.1,7.4h52.2V206.7z"/>
			<path class="st2" d="M309,185.4c11,0,11.6-16.6,0.6-17.1c-0.3,0-0.6,0-0.9,0c-2,0-3.9,0.3-5.6,0.9c-1.5-9-9.3-15.9-18.7-15.9
				c-9.6,0-17.6,7.2-18.8,16.5c-2.3-1.1-4.8-1.7-7.5-1.7c-1.5,0-3,0.2-4.4,0.6c-9.7,2.5-7.6,16.8,2.3,16.8h53V185.4z"/>
			<g>
				<rect x="94.6" y="0" class="st3" width="2.2" height="163.8"/>
				<rect x="255.5" y="0" class="st3" width="2.2" height="189"/>
				<g>
					<path class="st2" d="M257.6,177.9l-167-19.4c-7.1-0.8-13.6,4.3-14.4,11.4L63.7,276.6c-0.8,7.1,4.3,13.6,11.4,14.4L242,310.5
						c7.1,0.8,13.6-4.3,14.4-11.4L269,192.4C269.8,185.2,264.7,178.8,257.6,177.9z"/>
					<path class="st3" d="M267.7,202.9l1.2-10.6c0.8-7.1-4.3-13.6-11.4-14.4L90.6,158.5c-7.1-0.8-13.6,4.3-14.4,11.4L75,180.5
						L267.7,202.9z"/>
					<g>
						<path class="st3" d="M102,245.1l21.2-37.3c1.4-2.4,4-3.7,6.7-3.4l0,0c3.8,0.4,6.4,3.8,6,7.6l-4.4,37.7h0.2
							c2.6,0.3,4.5,2.7,4.2,5.3l0,0c-0.3,2.6-2.7,4.5-5.3,4.2h-0.2l-0.8,6.9c-0.3,2.8-2.9,4.8-5.7,4.5l0,0c-2.8-0.3-4.8-2.9-4.5-5.7
							l0.8-6.9l-15.2-1.8c-2.6-0.3-4.5-2.7-4.2-5.3l0.4-3.5C101.3,246.6,101.6,245.8,102,245.1z M121.4,247.9l2.7-23.4
							c0-0.2-0.2-0.2-0.3-0.1l-12.5,22.1c-0.2,0.4,0,0.9,0.5,0.9l8.9,1C121,248.5,121.3,248.2,121.4,247.9z"/>
						<path class="st3" d="M195.4,256l21.2-37.3c1.4-2.4,4-3.7,6.7-3.4l0,0c3.8,0.4,6.4,3.8,6,7.6l-4.4,37.7h0.2
							c2.6,0.3,4.5,2.7,4.2,5.3l0,0c-0.3,2.6-2.7,4.5-5.3,4.2h-0.2L223,277c-0.3,2.8-2.9,4.8-5.7,4.5l0,0c-2.8-0.3-4.8-2.9-4.5-5.7
							l0.8-6.9l-15.2-1.8c-2.6-0.3-4.5-2.7-4.2-5.3l0.4-3.5C194.7,257.5,194.9,256.7,195.4,256z M214.8,258.8l2.7-23.4
							c0-0.2-0.2-0.2-0.3-0.1l-12.5,22.1c-0.2,0.4,0,0.9,0.5,0.9l8.9,1C214.4,259.4,214.7,259.1,214.8,258.8z"/>
						<path class="st3" d="M153.4,223.1c1.2-10.5,7.5-15.9,17.6-14.7c10.2,1.2,15,7.9,13.8,18.4l-4,34.2
							c-1.2,10.5-7.5,15.9-17.6,14.7c-10.2-1.2-15-7.9-13.8-18.4L153.4,223.1z M159.6,259.3c-0.5,4.7,1.3,6.7,4.6,7.1
							s5.6-1.2,6.1-5.9l4.2-35.6c0.5-4.7-1.3-6.7-4.6-7.1c-3.3-0.4-5.6,1.2-6.1,5.9L159.6,259.3z"/>
					</g>
					<g>
						<path class="st4" d="M94.6,173.2c-0.2,1.9-2,3.3-3.9,3.1s-3.3-2-3.1-3.9c0.2-1.9,2-3.3,3.9-3.1
							C93.5,169.6,94.9,171.3,94.6,173.2z"/>
						<path class="st4" d="M111.4,175.2c-0.2,1.9-2,3.3-3.9,3.1s-3.3-2-3.1-3.9c0.2-1.9,2-3.3,3.9-3.1
							C110.2,171.5,111.6,173.2,111.4,175.2z"/>
						<path class="st4" d="M128.7,177.2c-0.2,1.9-2,3.3-3.9,3.1s-3.3-2-3.1-3.9c0.2-1.9,2-3.3,3.9-3.1
							C127.6,173.5,129,175.3,128.7,177.2z"/>
					</g>
				</g>
			</g>
			<g>
				<path class="st5" d="M33.7,277.4c0,0-2.8,12.3-2.3,24.8c0.4,11.2-0.9,85-0.9,85h9c0,0,12.8-57.8,13.3-62.3
					c0.5-4.6,6.9-50.2,6.9-50.2L33.7,277.4z"/>
				<path class="st3" d="M39.7,274.1c0,0,2.1,15.8,5.6,27s20.8,86.2,20.8,86.2h9c0,0-1.7-57.8-2.3-62.3c-0.6-4.6-5.2-50.2-5.2-50.2
					L39.7,274.1z"/>
				<path class="st3" d="M66.4,387.2v6.3h17.1c1,0,1.4-1.3,0.5-1.8c-2.5-1.7-6.5-4-10.3-4.5H66.4z"/>
				<path class="st3" d="M30.9,387.2v6.3H48c1,0,1.4-1.3,0.5-1.8c-2.5-1.7-6.5-4-10.3-4.5H30.9z"/>
				<g>
					<path class="st5" d="M61.9,200.8c0,0,5.9-9-0.9-9.8c-5.2-0.7-7.3,0.9-7.3,0.9s-6-0.7-9.3,2.2c-2.2,1.9-10.5,17,2.8,22.5
						s10.5-8.5,10.5-8.5L61.9,200.8z"/>
					<path class="st6" d="M61,190.9c-5.2-0.7-7.3,0.9-7.3,0.9s-6-0.7-9.3,2.2c-2.2,1.9-10.5,17,2.8,22.5c6.3,2.6,9,0.8,10-1.7
						c-12.6,3.6-14-11.7-11.9-16c2.1-4.4,7.2-2.4,7.2-2.4c2-5,8.5-4.5,11.1-4.1C63.2,191.6,62.3,191.1,61,190.9z"/>
					<path class="st7" d="M53.6,205.1c0,0-1.7-1.7-3.1,0c-1.3,1.7-0.4,5.7,1.7,5.9c0,0-0.7,5.7-5,5.5v4.6h10.3v-3.5
						c0,0,6.3-2.6,6.1-7.9c-0.2-5.2-1.7-9-1.7-9S58.4,204.7,53.6,205.1z"/>
					<path class="st8" d="M55.1,219.1c1,0.4,0.8,1.1,0.9,2h1.5v-3.5c0,0-2.5,0.8-6.1-1.3C51.4,216.3,53.5,218.4,55.1,219.1z"/>
				</g>
				<path class="st9" d="M57.2,196.8c0,0-5.3-2.1-5.9-0.5c-0.4,1,0.6,1.9,2,2.8l-1.3,0.2c-0.3,0-0.4,0.4-0.2,0.6
					c0.3,0.3,1.3,0.5,3.3,0.5L57.2,196.8z"/>
				<g>
					<polygon class="st10" points="25.6,254.5 32.7,277.5 32.6,276.3 32.7,277.5 35.1,244 					"/>
					<path class="st11" d="M95.2,210.1c-10.1-7.5-37.9-13.5-37.9-13.5l-2.3,4.2c0,0,25.2,9.7,23.5,11.2c-1,0.9-13.3,6.5-17.4,8.4
						c-0.9,0.4-1.9,0.6-2.9,0.6l-12.7-0.1c0,0-9.2-1.1-16.4,7.2c-6.5,7.4-17.4,24.7-17.4,24.7L30.2,280l2,3l0,0v0.3
						c0,0,0.7,0.1,1.8,0.2c5.9,0.6,25,2.1,35.1-0.1l0.3-0.1L69,238.5c16.1-12.8,23.8-22.6,26.6-25.7C96.2,212,96.1,210.8,95.2,210.1
						z M33.1,271l-1.8-3.9l-5.7-12.6l9.5-10.7l-1.7,23.4L33.1,271z"/>
				</g>
				<polygon class="st12" points="31.3,267 33.1,271 32.3,282.9 32.2,282.9 30.2,279.9 				"/>
				<path class="st13" d="M64.7,236.9c-1.7,1.2-1.3,12.3-1.7,19.2c-0.7,11.6-1.4,21.6-0.9,28c2.6-0.2,5-0.5,7.1-0.9l0.3-0.1
					L69,238.5c16.1-12.8,23.8-22.6,26.6-25.7c0.7-0.8,0.6-2.1-0.3-2.7C95.2,210.1,82.5,224,64.7,236.9z"/>
				<path class="st5" d="M72.8,324.9c-0.4-3.3-2.9-28-4.3-41.4l-6.5,0.7c0,0,9.4,77.6,10.1,103h3C75.1,387.2,73.5,329.4,72.8,324.9z
					"/>
			</g>
			<g>
				<rect x="96.9" y="322.7" class="st11" width="146.9" height="29.9"/>
				<rect x="96.9" y="322.7" class="st13" width="146.9" height="7.2"/>
				<polygon class="st14" points="109.7,322.7 123.1,322.7 119.5,330 106.1,330 				"/>
				<polygon class="st14" points="139.9,322.7 153.3,322.7 149.7,330 136.3,330 				"/>
				<polygon class="st14" points="170.1,322.7 183.5,322.7 179.9,330 166.5,330 				"/>
				<polygon class="st14" points="200.3,322.7 213.7,322.7 210.1,330 196.7,330 				"/>
				<polygon class="st14" points="243.8,322.7 243.8,322.9 240.3,330 226.9,330 230.5,322.7 				"/>
				<rect x="115.2" y="352.6" class="st3" width="10.4" height="40.8"/>
				<polyline class="st5" points="125.6,352.6 123.2,352.6 123.2,393.4 125.6,393.4 				"/>
				<rect x="216" y="352.6" class="st3" width="10.4" height="40.8"/>
				<rect x="223.2" y="352.6" class="st5" width="3.1" height="40.8"/>
				<rect x="115.2" y="318.1" class="st3" width="10.4" height="4.6"/>
				<rect x="123.2" y="318.1" class="st5" width="2.4" height="4.6"/>
				<rect x="216" y="318.1" class="st3" width="10.4" height="4.6"/>
				<rect x="223.2" y="318.1" class="st5" width="3.1" height="4.6"/>
				<rect x="115.2" y="322.1" class="st5" width="10.4" height="0.6"/>
				<rect x="216" y="322.1" class="st5" width="10.4" height="0.6"/>
				<g>
					<g>
						<polygon class="st3" points="123.1,322.7 108.3,352.6 96.9,352.6 96.9,348.5 109.7,322.7 						"/>
						<polygon class="st3" points="139.9,322.7 125.1,352.6 138.5,352.6 153.3,322.7 						"/>
						<polygon class="st3" points="183.5,322.7 168.7,352.6 155.3,352.6 170.1,322.7 						"/>
						<polygon class="st3" points="213.7,322.7 198.9,352.6 185.5,352.6 200.3,322.7 						"/>
						<polygon class="st3" points="230.5,322.7 215.7,352.6 229.1,352.6 243.8,322.9 						"/>
					</g>
				</g>
				<g>
					<g>
						<polygon class="st5" points="123.1,322.7 119.5,330 106.1,330 109.7,322.7 						"/>
						<polygon class="st5" points="153.3,322.7 149.7,330 136.3,330 139.9,322.7 						"/>
						<polygon class="st5" points="183.5,322.7 179.9,330 166.5,330 170.1,322.7 						"/>
						<polygon class="st5" points="213.7,322.7 210.1,330 196.7,330 200.3,322.7 						"/>
						<polygon class="st5" points="243.8,322.9 240.3,330 226.9,330 230.5,322.7 						"/>
					</g>
				</g>
				
					<linearGradient id="SVGID_1_" gradientUnits="userSpaceOnUse" x1="171.1" y1="32.5473" x2="171.1" y2="56.6016" gradientTransform="matrix(1 0 0 -1 0 393.8898)">
					<stop  offset="0" style="stop-color:#FFFFFF"/>
					<stop  offset="1" style="stop-color:#FFFFFF;stop-opacity:0"/>
				</linearGradient>
				<rect x="101" y="335.7" class="st15" width="140.2" height="14.9"/>
				
					<ellipse transform="matrix(0.9664 -0.2571 0.2571 0.9664 -76.071 41.3443)" class="st11" cx="120.1" cy="311.6" rx="9.2" ry="9.2"/>
				<g>
					<g>
						<path class="st16" d="M124.3,311.6c0-2.3-1.9-4.2-4.2-4.2c-2.3,0-4.2,1.9-4.2,4.2c0,2.3,1.9,4.2,4.2,4.2
							C122.4,315.8,124.3,313.9,124.3,311.6z"/>
					</g>
				</g>
				
					<ellipse transform="matrix(0.987 -0.1606 0.1606 0.987 -47.1743 39.5515)" class="st11" cx="221.1" cy="311.6" rx="9.2" ry="9.2"/>
				<g>
					<g>
						<path class="st16" d="M225.3,311.6c0-2.3-1.9-4.2-4.2-4.2s-4.2,1.9-4.2,4.2c0,2.3,1.9,4.2,4.2,4.2
							C223.4,315.8,225.3,313.9,225.3,311.6z"/>
					</g>
				</g>
			</g>
			<g>
				<path class="st11" d="M292.8,390.5H246l7.2-17.3l0,0l2.9-7l0.8-1.9l1.3-3.1l0.3-0.6l2.9-7l0.5-1.3l5.1-12.4c0.9-2.2,4.1-2.2,5,0
					l5.1,12.4l0.5,1.3l2.9,7l0.3,0.6l1.3,3.1l0.8,1.9l2.9,7l0,0L292.8,390.5z"/>
				<polygon class="st13" points="249.1,383.1 246,390.5 292.8,390.5 289.7,383.1 				"/>
				<rect x="242.3" y="386.1" class="st3" width="53.6" height="7.6"/>
				<rect x="284.3" y="386.1" class="st5" width="11.6" height="7.6"/>
				<g>
					<path class="st13" d="M290.9,386.1h-6.6l-5.3-12.9l0,0l-2.9-7l-0.8-1.9l-1.3-3.1l-0.3-0.6l-2.9-7l-0.5-1.3l-4.3-10.4l0.8-2
						c0.9-2.2,4.1-2.2,5,0l5.1,12.4l0.5,1.3l2.9,7l0.3,0.6l1.3,3.1l0.8,1.9l2.9,7l0,0L290.9,386.1z"/>
					<g>
						<polygon class="st3" points="280.4,360.5 258.4,360.5 261.3,353.5 277.5,353.5 						"/>
						<polygon class="st3" points="285.6,373.2 285.6,373.2 253.2,373.2 253.2,373.2 256,366.2 282.7,366.2 						"/>
						<polygon class="st5" points="280.4,360.5 273.8,360.5 270.9,353.5 277.5,353.5 						"/>
						<polygon class="st5" points="285.6,373.2 285.6,373.2 279,373.2 279,373.2 276.1,366.2 282.7,366.2 						"/>
					</g>
				</g>
			</g>
			<path class="st2" d="M198.5,144.7c11,0,11.6-16.6,0.6-17.1c-0.3,0-0.6,0-0.9,0c-2,0-3.9,0.3-5.6,0.9c-1.5-9-9.3-15.8-18.7-15.8
				c-9.6,0-17.5,7.2-18.8,16.4c-2.3-1.1-4.8-1.7-7.5-1.7c-1.5,0-3,0.2-4.4,0.6c-9.6,2.5-7.6,16.8,2.3,16.8L198.5,144.7L198.5,144.7z
				"/>
			<path class="st2" d="M276.8,62.5c7.2,4.7,11.9,12.9,11.9,22.1c0,14.6-11.8,26.5-26.5,26.5c-0.1,0-0.1,0-0.2,0
				c4.2,2.7,9.1,4.3,14.5,4.3c14.6,0,26.5-11.8,26.5-26.5C303,74.4,291.3,62.6,276.8,62.5z"/>
		</g>
	</g>
</g>
<g id="DESIGNED_BY_FREEPIK">
</g>
</svg>
